<?xml version="1.0" encoding="UTF-8" standalone="no"?>
<!-- Generator: IcoMoon.io -->

<svg
   xmlns:dc="http://purl.org/dc/elements/1.1/"
   xmlns:cc="http://creativecommons.org/ns#"
   xmlns:rdf="http://www.w3.org/1999/02/22-rdf-syntax-ns#"
   xmlns:svg="http://www.w3.org/2000/svg"
   xmlns="http://www.w3.org/2000/svg"
   xmlns:sodipodi="http://sodipodi.sourceforge.net/DTD/sodipodi-0.dtd"
   xmlns:inkscape="http://www.inkscape.org/namespaces/inkscape"
   width="32"
   height="32"
   viewBox="0 0 32 32"
   fill="#000000"
   version="1.1"
   id="svg6"
   sodipodi:docname="arrow.svg"
   inkscape:version="0.92.1 r15371">
  <metadata
     id="metadata12">
    <rdf:RDF>
      <cc:Work
         rdf:about="">
        <dc:format>image/svg+xml</dc:format>
        <dc:type
           rdf:resource="http://purl.org/dc/dcmitype/StillImage" />
        <dc:title />
      </cc:Work>
    </rdf:RDF>
  </metadata>
  <defs
     id="defs10" />
  <sodipodi:namedview
     pagecolor="#ffffff"
     bordercolor="#666666"
     borderopacity="1"
     objecttolerance="10"
     gridtolerance="10"
     guidetolerance="10"
     inkscape:pageopacity="0"
     inkscape:pageshadow="2"
     inkscape:window-width="1920"
     inkscape:window-height="1016"
     id="namedview8"
     showgrid="false"
     inkscape:zoom="7.375"
     inkscape:cx="-7.3898309"
     inkscape:cy="15.457627"
     inkscape:window-x="0"
     inkscape:window-y="27"
     inkscape:window-maximized="1"
     inkscape:current-layer="svg6" />
  <g
     id="g4"
     transform="translate(-0.999,-7.5e-4)">
    <path
       d="m 17,28 c 0.552,0 1,-0.448 1,-1 V 7.414 l 4.292,4.292 c 0.39,0.39 1.024,0.39 1.414,0 0.39,-0.39 0.39,-1.024 0,-1.414 l -6,-6 C 17.614,4.2 17.504,4.128 17.382,4.078 c -0.244,-0.102 -0.52,-0.102 -0.764,0 -0.12,0.048 -0.226,0.12 -0.318,0.21 -0.002,0.002 -0.004,0.002 -0.008,0.004 l -6,6 c -0.39,0.39 -0.39,1.024 0,1.414 0.39,0.39 1.024,0.39 1.414,0 L 16,7.414 V 27 c 0,0.552 0.448,1 1,1 z"
       id="path2"
       inkscape:connector-curvature="0" />
  </g>
</svg>
