<?xml version="1.0" encoding="UTF-8" standalone="no"?>
<!-- Generator: IcoMoon.io -->
<svg xmlns:rdf="http://www.w3.org/1999/02/22-rdf-syntax-ns#" xmlns="http://www.w3.org/2000/svg" fill="#000000" height="32" width="32" version="1.1" xmlns:cc="http://creativecommons.org/ns#" xmlns:dc="http://purl.org/dc/elements/1.1/" viewBox="0 0 32 32">
 <metadata>
  <rdf:RDF>
   <cc:Work rdf:about="">
    <dc:format>image/svg+xml</dc:format>
    <dc:type rdf:resource="http://purl.org/dc/dcmitype/StillImage"/>
    <dc:title/>
   </cc:Work>
  </rdf:RDF>
 </metadata>
 <g stroke-width=".73399">
  <path d="m17.038 31.57 14.532-14.532c0.57299-0.57299 0.57299-1.503 0-2.076l-14.532-14.532c-0.57299-0.57299-1.503-0.57299-2.076 0l-14.532 14.532c-0.57299 0.57299-0.57299 1.503 0 2.076l14.532 14.532c0.57298 0.57299 1.503 0.57299 2.076 0zm-4.671-22.317c-0.28649 0.28649-0.75152 0.28649-1.038 0-0.28649-0.28649-0.28649-0.75152 0-1.038l4.1521-4.1521c0.06747-0.067471 0.14844-0.12145 0.23874-0.15778 0.08823-0.036331 0.18062-0.053977 0.273-0.055015 0.0021 0 0.0042-0.00208 0.0073-0.00104 0.0042 0 0.0062 0.00208 0.01038 0.00208 0.09238 0.00104 0.18477 0.018684 0.27092 0.055015 0.08823 0.036331 0.1692 0.088231 0.23563 0.15466 0.001 0.00104 0.001 0.00104 0.0021 0.00208l4.1521 4.1521c0.28649 0.28649 0.28649 0.75152 0 1.038-0.28649 0.28649-0.75153 0.28649-1.038 0l-2.899-2.8992v6.5313c0 0.40483-0.32905 0.73388-0.73388 0.73388s-0.73388-0.32905-0.73388-0.73388v-6.5313zm3.114 18.684-4.152-4.152c-0.28649-0.28649-0.28649-0.75152 0-1.038 0.28649-0.28649 0.75152-0.28649 1.038 0l2.8992 2.8992-0.001-6.5322c0-0.40483 0.32905-0.73388 0.73388-0.73388s0.73388 0.32905 0.73388 0.73388l0.001 6.5322 2.8992-2.8992c0.28649-0.28649 0.75152-0.28649 1.038 0 0.28649 0.28649 0.28649 0.75152 0 1.038l-4.1521 4.1521c-0.06747 0.06747-0.14844 0.12145-0.23874 0.15778-0.17958 0.0737-0.38199 0.07474-0.56053 0-0.09031-0.03633-0.17127-0.09031-0.23874-0.15778z"/>
  <path d="m17.038 31.57 14.532-14.532c0.57299-0.57299 0.57299-1.503 0-2.076l-14.532-14.532c-0.57299-0.57299-1.503-0.57299-2.076 0l-14.532 14.532c-0.57299 0.57299-0.57299 1.503 0 2.076l14.532 14.532c0.57298 0.57299 1.503 0.57299 2.076 0zm-4.671-22.317c-0.28649 0.28649-0.75152 0.28649-1.038 0-0.28649-0.28649-0.28649-0.75152 0-1.038l4.1521-4.1521c0.06747-0.067471 0.14844-0.12145 0.23874-0.15778 0.08823-0.036331 0.18062-0.053977 0.273-0.055015 0.0021 0 0.0042-0.00208 0.0073-0.00104 0.0042 0 0.0062 0.00208 0.01038 0.00208 0.09238 0.00104 0.18477 0.018684 0.27092 0.055015 0.08823 0.036331 0.1692 0.088231 0.23563 0.15466 0.001 0.00104 0.001 0.00104 0.0021 0.00208l4.1521 4.1521c0.28649 0.28649 0.28649 0.75152 0 1.038-0.28649 0.28649-0.75153 0.28649-1.038 0l-2.8993-2.8992v1.6463 4.8849c0 0.40483-0.32905 0.73388-0.73388 0.73388s-0.73388-0.32905-0.73388-0.73388v-6.5313zm3.114 18.684-4.152-4.152c-0.28649-0.28649-0.28649-0.75152 0-1.038 0.28649-0.28649 0.75152-0.28649 1.038 0l2.8992 2.8992-0.001-6.5322c0-0.40483 0.32905-0.73388 0.73388-0.73388s0.73388 0.32905 0.73388 0.73388l0.001 6.5322 2.8992-2.8992c0.28649-0.28649 0.75152-0.28649 1.038 0 0.28649 0.28649 0.28649 0.75152 0 1.038l-4.1521 4.1521c-0.06747 0.06747-0.14844 0.12145-0.23874 0.15778-0.17958 0.0737-0.38199 0.07474-0.56053 0-0.09031-0.03633-0.17127-0.09031-0.23874-0.15778z"/>
 </g>
</svg>
