<?xml version="1.0" encoding="UTF-8" standalone="no"?>
<!-- Generator: IcoMoon.io -->

<svg
   xmlns:dc="http://purl.org/dc/elements/1.1/"
   xmlns:cc="http://creativecommons.org/ns#"
   xmlns:rdf="http://www.w3.org/1999/02/22-rdf-syntax-ns#"
   xmlns:svg="http://www.w3.org/2000/svg"
   xmlns="http://www.w3.org/2000/svg"
   xmlns:sodipodi="http://sodipodi.sourceforge.net/DTD/sodipodi-0.dtd"
   xmlns:inkscape="http://www.inkscape.org/namespaces/inkscape"
   width="32"
   height="32"
   viewBox="0 0 32 32"
   fill="#000000"
   version="1.1"
   id="svg6"
   sodipodi:docname="arrow_expand_alt3.svg"
   inkscape:version="0.92.1 r15371">
  <metadata
     id="metadata12">
    <rdf:RDF>
      <cc:Work
         rdf:about="">
        <dc:format>image/svg+xml</dc:format>
        <dc:type
           rdf:resource="http://purl.org/dc/dcmitype/StillImage" />
      </cc:Work>
    </rdf:RDF>
  </metadata>
  <defs
     id="defs10" />
  <sodipodi:namedview
     pagecolor="#ffffff"
     bordercolor="#666666"
     borderopacity="1"
     objecttolerance="10"
     gridtolerance="10"
     guidetolerance="10"
     inkscape:pageopacity="0"
     inkscape:pageshadow="2"
     inkscape:window-width="1920"
     inkscape:window-height="1016"
     id="namedview8"
     showgrid="false"
     inkscape:zoom="7.375"
     inkscape:cx="-8.8512109"
     inkscape:cy="-15.481029"
     inkscape:window-x="0"
     inkscape:window-y="27"
     inkscape:window-maximized="1"
     inkscape:current-layer="g4" />
  <g
     id="g4">
    <path
       d="M 17.038017,31.570261 31.570261,17.038018 c 0.572986,-0.572986 0.572986,-1.50305 0,-2.076036 L 17.038017,0.42973892 c -0.572986,-0.5729856 -1.503049,-0.5729856 -2.076035,0 L 0.42973921,14.961982 c -0.57298599,0.572986 -0.57298599,1.50305 0,2.076036 L 14.961983,31.570261 c 0.572985,0.572986 1.503049,0.572986 2.076034,0 z M 12.36694,9.2528868 c -0.286493,0.2864928 -0.751525,0.2864928 -1.038018,0 -0.286493,-0.2864928 -0.286493,-0.7515246 0,-1.0380174 l 4.15207,-4.1520697 c 0.06747,-0.067471 0.148436,-0.1214479 0.238743,-0.1577785 0.08823,-0.036331 0.180615,-0.053977 0.273,-0.055015 0.0021,0 0.0042,-0.00208 0.0073,-0.00104 0.0042,0 0.0062,0.00208 0.01038,0.00208 0.09238,0.00104 0.184767,0.018684 0.270922,0.055015 0.08823,0.036331 0.169197,0.088231 0.23563,0.1546646 10e-4,0.00104 10e-4,0.00104 0.0021,0.00208 l 4.152092,4.1520701 c 0.286491,0.2864928 0.286491,0.7515246 0,1.0380174 -0.286493,0.2864928 -0.751526,0.2864928 -1.038019,0 L 16.733878,6.3537043 V 12.88491 c 0,0.404826 -0.329052,0.733878 -0.733878,0.733878 -0.404826,0 -0.733878,-0.329052 -0.733878,-0.733878 V 6.3537042 Z M 15.480991,27.9372 11.328922,23.785131 c -0.286493,-0.286493 -0.286493,-0.751525 0,-1.038018 0.286493,-0.286493 0.751525,-0.286493 1.038018,0 l 2.899182,2.899183 -10e-4,-6.532243 c 0,-0.404828 0.329051,-0.733879 0.733879,-0.733879 0.404826,0 0.733878,0.329051 0.733878,0.733879 l 0.001,6.532243 2.899182,-2.899183 c 0.286493,-0.286493 0.751525,-0.286493 1.038018,0 0.286492,0.286493 0.286492,0.751525 0,1.038018 l -4.15207,4.152069 c -0.06747,0.06747 -0.148437,0.121448 -0.238744,0.157779 -0.179577,0.0737 -0.38199,0.07474 -0.56053,0 -0.09031,-0.03633 -0.171272,-0.09031 -0.238744,-0.157779 z"
       id="path2"
       inkscape:connector-curvature="0"
       style="stroke-width:0.73398912" />
    <path
       id="path23"
       d="M 17.038017,31.570261 31.570261,17.038018 c 0.572986,-0.572986 0.572986,-1.50305 0,-2.076036 L 17.038017,0.42973892 c -0.572986,-0.5729856 -1.503049,-0.5729856 -2.076035,0 L 0.42973921,14.961982 c -0.57298599,0.572986 -0.57298599,1.50305 0,2.076036 L 14.961983,31.570261 c 0.572985,0.572986 1.503049,0.572986 2.076034,0 z M 12.36694,9.2528868 c -0.286493,0.2864928 -0.751525,0.2864928 -1.038018,0 -0.286493,-0.2864928 -0.286493,-0.7515246 0,-1.0380174 l 4.15207,-4.1520697 c 0.06747,-0.067471 0.148436,-0.1214479 0.238743,-0.1577785 0.08823,-0.036331 0.180615,-0.053977 0.273,-0.055015 0.0021,0 0.0042,-0.00208 0.0073,-0.00104 0.0042,0 0.0062,0.00208 0.01038,0.00208 0.09238,0.00104 0.184767,0.018684 0.270922,0.055015 0.08823,0.036331 0.169197,0.088231 0.23563,0.1546646 10e-4,0.00104 10e-4,0.00104 0.0021,0.00208 l 4.152092,4.1520701 c 0.286491,0.2864928 0.286491,0.7515246 0,1.0380174 -0.286493,0.2864928 -0.751526,0.2864928 -1.038019,0 L 16.733878,6.3537043 V 12.88491 c 0,0.404826 -0.329052,0.733878 -0.733878,0.733878 -0.404826,0 -0.733878,-0.329052 -0.733878,-0.733878 V 6.3537042 Z M 15.480991,27.9372 11.328922,23.785131 c -0.286493,-0.286493 -0.286493,-0.751525 0,-1.038018 0.286493,-0.286493 0.751525,-0.286493 1.038018,0 l 2.899182,2.899183 -10e-4,-6.532243 c 0,-0.404828 0.329051,-0.733879 0.733879,-0.733879 0.404826,0 0.733878,0.329051 0.733878,0.733879 l 0.001,6.532243 2.899182,-2.899183 c 0.286493,-0.286493 0.751525,-0.286493 1.038018,0 0.286492,0.286493 0.286492,0.751525 0,1.038018 l -4.15207,4.152069 c -0.06747,0.06747 -0.148437,0.121448 -0.238744,0.157779 -0.179577,0.0737 -0.38199,0.07474 -0.56053,0 -0.09031,-0.03633 -0.171272,-0.09031 -0.238744,-0.157779 z"
       inkscape:connector-curvature="0"
       style="stroke-width:0.73398912" />
  </g>
</svg>
