<?xml version="1.0" encoding="UTF-8" standalone="no"?>
<!-- Generator: IcoMoon.io -->

<svg
   xmlns:dc="http://purl.org/dc/elements/1.1/"
   xmlns:cc="http://creativecommons.org/ns#"
   xmlns:rdf="http://www.w3.org/1999/02/22-rdf-syntax-ns#"
   xmlns:svg="http://www.w3.org/2000/svg"
   xmlns="http://www.w3.org/2000/svg"
   xmlns:sodipodi="http://sodipodi.sourceforge.net/DTD/sodipodi-0.dtd"
   xmlns:inkscape="http://www.inkscape.org/namespaces/inkscape"
   width="32"
   height="32"
   viewBox="0 0 32 32"
   fill="#000000"
   version="1.1"
   id="svg6"
   sodipodi:docname="arrow_expand_alt3.svg"
   inkscape:version="0.92.1 r15371">
  <metadata
     id="metadata12">
    <rdf:RDF>
      <cc:Work
         rdf:about="">
        <dc:format>image/svg+xml</dc:format>
        <dc:type
           rdf:resource="http://purl.org/dc/dcmitype/StillImage" />
      </cc:Work>
    </rdf:RDF>
  </metadata>
  <defs
     id="defs10" />
  <sodipodi:namedview
     pagecolor="#ffffff"
     bordercolor="#666666"
     borderopacity="1"
     objecttolerance="10"
     gridtolerance="10"
     guidetolerance="10"
     inkscape:pageopacity="0"
     inkscape:pageshadow="2"
     inkscape:window-width="1680"
     inkscape:window-height="1013"
     id="namedview8"
     showgrid="false"
     inkscape:zoom="7.375"
     inkscape:cx="14.809806"
     inkscape:cy="-14.938656"
     inkscape:window-x="1920"
     inkscape:window-y="30"
     inkscape:window-maximized="1"
     inkscape:current-layer="g4" />
  <g
     id="g4">
    <path
       d="M 31.570261,14.961983 17.038018,0.4297392 c -0.572986,-0.5729856 -1.50305,-0.5729856 -2.076036,0 L 0.42973905,14.961983 c -0.5729856,0.572986 -0.5729856,1.503049 0,2.076035 L 14.961982,31.570261 c 0.572986,0.572986 1.50305,0.572986 2.076036,0 L 31.570261,17.038017 c 0.572986,-0.572985 0.572986,-1.503049 0,-2.076034 z M 9.2528869,19.63306 c 0.2864928,0.286493 0.2864928,0.751525 0,1.038018 -0.2864928,0.286493 -0.7515246,0.286493 -1.0380174,0 l -4.1520697,-4.15207 c -0.067471,-0.06747 -0.1214479,-0.148436 -0.1577785,-0.238743 -0.036331,-0.08823 -0.053977,-0.180615 -0.055015,-0.273 0,-0.0021 -0.00208,-0.0042 -0.00104,-0.0073 0,-0.0042 0.00208,-0.0062 0.00208,-0.01038 0.00104,-0.09238 0.018684,-0.184767 0.055015,-0.270922 0.036331,-0.08823 0.088231,-0.169197 0.1546646,-0.23563 0.00104,-0.001 0.00104,-0.001 0.00208,-0.0021 L 8.214876,11.328841 c 0.2864928,-0.286491 0.7515246,-0.286491 1.0380174,0 0.2864928,0.286493 0.2864928,0.751526 0,1.038019 l -2.899189,2.899262 H 12.88491 c 0.404826,0 0.733878,0.329052 0.733878,0.733878 0,0.404826 -0.329052,0.733878 -0.733878,0.733878 H 6.3537043 Z M 27.9372,16.519009 23.785131,20.671078 c -0.286493,0.286493 -0.751525,0.286493 -1.038018,0 -0.286493,-0.286493 -0.286493,-0.751525 0,-1.038018 l 2.899183,-2.899182 -6.532243,10e-4 c -0.404828,0 -0.733879,-0.329051 -0.733879,-0.733879 0,-0.404826 0.329051,-0.733878 0.733879,-0.733878 l 6.532243,-10e-4 -2.899183,-2.899182 c -0.286493,-0.286493 -0.286493,-0.751525 0,-1.038018 0.286493,-0.286492 0.751525,-0.286492 1.038018,0 l 4.152069,4.15207 c 0.06747,0.06747 0.121448,0.148437 0.157779,0.238744 0.0737,0.179577 0.07474,0.38199 0,0.56053 -0.03633,0.09031 -0.09031,0.171272 -0.157779,0.238744 z"
       id="path2"
       inkscape:connector-curvature="0"
       style="stroke-width:0.73398912" />
    <path
       id="path23"
       d="M 31.570261,14.961983 17.038018,0.4297392 c -0.572986,-0.5729856 -1.50305,-0.5729856 -2.076036,0 L 0.42973905,14.961983 c -0.5729856,0.572986 -0.5729856,1.503049 0,2.076035 L 14.961982,31.570261 c 0.572986,0.572986 1.50305,0.572986 2.076036,0 L 31.570261,17.038017 c 0.572986,-0.572985 0.572986,-1.503049 0,-2.076034 z M 9.2528869,19.63306 c 0.2864928,0.286493 0.2864928,0.751525 0,1.038018 -0.2864928,0.286493 -0.7515246,0.286493 -1.0380174,0 l -4.1520697,-4.15207 c -0.067471,-0.06747 -0.1214479,-0.148436 -0.1577785,-0.238743 -0.036331,-0.08823 -0.053977,-0.180615 -0.055015,-0.273 0,-0.0021 -0.00208,-0.0042 -0.00104,-0.0073 0,-0.0042 0.00208,-0.0062 0.00208,-0.01038 0.00104,-0.09238 0.018684,-0.184767 0.055015,-0.270922 0.036331,-0.08823 0.088231,-0.169197 0.1546646,-0.23563 0.00104,-0.001 0.00104,-0.001 0.00208,-0.0021 L 8.214876,11.328841 c 0.2864928,-0.286491 0.7515246,-0.286491 1.0380174,0 0.2864928,0.286493 0.2864928,0.751526 0,1.038019 l -2.899189,2.899262 H 12.88491 c 0.404826,0 0.733878,0.329052 0.733878,0.733878 0,0.404826 -0.329052,0.733878 -0.733878,0.733878 H 6.3537043 Z M 27.9372,16.519009 23.785131,20.671078 c -0.286493,0.286493 -0.751525,0.286493 -1.038018,0 -0.286493,-0.286493 -0.286493,-0.751525 0,-1.038018 l 2.899183,-2.899182 -6.532243,10e-4 c -0.404828,0 -0.733879,-0.329051 -0.733879,-0.733879 0,-0.404826 0.329051,-0.733878 0.733879,-0.733878 l 6.532243,-10e-4 -2.899183,-2.899182 c -0.286493,-0.286493 -0.286493,-0.751525 0,-1.038018 0.286493,-0.286492 0.751525,-0.286492 1.038018,0 l 4.152069,4.15207 c 0.06747,0.06747 0.121448,0.148437 0.157779,0.238744 0.0737,0.179577 0.07474,0.38199 0,0.56053 -0.03633,0.09031 -0.09031,0.171272 -0.157779,0.238744 z"
       inkscape:connector-curvature="0"
       style="stroke-width:0.73398912" />
  </g>
</svg>
