<?xml version="1.0" encoding="UTF-8" standalone="no"?>
<!-- Generator: IcoMoon.io -->

<svg
   xmlns:dc="http://purl.org/dc/elements/1.1/"
   xmlns:cc="http://creativecommons.org/ns#"
   xmlns:rdf="http://www.w3.org/1999/02/22-rdf-syntax-ns#"
   xmlns:svg="http://www.w3.org/2000/svg"
   xmlns="http://www.w3.org/2000/svg"
   xmlns:sodipodi="http://sodipodi.sourceforge.net/DTD/sodipodi-0.dtd"
   xmlns:inkscape="http://www.inkscape.org/namespaces/inkscape"
   width="32"
   height="32"
   viewBox="0 0 32 32"
   fill="#000000"
   version="1.1"
   id="svg6"
   sodipodi:docname="arrow_carrot-2_alt2.svg"
   inkscape:version="0.92.1 r15371">
  <metadata
     id="metadata12">
    <rdf:RDF>
      <cc:Work
         rdf:about="">
        <dc:format>image/svg+xml</dc:format>
        <dc:type
           rdf:resource="http://purl.org/dc/dcmitype/StillImage" />
      </cc:Work>
    </rdf:RDF>
  </metadata>
  <defs
     id="defs10" />
  <sodipodi:namedview
     pagecolor="#ffffff"
     bordercolor="#666666"
     borderopacity="1"
     objecttolerance="10"
     gridtolerance="10"
     guidetolerance="10"
     inkscape:pageopacity="0"
     inkscape:pageshadow="2"
     inkscape:window-width="1920"
     inkscape:window-height="1016"
     id="namedview8"
     showgrid="false"
     inkscape:zoom="7.375"
     inkscape:cx="16.271186"
     inkscape:cy="16"
     inkscape:window-x="0"
     inkscape:window-y="27"
     inkscape:window-maximized="1"
     inkscape:current-layer="svg6" />
  <g
     id="g4"
     transform="matrix(0,1.0666667,-1.0666667,0,34.133334,-2.1333339)">
    <path
       d="m 11.334,16.962 5.3,-5.992 c 0.392,-0.392 0.392,-1.03 0,-1.422 -0.392,-0.392 -1.03,-0.392 -1.422,0 l -5.918,6.69 c -0.2,0.2 -0.296,0.462 -0.292,0.724 -0.002,0.262 0.092,0.526 0.292,0.726 l 5.918,6.69 c 0.392,0.392 1.03,0.392 1.422,0 0.392,-0.392 0.392,-1.03 0,-1.422 z M 23.808,9.548 c -0.392,-0.392 -1.03,-0.392 -1.422,0 l -5.92,6.69 c -0.2,0.2 -0.296,0.462 -0.292,0.724 -0.002,0.262 0.092,0.526 0.292,0.726 l 5.918,6.69 c 0.392,0.392 1.03,0.392 1.422,0 0.392,-0.392 0.392,-1.03 0,-1.422 l -5.3,-5.992 5.3,-5.992 C 24.2,10.578 24.2,9.94 23.808,9.548 Z M 17,2 C 8.716,2 2,8.716 2,17 2,25.284 8.716,32 17,32 25.284,32 32,25.284 32,17 32,8.716 25.284,2 17,2 Z m 0,28 C 9.832,30 4,24.168 4,17 4,9.832 9.832,4 17,4 c 7.168,0 13,5.832 13,13 0,7.168 -5.832,13 -13,13 z"
       id="path2"
       inkscape:connector-curvature="0" />
  </g>
</svg>
