<?xml version="1.0" encoding="UTF-8" standalone="no"?>
<svg xmlns:rdf="http://www.w3.org/1999/02/22-rdf-syntax-ns#" xmlns="http://www.w3.org/2000/svg" xml:space="preserve" height="30" width="30" version="1.1" y="0px" x="0px" xmlns:cc="http://creativecommons.org/ns#" xmlns:dc="http://purl.org/dc/elements/1.1/" viewBox="0 0 30 30"><metadata><rdf:RDF><cc:Work rdf:about=""><dc:format>image/svg+xml</dc:format><dc:type rdf:resource="http://purl.org/dc/dcmitype/StillImage"/><dc:title/></cc:Work></rdf:RDF></metadata><style type="text/css">
	.st0{fill:#FECF56;}
	.st1{fill:#7D3253;}
</style><g transform="translate(2.0462 -.23038)"><g fill="#fecf56"><path d="m21.5 10.2c-0.1-0.1-0.1-0.1-0.2-0.1 0.5 1 0.9 1.9 1.2 2.4 0.4-0.2 0.9-0.2 1.3-0.2-0.9-0.8-1.7-1.5-2.3-2.1" class="st0"/><path d="m21.5 10.2c-0.1-0.1-0.1-0.1-0.2-0.1 0.5 1 0.9 1.9 1.2 2.4 0.4-0.2 0.9-0.2 1.3-0.2-0.9-0.8-1.7-1.5-2.3-2.1" class="st0"/><path d="m15.1 1c0.1-0.2 0-0.5-0.2-0.5-0.2-0.1-0.5 0-0.6 0.2l-0.2 0.6c0.3 0.1 0.6 0.2 0.8 0.3z" class="st0"/><path d="m18.8 8.2c-0.2-0.2-0.3-0.2-0.4-0.3-0.7-0.4-1.6-0.8-2.4-1.2 0.4 1.9 0.2 4.2 0.1 5.2 0.3 0 0.7-0.1 1.1-0.1 1.1 0 2.5 0.1 4.3 0.6-0.5-1.2-1.2-2.5-1.8-3.6-0.4-0.2-0.7-0.4-0.9-0.6" class="st0"/><path d="m18.8 8.2c-0.2-0.2-0.3-0.2-0.4-0.3-0.7-0.4-1.6-0.8-2.4-1.2 0.4 1.9 0.2 4.2 0.1 5.2 0.3 0 0.7-0.1 1.1-0.1 1.1 0 2.5 0.1 4.3 0.6-0.5-1.2-1.2-2.5-1.8-3.6-0.4-0.2-0.7-0.4-0.9-0.6" class="st0"/><path d="m10.2 4.7c-1.2-0.4-2.2-0.6-2.8-0.8l-5 1.4c1.5 0.9 3.5 2.7 4.4 3.4 0.5-0.8 1.8-2.8 3.4-4" class="st0"/><path d="m10.2 4.7c-1.2-0.4-2.2-0.6-2.8-0.8l-5 1.4c1.5 0.9 3.5 2.7 4.4 3.4 0.5-0.8 1.8-2.8 3.4-4" class="st0"/><path d="m4.5 3.5c-0.2 0-0.6-0.1-0.9-0.1-0.8 0-1.9-0.1-3.1-0.1 0.5 0.4 0.8 0.8 0.9 1.2 0 0 0 0.1 0.1 0.1l1.2-0.3 2.6-0.7c-0.2 0-0.5-0.1-0.8-0.1" class="st0"/><path d="m4.5 3.5c-0.2 0-0.6-0.1-0.9-0.1-0.8 0-1.9-0.1-3.1-0.1 0.5 0.4 0.8 0.8 0.9 1.2 0 0 0 0.1 0.1 0.1l1.2-0.3 2.6-0.7c-0.2 0-0.5-0.1-0.8-0.1" class="st0"/><path d="m6.5 23.5c-0.1 0.2 0 0.5 0.3 0.5h0.1c0.2 0 0.3-0.1 0.4-0.3l4.3-13.1c-0.3-0.1-0.5-0.2-0.8-0.3z" class="st0"/><path d="m15 6.3c-0.1 0-0.1 0 0 0-0.6-0.2-1.1-0.4-1.7-0.6-0.3-0.1-0.5-0.2-0.8-0.3-0.1 0-0.3-0.1-0.4-0.1-0.2-0.1-0.4-0.1-0.6-0.2-0.1 0-0.2-0.1-0.3-0.1-0.7 0.5-1.4 1.1-2 1.8-0.7 0.8-1.2 1.6-1.6 2.2h0.1c1.2 0.2 2.3 0.5 3.3 0.9 0.3 0.1 0.5 0.2 0.8 0.3 1.5 0.6 2.7 1.2 3.4 1.6 0.2-1.5 0.3-3.9-0.2-5.5" class="st0"/><path d="m15 6.3c-0.1 0-0.1 0 0 0-0.6-0.2-1.1-0.4-1.7-0.6-0.3-0.1-0.5-0.2-0.8-0.3-0.1 0-0.3-0.1-0.4-0.1-0.2-0.1-0.4-0.1-0.6-0.2-0.1 0-0.2-0.1-0.3-0.1-0.7 0.5-1.4 1.1-2 1.8-0.7 0.8-1.2 1.6-1.6 2.2h0.1c1.2 0.2 2.3 0.5 3.3 0.9 0.3 0.1 0.5 0.2 0.8 0.3 1.5 0.6 2.7 1.2 3.4 1.6 0.2-1.5 0.3-3.9-0.2-5.5" class="st0"/><path d="m8.1 1.1c-4-0.1-6.6 0.7-8.1 1.4h-0.1 1c1.7 0 3.1 0.1 4.1 0.2h0.3c0.4 0 0.7 0.1 0.9 0.1h0.3l0.1-0.1 0.1-0.1 0.1-0.1c0.2 0 0.3-0.1 0.5-0.3 0.3-0.3 0.8-0.7 1.3-1 0.1-0.1 0.2-0.1 0.2-0.1h-0.7" class="st0"/><path d="m8.1 1.1c-4-0.1-6.6 0.7-8.1 1.4h-0.1 1c1.7 0 3.1 0.1 4.1 0.2h0.3c0.4 0 0.7 0.1 0.9 0.1h0.3l0.1-0.1 0.1-0.1 0.1-0.1c0.2 0 0.3-0.1 0.5-0.3 0.3-0.3 0.8-0.7 1.3-1 0.1-0.1 0.2-0.1 0.2-0.1h-0.7" class="st0"/><path d="m23.4 9.9c-0.8-1.4-2.2-3.2-4.5-5.2-0.1-0.1-0.2-0.2-0.3-0.2 0 0.1 0.1 0.2 0.1 0.3 0.1 0.3 0.1 0.6 0.2 0.9v1.7c0.1 0 0.1 0.1 0.3 0.2 0.1 0 0.1 0.1 0.2 0.1s0.1 0.1 0.2 0.1c0.2 0.1 0.4 0.3 0.6 0.5 0.1 0 0.1 0.1 0.2 0.1 0.4 0.3 0.9 0.7 1.4 1.1 0.6 0.5 1.2 1 1.8 1.6l0.4 0.4c0-0.5-0.3-1-0.6-1.6" class="st0"/><path d="m23.4 9.9c-0.8-1.4-2.2-3.2-4.5-5.2-0.1-0.1-0.2-0.2-0.3-0.2 0 0.1 0.1 0.2 0.1 0.3 0.1 0.3 0.1 0.6 0.2 0.9v1.7c0.1 0 0.1 0.1 0.3 0.2 0.1 0 0.1 0.1 0.2 0.1s0.1 0.1 0.2 0.1c0.2 0.1 0.4 0.3 0.6 0.5 0.1 0 0.1 0.1 0.2 0.1 0.4 0.3 0.9 0.7 1.4 1.1 0.6 0.5 1.2 1 1.8 1.6l0.4 0.4c0-0.5-0.3-1-0.6-1.6" class="st0"/><path d="m18.1 6.4v-0.2c0-0.2-0.1-0.5-0.1-0.8 0-0.1-0.1-0.3-0.1-0.4s-0.1-0.2-0.1-0.2c-0.2-0.6-0.5-1.1-1.1-1.7-0.7-0.4-1.3-0.7-2.1-0.9-0.1 0-0.2-0.1-0.3-0.1-0.2-0.1-0.3-0.1-0.5-0.2-0.7-0.2-1.6-0.4-2.7-0.5-0.8 0-1.5 0.2-2.1 0.6l-0.1 0.1c-0.1 0-0.1 0.1-0.2 0.1-0.1 0.1-0.3 0.2-0.4 0.3l-0.1 0.1c-0.2 0.2-0.4 0.3-0.5 0.4 0 0-0.1 0-0.1 0.1 0.2 0 0.4 0.1 0.6 0.1 0.3 0.1 0.5 0.2 0.8 0.3 0.6 0.2 1.3 0.4 2 0.6 0.2 0.1 0.4 0.1 0.6 0.2 0.1 0 0.2 0.1 0.3 0.1h0.4c0.1 0 0.3 0.1 0.4 0.1 0.3 0.1 0.5 0.2 0.8 0.3s0.5 0.2 0.8 0.3c0.1 0 0.1 0 0.2 0.1 0.2 0.1 0.8 0.3 1 0.4h0.1c0.9 0.4 1.7 0.7 2.5 1.2v-0.4" class="st0"/><path d="m18.1 6.4v-0.2c0-0.2-0.1-0.5-0.1-0.8 0-0.1-0.1-0.3-0.1-0.4s-0.1-0.2-0.1-0.2c-0.2-0.6-0.5-1.1-1.1-1.7-0.7-0.4-1.3-0.7-2.1-0.9-0.1 0-0.2-0.1-0.3-0.1-0.2-0.1-0.3-0.1-0.5-0.2-0.7-0.2-1.6-0.4-2.7-0.5-0.8 0-1.5 0.2-2.1 0.6l-0.1 0.1c-0.1 0-0.1 0.1-0.2 0.1-0.1 0.1-0.3 0.2-0.4 0.3l-0.1 0.1c-0.2 0.2-0.4 0.3-0.5 0.4 0 0-0.1 0-0.1 0.1 0.2 0 0.4 0.1 0.6 0.1 0.3 0.1 0.5 0.2 0.8 0.3 0.6 0.2 1.3 0.4 2 0.6 0.2 0.1 0.4 0.1 0.6 0.2 0.1 0 0.2 0.1 0.3 0.1h0.4c0.1 0 0.3 0.1 0.4 0.1 0.3 0.1 0.5 0.2 0.8 0.3s0.5 0.2 0.8 0.3c0.1 0 0.1 0 0.2 0.1 0.2 0.1 0.8 0.3 1 0.4h0.1c0.9 0.4 1.7 0.7 2.5 1.2v-0.4" class="st0"/></g><g fill="#7d3253"><path d="m16.3 20c-0.2-0.6-0.9-2.1-1.4-3l0.8 3.1h0.2c0.1-0.1 0.3-0.1 0.4-0.1" class="st1"/><path d="m17.4 22.2c-0.2-0.4-0.3-0.4-3 0.4-0.9 0.3-2.1 0.6-3.6 1.1 0.3 0.1 0.9 0.3 2.4 0.1 2.8-0.3 3.4-0.7 3.6-0.2s0.7 3.7 0.6 4.9c0 0.8 0.2 1.3 0.4 1.5 0-0.2 0-0.5 0.1-0.9 0.1-1.6 0.5-4.6-0.5-6.9" class="st1"/><path d="m22.3 20.6c0.2 0.1 0.4 0.2 0.7 0.3 0.7-0.5 1.8-1.3 2.3-1.8-1.2 0.3-2.8 0.8-3.3 1.3 0.1 0.1 0.2 0.2 0.3 0.2" class="st1"/><path d="m25.1 25.5c-0.9-0.9-2.5-2.3-4.2-2.1 0 0.1 0 0.1-0.1 0.2 0 0.2-0.1 0.5-0.2 0.8 1.3 0 3.3 0.6 4.5 1.1" class="st1"/><path d="m23.5 22.1c-0.3-0.3-0.7-0.5-1.1-0.7-0.1-0.1-0.3-0.1-0.4-0.2-0.4-0.2-0.7-0.3-0.7-0.6v-0.4c0.4-0.6 2.2-1.2 3.3-1.5 0.2-0.1 0.5-0.1 0.6-0.2 0-0.1 0-0.2-0.2-0.3-2.2-0.9-4.4 0.4-5.2 0.9-0.3 0.2-0.6 0.4-0.8 0.1-0.3-0.5-1.5-2.2-3.4-3.2-0.2-0.1-0.5-0.1-0.7 0 0.1 0.1 0.2 0.3 0.4 0.6 0.6 1.1 1.8 3.3 1.6 3.7-0.1 0.1-0.2 0.2-0.5 0.3-0.1 0-0.3 0.1-0.4 0.1-0.7 0.2-1.7 0.4-2.9 0.9-1 0.4-1.6 0.9-1.9 1.3 0.3-0.1 0.5-0.2 0.8-0.2 0.9-0.2 1.6-0.5 2.2-0.7 1.5-0.5 2.4-0.7 2.9-0.7s0.7 0.2 0.9 0.7c1 2.4 0.6 5.5 0.4 7.2 0 0.2-0.1 0.5-0.1 0.7 0.9-0.5 1.3-3.1 1.6-4.8 0-0.1 0-0.2 0.1-0.4 0.2-1.4 0.3-1.8 0.7-1.8h0.2c0.7-0.1 1.3 0.1 1.9 0.3 1.2 0.5 2.1 1.4 2.8 2 0.2 0.1 0.3 0.3 0.4 0.4v-0.1c0.1-0.7-0.8-1.8-2.5-3.4" class="st1"/></g></g></svg>
