<?xml version="1.0" encoding="UTF-8" standalone="no"?>
<svg xmlns:rdf="http://www.w3.org/1999/02/22-rdf-syntax-ns#" xmlns="http://www.w3.org/2000/svg" xml:space="preserve" height="100" width="100" version="1.1" y="0px" x="0px" xmlns:cc="http://creativecommons.org/ns#" xmlns:dc="http://purl.org/dc/elements/1.1/" viewBox="0 0 100 100"><metadata><rdf:RDF><cc:Work rdf:about=""><dc:format>image/svg+xml</dc:format><dc:type rdf:resource="http://purl.org/dc/dcmitype/StillImage"/><dc:title/></cc:Work></rdf:RDF></metadata><style type="text/css">
	.st0{fill:#FECF56;}
	.st1{fill:#7D3253;}
</style><path d="m89.627 42.739c-0.41494-0.41494-0.41494-0.41494-0.82988-0.41494 2.0747 4.1494 3.7345 7.8839 4.9793 9.9586 1.6598-0.82988 3.7345-0.82988 5.3942-0.82988-3.7345-3.3195-7.054-6.2241-9.5436-8.7137" class="st0" style="stroke-width:0;fill:#000000"/><path d="m63.071 4.5644c0.41494-0.82988 0-2.0747-0.82988-2.0747-0.82988-0.41494-2.0747 0-2.4896 0.82988l-0.82988 2.4896c1.2448 0.41494 2.4896 0.82988 3.3195 1.2448z" class="st0" style="stroke-width:0;fill:#000000"/><path d="m78.424 34.44c-0.83-0.83-1.245-0.83-1.66-1.245-2.905-1.659-6.639-3.319-9.959-4.979 1.6598 7.8839 0.82988 17.427 0.41494 21.577 1.2448 0 2.9046-0.41494 4.5643-0.41494 4.5643 0 10.374 0.41494 17.842 2.4896-2.0747-4.9793-4.9793-10.374-7.4689-14.938-1.6598-0.82988-2.9046-1.6598-3.7345-2.4896" class="st0" style="stroke-width:0;fill:#000000"/><path d="m42.739 19.917c-4.979-1.66-9.129-2.489-11.619-3.319l-20.747 5.8092c6.2241 3.7345 14.523 11.203 18.257 14.108 2.0747-3.3195 7.4689-11.618 14.108-16.598" class="st0" style="stroke-width:0;fill:#000000"/><path d="m19.087 14.938c-0.82988 0-2.4896-0.41494-3.7345-0.41494-3.3195 0-7.8839-0.41494-12.863-0.41494 2.0747 1.6598 3.3195 3.3195 3.7345 4.9793 0 0 0 0.41494 0.41494 0.41494l4.9793-1.2448 10.788-2.9046c-0.82988 0-2.0747-0.41494-3.3195-0.41494" class="st0" style="stroke-width:0;fill:#000000"/><path d="m27.386 97.926c-0.41494 0.82988 0 2.0747 1.2448 2.0747h0.41494c0.82988 0 1.2448-0.41494 1.6598-1.2448l17.842-54.356c-1.2448-0.41494-2.0747-0.82988-3.3195-1.2448z" class="st0" style="stroke-width:0;fill:#000000"/><path d="m62.656 26.556c-0.41494 0-0.41494 0 0 0-2.4896-0.82988-4.5643-1.6598-7.054-2.4896-1.2448-0.41494-2.0747-0.82988-3.3195-1.2448-0.41494 0-1.2448-0.41494-1.6598-0.41494-0.82988-0.41494-1.6598-0.41494-2.4896-0.82988-0.41494 0-0.82988-0.41494-1.2448-0.41494-2.9046 2.0747-5.8092 4.5643-8.2988 7.4689-2.9046 3.3195-4.9793 6.639-6.639 9.1287h0.41494c4.9793 0.82988 9.5436 2.0747 13.693 3.7345 1.2448 0.41494 2.0747 0.82988 3.3195 1.2448 6.2241 2.4896 11.203 4.9793 14.108 6.639 0.82988-6.2241 1.2448-16.183-0.82988-22.822" class="st0" style="stroke-width:0;fill:#000000"/><path d="m34.025 4.9793c-16.598-0.4149-27.386 2.9046-33.61 5.8087h-0.41504 4.1494c7.054 0 12.863 0.41494 17.013 0.82988h1.2448c1.6598 0 2.9046 0.41494 3.7345 0.41494h1.244l0.41494-0.41494 0.41494-0.41494 0.41494-0.41494c0.82988 0 1.2448-0.41494 2.0747-1.2448 1.2448-1.2448 3.3195-2.9046 5.3942-4.1494 0.41494-0.41494 0.82988-0.41494 0.82988-0.41494h-2.9046" class="st0" style="stroke-width:0;fill:#000000"/><path d="m97.511 41.494c-3.32-5.809-9.129-13.278-18.672-21.577-0.415-0.415-0.83-0.83-1.245-0.83 0 0.41494 0.41494 0.82988 0.41494 1.2448 0.41494 1.2448 0.41494 2.4896 0.82988 3.7345v7.054c0.41494 0 0.41494 0.41494 1.2448 0.82988 0.41494 0 0.41494 0.41494 0.82988 0.41494s0.41494 0.41494 0.82988 0.41494c0.82988 0.41494 1.6598 1.2448 2.4896 2.0747 0.41494 0 0.41494 0.41494 0.82988 0.41494 1.6598 1.2448 3.7345 2.9046 5.8092 4.5643 2.4896 2.0747 4.9793 4.1494 7.4689 6.639l1.6598 1.6598c0-2.0747-1.2448-4.1494-2.4896-6.639" class="st0" style="stroke-width:0;fill:#000000"/><path d="m75.519 26.971v-0.82988c0-0.82988-0.41494-2.0747-0.41494-3.3195 0-0.41494-0.41494-1.2448-0.41494-1.6598 0-0.41494-0.41494-0.82988-0.41494-0.82988-0.82988-2.4896-2.0747-4.5643-4.5643-7.054-2.9046-1.6598-5.3942-2.9046-8.7137-3.7345-0.41494 0-0.82988-0.41494-1.2448-0.41494-0.83-0.4142-1.245-0.4142-2.074-0.8291-2.905-0.8299-6.639-1.6598-11.204-2.0747-3.3195 0-6.2241 0.82988-8.7137 2.4896l-0.41494 0.41494c-0.41494 0-0.41494 0.41494-0.82988 0.41494-0.41494 0.41494-1.2448 0.82988-1.6598 1.2448l-0.41494 0.41494c-0.82988 0.82988-1.6598 1.2448-2.0747 1.6598 0 0-0.41494 0-0.41494 0.41494 0.82988 0 1.6598 0.41494 2.4896 0.41494 1.2448 0.41494 2.0747 0.82988 3.3195 1.2448 2.4896 0.82988 5.3942 1.6598 8.2988 2.4896 0.82988 0.41494 1.6598 0.41494 2.4896 0.82988 0.41494 0 0.82988 0.41494 1.2448 0.41494h1.6598c0.41494 0 1.2448 0.41494 1.6598 0.41494 1.2448 0.41494 2.0747 0.82988 3.3195 1.2448 1.2448 0.41494 2.0747 0.82988 3.3195 1.2448 0.41494 0 0.41494 0 0.82988 0.41494 0.82988 0.41494 3.3195 1.2448 4.1494 1.6598h0.41494c3.7345 1.6598 7.054 2.9046 10.374 4.9793v-1.6598" class="st0" style="stroke-width:0;fill:#000000"/></svg>
