<?xml version="1.0" encoding="UTF-8" standalone="no"?>
<svg xmlns:rdf="http://www.w3.org/1999/02/22-rdf-syntax-ns#" xmlns="http://www.w3.org/2000/svg" height="400" width="800" version="1.1" xmlns:cc="http://creativecommons.org/ns#" xmlns:dc="http://purl.org/dc/elements/1.1/" viewBox="0 0 800 399.99999">
 <metadata>
  <rdf:RDF>
   <cc:Work rdf:about="">
    <dc:format>image/svg+xml</dc:format>
    <dc:type rdf:resource="http://purl.org/dc/dcmitype/StillImage"/>
    <dc:title>jumplink_fehlerseite404</dc:title>
   </cc:Work>
  </rdf:RDF>
 </metadata>
 <defs>
  <style>.cls-1{fill:#d1b07a;}.cls-2{fill:#dabe92;}.cls-3{fill:#fff;}.cls-4{fill:#2d2d2b;}.cls-5{fill:#007cc3;}.cls-6{fill:#edd0ba;}.cls-7{fill:#f1f1f1;}.cls-8{fill:#333;}.cls-9{fill:#c52828;}.cls-10{fill:#d0b193;}.cls-11{fill:#451a12;}.cls-12{fill:#51362c;}.cls-13{fill:#66422e;}.cls-14{fill:#8d8d8d;}.cls-15{fill:#662b0d;}.cls-16{fill:#544740;}.cls-17{fill:#f3dece;}.cls-18{fill:#ffe7be;}.cls-19{fill:#5a3f35;}.cls-20{fill:#371f14;}.cls-21{fill:#41271d;}.cls-22{fill:#1d1d1b;}.cls-23{fill:#634631;}.cls-24,.cls-31{fill:none;stroke-linecap:round;stroke-linejoin:round;}.cls-24{stroke:#007cc3;stroke-width:0.71px;}.cls-25{fill:#6a3018;}.cls-26{fill:#484846;}.cls-27{fill:#b5f2f3;}.cls-28{fill:#3f3f3d;}.cls-29{fill:#0074b5;}.cls-30{fill:#f0d8c4;}.cls-31{stroke:#371f14;stroke-width:3.18px;}.cls-32{fill:#fffffb;}</style>
 </defs>
 <title>jumplink_fehlerseite404</title>
 <g id="object" transform="translate(-599.83 -85.18)">
  <g transform="translate(11.565032,4e-6)">
   <path d="m1297.1 310.38c-5.88-8-11.06-17.09-16.94-25.12-1.14 4.7-4.43 13.3-4.43 13.3-1.41 18.58 14.41 40.66 3.92 55.54 18-5.86 19.27-41.23 17.45-43.71" class="cls-1"/>
   <path d="m1288.6 343.83c3.15-7.67 4.06-12.32 4.53-21.16-2.85-7.79-7.23-14.92-10.55-22.53 0.57 7.72 6.23 14.63 5.66 22.35-1.35-5.74-7.14-16.07-7.14-16.07 8.25 18 7.49 37.41 7.49 37.41" class="cls-2"/>
   <path d="m1281.5 306.92a79.44 79.44 0 0 1 4.38 29.68" class="cls-2"/>
   <polygon points="721.07 295.44 729.92 310.64 718.15 329.48 712.12 298.4" class="cls-4"/>
   <path d="m907.39 329.1a12.22 12.22 0 0 0 -4.76 -3.43 9.66 9.66 0 0 0 -5.5 -0.58 5.84 5.84 0 0 0 -2.13 0.91 5.07 5.07 0 0 0 -1.46 1.38 6 6 0 0 0 -1.06 3.53c0 2.55 0.79 4.89 0.64 6.64s-0.67 2.58 0.2 3.52l0.11 0.14c0.07 0.1 0.18 0.2 0.32 0.41a17 17 0 0 1 1.25 1.88 44 44 0 0 1 3.24 8c1 3.25 1.82 6.71 2.36 9.35s0.84 4.44 0.84 4.44l18.18-3.2s-0.33-2-0.95-5-1.54-7-2.8-11.08a62 62 0 0 0 -4.73 -11.48 35.25 35.25 0 0 0 -2.51 -3.94c-0.33-0.48-0.68-0.87-0.87-1.12l-0.32-0.39" class="cls-5"/>
   <path d="m923.91 414.77-0.09-4.45a356.53 356.53 0 0 0 -3.73 -45.14l-0.52-3.08-18.18 3.2 0.47 2.79a339.57 339.57 0 0 1 3.51 42.71l0.09 4.28a9.33 9.33 0 0 0 9.27 9.07 9.14 9.14 0 0 0 9.18 -9.38" class="cls-6"/>
   <polygon points="900.5 360.63 918.57 356.87 918.83 358.11 900.73 361.73" class="cls-7"/>
   <path d="m899.37 324.61a107.78 107.78 0 0 0 -50.53 0 9.51 9.51 0 0 0 -6.92 8.9v64.33h64.38v-64.32a9.52 9.52 0 0 0 -6.92 -8.91" class="cls-5"/>
   <path d="m874.1 336.61c11.17 0 16.14-7.65 17.21-11.69l0.14-0.55-0.15-1.3-1.22-0.19 0.16 1.4-0.09 0.33c-1 3.74-5.61 10.81-16.06 10.81s-15.09-7.07-16.09-10.81l-0.09-0.33 0.16-1.4-1.22 0.19-0.15 1.29 0.14 0.54c1.06 4 6 11.7 17.21 11.7" class="cls-7"/>
   <path d="m841.92 397.85 0.31 78.16 26.18 4.27-0.07-63.36a4.76 4.76 0 0 1 4.76 -4.76h2a4.76 4.76 0 0 1 4.76 4.76v63.36l26.23-4.28 0.21-78.16z" class="cls-8"/>
   <polygon points="842.22 476.02 839.76 480.39 839.76 485.18 868.39 485.18 868.39 480.29" class="cls-9"/>
   <polygon points="906.09 476.02 879.92 480.29 879.92 485.18 908.55 485.18 908.55 480.39" class="cls-9"/>
   <path d="m887.48 316.19 1 7.24s-6.21 7.51-14.52 7.51-14.53-7.51-14.53-7.51l1-7.24z" class="cls-6"/>
   <path d="m887.47 319.78s-4.31 2.1-13.58 2.1-13.68-2.11-13.68-2.11a78.61 78.61 0 0 1 13.68 -1.54 76 76 0 0 1 13.58 1.56" class="cls-10"/>
   <path d="m837.46 275.25c0 6-3.83 10.87-8.56 10.87s-8.56-4.87-8.56-10.87 3.83-10.87 8.56-10.87 8.56 4.87 8.56 10.87" class="cls-6"/>
   <path d="m927.43 272.3c0 6-3.83 13.83-8.56 13.83s-8.56-4.87-8.56-10.87 3.83-10.87 8.56-10.87 8.56 1.91 8.56 7.91" class="cls-6"/>
   <rect class="cls-6" rx="37.41" ry="37.41" height="117.28" width="89.97" y="203.6" x="828.32"/>
   <path d="m855.74 277a1.81 1.81 0 0 1 -1.81 -1.81v-2a2.85 2.85 0 1 0 -5.7 0v2a1.81 1.81 0 0 1 -3.62 0v-2a6.47 6.47 0 1 1 12.94 0v2a1.81 1.81 0 0 1 -1.81 1.81" class="cls-11"/>
   <path d="m901.52 277a1.81 1.81 0 0 1 -1.81 -1.81v-2a2.85 2.85 0 1 0 -5.7 0v2a1.81 1.81 0 0 1 -3.62 0v-2a6.47 6.47 0 1 1 12.94 0v2a1.81 1.81 0 0 1 -1.81 1.81" class="cls-11"/>
   <path d="m874 312.5c-13.25 0-18.16-5.19-18.36-5.41a1.8116 1.8116 0 0 1 2.66 -2.46c0.1 0.1 4.3 4.25 15.7 4.25s15.66-4.21 15.7-4.25a1.8116 1.8116 0 0 1 2.66 2.46c-0.2 0.22-5.12 5.41-18.36 5.41" class="cls-12"/>
   <path d="m894 212.89a19.78 19.78 0 0 0 -6.38 1.63l-6.23 2.36c-1.91 0.73-3.94 1.46-6 1.11-0.91-0.16-1.77-0.54-2.68-0.7-1.81-0.32-3.64 0.24-5.47 0.4s-4-0.23-4.89-1.81a1.93 1.93 0 0 0 -0.41 -0.58c-0.48-0.38-1.16 0-1.74 0.15a3.66 3.66 0 0 1 -3.89 -1.1 3.75 3.75 0 0 1 -3.62 0.31c-1.15-0.53-4.79-3.18-4.92-4.44 0.32 0.05 3.46 1.38 3.63 1.11-3.63-1.28-5.36-5-5.75-7.49 0.35 0 2.13 1.54 2.47 1.55a14.44 14.44 0 0 1 -1.62 -12.2 4.49 4.49 0 0 0 0.13 3 7.13 7.13 0 0 1 2.22 -3.84l0.57 2a11.94 11.94 0 0 1 9.33 -10.71 6.17 6.17 0 0 0 -3.65 5.82 3.8 3.8 0 0 1 2.13 -2.08l0.23 1.82a8.33 8.33 0 0 0 4.35 -8.31 19.32 19.32 0 0 0 2.25 7.93 18.22 18.22 0 0 0 0 -3.57l1.06 2.11q0-1.4-0.08-2.79a20.09 20.09 0 0 0 8.07 5.57c-0.31-0.64-2.81-2.93-2.6-3.09 0.43 0.32 5 1.64 5.4 2 0.65-2.45 3-3.66 5.77-4-1.19 1.39-2.4 1.64-1.85 2.87a8.63 8.63 0 0 1 3.29 -1.83 5.65 5.65 0 0 1 0.18 2l2.46-2.16c-0.12 1.19-0.19 2.53 0.59 3.44 1 1.13 1.75 0.68 2.65-0.51s0.33-1.8 1-3.92a10.69 10.69 0 0 1 -0.13 6c0.53-0.43 2.06-0.85 2.59-1.28 0 1.4-0.73 2.78-0.29 4.11 0.26-0.39 2.16-2.9 2.42-3.29 0.28 0.67-1.09 3.47-0.82 4.14a13.93 13.93 0 0 1 4 -3.55 6.16 6.16 0 0 0 0.1 5.49l1.43-1.85q-0.09 1.32-0.18 2.63a1.59 1.59 0 0 1 1.4 -0.73 1.47 1.47 0 0 0 2.07 2c-0.43 0.21-0.56 0.75-0.64 1.22l-1.1 6.17 0.43-1.54c-0.5 1.94-0.86 4-2 5.64-2.69 3.7-4.72 2.76-5.27 2.78" class="cls-13"/>
   <path d="m916.77 264.48s-2.87 1-3.08 1-1-0.7-0.87-1.16a1.85 1.85 0 0 1 1.18 -1c0.23 0 2.76 0.87 2.76 0.87zm-7.55 9.44a17.64 17.64 0 0 1 -3.92 7.29c-3.29 3-7.76 3.08-11.13 3.08-8.52-0.38-10.25-3.29-12.31-6.32-2.49-3.92-2.36-8.85-2-12.14a8.22 8.22 0 0 1 4.68 -6.16 26.44 26.44 0 0 1 5.89 -1.25 49.91 49.91 0 0 1 13 0.76 8.16 8.16 0 0 1 4.75 2.56 9 9 0 0 1 1.52 3.73c0.33 1.35 0.08 5.5-0.51 8.45m-46.64 4c-2.07 3-3.8 5.94-12.31 6.32-3.37 0-7.84 0-11.13-3.08a17.64 17.64 0 0 1 -3.92 -7.29c-0.59-3-0.84-7.11-0.51-8.45a9 9 0 0 1 1.52 -3.73 8.16 8.16 0 0 1 4.75 -2.56 49.92 49.92 0 0 1 13 -0.76 26.43 26.43 0 0 1 5.89 1.25 8.22 8.22 0 0 1 4.68 6.16c0.38 3.29 0.5 8.22-2 12.14m-31.83-12.5c-0.21 0-3.08-1-3.08-1v-0.27s2.53-0.87 2.76-0.87a1.85 1.85 0 0 1 1.18 1c0.11 0.46-0.65 1.16-0.87 1.16m88.81-3.56c-0.06-0.56-2.08-1.13-2.08-1.13a44.84 44.84 0 0 1 -5.17 -1.66c-2.64-1-8-3-10.51-3.34a57.87 57.87 0 0 0 -11.81 -0.23c-3.37 0.45-6.75 1.18-7.87 1.8a24.43 24.43 0 0 0 -2.75 1.74c-0.51 0.39-1 0.79-1.46 0.73a5.68 5.68 0 0 1 -1.46 -0.73h-8.46a5.72 5.72 0 0 1 -1.46 0.73c-0.45 0.06-1-0.34-1.46-0.73a24.23 24.23 0 0 0 -2.75 -1.74c-1.12-0.62-4.5-1.35-7.87-1.8a57.87 57.87 0 0 0 -11.81 0.23c-2.47 0.34-7.87 2.31-10.51 3.34a45 45 0 0 1 -5.17 1.66s-2 0.56-2.08 1.13 0.45 5.23 0.45 5.23 2.13 0.56 3.37 1 1.8 1.23 2.7 3c0.9 2.19 3.37 8.32 4.95 10.63s5.12 3.77 9.73 4.83c8.49 0.67 11.52-1.24 14.28-2.7s4.39-4.95 5.34-6.63 2.58-8.38 2.7-8.94a2.28 2.28 0 0 0 -0.56 -1.6 3.22 3.22 0 0 1 -0.48 -2c0.11-0.64 0.45-1.35 1.85-1.83a9.47 9.47 0 0 1 6 0c1.41 0.48 1.74 1.18 1.85 1.83a3.24 3.24 0 0 1 -0.48 2 2.29 2.29 0 0 0 -0.56 1.6c0.11 0.56 1.75 7.25 2.7 8.94s2.58 5.17 5.34 6.63 5.79 3.37 14.28 2.7c4.61-1.07 8.15-2.53 9.72-4.83s4-8.43 4.95-10.63c0.9-1.74 1.46-2.53 2.7-3s3.37-1 3.37-1 0.51-4.66 0.45-5.23" class="cls-14"/>
   <path d="m692.12 324.34a107.93 107.93 0 0 0 -50.62 0 9.53 9.53 0 0 0 -6.94 8.92v64.44h64.49v-64.44a9.53 9.53 0 0 0 -6.93 -8.92" class="cls-4"/>
   <polygon points="653.45 314.02 680.17 314.02 681.17 322.37 666.81 331.45 652.46 322.37" class="cls-15"/>
   <path d="m672.23 369.62a1.59 1.59 0 1 1 -1.59 -1.59 1.59 1.59 0 0 1 1.59 1.59" class="cls-9"/>
   <path d="m672.23 377.21a1.59 1.59 0 1 1 -1.59 -1.59 1.59 1.59 0 0 1 1.59 1.59" class="cls-9"/>
   <path d="m672.23 384.81a1.59 1.59 0 1 1 -1.59 -1.59 1.59 1.59 0 0 1 1.59 1.59" class="cls-9"/>
   <path d="m666.81 392a0.55 0.55 0 0 1 -0.55 -0.55v-57a0.555 0.555 0 1 1 1.11 0v57a0.55 0.55 0 0 1 -0.55 0.55" class="cls-9"/>
   <path d="m705.58 476-6.52-66.26v-12h-64.49l0.31 78.3 26.22 4.28-0.1-63.5a4.76 4.76 0 0 1 4.8 -4.82h2.2a5.36 5.36 0 0 1 5.23 4.75l6.1 63.48z" class="cls-16"/>
   <polygon points="634.88 476 632.41 480.39 632.41 485.18 661.1 485.18 661.1 480.28" class="cls-5"/>
   <polygon points="705.58 476 679.36 480.28 679.36 485.18 708.04 485.18 708.04 480.39" class="cls-5"/>
   <path d="m680.28 318.76s-4.26 2.07-13.42 2.07-13.52-2.09-13.52-2.09a77.65 77.65 0 0 1 13.52 -1.52 75 75 0 0 1 13.42 1.54" class="cls-1"/>
   <path d="m678.66 206.23h-23.61c-32.19 0-32.66 59.89-32.66 59.89v16.14a37 37 0 0 0 37 37h15a37 37 0 0 0 37 -37v-16.08s-0.48-60-32.66-60" class="cls-6"/>
   <path d="m691.77 280a4.61 4.61 0 1 1 -9.21 0v-2a4.61 4.61 0 1 1 9.21 0z" class="cls-15"/>
   <path d="m632.88 285.7a8.46 8.46 0 1 1 -8.46 -8.46 8.46 8.46 0 0 1 8.46 8.46" class="cls-6"/>
   <path d="m715.73 285.7a8.46 8.46 0 1 1 -8.46 -8.46 8.46 8.46 0 0 1 8.46 8.46" class="cls-6"/>
   <path d="m650.71 280a4.61 4.61 0 1 1 -9.21 0v-2a4.61 4.61 0 1 1 9.21 0z" class="cls-15"/>
   <path d="m645.46 263.93a15.45 15.45 0 0 0 -15.55 15.35 15.16 15.16 0 0 0 0.38 3.37 8.34 8.34 0 0 1 0.43 1.52 15.52 15.52 0 1 0 14.75 -20.23m0.64 20.65a4.6 4.6 0 0 1 -4.6 -4.61v-2a4.61 4.61 0 1 1 9.21 0v2a4.61 4.61 0 0 1 -4.61 4.61" class="cls-17"/>
   <path d="m630.28 282.65a14.92 14.92 0 0 0 0.43 1.52 8.34 8.34 0 0 0 -0.43 -1.52" class="cls-18"/>
   <path d="m646.1 273.37a4.61 4.61 0 0 0 -4.6 4.61v2a4.61 4.61 0 1 0 9.21 0v-2a4.61 4.61 0 0 0 -4.61 -4.61" class="cls-19"/>
   <path d="m686.57 263.93a15.35 15.35 0 1 0 15.55 15.35 15.45 15.45 0 0 0 -15.55 -15.35m0.59 20.65a4.6 4.6 0 0 1 -4.6 -4.61v-2a4.61 4.61 0 1 1 9.21 0v2a4.61 4.61 0 0 1 -4.61 4.61" class="cls-17"/>
   <path d="m687.16 273.37a4.61 4.61 0 0 0 -4.6 4.61v2a4.61 4.61 0 1 0 9.21 0v-2a4.61 4.61 0 0 0 -4.61 -4.61" class="cls-19"/>
   <path d="m709.7 198.68a13.28 13.28 0 0 1 8.82 8 27.67 27.67 0 0 0 -8.82 -8m30 26.45c-8 2.73-14.74-3-14.74-3a35.76 35.76 0 0 0 -6.15 -15.13c-1.18-23.66-24.71-19.58-24.71-19.58-14.52-13.28-27-5.42-27-5.42-57-4.89-62.25 39.43-62.25 39.43-8.71 13.29-3.44 27.17-3.44 27.17-0.93 6.53 3.85 11.38 3.85 11.38 1.23 4.9 6.25 8.77 6.25 8.77a15.58 15.58 0 0 1 5 7.29 7 7 0 0 0 3.24 7.51c1 0.44 3.42 3.39 3.42 3.39-0.78-3.78 5.89-28.62 5.89-28.62 4.11-23.22 28.56-26.68 28.56-26.68a89.54 89.54 0 0 0 -6.62 14.69c8.41-12 13.72-13.8 13.72-13.8 7.64-6.65 14.68-4.65 14.68-4.65 7.41 5.17 16.88 2.33 16.88 2.33-5.25 4.45-14 3.66-14 3.66a23.31 23.31 0 0 0 17.72 4.19c1.27 7.54-7.91 14.43-7.91 14.43 11.64-3.23 13.41-12 13.41-12-0.21 6.95-7.42 11-7.42 11 4.24 1.6 5.57-0.17 5.57-0.17 6.29 10 5.08 26.38 5.08 26.38-1.57 8.46 1.31 4.91 1.31 4.91 1-2.45 9.62-11 9.62-11 14.2-14.39 9.61-40.57 9.61-40.57 8.43-0.85 10.46-6 10.46-6" class="cls-20"/>
   <path d="m709.7 198.68a13.23 13.23 0 0 1 8.78 7.9 27.57 27.57 0 0 0 -8.78 -7.9m30 26.45c-8 2.73-14.74-3-14.74-3a36.06 36.06 0 0 0 -6.16 -15.13c-1.15-23.67-24.71-19.59-24.71-19.59-14.54-13.27-27-5.42-27-5.42-57-4.89-62.25 39.43-62.25 39.43-0.31 0.47-0.63 1-0.9 1.43 4.45-2.7 9.62-6.42 10.24-9.29 1.08-5.09 11.14-16.57 20.16-15.79 0 0-11.32 7.51-13.6 19.38 0 0 17.22-16.31 34.07-14.44 0 0-15.19 4.22-22.64 14.8 0 0 10.57-7.71 16.84-4.83 0 0 14.63 8 24.67-3.71 0 0 4.29-10.82 17.25-5.8 0 0 4.64-6.31-9.3-14.6 0 0 10.42 3.3 14.59 14a33.53 33.53 0 0 0 -7.64 -11.85s7.85 4.9 9.33 11.73c0 0 2.1-4.46-3.29-11.7 0 0 10.51 10.93 4.13 20 0 0 3.95-2.43 4.47-8.67 0 0 8.51 13.93-9.34 24.8a21.34 21.34 0 0 0 9.47 -4.68 11.75 11.75 0 0 1 -1.87 -0.68 9.9 9.9 0 0 0 2.56 0 12.11 12.11 0 0 0 3.4 -8.06s2.66 7.23-3.4 8.06c-0.22 0.23-0.44 0.46-0.69 0.67 2.41 0.66 6.46 1 7.62-3.51 0 0 5.25 5.59-2.34 14.25 0 0 8.27 0.59 11-5.09 0 0 5.07 1 9.74 22.42a66.61 66.61 0 0 0 -0.05 -19.09c8.43-0.85 10.46-6 10.46-6" class="cls-21"/>
   <path d="m686.62 293.93a15 15 0 1 1 14.92 -15.06 15 15 0 0 1 -14.92 15.06m-41 0.2a15 15 0 1 1 14.92 -15.06 15 15 0 0 1 -14.92 15.06m59.71-18.64c-1.19 0-2.58 0.34-2.83-0.56s-1.5-5.65-4.26-7.89a18.09 18.09 0 0 0 -10.07 -4.59c-3 0.05-7.83 0.24-11.51 3.5a19 19 0 0 0 -6.15 9.13h-9.01a19 19 0 0 0 -6.24 -9.08c-3.7-3.22-8.54-3.36-11.54-3.39a18.1 18.1 0 0 0 -10 4.68c-2.74 2.27-3.95 7-4.19 7.93s-7.26 0.62-8.45 0.59-1.39 0.38-1.39 0.38v4s7.1 0.1 8.14 0.43 1.21 0.6 1.26 1.25a36.14 36.14 0 0 0 5.18 9.21c5.49 5.5 13.75 5.19 18.28 3.19s5.53-4.41 7.2-6.76 2.18-7.15 2.34-8.17a1.75 1.75 0 0 1 1.22 -1.32h5.41a1.76 1.76 0 0 1 1.24 1.31c0.17 1 0.72 5.82 2.41 8.15s2.72 4.74 7.26 6.69 12.8 2.18 18.24-3.37a36.19 36.19 0 0 0 5.09 -9.26c0.05-0.66 0.21-0.93 1.25-1.26a65.24 65.24 0 0 1 7.27 -0.45v-4s-5-0.41-6.16-0.36" class="cls-22"/>
   <path d="m669.77 314.94c-0.74 0-4.93 0-5.66-0.15-1.16-0.17 3.52 6.88-2.92 4.47-5.8-2.18-10.23-7.17-10.23-10.73 0-3.79 5.27-3.64 11.45-4.68a22.57 22.57 0 0 0 4.15 -1.58 27.14 27.14 0 0 0 4.3 1.53c6.34 1 11.75 1.49 11.75 5.34 0 4.14-4.89 8.58-11 10.7-4 1.38-0.93-4.89-1.84-4.89m15.44-7.34c-0.61-3.36-2.17-5.38-4.43-6.42a14 14 0 0 0 -7 -1.68c-3.53 0.1-7.49 0.61-7.49 0.61a18.55 18.55 0 0 0 -10.26 -0.35 15.59 15.59 0 0 0 -9.15 6.92c-1.48 2.85 0.46 13.29 0.92 17a9.62 9.62 0 0 0 3.81 6.16c0.86 0.55 9.42 5.27 10.88 5.33l5.44 0.21a17.14 17.14 0 0 0 5.87 -0.69 36.72 36.72 0 0 0 10.11 -7.08c2.87-2.89 1.63-18.53 1.36-20" class="cls-20"/>
   <path d="m672.23 346.56a1.59 1.59 0 1 1 -1.59 -1.59 1.59 1.59 0 0 1 1.59 1.59" class="cls-9"/>
   <path d="m672.23 354.15a1.59 1.59 0 1 1 -1.59 -1.59 1.59 1.59 0 0 1 1.59 1.59" class="cls-9"/>
   <path d="m672.23 361.75a1.59 1.59 0 1 1 -1.59 -1.59 1.59 1.59 0 0 1 1.59 1.59" class="cls-9"/>
   <path d="m667 312.24c-9.68 0-13.47-1.11-13.63-1.16a1.63 1.63 0 0 1 0.93 -3.12c0.07 0 3.66 1 12.7 1s12.67-1 12.7-1a1.6326 1.6326 0 0 1 0.93 3.13c-0.16 0-4 1.16-13.63 1.16" class="cls-12"/>
   <path d="m1028.6 269.46a8.46 8.46 0 1 1 -8.46 -8.46 8.46 8.46 0 0 1 8.46 8.46" class="cls-6"/>
   <path d="m1109.7 267.52a8.46 8.46 0 1 1 -8.46 -8.46 8.46 8.46 0 0 1 8.46 8.46" class="cls-6"/>
   <path d="m1086.9 320.4a112.35 112.35 0 0 0 -52.67 0c-4 0.89-7.21 5.17-7.21 9.28v67.05h67.1v-67.05c0-4.11-3.2-8.39-7.21-9.28" class="cls-4"/>
   <path d="m1073.8 310.31 1 8.53s-6.78 11.16-14.65 10.16-14.67-10.14-14.67-10.14l1-8.54z" class="cls-6"/>
   <polygon points="1027.6 473.78 1025 478.26 1025 483.15 1054.4 483.15 1054.4 478.15" class="cls-22"/>
   <polygon points="1099.8 473.78 1073 478.15 1073 483.15 1102.3 483.15 1102.3 478.26" class="cls-22"/>
   <path d="m1072.5 200.55h-22.94c-31.27 0-31.73 59.89-31.73 59.89s2.79 48.47 35.92 53.12h14.55c19.84 0 33.07-16.55 33.07-37l1-15.9s1.4-60.13-29.87-60.13" class="cls-6"/>
   <path d="m1043.5 270.27c2.08 0 3.77-2.06 3.77-4.61v-2c0-2.55-1.69-4.61-3.77-4.61s-3.77 2.06-3.77 4.61v2c0 2.55 1.69 4.61 3.77 4.61" class="cls-11"/>
   <path d="m1070.4 248c-2.41 3.12 1 5.71 7.64 5.82s12.35-0.48 14.16 0.64-1.53-5.15-7.66-5.58-14.15-0.87-14.15-0.87" class="cls-23"/>
   <path d="m1048.8 247.92c2.41 3.12-1 5.71-7.64 5.82s-12.35-0.48-14.16 0.64 1.53-5.15 7.66-5.58 14.15-0.87 14.15-0.87" class="cls-23"/>
   <path d="m1078.4 269.46c2.08 0 3.77-2.06 3.77-4.61v-2c0-2.55-1.69-4.61-3.77-4.61s-3.77 2.06-3.77 4.61v2c0 2.55 1.69 4.61 3.77 4.61" class="cls-11"/>
   <path d="m1099.6 474-6.52-66.26v-12h-64.49l0.31 78.3 26.22 4.28-0.06-63.46a4.76 4.76 0 0 1 4.77 -4.77h2.23a5.36 5.36 0 0 1 5.23 4.75l6.1 63.48z" class="cls-5"/>
   <path d="m1026.5 325.07a12.46 12.46 0 0 1 4.86 -3.51c1.91-0.74 6 7 2.83 22.42s-7.8 58.73-5.62 64.09l-18.88-0.51 0.23-6.83c0.5-11.6 1.35-23.22 3-34.95a174.86 174.86 0 0 1 3.36 -17.74c0.75-3 1.62-6 2.72-9.06a54.94 54.94 0 0 1 4.29 -9.39 34.18 34.18 0 0 1 3.2 -4.53" class="cls-6"/>
   <path d="m1009.6 412.75v-10.23s16.8-2.39 19 2.85l-0.15 7.69a9.55 9.55 0 0 1 -9.49 9.29 9.35 9.35 0 0 1 -9.4 -9.6" class="cls-4"/>
   <path d="m1062.7 301.78c-10.8 0.53-15.13-4.15-15.31-4.36a2.11 2.11 0 0 1 -0.08 -2.56 1.29 1.29 0 0 1 2.08 0c0.09 0.1 3.81 4.17 13.07 3.35a25.48 25.48 0 0 0 8.68 -2.1c0.91-0.63 1.43-0.85 2.07-0.22a2.1 2.1 0 0 1 0.26 2.52c-0.15 0.23-4.34 3.08-10.76 3.4" class="cls-12"/>
   <polyline points="1078.1 408.79 1078.1 404.33 1088.4 404.13 1088.4 410.62" class="cls-9"/>
   <line y2="411.02" class="cls-24" y1="408.49" x2="1090.3" x1="1075.1"/>
   <path d="m1088.4 295.37c-2.67 4.3-11.13 17.05-20.43 19-2.91 0.6-2.05-5.43-3.06-5.85a34 34 0 0 0 -4.89 -0.3c-0.85 0-0.85 5.94-3.57 6.07-7 0.36-15.68-11.52-21.11-17.42s-10.7 0-15.92-29.64a40.15 40.15 0 0 1 -0.36 -6.28 16 16 0 0 0 1 -2.86c1-3.8 1.86-7.67 2.54-11.56a11.59 11.59 0 0 0 1.24 0.15c-0.81 0.21 19.66-2.07 29.32-7.44-0.66 1.35-3.29 2.91-3.29 2.91s16.79-5 21.39-12.05c-0.24 0.83-0.49 1.67-0.73 2.5 6.41-4 10.49-10.49 13.46-17.58 1 5.49 5.79 11.95 10.19 14.64 0-0.88-2.22-3.85-2.2-4.72a99.89 99.89 0 0 1 7.12 14.19c0.51-0.38 2.31 18.72 2.95 27.78-0.7 18.48-11 24.38-13.61 28.5m17.95-74.19c0.77-0.3 2.69 4.46 3.46 4.81 0.58-8.65-4.32-11.65-3.72-12.65a2.81 2.81 0 0 0 0.38 -2.69c-3.46-7.31-9.23-16.58-13.46-18-1.6-0.53-7.52-2-7.52-2-5-4.59-13.63-6.9-20.41-7.74a11.7 11.7 0 0 0 2.46 2.48 5.21 5.21 0 0 1 -3.25 -0.62c-0.09 0.62-0.19 1.24-0.28 1.88a25.19 25.19 0 0 1 -14.29 -5.83 14.89 14.89 0 0 0 1.88 4.59l-2.82-0.45c0.51 0.75 1 1.5 1.54 2.22-12-1.69-13 3-18.87 4.19 1.92 0.41 5.32-0.13 6.54 0.36-20.26 3.55-27.76 19.15-32 20.53a11 11 0 0 0 4.89 -0.58c1.39-0.83 1.69-0.62 0 0-2.31 1.39-4.66 2.8-5.56 2.86 0.83 0.51 7.65-1.82 8.48-1.3-2.76 1.13-11.39 4-14.36 4.25 2.24 2.07 9.74-0.3 12 1.77-2.84-0.23-13.06 3.29-14.29 3.4 0.94 1.43 5.79 8.25 9.12 10.28l-5.43-0.86c2.41 2.18 6.94 7.48 12.8 11a269.18 269.18 0 0 0 4.49 27c0 5.68 3.7 17.5 3.7 17.5 7.33 27.13 27.44 28.05 30.08 28.93 4.08 1.37 14.66 0.88 18 0.15 1.13-0.26 32.28-3.72 32.28-47.67 0.06 1 0.09 1.77 0.11 2.26 2-9.14 5.47-21.6 4.66-30.92l3.18 0.3c2-13.74-3.23-18.31-3.76-19.57" class="cls-23"/>
   <path d="m1093.8 322.35c-3.31 4-3.54 14.69-3.11 17.71s2.84 12.2 6.2 8.16l2.55-3.07c4.07-4.92 8.11-9.86 12.12-14.87s8-10 11.89-15.35q1.47-2 2.93-4.08l0.74-1.08 0.52-0.76c0.21-0.32 0.42-0.65 0.62-1l1.23-2c0.39-0.68 0.69-1.38 1-2.08a15.19 15.19 0 0 0 1.08 -4.26 5.26 5.26 0 0 0 0.12 -1.1l-0.16-1.09a16.93 16.93 0 0 0 -0.44 -2.14 4.56 4.56 0 0 0 -0.38 -1.05l-0.45-1c-0.34-0.69-0.76-1.36-1.13-2s-0.87-1.31-1.3-2l-0.66-1-0.53-0.72c-2.11-2.86-4.19-5.38-6.3-7.92s-4.23-5-6.37-7.38l-4.53-5.08-14 12.65 4.39 4.92c2.06 2.34 4.1 4.68 6.06 7s3.9 4.72 5.55 7l0.19 0.25-0.77 1.12q-1.25 1.8-2.62 3.64c-3.62 4.91-7.51 9.84-11.43 14.74s3.52-4-0.49 0.85z" class="cls-6"/>
   <path d="m1092 276.09 5.9 6.19 11.5-15.14-3.46-3.81a9.39 9.39 0 0 0 -13.39 -0.55 9.5 9.5 0 0 0 -0.55 13.3" class="cls-4"/>
   <ellipse rx="2.09" ry="3.31" cy="260.42" cx="1042.6" class="cls-25"/>
   <ellipse rx="2.09" ry="3.31" cy="261.52" cx="1067.8" class="cls-25"/>
   <path d="m1045.1 276s7.4-7 12.51-7c6 0 12.51 6.6 12.51 6.6l-0.73-20.66s-6-4-11.78-4a17.16 17.16 0 0 0 -12.11 5.15z" class="cls-26"/>
   <path d="m1050.6 265.35a13.15 13.15 0 0 1 -7.78 12l-8.07 4a17.18 17.18 0 0 0 -3 -31.15l9.07 2.47a13.15 13.15 0 0 1 9.78 12.68z" class="cls-4"/>
   <path d="m1043.4 266.44a17.2 17.2 0 0 1 -8.6 14.88 15.34 15.34 0 0 1 -2 1 17.19 17.19 0 1 1 -4 -32.89l0.89 0.16h0.11a16.24 16.24 0 0 1 2 0.53h0.05a17.21 17.21 0 0 1 11.55 16.32z" class="cls-26"/>
   <circle cx="1026.2" cy="266.44" r="15.22" class="cls-27"/>
   <path d="m1064.7 265a13.15 13.15 0 0 0 7.78 12l8.07 4a17.18 17.18 0 0 1 3 -31.15l-9.07 2.47a13.15 13.15 0 0 0 -9.78 12.68z" class="cls-4"/>
   <path d="m1071.9 266.07a17.19 17.19 0 0 0 8.6 14.88 15.21 15.21 0 0 0 2 1 17 17 0 0 0 6.54 1.3 17.19 17.19 0 0 0 0 -34.38 16.92 16.92 0 0 0 -2.54 0.19l-0.89 0.16h-0.11a16.29 16.29 0 0 0 -2 0.53h-0.05a17.21 17.21 0 0 0 -11.55 16.32z" class="cls-26"/>
   <circle cx="1089.1" cy="266.08" r="15.22" class="cls-27"/>
   <circle cx="1057.9" cy="255.96" r="3.25" class="cls-4"/>
   <path d="m666.1 317.33c-0.43 0-0.86-0.06-1.33-0.06 0.46 0 0.9 0.02 1.33 0.06z" class="cls-4"/>
   <path d="m667.32 317.48-0.83-0.12c0.29 0.03 0.51 0.08 0.83 0.12z" class="cls-4"/>
   <path d="m664.77 317.27c-0.46 0-0.9 0-1.32 0.06 0.42-0.04 0.86-0.06 1.32-0.06z" class="cls-4"/>
   <path d="m663.05 317.36-0.82 0.12c0.27-0.04 0.54-0.09 0.82-0.12z" class="cls-4"/>
   <path d="m676 303.78v-0.13a8.81 8.81 0 0 1 0.19 1.76v18h7.81l-1.81-20.82a23 23 0 0 0 -6.19 1.19z" class="cls-28"/>
   <path d="m653.53 304.05v0.09a22.71 22.71 0 0 0 -6.07 -1.45l-1.8 20.71h7.78v-18a9 9 0 0 1 0.09 -1.35z" class="cls-28"/>
   <path d="m664.77 291.12h0.07a13.42 13.42 0 0 1 7 1.91l-0.09-1c0-2.4-2.94-4.34-6.58-4.34s-6.58 1.94-6.58 4.34a2.89 2.89 0 0 0 0 0.49v0.05a13.56 13.56 0 0 1 6.13 -1.43z" class="cls-26"/>
   <path d="m647.69 299.81-0.25 2.87a22.71 22.71 0 0 1 6.07 1.45v-0.09c0.75-4.86 5.49-8.62 11.24-8.62 5.59 0 10.22 3.54 11.17 8.21v0.13a23 23 0 0 1 6.26 -1.19l-0.24-2.78a7.4 7.4 0 0 1 -0.11 -1.25v-0.51h-5.13a13.46 13.46 0 0 0 -11.86 -6.93h-0.07a13.46 13.46 0 0 0 -11.86 6.93h-5.13v0.51a7.56 7.56 0 0 1 -0.09 1.27z" class="cls-4"/>
   <path d="m675.94 303.64c-0.95-4.66-5.58-8.21-11.17-8.21-5.75 0-10.49 3.75-11.24 8.62a9 9 0 0 0 -0.12 1.35v18h0.73s1.65-4.86 8.09-5.92l0.82-0.12h0.4c0.42 0 0.86-0.06 1.32-0.06s0.9 0 1.33 0.06h0.39l0.83 0.12c6.43 1.06 8.08 5.92 8.08 5.92h0.73v-18a8.81 8.81 0 0 0 -0.19 -1.76z" class="cls-26"/>
   <path d="m664.9 323h-0.26c-1.17 0.05-10 0.72-10.54 8.86l0.17 3.47c0.27-3.63 5.31-6.21 11.26-5.76 5.45 0.41 9.76 3.23 10.23 6.49l-0.17-3.62h-0.12c-0.14-8.74-9.37-9.44-10.57-9.44z" class="cls-26"/>
   <path d="m665.53 329.52c-5.94-0.45-11 2.13-11.26 5.76s4.32 6.93 10.27 7.38 11-2.13 11.26-5.76a4.06 4.06 0 0 0 0 -0.89c-0.5-3.26-4.8-6.08-10.27-6.49z" class="cls-4"/>
   <path d="m684 323.4h-8.6s-1.65-4.86-8.08-5.92c-0.27 0-0.54-0.09-0.83-0.12h-0.39c-0.43 0-0.86-0.06-1.33-0.06-0.46 0-0.9 0-1.32 0.06h-0.4c-0.28 0-0.55 0.07-0.82 0.12-6.44 1.05-8.09 5.92-8.09 5.92h-8.51l-1 11.08c2.35-2.75 9.4-2.07 9.4-2.07v-0.59c0.54-8.14 9.37-8.8 10.54-8.86h0.26c1.2 0.05 10.42 0.74 10.57 9.45h0.12c1-0.08 7.43-0.48 9.44 2.29l-1-11.27z" class="cls-4"/>
   <path d="m689.5 277.76c4.92 0 8.91 3.13 8.91 7v-11.64s0.2-4-8.42-4-9.4 3.82-9.4 3.82v11.8c0-3.85 3.98-6.98 8.91-6.98z" class="cls-26"/>
   <path d="m683.43 284.92c0-2.4 2.94-4.34 6.58-4.34s6.57 1.94 6.57 4.34l0.23 2.63h0.88a5.7 5.7 0 0 0 0.71 -2.74c0-3.86-4-7-8.91-7s-8.91 3.13-8.91 7a6.4 6.4 0 0 0 2.88 5.13v-4.48a2.89 2.89 0 0 1 -0.03 -0.54z" class="cls-28"/>
   <path d="m702.14 327.23c8.63 0 15.74 4.3 16.68 9.84l-3.35-38.51c0-6.12-7.52-11.09-16.79-11.09h-1.88l-0.23-2.63c0-2.4-2.94-4.34-6.57-4.34s-6.58 1.94-6.58 4.34a2.89 2.89 0 0 0 0 0.49v8.48a8.18 8.18 0 0 0 -1.54 4.17v0.51a7.4 7.4 0 0 0 0.11 1.25l0.24 2.78 1.77 20.89 1 11.27 0.32 3.64c0.03-6.12 7.54-11.09 16.82-11.09z" class="cls-4"/>
   <path d="m702.14 331.08c8.64 0 15.65 4.63 15.65 10.33l0.07 0.81a7.85 7.85 0 0 0 1.07 -3.9 7.39 7.39 0 0 0 -0.11 -1.25c-0.94-5.54-8-9.84-16.68-9.84-9.27 0-16.79 5-16.79 11.09a7.9 7.9 0 0 0 1.24 4.19 6.7 6.7 0 0 1 -0.1 -1.09c0-5.71 7.01-10.34 15.65-10.34z" class="cls-28"/>
   <path d="m718.69 351.75v-0.45 0.45z" class="cls-4"/>
   <path d="m703 340.44c7.74 0 14.15 3.72 15.41 8.59l-0.6-6.81-0.07-0.81c0-5.71-7-10.33-15.65-10.33s-15.65 4.63-15.65 10.33a6.7 6.7 0 0 0 0.1 1.09v0.13l0.79 8.14c0.07-5.7 7.08-10.33 15.67-10.33z" class="cls-26"/>
   <path d="m718.45 349c-1.26-4.88-7.67-8.59-15.41-8.59-8.64 0-15.65 4.63-15.65 10.34s7 10.33 15.65 10.33c8.15 0 14.83-4.11 15.57-9.37v-0.45-0.52a7 7 0 0 0 -0.16 -1.74zm-15.45 10.45c-7.25 0-13.12-3.88-13.12-8.67a6.86 6.86 0 0 1 2.41 -5c1.69-2.15 5.82-3.68 10.65-3.68h1.51c3.75 0.26 6.92 1.44 8.61 3.08a7.16 7.16 0 0 1 3 5.53c0.11 4.85-5.77 8.74-13.06 8.74z" class="cls-4"/>
   <path d="m713.15 345.25a3.81 3.81 0 0 1 1.31 2.71c0 3.23-5.14 5.85-11.48 5.85s-11.48-2.62-11.48-5.81a3.5 3.5 0 0 1 0.83 -2.17 6.86 6.86 0 0 0 -2.41 5c0 4.79 5.87 8.67 13.12 8.67s13.12-3.88 13.12-8.67a7.16 7.16 0 0 0 -3.01 -5.58z" class="cls-26"/>
   <path d="m703 342.11z" class="cls-4"/>
   <path d="m704.31 342.15h0.23z" class="cls-4"/>
   <path d="m691.5 348c0 3.23 5.14 5.85 11.48 5.85s11.48-2.62 11.48-5.85a3.81 3.81 0 0 0 -1.31 -2.71c-1.69-1.64-4.86-2.82-8.61-3.08h-1.54c-4.83 0-9 1.52-10.65 3.68a3.5 3.5 0 0 0 -0.85 2.11z" class="cls-27"/>
   <path d="m640.19 277.76c4.92 0 8.91 3.13 8.91 7v-11.76s-0.79-3.82-9.4-3.82-8.42 4-8.42 4v11.63c0-3.92 3.99-7.05 8.91-7.05z" class="cls-26"/>
   <path d="m633.1 284.92c0-2.4 2.94-4.34 6.58-4.34s6.57 1.94 6.57 4.34a2.89 2.89 0 0 1 0 0.49v4.48a6.4 6.4 0 0 0 2.88 -5.13c0-3.86-4-7-8.91-7s-8.91 3.13-8.91 7a5.71 5.71 0 0 0 0.71 2.74h0.88z" class="cls-28"/>
   <path d="m647.44 302.69 0.25-2.87a7.56 7.56 0 0 0 0.11 -1.25v-0.51a8.17 8.17 0 0 0 -1.54 -4.17v-8.48a2.89 2.89 0 0 0 0 -0.49c0-2.4-2.94-4.34-6.57-4.34s-6.58 1.94-6.58 4.34l-0.23 2.63h-1.88c-9.27 0-16.79 5-16.79 11.09l-3.35 38.51c0.94-5.54 8-9.84 16.68-9.84 9.27 0 16.79 5 16.79 11.09l0.33-3.84 1-11.08z" class="cls-4"/>
   <path d="m627.55 327.23c-8.63 0-15.74 4.3-16.68 9.84a7.47 7.47 0 0 0 -0.11 1.25 7.83 7.83 0 0 0 1.07 3.9l0.07-0.81c0-5.71 7-10.33 15.65-10.33s15.65 4.63 15.65 10.33a6.7 6.7 0 0 1 -0.1 1.09 7.9 7.9 0 0 0 1.24 -4.19c-0.01-6.11-7.52-11.08-16.79-11.08z" class="cls-28"/>
   <path d="m611 351.75h0.07v-0.45z" class="cls-4"/>
   <path d="m627.55 331.08c-8.64 0-15.65 4.63-15.65 10.33l-0.07 0.81-0.6 6.81c1.26-4.88 7.67-8.59 15.41-8.59 8.64 0 15.65 4.63 15.65 10.34l0.79-8.14v-0.13a6.7 6.7 0 0 0 0.1 -1.09c0.01-5.71-6.99-10.34-15.63-10.34z" class="cls-26"/>
   <path d="m626.64 340.44c-7.74 0-14.15 3.72-15.41 8.59a7 7 0 0 0 -0.24 1.74v0.52 0.45c0.74 5.25 7.43 9.37 15.57 9.37 8.64 0 15.65-4.63 15.65-10.33s-6.93-10.34-15.57-10.34zm0 19c-7.25 0-13.12-3.88-13.12-8.67a7.16 7.16 0 0 1 3 -5.53c1.69-1.64 4.86-2.82 8.61-3.08h1.51c4.83 0 9 1.52 10.65 3.68a6.86 6.86 0 0 1 2.41 5c0.06 4.72-5.82 8.61-13.06 8.61z" class="cls-4"/>
   <path d="m637.35 345.79a3.5 3.5 0 0 1 0.83 2.17c0 3.23-5.14 5.85-11.48 5.85s-11.48-2.62-11.48-5.85a3.81 3.81 0 0 1 1.31 -2.71 7.16 7.16 0 0 0 -3 5.53c0 4.79 5.88 8.67 13.12 8.67s13.12-3.88 13.12-8.67a6.86 6.86 0 0 0 -2.42 -4.99z" class="cls-26"/>
   <path d="m625.14 342.17h0.23z" class="cls-4"/>
   <path d="m626.64 342.11z" class="cls-4"/>
   <path d="m615.22 348c0 3.23 5.14 5.85 11.48 5.85s11.48-2.62 11.48-5.85a3.5 3.5 0 0 0 -0.83 -2.17c-1.69-2.15-5.82-3.68-10.65-3.68h-1.51c-3.75 0.26-6.92 1.44-8.61 3.08a3.81 3.81 0 0 0 -1.36 2.77z" class="cls-27"/>
   <path d="m716.78 317 4.29-2.39-9-16.18-4.4 2.45a9.2 9.2 0 0 0 -3.5 12.64 9.3 9.3 0 0 0 12.61 3.48" class="cls-6"/>
   <polygon points="608.9 295.97 600.04 311.18 611.81 330.02 617.85 298.94" class="cls-4"/>
   <path d="m613.18 317.51-4.29-2.39 9-16.18 4.4 2.45a9.2 9.2 0 0 1 3.5 12.64 9.3 9.3 0 0 1 -12.56 3.48" class="cls-6"/>
   <path d="m853.08 338.11c1 0.76 0.68 1.68 0.88 3.42s1.44 3.89 1.94 6.39a6 6 0 0 1 -0.35 3.67 5.06 5.06 0 0 1 -1.16 1.64 5.81 5.81 0 0 1 -1.93 1.27 9.68 9.68 0 0 1 -5.5 0.52 12.24 12.24 0 0 1 -5.34 -2.42l-0.39-0.32c-0.24-0.21-0.66-0.53-1.08-0.93a35.25 35.25 0 0 1 -3.24 -3.37 61.86 61.86 0 0 1 -6.91 -10.35c-2-3.75-3.73-7.5-4.92-10.31s-1.91-4.69-1.91-4.69l17.2-6.71s0.65 1.71 1.7 4.18 2.52 5.71 4.15 8.7a43.84 43.84 0 0 0 4.78 7.2 16.35 16.35 0 0 0 1.56 1.64c0.18 0.18 0.31 0.26 0.4 0.34z" class="cls-5"/>
   <path d="m826.61 267.9 0.93 4.18a338.77 338.77 0 0 0 11.84 41.19l1 2.64-17.19 6.71-1.11-2.92a357 357 0 0 1 -12.53 -43.53l-1-4.35a9.14 9.14 0 0 1 7.16 -11 9.32 9.32 0 0 1 10.88 7.07" class="cls-6"/>
   <polygon points="824.57 326.23 841.66 319.26 841.24 318.22 824.09 325.06" class="cls-7"/>
   <path d="m864.15 270.72a13.15 13.15 0 0 1 -7.78 12l-13.07 4a17.18 17.18 0 0 0 -3 -31.15l14.03 2.43a13.15 13.15 0 0 1 9.82 12.72z" class="cls-4"/>
   <path d="m851.9 271.82a17.19 17.19 0 0 1 -8.6 14.88 15.21 15.21 0 0 1 -2 1 17 17 0 0 1 -6.54 1.3 17.19 17.19 0 0 1 0 -34.38 16.92 16.92 0 0 1 2.54 0.19l0.89 0.16h0.11a16.29 16.29 0 0 1 2 0.53h0.05a17.21 17.21 0 0 1 11.55 16.32z" class="cls-26"/>
   <circle cx="834.71" cy="271.82" r="15.22" class="cls-27"/>
   <path d="m1312.2 281.14-3.37 5.31-10.46-9.28 2-3.24a6.91 6.91 0 0 1 9.59 -2.31 7 7 0 0 1 2.3 9.52" class="cls-6"/>
   <path d="m1244.1 336.06s42.28-43.55 44.22-46.16 3.9-5.12 5.87-7.63l4.19-5.26 11.47 8.24-4.06 5.1c-1.9 2.42-3.78 4.84-5.6 7.27s-46.52 46.69-46.52 46.69" class="cls-29"/>
   <polygon points="1245.4 476.45 1258.6 464.43 1258.5 431.61 1244.7 431.55" class="cls-22"/>
   <polygon points="1221 443.6 1201.9 463.12 1218.6 464.83 1234.4 449.78 1234.4 416.95 1220.6 416.89" class="cls-22"/>
   <path d="m1243.2 482h9.26l0.38-3.75 8.3 3.75h11v-4.83s-0.57-3.43-2.49-4.43c-9.38-1.28-8.42-9.82-8.42-9.82h-18z" class="cls-22"/>
   <path d="m1199.8 462.64 6.43 6.66 3-2.34 3.07 8.57 7.66 7.93 3.48-3.36s2.07-2.79 1.46-4.87c-5.59-7.64 1.22-12.88 1.22-12.88l-12.53-13z" class="cls-22"/>
   <path d="m1253.6 327.86s6.44 7.27-0.41 26.68c-3.7 10.49-5 16.71 0 24.71 15.41 24.71 13.7 56.47 13.7 56.47h-56s1.71-40.59 13.7-58.24c4.39-6.46-5.14-56.47 5.14-56.47s23.88 6.85 23.88 6.85" class="cls-5"/>
   <path d="m1256.7 314.16-6.85 6.85s3.42 5.14 3.42 6.85-23.56-5.63-23.56-5.63l-0.2-9.34z" class="cls-30"/>
   <path d="m1215.4 272.53a8.36 8.36 0 1 1 -8.36 -8.36 8.36 8.36 0 0 1 8.36 8.36" class="cls-6"/>
   <path d="m1292.4 270.61a8.36 8.36 0 1 1 -8.36 -8.36 8.36 8.36 0 0 1 8.36 8.36" class="cls-6"/>
   <path d="m1257.2 204.45h-22.66c-30.89 0-31.35 59.17-31.35 59.17s2.76 47.89 35.49 52.48h14.4c19.6 0 32.67-16.36 32.67-36.53l1-15.71s1.39-59.41-29.51-59.41" class="cls-6"/>
   <path d="m1248.1 301c-10.67 0.53-15-4.1-15.13-4.3a2.08 2.08 0 0 1 -0.08 -2.53 1.28 1.28 0 0 1 2.05 0c0.09 0.09 3.76 4.12 12.91 3.31a25.14 25.14 0 0 0 8.57 -2.07c0.9-0.62 1.42-0.84 2-0.22a2.08 2.08 0 0 1 0.26 2.49 20 20 0 0 1 -10.63 3.36" class="cls-9"/>
   <path d="m1228.2 264.45s6.7-4.58 12.62 0.3" class="cls-31"/>
   <path d="m1245.6 219.2c-1.3 11.26-15.73 9.31-23.88 17.19s-8.61 15.54-16 28.11c-2.82-0.36-5.35 2.89-5.35 2.89s-3.16-26.41-0.93-27.35c-2.68-3.61 0.9-13.7 3.21-17.56 7.07-11.8 15.11-18.35 28.35-22.07 4.9-1.38 10.45-1.51 14.79 1.15a104.27 104.27 0 0 1 -1 17.27" class="cls-1"/>
   <path d="m1242.9 216.26c1.3 11.26 19.45 16 27.6 23.93s6.09 15.79 14.14 22.75c3.46-0.75 5.77 2.29 5.77 2.29s2.8-24.24 0.58-25.18c2.68-3.61 2.41-10.24-3.44-19.39-7.42-11.59-14.88-16.52-28.12-20.24-4.9-1.38-10.45-1.51-14.79 1.15-0.16 5.77-3.27 6.41-2.47 12.13" class="cls-1"/>
   <path d="m1209.5 325.1c0.32-1.93-3-12.93-3-12.93s-4.9-24.88-3.09-34.92c0.58-3.23 1.4-6.4 1.95-9.65 0.86-5.13 0.3-15.41 1.07-20.55 2.06-13.68 9.36-21.22 18.62-29.09 3.51-3 7.5-5.36 11.75-5.73 0.94-0.08 2.25 0.43 2.08 1.58" class="cls-2"/>
   <path d="m1242 213.64c-12.71 9.61-22.06 25.27-27.27 42.56s-6.49 36.14-5.31 54.54c0.31 4.84 1.62 8 0.24 12.52-0.53 1.75-1.77 4.6-2.21 6.39s1.31 8.09 2.21 9.59" class="cls-1"/>
   <path d="m1235.4 206.37c-4.92 1.42-10.19 3.06-13.31 7.12-1.64 2.14-2.53 4.77-4.13 6.94-1.22 1.66-2.83 3-3.94 4.74-1.49 2.34-1.93 5.16-2.35 7.9l-3 20a95.68 95.68 0 0 0 4.24 -14.67 40.75 40.75 0 0 1 1.71 -6.79 33.65 33.65 0 0 1 2.54 -4.84l6-10c0.51 2.91-0.83 5.85-2.59 8.23s-3.95 4.43-5.54 6.93a17.86 17.86 0 0 0 7.76 -9.26c1.26-3.46 1.77-7.75 5-9.51l-0.45 2.16a19.74 19.74 0 0 1 8.91 -8.82" class="cls-2"/>
   <path d="m1247.3 210.88a20.92 20.92 0 0 0 9.92 13.84c3.41 2 7.41 3 10.33 5.62-3.7-5.56-14.17-7.43-16-13.84 1 0.74 8.09 5.3 9.06 6-0.56-1.23-5-9.69-5.58-10.92 3.72 3.49 11.91 10.74 16.19 16.32 2.27 3 1.4 5 3.57 8.08 2.37 3.34 8.16 7.89 8 12a69.5 69.5 0 0 0 -31.88 -40.46c1 3.92 3.91 6.39 4.61 9.41a49 49 0 0 1 -8.6 -6.51" class="cls-2"/>
   <g id="binoculars">
    <ellipse rx="5.86" ry="8.86" cy="263.65" cx="1259.7" class="cls-4"/>
    <polygon points="1259.7 272.51 1259.7 254.79 1367.5 241.86 1367.5 285.43" class="cls-4"/>
    <ellipse rx="9.16" ry="21.78" cy="263.65" cx="1367.5" class="cls-4"/>
    <ellipse rx="8.59" ry="20.42" cy="263.65" cx="1367.5" class="cls-32"/>
    <ellipse rx="4.58" ry="10.88" cy="263.65" cx="1367.5" class="cls-27"/>
   </g>
   <path d="m1302.1 275.93-3.37 5.31-10.46-9.24 2-3.24a6.91 6.91 0 0 1 9.59 -2.31 7 7 0 0 1 2.3 9.52" class="cls-6"/>
   <path d="m1234 330.85s42.28-43.55 44.22-46.16 3.9-5.12 5.87-7.63l4.19-5.26 11.47 8.2-4.06 5.1c-1.9 2.42-3.78 4.84-5.6 7.27s-46.52 46.69-46.52 46.69-6.82 4.75-10.8-7.51" class="cls-5"/>
  </g>
 </g>
</svg>
