<?xml version="1.0" encoding="UTF-8" standalone="no"?>
<!-- Generator: Adobe Illustrator 21.0.0, SVG Export Plug-In . SVG Version: 6.00 Build 0)  -->
<svg xmlns:rdf="http://www.w3.org/1999/02/22-rdf-syntax-ns#" xmlns="http://www.w3.org/2000/svg" xml:space="preserve" height="600" width="800" version="1.1" y="0px" x="0px" xmlns:cc="http://creativecommons.org/ns#" xmlns:dc="http://purl.org/dc/elements/1.1/" viewBox="0 0 800 599.99997"><metadata><rdf:RDF><cc:Work rdf:about=""><dc:format>image/svg+xml</dc:format><dc:type rdf:resource="http://purl.org/dc/dcmitype/StillImage"/><dc:title/></cc:Work></rdf:RDF></metadata><style type="text/css">
	.st0{fill:#FFFFFF;}
	.st1{fill:#CFD2D1;}
	.st2{fill:#C62828;}
	.st3{fill:#007CC4;}
	.st4{fill:#22648A;}
	.st5{fill:#EABEA7;}
	.st6{fill:#F9BD38;}
	.st7{fill:none;stroke:#FFFFFF;stroke-width:5;stroke-miterlimit:10;}
	.st8{fill:none;stroke:#FFFFFF;stroke-width:3;stroke-miterlimit:10;}
	.st9{fill:#9C9D9D;}
	.st10{fill:#11354B;}
	.st11{fill:#B1C4CE;}
	.st12{fill:#98123E;}
	.st13{fill:#F28F63;}
	.st14{fill:#901F2B;}
	.st15{fill:#901F2A;}
	.st16{fill:#EDD0BA;}
	.st17{fill:#2D2D2B;}
	.st18{fill:#1D1D1B;}
	.st19{fill:#451A12;}
	.st20{fill:#634631;}
	.st21{fill:#007CC3;}
	.st22{fill:#C52828;}
	.st23{fill:none;stroke:#007CC3;stroke-width:0.333;stroke-linecap:round;stroke-linejoin:round;}
	.st24{fill:#51362C;}
	.st25{fill:#0074B5;}
	.st26{fill:#D1B07A;}
	.st27{fill:#DABE92;}
	.st28{fill:#371F14;}
	.st29{fill:#3C3C3B;}
	.st30{fill:#662B0D;}
	.st31{fill:#544740;}
	.st32{fill:#F3DECE;}
	.st33{fill:#FFE7BE;}
	.st34{fill:#41271D;}
	.st35{fill:#5A3F35;}
	.st36{fill:#C9ECF4;}
	.st37{fill:#F1F1F1;}
	.st38{fill:#333333;}
	.st39{fill:#D0B193;}
	.st40{fill:#66422E;}
	.st41{fill:#8D8D8D;}
</style><g id="object" transform="translate(-512.19 38.5)"><path class="st0" d="m940.5 204.1c5.5-0.1 9.9-4.6 9.9-10.1 0-1.5-0.3-2.9-0.9-4.2 1.7 0.3 3.4 0.5 5.2 0.5 16.5 0 29.8-13.4 29.8-29.8 0-2.5-0.3-5-0.9-7.3 7.8-5.6 14-13.4 17.6-22.5 7.3 5.4 16.2 8.5 25.9 8.5 17.1 0 31.9-9.8 39.1-24.1 3.1 1.1 6.5 1.8 9.9 1.8 15.9 0 28.8-12.9 28.8-28.8s-12.9-28.8-28.8-28.8c-1.8 0-3.6 0.2-5.3 0.5-0.3-19.2-15.9-34.6-35.2-34.6-17.8 0-32.5 13.3-34.8 30.4-5.4-9.9-15.9-16.6-28-16.6-3.9 0-7.6 0.7-11 1.9-6.8-13.2-20.6-22.2-36.4-22.2-14.5 0-27.2 7.5-34.5 18.9-8-7.7-19-12.5-31-12.5-17 0-31.8 9.5-39.4 23.4-2.9-0.7-6-1.1-9.1-1.1-7.3 0-14.1 2-20 5.4h-1.3c-14.4 0-26.1 11.7-26.1 26.1 0 7.9 3.5 15 9.1 19.8 4.9 16.6 20.2 28.7 38.3 28.7 8.5 0 16.4-2.7 22.9-7.2 5.2 15.3 19.7 26.4 36.8 26.4 2.2 0 4.3-0.2 6.4-0.5 3 16.5 17.3 29.1 34.7 29.3 0 0.5-0.1 1.1-0.1 1.6 0 10.5 8.2 19 18.5 19.7"/><path class="st1" d="m1277.1 552.5c0 5-4 9-9 9h-630c-5 0-9-4-9-9s4-9 9-9h630c4.9 0 9 4 9 9z"/><path class="st2" d="m678.6 529h-10.6v-299.3c0-8.8 7.2-15.9 16-15.9h1.2c8.8 0 16 7.2 16 15.9v137.7c0 2.9 2.3 5.3 5.1 5.3s5.1-2.4 5.1-5.3v-137.7c0-8.8 7.2-15.9 16-15.9h1.2c8.8 0 15.9 7.2 15.9 15.9v130.9c0 2.9 2.4 5.3 5.3 5.3h2c2.9 0 5.3-2.4 5.3-5.3v-127.2c0-8.8 7-16 15.7-16s15.7 7.2 15.7 16v129.5c0 2.9 2.4 5.3 5.3 5.3h2.8c2.9 0 5.3-2.4 5.3-5.3v-129.3c0-8.8 7.2-16 15.9-16h3.7c8.8 0 15.9 7.2 15.9 16v129.3c0 2.9 2.4 5.3 5.3 5.3h1.2c2.4 0 4.2-0.4 5.3-0.7v-1.8h10.6v3.9c0 5.6-6.3 9.2-16 9.2h-1.2c-8.8 0-15.9-7.2-15.9-16v-129.2c0-2.9-2.4-5.3-5.3-5.3h-3.7c-2.9 0-5.3 2.4-5.3 5.3v129.3c0 8.8-7.2 16-16 16h-2.8c-8.8 0-16-7.2-16-16v-129.5c0-2.9-2.3-5.3-5.1-5.3s-5.1 2.4-5.1 5.3v127.2c0 8.8-7.2 16-15.9 16h-2c-8.8 0-16-7.2-16-16v-130.9c0-2.9-2.4-5.3-5.3-5.3h-1.2c-2.9 0-5.3 2.4-5.3 5.3v137.7c0 8.8-7 16-15.7 16s-15.7-7.2-15.7-16v-137.7c0-2.9-2.4-5.3-5.3-5.3h-1.2c-2.9 0-5.3 2.4-5.3 5.3v299.3z"/><path class="st3" d="m848.5 268.3 2.1-5.3-3.1-1.2c0.3-2 0.2-4-0.2-5.9l3.3-1.4-2.3-5.2-3.4 1.5c-1.1-1.5-2.5-2.9-4.1-3.9l1.4-3.5-5.3-2.1-1.4 3.5c-1.9-0.4-3.8-0.3-5.6 0l-1.5-3.5-5.2 2.3 1.4 3.4c-1.6 1.1-3 2.4-4.1 4.1l-3.3-1.3-2.1 5.3 3.1 1.2c-0.5 2-0.5 4.1-0.1 6.1l-2.9 1.3 2.3 5.2 2.8-1.2c1.1 1.7 2.6 3.3 4.4 4.4l-1.1 2.7 5.3 2.1 1.1-2.7c2.1 0.4 4.3 0.4 6.3-0.1l1.2 2.7 5.2-2.3-1.2-2.8c1.7-1.2 3.1-2.7 4.2-4.5zm-17.2-5.5c-1.9-0.8-2.8-2.9-2.1-4.8 0.8-1.9 2.9-2.8 4.8-2.1 1.9 0.8 2.8 2.9 2.1 4.8s-2.9 2.9-4.8 2.1z"/><circle transform="matrix(.3695 -.9292 .9292 .3695 283.99 937.31)" class="st0" cy="259.4" cx="832.7" r="3.7"/><path class="st3" d="m688.7 306.6 2.1-5.3-3.1-1.2c0.3-2 0.2-4-0.2-5.9l3.3-1.4-2.3-5.2-3.4 1.5c-1.1-1.5-2.5-2.9-4.1-3.9l1.4-3.5-5.3-2.1-1.4 3.5c-1.9-0.4-3.8-0.3-5.6 0l-1.5-3.5-5.2 2.3 1.4 3.4c-1.6 1.1-3 2.4-4.1 4.1l-3.3-1.3-2.1 5.3 3.1 1.2c-0.5 2-0.5 4.1-0.1 6.1l-2.9 1.3 2.3 5.2 2.8-1.2c1.1 1.7 2.6 3.3 4.4 4.4l-1.1 2.7 5.3 2.1 1.1-2.7c2.1 0.4 4.3 0.4 6.3-0.1l1.2 2.7 5.2-2.3-1.2-2.8c1.7-1.2 3.1-2.7 4.2-4.5zm-17.1-5.5c-1.9-0.8-2.8-2.9-2.1-4.8 0.8-1.9 2.9-2.8 4.8-2.1 1.9 0.8 2.8 2.9 2.1 4.8-0.8 2-3 2.9-4.8 2.1z"/><circle transform="matrix(.3695 -.9292 .9292 .3695 147.6 812.98)" class="st0" cy="297.7" cx="672.9" r="3.7"/><polygon points="657 519.6 689.7 519.6 699.6 529.6 647.4 529.2" class="st4"/><polygon points="1144 272.1 1144 262.5 1247.1 262.5 1247.1 288.2 1237.5 288.2 1237.5 272.1" class="st5"/><polygon points="1094.5 272.1 1094.5 262.5 1197.6 262.5 1197.6 288.2 1188.1 288.2 1188.1 272.1" class="st5"/><ellipse rx="5.8" ry="2" class="st6" cy="296.7" cx="1193.1"/><ellipse rx="5.8" ry="2" class="st6" cy="299.6" cx="1193.1"/><ellipse rx="5.8" ry="2" class="st6" cy="302.4" cx="1193.1"/><ellipse rx="5.8" ry="2" class="st6" cy="305.2" cx="1193.1"/><ellipse rx="5.8" ry="2" class="st6" cy="308.1" cx="1193.1"/><ellipse rx="5.8" ry="2" class="st6" cy="310.9" cx="1193.1"/><ellipse rx="5.8" ry="2" class="st6" cy="313.8" cx="1193.1"/><ellipse rx="5.8" ry="2" class="st6" cy="316.6" cx="1193.1"/><ellipse rx="5.8" ry="2" class="st6" cy="319.4" cx="1193.1"/><ellipse rx="5.8" ry="2" class="st6" cy="322.3" cx="1193.1"/><ellipse rx="5.8" ry="2" class="st6" cy="325.1" cx="1193.1"/><ellipse rx="5.8" ry="2" class="st6" cy="328" cx="1193.1"/><ellipse rx="5.8" ry="2" class="st6" cy="330.8" cx="1193.1"/><ellipse rx="5.8" ry="2" class="st6" cy="333.6" cx="1193.1"/><ellipse rx="5.8" ry="2" class="st6" cy="336.5" cx="1193.1"/><ellipse rx="5.8" ry="2" class="st6" cy="339.3" cx="1193.1"/><ellipse rx="5.8" ry="2" class="st6" cy="342.2" cx="1193.1"/><ellipse rx="5.8" ry="2" class="st6" cy="345" cx="1193.1"/><ellipse rx="5.8" ry="2" class="st6" cy="347.9" cx="1193.1"/><ellipse rx="5.8" ry="2" class="st6" cy="350.7" cx="1193.1"/><ellipse rx="5.8" ry="2" class="st6" cy="353.5" cx="1193.1"/><ellipse rx="5.8" ry="2" class="st6" cy="356.4" cx="1193.1"/><ellipse rx="5.8" ry="2" class="st6" cy="359.2" cx="1193.1"/><ellipse rx="5.8" ry="2" class="st6" cy="362.1" cx="1193.1"/><ellipse rx="5.8" ry="2" class="st6" cy="364.9" cx="1193.1"/><ellipse rx="5.8" ry="2" class="st6" cy="367.7" cx="1193.1"/><ellipse rx="5.8" ry="2" class="st6" cy="370.6" cx="1193.1"/><ellipse rx="5.8" ry="2" class="st6" cy="373.4" cx="1193.1"/><ellipse rx="5.8" ry="2" class="st6" cy="376.3" cx="1193.1"/><ellipse rx="5.8" ry="2" class="st6" cy="379.1" cx="1193.1"/><ellipse rx="5.8" ry="2" class="st6" cy="381.9" cx="1193.1"/><ellipse rx="5.8" ry="2" class="st6" cy="384.8" cx="1193.1"/><ellipse rx="5.8" ry="2" class="st6" cy="387.6" cx="1193.1"/><ellipse rx="5.8" ry="2" class="st6" cy="390.5" cx="1193.1"/><ellipse rx="5.8" ry="2" class="st6" cy="393.3" cx="1193.1"/><ellipse rx="5.8" ry="2" class="st6" cy="396.1" cx="1193.1"/><ellipse rx="5.8" ry="2" class="st6" cy="296.7" cx="1243"/><ellipse rx="5.8" ry="2" class="st6" cy="299.6" cx="1243"/><ellipse rx="5.8" ry="2" class="st6" cy="302.4" cx="1243"/><ellipse rx="5.8" ry="2" class="st6" cy="305.2" cx="1243"/><ellipse rx="5.8" ry="2" class="st6" cy="308.1" cx="1243"/><ellipse rx="5.8" ry="2" class="st6" cy="310.9" cx="1243"/><ellipse rx="5.8" ry="2" class="st6" cy="313.8" cx="1243"/><ellipse rx="5.8" ry="2" class="st6" cy="316.6" cx="1243"/><ellipse rx="5.8" ry="2" class="st6" cy="319.4" cx="1243"/><ellipse rx="5.8" ry="2" class="st6" cy="322.3" cx="1243"/><ellipse rx="5.8" ry="2" class="st6" cy="325.1" cx="1243"/><ellipse rx="5.8" ry="2" class="st6" cy="328" cx="1243"/><ellipse rx="5.8" ry="2" class="st6" cy="330.8" cx="1243"/><ellipse rx="5.8" ry="2" class="st6" cy="333.6" cx="1243"/><ellipse rx="5.8" ry="2" class="st6" cy="336.5" cx="1243"/><ellipse rx="5.8" ry="2" class="st6" cy="339.3" cx="1243"/><ellipse rx="5.8" ry="2" class="st6" cy="342.2" cx="1243"/><ellipse rx="5.8" ry="2" class="st6" cy="345" cx="1243"/><ellipse rx="5.8" ry="2" class="st6" cy="347.9" cx="1243"/><ellipse rx="5.8" ry="2" class="st6" cy="350.7" cx="1243"/><ellipse rx="5.8" ry="2" class="st6" cy="353.5" cx="1243"/><ellipse rx="5.8" ry="2" class="st6" cy="356.4" cx="1243"/><ellipse rx="5.8" ry="2" class="st6" cy="359.2" cx="1243"/><ellipse rx="5.8" ry="2" class="st6" cy="362.1" cx="1243"/><ellipse rx="5.8" ry="2" class="st6" cy="364.9" cx="1243"/><ellipse rx="5.8" ry="2" class="st6" cy="367.7" cx="1243"/><ellipse rx="5.8" ry="2" class="st6" cy="370.6" cx="1243"/><ellipse rx="5.8" ry="2" class="st6" cy="373.4" cx="1243"/><ellipse rx="5.8" ry="2" class="st6" cy="376.3" cx="1243"/><ellipse rx="5.8" ry="2" class="st6" cy="379.1" cx="1243"/><ellipse rx="5.8" ry="2" class="st6" cy="381.9" cx="1243"/><ellipse rx="5.8" ry="2" class="st6" cy="384.8" cx="1243"/><ellipse rx="5.8" ry="2" class="st6" cy="387.6" cx="1243"/><ellipse rx="5.8" ry="2" class="st6" cy="390.5" cx="1243"/><ellipse rx="5.8" ry="2" class="st6" cy="393.3" cx="1243"/><ellipse rx="5.8" ry="2" class="st6" cy="396.1" cx="1243"/><path class="st6" d="m1200.8 292.3c0 1.8-1.4 3.2-3.2 3.2h-9.6c-1.8 0-3.2-1.4-3.2-3.2v-4.3c0-1.8 1.4-3.2 3.2-3.2h9.6c1.8 0 3.2 1.4 3.2 3.2z"/><path class="st6" d="m1250.3 292.3c0 1.8-1.4 3.2-3.2 3.2h-9.6c-1.8 0-3.2-1.4-3.2-3.2v-4.3c0-1.8 1.4-3.2 3.2-3.2h9.6c1.8 0 3.2 1.4 3.2 3.2z"/><polygon points="1200 396.7 1200 406.4 1186.3 406.4 1186 396.7" class="st6"/><polygon points="1250.5 396.7 1250.5 406.4 1236.8 406.4 1236.5 396.7" class="st6"/><path class="st2" d="m1211.5 511.4c0 10.6-8.6 19.1-19.1 19.1-10.6 0-19.1-8.6-19.1-19.1v-87.2c0-10.6 8.6-19.1 19.1-19.1 10.6 0 19.1 8.6 19.1 19.1z"/><path class="st2" d="m1263.6 511.4c0 10.6-8.6 19.1-19.1 19.1-10.6 0-19.1-8.6-19.1-19.1v-87.2c0-10.6 8.6-19.1 19.1-19.1 10.6 0 19.1 8.6 19.1 19.1z"/><rect class="st2" height="6.2" width="6.5" y="528.4" x="1188.3"/><rect class="st2" height="6.2" width="6.5" y="528.4" x="1241.4"/><path d="m1196.2 447.3-2-3.4c-0.8-1.3-1.3-2.2-1.8-3.1-0.4 0.9-0.9 1.7-1.7 3.1l-1.9 3.4h-2.3l4.7-7.9-4.6-7.7h2.3l2.1 3.6c0.6 1 1 1.8 1.4 2.6h0.1c0.4-0.9 0.8-1.6 1.4-2.6l2.1-3.6h2.3l-4.7 7.6 4.8 8z"/><path d="m1247.9 447.3-2-3.4c-0.8-1.3-1.3-2.2-1.8-3.1-0.4 0.9-0.9 1.7-1.7 3.1l-1.9 3.4h-2.3l4.7-7.9-4.6-7.7h2.3l2.1 3.6c0.6 1 1 1.8 1.4 2.6h0.1c0.4-0.9 0.8-1.6 1.4-2.6l2.1-3.6h2.3l-4.7 7.6 4.8 8z"/><circle cy="220.6" cx="1218.3" r="20.2" class="st6"/><rect class="st6" height="34.5" width="18.9" y="225.8" x="1208.9"/><line y2="231.7" x2="1218.3" y1="259.6" x1="1218.3" class="st7"/><path class="st3" d="m1235.9 260.6c0 1.4-1.2 2.6-2.6 2.6h-29.9c-1.4 0-2.6-1.2-2.6-2.6s1.2-2.6 2.6-2.6h29.9c1.4 0 2.6 1.2 2.6 2.6z"/><polyline points="1225.3 228.8 1218 233.1 1211.6 227.8" class="st8"/><path class="st9" d="m1086 414.6h-70.2c-8.8 0-16-7.2-16-16v-1.2c0-8.8 7.2-16 16-16h54.2c2.9 0 5.3-2.4 5.3-5.3v-3.7c0-2.9-2.4-5.3-5.3-5.3h-54.2c-8.8 0-16-7.2-16-16v-2.8c0-8.8 7.2-16 16-16h52.1c2.9 0 5.3-2.3 5.3-5.1s-2.4-5.1-5.3-5.1h-51c-8.8 0-16-7.2-16-16v-2c0-8.8 7.2-16 16-16h50c2.9 0 5.3-2.4 5.3-5.3v-1.2c0-2.9-2.4-5.3-5.3-5.3h-53.2c-8.8 0-15.9-7-15.9-15.7s7.2-15.7 15.9-15.7h53.2c2.9 0 5.3-2.4 5.3-5.3v-1.2c0-2.9-2.4-5.3-5.3-5.3h-54.2c-8.8 0-16-7.2-16-16v-1.2c0-8.8 7.2-16 16-16h52.1c5.8 0 15.4 0 21.3 0.1l41.2 0.4c8.7 0.1 15.9 7.3 16 16l0.3 41.5-10.6 0.1-0.3-41.5c0-2.9-2.5-5.4-5.4-5.5h-41.3c-5.9-0.1-15.4-0.1-21.2-0.1h-52.1c-2.9 0-5.3 2.4-5.3 5.3v1.2c0 2.9 2.4 5.3 5.3 5.3h54.2c8.8 0 16 7.2 16 15.9v1.2c0 8.8-7.2 15.9-16 15.9h-53.2c-2.9 0-5.3 2.3-5.3 5.1s2.4 5.1 5.3 5.1h53.2c8.8 0 16 7.2 16 16v1.2c0 8.8-7.2 15.9-16 15.9h-50c-2.9 0-5.3 2.4-5.3 5.3v2c0 2.9 2.4 5.3 5.3 5.3h51c8.8 0 16 7 16 15.7s-7.2 15.7-16 15.7h-52.1c-2.9 0-5.3 2.4-5.3 5.3v2.8c0 2.9 2.4 5.3 5.3 5.3h54.2c8.8 0 16 7.2 16 15.9v3.7c0 8.8-7.2 16-16 16h-54.2c-2.9 0-5.3 2.4-5.3 5.3v1.2c0 2.9 2.4 5.3 5.3 5.3h70.2z"/><path class="st10" d="m1089.8 369.8c-1.6 0-3.2-0.2-4.8-0.6l-312.7-79.4v65.3h-19.1v-67c0-5.8 2.5-11 6.7-14.3 4.3-3.3 9.9-4.4 15.5-3l312.9 79.5 0.8-74c0-0.3-0.1-0.5-0.3-0.7s-0.4-0.3-0.7-0.3h-140.3c-11.1 0-20.2-9.1-20.2-20.2v-53.2h19.1v53.2c0 0.6 0.5 1.1 1.1 1.1h140.4c5.4 0 10.5 2.1 14.3 6 3.8 3.8 5.9 8.9 5.8 14.3l-0.8 75.5c-0.1 5.7-2.6 10.9-6.8 14.2-3.2 2.3-7 3.6-10.9 3.6z"/><path class="st3" d="m807.8 298.5c-0.3 1.2-1.6 2-2.8 1.7s-2-1.6-1.7-2.8l5.2-20.3c0.3-1.2 1.6-2 2.8-1.7s2 1.6 1.7 2.8z"/><path class="st3" d="m752.3 311.3c-1.3 0-2.3-1-2.3-2.3s1-2.3 2.3-2.3h21c1.3 0 2.3 1 2.3 2.3s-1 2.3-2.3 2.3z"/><path class="st3" d="m967.8 255.1c-0.1-1.3 0.9-2.4 2.2-2.5s2.4 0.9 2.5 2.2l1.3 20.9c0.1 1.3-0.9 2.4-2.2 2.5s-2.4-0.9-2.5-2.2z"/><path class="st3" d="m1011.8 255.1c-0.1-1.3 0.9-2.4 2.2-2.5s2.4 0.9 2.5 2.2l1.3 20.9c0.1 1.3-0.9 2.4-2.2 2.5s-2.4-0.9-2.5-2.2z"/><path class="st3" d="m1060 255.1c-0.1-1.3 0.9-2.4 2.2-2.5s2.4 0.9 2.5 2.2l1.3 20.9c0.1 1.3-0.9 2.4-2.2 2.5s-2.4-0.9-2.5-2.2z"/><path class="st3" d="m850 309.3c-0.3 1.2-1.6 2-2.8 1.7s-2-1.6-1.7-2.8l5.2-20.3c0.3-1.2 1.6-2 2.8-1.7s2 1.6 1.7 2.8z"/><path class="st3" d="m892.2 320.2c-0.3 1.2-1.6 2-2.8 1.7s-2-1.6-1.7-2.8l5.2-20.3c0.3-1.2 1.6-2 2.8-1.7s2 1.6 1.7 2.8z"/><path class="st3" d="m934.4 331c-0.3 1.2-1.6 2-2.8 1.7s-2-1.6-1.7-2.8l5.2-20.3c0.3-1.2 1.6-2 2.8-1.7s2 1.6 1.7 2.8z"/><path class="st4" d="m976.7 341.9c-0.3 1.2-1.6 2-2.8 1.7s-2-1.6-1.7-2.8l5.2-20.3c0.3-1.2 1.6-2 2.8-1.7s2 1.6 1.7 2.8z"/><path class="st4" d="m1018.9 352.7c-0.3 1.2-1.6 2-2.8 1.7s-2-1.6-1.7-2.8l5.2-20.3c0.3-1.2 1.6-2 2.8-1.7s2 1.6 1.7 2.8z"/><polygon points="927.6 212.6 915.9 192.4 956.3 192.4 946.7 211.5" class="st2"/><path class="st2" d="m949.9 213.6c0 1.2-1 2.1-2.1 2.1h-22.3c-1.2 0-2.1-1-2.1-2.1 0-1.2 1-2.1 2.1-2.1h22.3c1.1 0 2.1 1 2.1 2.1z"/><path class="st3" d="m1048.7 362.6 2.1-5.3-3.1-1.2c0.3-2 0.2-4-0.2-5.9l3.3-1.4-2.3-5.2-3.4 1.5c-1.1-1.5-2.5-2.9-4.1-3.9l1.4-3.5-5.3-2.1-1.4 3.5c-1.9-0.4-3.8-0.3-5.6 0l-1.5-3.5-5.2 2.3 1.4 3.4c-1.6 1.1-3 2.4-4.1 4.1l-3.3-1.3-2.1 5.3 3.1 1.2c-0.5 2-0.5 4.1-0.1 6.1l-2.9 1.3 2.3 5.2 2.8-1.2c1.1 1.7 2.6 3.3 4.4 4.4l-1.1 2.7 5.3 2.1 1.1-2.7c2.1 0.4 4.3 0.4 6.3-0.1l1.2 2.7 5.2-2.2-1.2-2.8c1.7-1.2 3.1-2.7 4.2-4.5zm-17.2-5.4c-1.9-0.8-2.8-2.9-2.1-4.8 0.8-1.9 2.9-2.8 4.8-2.1 1.9 0.8 2.8 2.9 2.1 4.8-0.8 1.9-2.9 2.8-4.8 2.1z"/><circle transform="matrix(.3695 -.9292 .9292 .3695 322.47 1182.8)" class="st0" cy="353.8" cx="1032.9" r="3.7"/><path class="st3" d="m1076.4 342.7 2.1-5.3-3.1-1.2c0.3-2 0.2-4-0.2-5.9l3.3-1.4-2.3-5.2-3.4 1.5c-1.1-1.5-2.5-2.9-4.1-3.9l1.4-3.5-5.3-2.1-1.4 3.5c-1.9-0.4-3.8-0.3-5.6 0l-1.5-3.5-5.2 2.3 1.4 3.4c-1.6 1.1-3 2.4-4.1 4.1l-3.3-1.3-2.1 5.3 3.1 1.2c-0.4 2-0.5 4.1-0.1 6.1l-2.9 1.3 2.3 5.2 2.8-1.2c1.1 1.7 2.6 3.3 4.4 4.4l-1.1 2.7 5.3 2.1 1.1-2.7c2.1 0.4 4.3 0.4 6.3-0.1l1.2 2.7 5.2-2.3-1.2-2.8c1.7-1.2 3.1-2.7 4.2-4.5zm-17.2-5.4c-1.9-0.8-2.8-2.9-2.1-4.8 0.8-1.9 2.9-2.8 4.8-2.1 1.9 0.8 2.8 2.9 2.1 4.8s-2.9 2.8-4.8 2.1z"/><circle transform="matrix(.3693 -.9293 .9293 .3693 358.69 1196.2)" class="st0" cy="333.8" cx="1060.6" r="3.7"/><rect class="st2" height="20.5" width="8.6" y="381.7" x="1094.6"/><rect class="st2" height="20.5" width="8.6" y="380.4" x="1131"/><path class="st2" d="m1154.6 382.3c0 1.8-1.4 3.2-3.2 3.2h-68.6c-1.8 0-3.2-1.4-3.2-3.2v-137.2c0-1.8 1.4-3.2 3.2-3.2h68.6c1.8 0 3.2 1.4 3.2 3.2z"/><rect class="st0" height="7.4" width="7.4" y="263.6" x="1140.2"/><rect class="st0" height="7.4" width="7.4" y="273.7" x="1140.2"/><rect class="st0" height="7.4" width="7.4" y="283.8" x="1140.2"/><rect class="st0" height="7.4" width="7.4" y="293.9" x="1140.2"/><rect class="st0" height="7.4" width="7.4" y="304" x="1140.2"/><rect class="st0" height="7.4" width="7.4" y="314.1" x="1140.2"/><path class="st0" d="m1147.9 261.6c-0.1-3.5-1.9-6.3-4.2-6.3s-4.1 2.8-4.2 6.3z"/><path class="st0" d="m1147.9 323.4c-0.1 3.5-1.9 6.3-4.2 6.3s-4.1-2.8-4.2-6.3z"/><circle cy="332.8" cx="1116.8" r="8.1" class="st11"/><path class="st10" d="m1116.8 343.1c-5.6 0-10.2-4.6-10.2-10.2s4.6-10.2 10.2-10.2 10.2 4.6 10.2 10.2-4.6 10.2-10.2 10.2zm0-16.2c-3.3 0-6 2.7-6 6s2.7 6 6 6 6-2.7 6-6c-0.1-3.4-2.7-6-6-6z"/><circle cy="362.7" cx="1116.8" r="8.1" class="st11"/><path class="st10" d="m1116.8 372.9c-5.6 0-10.2-4.6-10.2-10.2s4.6-10.2 10.2-10.2 10.2 4.6 10.2 10.2-4.6 10.2-10.2 10.2zm0-16.2c-3.3 0-6 2.7-6 6s2.7 6 6 6 6-2.7 6-6c-0.1-3.3-2.7-6-6-6z"/><rect class="st2" height="2.2" width="0.9" y="325.9" x="1116.5"/><rect class="st2" height="2.2" width="0.9" y="356" x="1116.5"/><circle cy="274.5" cx="1107.4" r="17.8" class="st11"/><polygon points="1107.6 291.3 1108.8 274.1 1106.1 274" class="st2"/><circle cy="274.3" cx="1107.4" r="2.1" class="st4"/><path class="st3" d="m1157.4 272.4c0 0.8-0.7 1.5-1.5 1.5s-1.5-0.7-1.5-1.5v-11.4c0-0.8 0.7-1.5 1.5-1.5s1.5 0.7 1.5 1.5z"/><polygon points="976.5 398.6 976.5 534.8 997.7 534.8 997.7 516.7 1140.2 516.7 1140.2 534.8 1164.7 534.8 1164.7 398.6" class="st9"/><path class="st11" d="m1143.9 494.3c0 1.8-1.4 3.2-3.2 3.2h-142.7c-1.8 0-3.2-1.4-3.2-3.2v-76.7c0-1.8 1.4-3.2 3.2-3.2h142.7c1.8 0 3.2 1.4 3.2 3.2z"/><path class="st10" d="m1140.7 499.6h-142.7c-2.9 0-5.3-2.4-5.3-5.3v-76.7c0-2.9 2.4-5.3 5.3-5.3h142.7c2.9 0 5.3 2.4 5.3 5.3v76.7c0.1 2.9-2.3 5.3-5.3 5.3zm-142.7-83c-0.6 0-1.1 0.5-1.1 1.1v76.7c0 0.6 0.5 1.1 1.1 1.1h142.7c0.6 0 1.1-0.5 1.1-1.1v-76.7c0-0.6-0.5-1.1-1.1-1.1z"/><circle cy="419.8" cx="1154.6" r="1.9" class="st11"/><circle cy="427.6" cx="1154.6" r="1.9" class="st3"/><circle cy="435.3" cx="1154.6" r="1.9" class="st2"/><path class="st10" d="m1153.3 456.1c0 1.8-1.4 3.2-3.2 3.2h-9.2c-1.8 0-3.2-1.4-3.2-3.2s1.4-3.2 3.2-3.2h9.2c1.8 0 3.2 1.4 3.2 3.2z"/><path class="st12" d="m720.1 462.1c0.2 1.6 1.8 2.8 3.4 2.5l42.8-6.4c1.6-0.2 2.8-1.8 2.5-3.4-0.2-1.6-1.8-2.8-3.4-2.5l-42.8 6.4c-1.6 0.2-2.8 1.7-2.5 3.4z"/><path class="st2" d="m720.2 448.7c-0.2 1.6 0.9 3.1 2.5 3.4l42.8 6.1c1.6 0.2 3.1-0.9 3.4-2.5 0.2-1.6-0.9-3.1-2.5-3.4l-42.8-6.1c-1.6-0.3-3.1 0.9-3.4 2.5z"/><path class="st12" d="m720.3 474.7c0.2 1.6 1.8 2.8 3.4 2.5l42.8-6.4c1.6-0.2 2.8-1.8 2.5-3.4-0.2-1.6-1.8-2.8-3.4-2.5l-42.8 6.4c-1.7 0.2-2.8 1.8-2.5 3.4z"/><path class="st2" d="m720.1 461.2c-0.2 1.6 0.9 3.1 2.5 3.4l42.8 6.1c1.6 0.2 3.1-0.9 3.4-2.5 0.2-1.6-0.9-3.1-2.5-3.4l-42.8-6.1c-1.6-0.2-3.1 0.9-3.4 2.5z"/><path class="st12" d="m720.3 487.2c0.2 1.6 1.8 2.8 3.4 2.5l42.8-6.4c1.6-0.2 2.8-1.8 2.5-3.4-0.2-1.6-1.8-2.8-3.4-2.5l-42.8 6.4c-1.7 0.3-2.8 1.8-2.5 3.4z"/><path class="st2" d="m720.4 473.9c-0.2 1.6 0.9 3.1 2.5 3.4l42.8 6.1c1.6 0.2 3.1-0.9 3.4-2.5 0.2-1.6-0.9-3.1-2.5-3.4l-42.8-6.1c-1.6-0.3-3.1 0.8-3.4 2.5z"/><path class="st12" d="m720.3 499.5c0.2 1.6 1.8 2.8 3.4 2.5l42.8-6.4c1.6-0.2 2.8-1.8 2.5-3.4-0.2-1.6-1.8-2.8-3.4-2.5l-42.8 6.4c-1.7 0.2-2.8 1.7-2.5 3.4z"/><path class="st2" d="m720.4 486.1c-0.2 1.6 0.9 3.1 2.5 3.4l42.8 6.1c1.6 0.2 3.1-0.9 3.4-2.5 0.2-1.6-0.9-3.1-2.5-3.4l-42.8-6.1c-1.6-0.3-3.1 0.9-3.4 2.5z"/><path class="st12" d="m720.3 512c0.2 1.6 1.8 2.8 3.4 2.5l42.8-6.4c1.6-0.2 2.8-1.8 2.5-3.4-0.2-1.6-1.8-2.8-3.4-2.5l-42.8 6.4c-1.7 0.2-2.8 1.7-2.5 3.4z"/><path class="st2" d="m720.4 498.6c-0.2 1.6 0.9 3.1 2.5 3.4l42.8 6.1c1.6 0.2 3.1-0.9 3.4-2.5 0.2-1.6-0.9-3.1-2.5-3.4l-42.8-6.1c-1.6-0.2-3.1 0.9-3.4 2.5z"/><path class="st12" d="m720.1 524.5c0.2 1.6 1.8 2.8 3.4 2.5l42.8-6.4c1.6-0.2 2.8-1.8 2.5-3.4-0.2-1.6-1.8-2.8-3.4-2.5l-42.8 6.4c-1.6 0.2-2.7 1.8-2.5 3.4z"/><path class="st2" d="m720.2 511.1c-0.2 1.6 0.9 3.1 2.5 3.4l42.8 6.1c1.6 0.2 3.1-0.9 3.4-2.5 0.2-1.6-0.9-3.1-2.5-3.4l-42.8-6.1c-1.7-0.3-3.2 0.9-3.4 2.5z"/><polygon points="711.7 531.6 711.7 521.1 776.7 521.1 776.7 531.6" class="st2"/><polygon points="711.7 450.6 711.7 440.1 776.7 440.1 776.7 450.6" class="st13"/><path class="st12" d="m789.1 462.1c0.2 1.6 1.8 2.8 3.4 2.5l42.8-6.4c1.6-0.2 2.8-1.8 2.5-3.4-0.2-1.6-1.8-2.8-3.4-2.5l-42.8 6.4c-1.6 0.2-2.7 1.7-2.5 3.4z"/><path class="st2" d="m789.3 448.7c-0.2 1.6 0.9 3.1 2.5 3.4l42.8 6.1c1.6 0.2 3.1-0.9 3.4-2.5 0.2-1.6-0.9-3.1-2.5-3.4l-42.8-6.1c-1.7-0.3-3.2 0.9-3.4 2.5z"/><path class="st12" d="m789.3 474.7c0.2 1.6 1.8 2.8 3.4 2.5l42.8-6.4c1.6-0.2 2.8-1.8 2.5-3.4-0.2-1.6-1.8-2.8-3.4-2.5l-42.8 6.4c-1.6 0.2-2.8 1.8-2.5 3.4z"/><path class="st2" d="m789.2 461.2c-0.2 1.6 0.9 3.1 2.5 3.4l42.8 6.1c1.6 0.2 3.1-0.9 3.4-2.5 0.2-1.6-0.9-3.1-2.5-3.4l-42.8-6.1c-1.7-0.2-3.2 0.9-3.4 2.5z"/><path class="st12" d="m789.3 487.2c0.2 1.6 1.8 2.8 3.4 2.5l42.8-6.4c1.6-0.2 2.8-1.8 2.5-3.4-0.2-1.6-1.8-2.8-3.4-2.5l-42.8 6.4c-1.6 0.3-2.8 1.8-2.5 3.4z"/><path class="st2" d="m789.5 473.9c-0.2 1.6 0.9 3.1 2.5 3.4l42.8 6.1c1.6 0.2 3.1-0.9 3.4-2.5 0.2-1.6-0.9-3.1-2.5-3.4l-42.8-6.1c-1.7-0.3-3.2 0.8-3.4 2.5z"/><path class="st12" d="m789.3 499.5c0.2 1.6 1.8 2.8 3.4 2.5l42.8-6.4c1.6-0.2 2.8-1.8 2.5-3.4-0.2-1.6-1.8-2.8-3.4-2.5l-42.8 6.4c-1.6 0.2-2.8 1.7-2.5 3.4z"/><path class="st2" d="m789.5 486.1c-0.2 1.6 0.9 3.1 2.5 3.4l42.8 6.1c1.6 0.2 3.1-0.9 3.4-2.5 0.2-1.6-0.9-3.1-2.5-3.4l-42.8-6.1c-1.7-0.3-3.2 0.9-3.4 2.5z"/><path class="st12" d="m789.3 512c0.2 1.6 1.8 2.8 3.4 2.5l42.8-6.4c1.6-0.2 2.8-1.8 2.5-3.4-0.2-1.6-1.8-2.8-3.4-2.5l-42.8 6.4c-1.6 0.2-2.8 1.7-2.5 3.4z"/><path class="st2" d="m789.5 498.6c-0.2 1.6 0.9 3.1 2.5 3.4l42.8 6.1c1.6 0.2 3.1-0.9 3.4-2.5 0.2-1.6-0.9-3.1-2.5-3.4l-42.8-6.1c-1.7-0.2-3.2 0.9-3.4 2.5z"/><path class="st12" d="m789.2 524.5c0.2 1.6 1.8 2.8 3.4 2.5l42.8-6.4c1.6-0.2 2.8-1.8 2.5-3.4-0.2-1.6-1.8-2.8-3.4-2.5l-42.8 6.4c-1.7 0.2-2.8 1.8-2.5 3.4z"/><path class="st2" d="m789.2 511.1c-0.2 1.6 0.9 3.1 2.5 3.4l42.8 6.1c1.6 0.2 3.1-0.9 3.4-2.5 0.2-1.6-0.9-3.1-2.5-3.4l-42.8-6.1c-1.7-0.3-3.2 0.9-3.4 2.5z"/><polygon points="781.6 531.6 781.6 521.1 846.5 521.1 846.5 531.6" class="st2"/><polygon points="781.6 450.6 781.6 440.1 846.5 440.1 846.5 450.6" class="st13"/><path class="st13" d="m1113.4 521.1c0 7.2-5.9 13.1-13.1 13.1h-206.7c-7.2 0-13.1-5.9-13.1-13.1s5.9-13.1 13.1-13.1h206.7c7.2 0 13.1 5.9 13.1 13.1z"/><path class="st14" d="m1100.3 535.8h-206.7c-8.1 0-14.7-6.6-14.7-14.7s6.6-14.7 14.7-14.7h206.7c8.1 0 14.7 6.6 14.7 14.7s-6.6 14.7-14.7 14.7zm-206.7-26.2c-6.3 0-11.5 5.2-11.5 11.5s5.2 11.5 11.5 11.5h206.7c6.3 0 11.5-5.2 11.5-11.5s-5.2-11.5-11.5-11.5z"/><circle cy="520.9" cx="903.8" r="6.3" class="st2"/><path class="st14" d="m903.8 530.9c-5.5 0-10-4.5-10-10s4.5-10 10-10 10 4.5 10 10-4.5 10-10 10zm0-12.6c-1.4 0-2.6 1.2-2.6 2.6s1.2 2.6 2.6 2.6 2.6-1.2 2.6-2.6c0-1.5-1.2-2.6-2.6-2.6z"/><circle cy="520.9" cx="926.5" r="6.3" class="st2"/><path class="st14" d="m926.5 530.9c-5.5 0-10-4.5-10-10s4.5-10 10-10 10 4.5 10 10-4.5 10-10 10zm0-12.6c-1.4 0-2.6 1.2-2.6 2.6s1.2 2.6 2.6 2.6 2.6-1.2 2.6-2.6c0-1.5-1.2-2.6-2.6-2.6z"/><circle cy="520.9" cx="949.2" r="6.3" class="st2"/><path class="st14" d="m949.2 530.9c-5.5 0-10-4.5-10-10s4.5-10 10-10 10 4.5 10 10-4.5 10-10 10zm0-12.6c-1.4 0-2.6 1.2-2.6 2.6s1.2 2.6 2.6 2.6 2.6-1.2 2.6-2.6c0-1.5-1.2-2.6-2.6-2.6z"/><circle cy="520.9" cx="971.9" r="6.3" class="st2"/><path class="st14" d="m971.9 530.9c-5.5 0-10-4.5-10-10s4.5-10 10-10 10 4.5 10 10-4.5 10-10 10zm0-12.6c-1.4 0-2.6 1.2-2.6 2.6s1.2 2.6 2.6 2.6 2.6-1.2 2.6-2.6c0-1.5-1.2-2.6-2.6-2.6z"/><circle cy="520.9" cx="994.6" r="6.3" class="st2"/><path class="st14" d="m994.6 530.9c-5.5 0-10-4.5-10-10s4.5-10 10-10 10 4.5 10 10-4.5 10-10 10zm0-12.6c-1.4 0-2.6 1.2-2.6 2.6s1.2 2.6 2.6 2.6 2.6-1.2 2.6-2.6c0-1.5-1.2-2.6-2.6-2.6z"/><circle cy="520.9" cx="1017.3" r="6.3" class="st2"/><path class="st14" d="m1017.3 530.9c-5.5 0-10-4.5-10-10s4.5-10 10-10 10 4.5 10 10-4.5 10-10 10zm0-12.6c-1.4 0-2.6 1.2-2.6 2.6s1.2 2.6 2.6 2.6 2.6-1.2 2.6-2.6c0-1.5-1.2-2.6-2.6-2.6z"/><circle cy="520.9" cx="1040" r="6.3" class="st2"/><path class="st14" d="m1040 530.9c-5.5 0-10-4.5-10-10s4.5-10 10-10 10 4.5 10 10-4.5 10-10 10zm0-12.6c-1.4 0-2.6 1.2-2.6 2.6s1.2 2.6 2.6 2.6 2.6-1.2 2.6-2.6c0-1.5-1.2-2.6-2.6-2.6z"/><circle cy="520.9" cx="1062.7" r="6.3" class="st2"/><path class="st14" d="m1062.7 530.9c-5.5 0-10-4.5-10-10s4.5-10 10-10 10 4.5 10 10-4.5 10-10 10zm0-12.6c-1.4 0-2.6 1.2-2.6 2.6s1.2 2.6 2.6 2.6 2.6-1.2 2.6-2.6c0-1.5-1.2-2.6-2.6-2.6z"/><circle cy="520.9" cx="1085.4" r="6.3" class="st2"/><path class="st14" d="m1085.4 530.9c-5.5 0-10-4.5-10-10s4.5-10 10-10 10 4.5 10 10-4.4 10-10 10zm0-12.6c-1.4 0-2.6 1.2-2.6 2.6s1.2 2.6 2.6 2.6 2.6-1.2 2.6-2.6c0-1.5-1.2-2.6-2.6-2.6z"/><path class="st13" d="m910.7 476.4h-0.8v-3.8c0-0.4-0.1-0.7-0.2-1.1 0.6-0.2 1-0.7 1-1.3 0-0.8-0.6-1.4-1.4-1.4h-5.1c-0.8 0-1.4 0.6-1.4 1.4 0 0.6 0.3 1.1 0.8 1.3-0.1 0.3-0.2 0.7-0.2 1.1v3.8h-0.3c-1.9 0-3.4 1.5-3.4 3.4v22.8c0 1.9 1.5 3.4 3.4 3.4h7.6c1.9 0 3.4-1.5 3.4-3.4v-22.8c0-1.9-1.6-3.4-3.4-3.4z"/><rect class="st2" height="18.4" width="11.3" y="482" x="902.8"/><path class="st13" d="m936.2 476.4h-0.8v-3.8c0-0.4-0.1-0.7-0.2-1.1 0.6-0.2 1-0.7 1-1.3 0-0.8-0.6-1.4-1.4-1.4h-5.1c-0.8 0-1.4 0.6-1.4 1.4 0 0.6 0.3 1.1 0.8 1.3-0.1 0.3-0.2 0.7-0.2 1.1v3.8h-0.3c-1.9 0-3.4 1.5-3.4 3.4v22.8c0 1.9 1.5 3.4 3.4 3.4h7.6c1.9 0 3.4-1.5 3.4-3.4v-22.8c0-1.9-1.5-3.4-3.4-3.4z"/><rect class="st2" height="18.4" width="11.3" y="482" x="928.3"/><path class="st13" d="m961.7 476.4h-0.8v-3.8c0-0.4-0.1-0.7-0.2-1.1 0.6-0.2 1-0.7 1-1.3 0-0.8-0.6-1.4-1.4-1.4h-5.1c-0.8 0-1.4 0.6-1.4 1.4 0 0.6 0.3 1.1 0.8 1.3-0.1 0.3-0.2 0.7-0.2 1.1v3.8h-0.3c-1.9 0-3.4 1.5-3.4 3.4v22.8c0 1.9 1.5 3.4 3.4 3.4h7.6c1.9 0 3.4-1.5 3.4-3.4v-22.8c0-1.9-1.5-3.4-3.4-3.4z"/><rect class="st2" height="18.4" width="11.3" y="482" x="953.8"/><path class="st13" d="m987.2 476.4h-0.8v-3.8c0-0.4-0.1-0.7-0.2-1.1 0.6-0.2 1-0.7 1-1.3 0-0.8-0.6-1.4-1.4-1.4h-5.1c-0.8 0-1.4 0.6-1.4 1.4 0 0.6 0.3 1.1 0.8 1.3-0.1 0.3-0.2 0.7-0.2 1.1v3.8h-0.3c-1.9 0-3.4 1.5-3.4 3.4v22.8c0 1.9 1.5 3.4 3.4 3.4h7.6c1.9 0 3.4-1.5 3.4-3.4v-22.8c0-1.9-1.5-3.4-3.4-3.4z"/><rect class="st2" height="18.4" width="11.3" y="482" x="979.4"/><path class="st13" d="m1012.8 476.4h-0.8v-3.8c0-0.4-0.1-0.7-0.2-1.1 0.6-0.2 1-0.7 1-1.3 0-0.8-0.6-1.4-1.4-1.4h-5.1c-0.8 0-1.4 0.6-1.4 1.4 0 0.6 0.3 1.1 0.8 1.3-0.1 0.3-0.2 0.7-0.2 1.1v3.8h-0.3c-1.9 0-3.4 1.5-3.4 3.4v22.8c0 1.9 1.5 3.4 3.4 3.4h7.6c1.9 0 3.4-1.5 3.4-3.4v-22.8c-0.1-1.9-1.6-3.4-3.4-3.4z"/><rect class="st2" height="18.4" width="11.3" y="482" x="1004.9"/><path class="st13" d="m1038.3 476.4h-0.8v-3.8c0-0.4-0.1-0.7-0.2-1.1 0.6-0.2 1-0.7 1-1.3 0-0.8-0.6-1.4-1.4-1.4h-5.1c-0.8 0-1.4 0.6-1.4 1.4 0 0.6 0.3 1.1 0.8 1.3-0.1 0.3-0.2 0.7-0.2 1.1v3.8h-0.3c-1.9 0-3.4 1.5-3.4 3.4v22.8c0 1.9 1.5 3.4 3.4 3.4h7.6c1.9 0 3.4-1.5 3.4-3.4v-22.8c0-1.9-1.6-3.4-3.4-3.4z"/><rect class="st2" height="18.4" width="11.3" y="482" x="1030.4"/><path class="st13" d="m1063.8 476.4h-0.8v-3.8c0-0.4-0.1-0.7-0.2-1.1 0.6-0.2 1-0.7 1-1.3 0-0.8-0.6-1.4-1.4-1.4h-5.1c-0.8 0-1.4 0.6-1.4 1.4 0 0.6 0.3 1.1 0.8 1.3-0.1 0.3-0.2 0.7-0.2 1.1v3.8h-0.3c-1.9 0-3.4 1.5-3.4 3.4v22.8c0 1.9 1.5 3.4 3.4 3.4h7.6c1.9 0 3.4-1.5 3.4-3.4v-22.8c0-1.9-1.5-3.4-3.4-3.4z"/><rect class="st2" height="18.4" width="11.3" y="482" x="1055.9"/><path class="st13" d="m1089.3 476.4h-0.8v-3.8c0-0.4-0.1-0.7-0.2-1.1 0.6-0.2 1-0.7 1-1.3 0-0.8-0.6-1.4-1.4-1.4h-5.1c-0.8 0-1.4 0.6-1.4 1.4 0 0.6 0.3 1.1 0.8 1.3-0.1 0.3-0.2 0.7-0.2 1.1v3.8h-0.3c-1.9 0-3.4 1.5-3.4 3.4v22.8c0 1.9 1.5 3.4 3.4 3.4h7.6c1.9 0 3.4-1.5 3.4-3.4v-22.8c0-1.9-1.5-3.4-3.4-3.4z"/><rect class="st2" height="18.4" width="11.3" y="482" x="1081.4"/><rect class="st6" height="17.1" width="3.8" y="440.1" x="972.7"/><path class="st6" d="m870 533.7h-7.4v-62.7c0-14.4 11.7-26.1 26.1-26.1h86v7.4h-86c-10.3 0-18.6 8.3-18.6 18.6v62.8z"/><path class="st6" d="m898.1 441.8h-9.6c-16.1 0-29.2 13.1-29.2 29.2v17.3h13.8v-17.3c0-8.5 6.9-15.4 15.4-15.4h9.6z"/><rect class="st6" height="14.2" width="40.4" y="441.5" x="918"/><rect class="st6" height="29.8" width="14.2" y="505" x="858.8"/><ellipse rx="2" ry="8.1" class="st15" cy="420.9" cx="876.3"/><ellipse rx="2" ry="8.1" class="st15" cy="420.9" cx="879.1"/><ellipse rx="2" ry="8.1" class="st15" cy="420.9" cx="882"/><ellipse rx="2" ry="8.1" class="st15" cy="420.9" cx="884.8"/><ellipse rx="2" ry="8.1" class="st15" cy="420.9" cx="887.7"/><ellipse rx="2" ry="8.1" class="st15" cy="420.9" cx="890.5"/><ellipse rx="2" ry="8.1" class="st15" cy="420.9" cx="893.4"/><ellipse rx="2" ry="8.1" class="st15" cy="420.9" cx="896.2"/><ellipse rx="2" ry="8.1" class="st15" cy="420.9" cx="899"/><ellipse rx="2" ry="8.1" class="st15" cy="420.9" cx="901.9"/><ellipse rx="2" ry="8.1" class="st15" cy="420.9" cx="904.7"/><ellipse rx="2" ry="8.1" class="st15" cy="420.9" cx="907.6"/><ellipse rx="2" ry="8.1" class="st15" cy="420.9" cx="910.4"/><ellipse rx="2" ry="8.1" class="st15" cy="420.9" cx="913.2"/><ellipse rx="2" ry="8.1" class="st15" cy="420.9" cx="916.1"/><ellipse rx="2" ry="8.1" class="st15" cy="420.9" cx="918.9"/><ellipse rx="2" ry="8.1" class="st15" cy="420.9" cx="921.8"/><ellipse rx="2" ry="8.1" class="st15" cy="420.9" cx="924.6"/><ellipse rx="2" ry="8.1" class="st15" cy="420.9" cx="927.4"/><ellipse rx="2" ry="8.1" class="st15" cy="420.9" cx="930.3"/><ellipse rx="2" ry="8.1" class="st15" cy="420.9" cx="933.1"/><ellipse rx="2" ry="8.1" class="st15" cy="420.9" cx="936"/><ellipse rx="2" ry="8.1" class="st15" cy="420.9" cx="938.8"/><ellipse rx="2" ry="8.1" class="st15" cy="420.9" cx="941.7"/><ellipse rx="2" ry="8.1" class="st15" cy="420.9" cx="944.5"/><ellipse rx="2" ry="8.1" class="st15" cy="420.9" cx="947.3"/><ellipse rx="2" ry="8.1" class="st15" cy="420.9" cx="950.2"/><ellipse rx="2" ry="8.1" class="st15" cy="420.9" cx="953"/><ellipse rx="2" ry="8.1" class="st15" cy="420.9" cx="955.9"/><ellipse rx="2" ry="8.1" class="st15" cy="420.9" cx="958.7"/><ellipse rx="2" ry="8.1" class="st15" cy="420.9" cx="961.5"/><ellipse rx="2" ry="8.1" class="st15" cy="420.9" cx="964.4"/><ellipse rx="2" ry="8.1" class="st15" cy="420.9" cx="967.2"/><ellipse rx="2" ry="8.1" class="st15" cy="420.9" cx="970.1"/><ellipse rx="2" ry="8.1" class="st15" cy="420.9" cx="972.9"/><ellipse rx="2" ry="8.1" class="st15" cy="420.9" cx="975.7"/><path class="st2" d="m875.5 428.4c0 1.8-1.4 3.2-3.2 3.2h-6.4c-1.8 0-3.2-1.4-3.2-3.2v-14.9c0-1.8 1.4-3.2 3.2-3.2h6.4c1.8 0 3.2 1.4 3.2 3.2z"/><rect class="st3" height="8.1" width="7.9" y="361.6" x="868.4"/><path class="st3" d="m868.7 360.2v-3.2h-14v17.3h14v-3.4c0.2-0.1 0.4-0.5 0.4-0.9v-8.8c0-0.5-0.2-0.9-0.4-1z"/><path class="st3" d="m870.5 360.2c-0.3 0-0.5 0.4-0.5 1v8.8c0 0.5 0.2 1 0.5 1s0.5-0.4 0.5-1v-8.8c0-0.6-0.2-1-0.5-1z"/><path class="st3" d="m872.4 360.2c-0.3 0-0.6 0.4-0.6 1v8.8c0 0.5 0.2 1 0.6 1 0.3 0 0.5-0.4 0.5-1v-8.8c0.1-0.6-0.2-1-0.5-1z"/><path class="st3" d="m874.4 360.2c-0.3 0-0.5 0.4-0.5 1v8.8c0 0.5 0.2 1 0.5 1s0.5-0.4 0.5-1v-8.8c0-0.6-0.2-1-0.5-1z"/><path class="st3" d="m878.2 365.2h2.2c-0.2-5.2-3.8-6.8-3.8-6.8v1.8c-0.1-0.1-0.2-0.1-0.3-0.1-0.3 0-0.6 0.4-0.6 1v8.8c0 0.5 0.2 1 0.6 1 0.1 0 0.2-0.1 0.3-0.1v2.5s3.5-0.4 3.8-7h-2.2z"/><rect class="st3" height="8.1" width="7.9" y="385" x="868.4"/><path class="st3" d="m868.7 383.6v-3.2h-14v17.3h14v-3.4c0.2-0.1 0.4-0.5 0.4-0.9v-8.8c0-0.5-0.2-0.9-0.4-1z"/><path class="st3" d="m870.5 383.6c-0.3 0-0.5 0.4-0.5 1v8.8c0 0.5 0.2 1 0.5 1s0.5-0.4 0.5-1v-8.8c0-0.6-0.2-1-0.5-1z"/><path class="st3" d="m872.4 383.6c-0.3 0-0.6 0.4-0.6 1v8.8c0 0.5 0.2 1 0.6 1 0.3 0 0.5-0.4 0.5-1v-8.8c0.1-0.6-0.2-1-0.5-1z"/><path class="st3" d="m874.4 383.6c-0.3 0-0.5 0.4-0.5 1v8.8c0 0.5 0.2 1 0.5 1s0.5-0.4 0.5-1v-8.8c0-0.6-0.2-1-0.5-1z"/><path class="st3" d="m878.2 388.6h2.2c-0.2-5.2-3.8-6.8-3.8-6.8v1.8c-0.1-0.1-0.2-0.1-0.3-0.1-0.3 0-0.6 0.4-0.6 1v8.8c0 0.5 0.2 1 0.6 1 0.1 0 0.2-0.1 0.3-0.1v2.5s3.5-0.4 3.8-7h-2.2z"/><polygon points="684.4 432 684.4 354.7 701.1 354.7 701.1 361.1 690.8 361.1 690.8 425.6 698.2 425.6 698.2 432" class="st3"/><path class="st9" d="m864.8 434.8c0 3.5-2.9 6.4-6.4 6.4h-154.1c-3.5 0-6.4-2.9-6.4-6.4v-86.1c0-3.5 2.9-6.4 6.4-6.4h154.2c3.5 0 6.4 2.9 6.4 6.4v86.1z"/><circle cy="427.4" cx="844.3" r="4.6" class="st3"/><circle cy="427.4" cx="826" r="4.6" class="st0"/><circle cy="427.4" cx="786.9" r="4.6" class="st10"/><circle cy="427.4" cx="807.7" r="4.6" class="st2"/><path class="st11" d="m856.8 378.1c0 3.7-3 6.7-6.7 6.7h-104.8c-3.7 0-6.7-3-6.7-6.7v-19.9c0-3.7 3-6.7 6.7-6.7h104.7c3.7 0 6.7 3 6.7 6.7v19.9z"/><path class="st10" d="m850.1 386.9h-104.8c-4.9 0-8.8-4-8.8-8.8v-19.9c0-4.9 4-8.8 8.8-8.8h104.7c4.9 0 8.8 4 8.8 8.8v19.9c0.1 4.9-3.9 8.8-8.7 8.8zm-104.8-33.3c-2.5 0-4.6 2-4.6 4.6v19.9c0 2.5 2.1 4.6 4.6 4.6h104.7c2.5 0 4.6-2 4.6-4.6v-19.9c0-2.5-2.1-4.6-4.6-4.6z"/><path class="st10" d="m812.4 384.5c0 3.3-2.7 6-6 6h-9.9c-3.3 0-6-2.7-6-6s2.7-6 6-6h9.9c3.3-0.1 6 2.6 6 6z"/><circle cy="418.9" cx="719.2" r="8" class="st0"/><path class="st0" d="m722.7 419.9c0 2-1.7 3.7-3.7 3.7s-3.7-1.7-3.7-3.7v-47.1c0-2 1.7-3.7 3.7-3.7s3.7 1.7 3.7 3.7z"/><path class="st15" d="m720.8 413.4v-35.9c0-0.9-0.8-1.7-1.7-1.7s-1.7 0.8-1.7 1.7v35.8c-1.9 0.6-3.3 2.4-3.3 4.5 0 2.6 2.1 4.8 4.8 4.8 2.6 0 4.8-2.1 4.8-4.8-0.1-2.1-1.3-3.7-2.9-4.4z"/><rect class="st13" height="1.1" width="4.4" y="370.8" x="707.7"/><rect class="st13" height="1.1" width="4.4" y="374.6" x="707.7"/><rect class="st13" height="1.1" width="2.6" y="378.5" x="707.7"/><rect class="st13" height="1.1" width="4.4" y="382.3" x="707.7"/><rect class="st13" height="1.1" width="4.4" y="386.1" x="707.7"/><rect class="st13" height="1.1" width="2.6" y="389.9" x="707.7"/><rect class="st13" height="1.1" width="4.4" y="393.7" x="707.7"/><rect class="st13" height="1.1" width="4.4" y="397.5" x="707.7"/><rect class="st13" height="1.1" width="2.6" y="401.4" x="707.7"/><rect class="st13" height="1.1" width="4.4" y="405.2" x="707.7"/><rect class="st13" height="1.1" width="4.4" y="409" x="707.7"/><path class="st16" d="m978.3 299.3c0 2.2-1.8 3.9-3.9 3.9-2.2 0-3.9-1.8-3.9-3.9 0-2.2 1.8-3.9 3.9-3.9 2.2 0 3.9 1.7 3.9 3.9"/><path class="st16" d="m1016.1 298.4c0 2.2-1.8 3.9-3.9 3.9-2.2 0-3.9-1.8-3.9-3.9 0-2.2 1.8-3.9 3.9-3.9s3.9 1.7 3.9 3.9"/><path class="st17" d="m1005.5 323c-3-0.7-7.5-1.5-12.3-1.5-4.7 0-9.3 0.8-12.3 1.5-1.9 0.4-3.4 2.4-3.4 4.3v31.2h31.3v-31.2c0-1.8-1.5-3.8-3.3-4.3"/><path class="st16" d="m999.4 318.3 0.5 4s-3.2 5.2-6.8 4.7c-3.7-0.5-6.8-4.7-6.8-4.7l0.5-4z"/><polygon points="977.8 394.5 976.7 396.6 976.7 398.9 990.3 398.9 990.3 396.5" class="st18"/><polygon points="1011.5 394.5 999 396.5 999 398.9 1012.7 398.9 1012.7 396.6" class="st18"/><path class="st16" d="m998.7 267.2h-10.7c-14.6 0-14.8 27.9-14.8 27.9s1.3 22.6 16.7 24.7h6.8c9.2 0 15.4-7.7 15.4-17.2l0.5-7.4c0.1 0 0.7-28-13.9-28"/><path class="st19" d="m985.3 299.7c1 0 1.8-1 1.8-2.1v-0.9c0-1.2-0.8-2.1-1.8-2.1s-1.8 1-1.8 2.1v0.9c0 1.1 0.8 2.1 1.8 2.1"/><path class="st20" d="m999.5 286.8c-1.7 0.6-1.1 2.5 1.5 4.2s4.9 3 5.4 3.9c0.4 0.9 0.7-2.4-1.6-4.1-2.3-1.8-5.3-4-5.3-4"/><path class="st20" d="m986.8 287.6c1.6 0.9 0.5 2.6-2.3 3.8-2.9 1.2-5.4 1.9-6 2.7s-0.2-2.5 2.4-3.7c2.5-1.3 5.9-2.8 5.9-2.8"/><path class="st19" d="m1001.5 299.3c1 0 1.8-1 1.8-2.1v-0.9c0-1.2-0.8-2.1-1.8-2.1s-1.8 1-1.8 2.1v0.9c0.1 1.2 0.8 2.1 1.8 2.1"/><path class="st21" d="m1011.4 394.6-3-30.9v-5.6h-30l0.1 36.5 12.2 2v-29.6c0-1.2 1-2.2 2.2-2.2h1c1.2 0 2.3 1 2.4 2.2l2.8 29.6z"/><path class="st16" d="m1007.9 324.6s15.2-0.8 15.8-0.9c0.2 0 0.3-0.1 0.5 0l0.5 0.1c0.3 0.1 0.7 0.1 1 0.2 0.2 0 0.3 0.1 0.5 0.2l0.5 0.2 0.9 0.6 0.9 0.6 0.4 0.3 0.3 0.3c1.3 1 2.4 2 3.6 3.1 1.1 1 2.2 2 3.3 3.1l2.3 2.2-6.1 6.3-2.2-2.1c-1.1-1-5.7-6.5-5.7-6.5s-15.9 0.4-16.5 0.8c0 0-0.7-8 0-8.5z"/><path class="st17" d="m1034.1 342.5-2.8-2.8 7.2-5.1 1.7 1.7c1.8 1.7 1.8 4.5 0.1 6.2s-4.5 1.7-6.2 0"/><path class="st16" d="m977.3 325.2c0.6-0.7 1.4-1.3 2.3-1.6s2.8 3.3 1.3 10.4-3.6 27.4-2.6 29.9l-8.8-0.2 0.1-3.2c0.2-5.4 0.6-10.8 1.4-16.3 0.4-2.7 0.9-5.5 1.6-8.3 0.3-1.4 0.8-2.8 1.3-4.2s1.1-2.9 2-4.4c0.4-0.7 0.8-1.4 1.4-2.1"/><path class="st17" d="m969.5 366.1v-4.8s7.8-1.1 8.9 1.3l-0.1 3.6c0 2.4-2 4.3-4.4 4.3-2.5 0.1-4.5-2-4.4-4.4"/><polyline points="1001.4 364.2 1001.4 362.1 1006.2 362.1 1006.2 365.1" class="st22"/><line y2="365.3" x2="1007.1" y1="364.1" x1="1e3" class="st23"/><path class="st20" d="m1006.2 311.4c-1.2 2-5.2 7.9-9.5 8.8-1.4 0.3-1-2.5-1.4-2.7-0.2-0.1-2-0.1-2.3-0.1-0.4 0-0.4 2.8-1.7 2.8-3.2 0.2-7.3-5.4-9.8-8.1-2.5-2.8-5 0-7.4-13.8-0.1 0-0.2-2.8-0.2-2.9 0.1-0.1 0.4-1 0.4-1.3 0.5-1.8 0.9-3.6 1.2-5.4 0.2 0 0.4 0.1 0.6 0.1-0.4 0.1 9.2-1 13.7-3.5-0.3 0.6-1.5 1.4-1.5 1.4s7.8-2.3 10-5.6l-0.3 1.2c3-1.9 4.9-4.9 6.3-8.2 0.5 2.6 2.7 5.6 4.7 6.8 0-0.4-1-1.8-1-2.2 1 1.5 2.7 4.9 3.3 6.6 0.2-0.2 1.1 8.7 1.4 12.9-0.5 8.5-5.3 11.3-6.5 13.2m8.4-34.6c0.4-0.1 1.3 2.1 1.6 2.2 0.3-4-2-5.4-1.7-5.9 0.2-0.4 0.4-0.8 0.2-1.3-1.6-3.4-4.3-7.7-6.3-8.4-0.7-0.2-3.5-0.9-3.5-0.9-2.3-2.1-6.4-3.2-9.5-3.6 0.3 0.4 0.7 0.8 1.1 1.2-0.5 0.1-1.1 0-1.5-0.3 0 0.3-0.1 0.6-0.1 0.9-2.4-0.2-4.8-1.1-6.7-2.7 0.2 0.8 0.5 1.5 0.9 2.1-0.4-0.1-0.9-0.1-1.3-0.2 0.2 0.3 0.5 0.7 0.7 1-5.6-0.8-6.1 1.4-8.8 2 0.9 0.2 2.5-0.1 3 0.2-9.4 1.7-12.9 8.9-14.9 9.6 0.9 0.1 1.7 0 2.3-0.3 0.6-0.4 0.8-0.3 0 0-1.1 0.6-2.2 1.3-2.6 1.3 0.4 0.2 3.6-0.8 4-0.6-1.3 0.5-5.3 1.9-6.7 2 1 1 4.5-0.1 5.6 0.8-1.3-0.1-6.1 1.5-6.7 1.6 0.4 0.7 2.7 3.8 4.2 4.8l-2.5-0.4c1.1 1 3.2 3.5 6 5.1 0.2 2.8 1.4 9.7 2.1 12.6 0 2.6 1.7 8.2 1.7 8.2 3.4 12.6 12.8 13.1 14 13.5 1.9 0.6 6.8 0.4 8.4 0.1 0.5-0.1 15-1.7 15-22.2 0 0.5 0 0.8 0.1 1.1 0.9-4.3 2.5-10.1 2.2-14.4l1.5 0.1c0.9-6.5-1.6-8.6-1.8-9.2"/><path class="st24" d="m991.9 310.2c5 0.1 6.9 2.4 7 2.5 0.3 0.3 0.2 0.9 0 1.2-0.3 0.3-0.7 0.3-1 0 0 0-1.6-2.1-6-2-2.5 0-4.1 0.7-4.1 0.7-0.4 0.3-0.7 0.3-1 0s-0.3-0.8 0-1.2c0.1-0.1 2.2-1.3 5.1-1.2"/><path class="st16" d="m606.2 465.5 0.4 2.9 6.3-1.9-0.2-1.8c-0.2-1.8-1.8-3.1-3.6-2.9-1.8 0.3-3 2-2.9 3.7"/><path class="st25" d="m599.1 485.4c-2.2 0.9-5.5 3.9-6 5.3-0.5 1.3-1.5 5.6 0.7 4.7l1.7-0.7c2.8-1.1 1.7-0.6 4.5-1.8s5.5-2.4 8.3-3.7c0.7-0.3 1.4-0.7 2.1-1l0.5-0.3 0.4-0.2c0.2-0.1 0.3-0.2 0.5-0.3l1-0.6 0.9-0.6c0.6-0.4 1-1 1.4-1.5 0.1-0.1 0.2-0.3 0.3-0.4l0.2-0.5c0.1-0.3 0.2-0.6 0.3-1 0.1-0.2 0.1-0.3 0.1-0.5v-0.5-1.1c0-0.4-0.1-0.7-0.1-1.1l-0.1-0.5-0.1-0.4c-0.2-1.6-0.5-3.1-0.8-4.6s-0.6-3-1-4.4l-0.7-3.1-6.5 1.2 0.7 3 0.9 4.2c0.3 1.4 0.6 2.8 0.7 4.1v0.1l0.3 1.6c-0.6 0.3-3.2 1.5-3.9 1.8l-6.3 2.8"/><polyline points="583.7 537.3 584 558.5 590.2 552.8 590.2 537.4" class="st18"/><polyline points="580.3 537.3 580 558.5 573.8 552.8 573.8 537.4" class="st18"/><path class="st16" d="m553.9 470.3 0.2 3-6.6-0.5-0.2-1.8c-0.2-1.8 1.2-3.4 3-3.6 1.8-0.1 3.4 1.2 3.6 2.9"/><path class="st25" d="m565 488.3c2.4 0.4 6.2 2.7 7 3.9s2.6 5.2 0.2 4.8l-1.8-0.3c-2.9-0.5-1.8-0.3-4.7-0.8-2.9-0.6-5.9-1.2-8.8-1.9-0.7-0.2-1.5-0.4-2.3-0.6l-0.6-0.2-0.4-0.1c-0.2 0-0.3-0.1-0.5-0.2l-1-0.3c-0.3-0.1-0.7-0.3-1-0.4-0.6-0.3-1.2-0.7-1.7-1.2-0.1-0.1-0.3-0.2-0.4-0.4l-0.3-0.4c-0.2-0.3-0.3-0.6-0.5-0.9-0.1-0.1-0.1-0.3-0.2-0.5l-0.1-0.5c-0.1-0.3-0.1-0.7-0.2-1.1s-0.1-0.7-0.1-1.1l-0.1-0.5v-0.4c-0.1-1.7-0.1-3.2-0.1-4.7s0-3 0.1-4.5l0.1-3.2 6.7-0.1-0.1 3.1c0 1.4-0.1 2.9-0.1 4.3s0 2.9 0.1 4.1v1.7c0.7 0.2 3.5 0.8 4.2 1 2.7 0.6 6.6 1.4 6.6 1.4"/><path class="st18" d="m583 561.1h4.4l0.2-1.8 3.9 1.8h5.2v-2.3s-0.3-1.6-1.2-2.1c-4.4-0.6-4-4.6-4-4.6h-8.5z"/><path class="st18" d="m581 561.1h-10v-2.3s0.3-1.6 1.2-2.1c1-0.5 0.3-4.6 0.3-4.6h8.5s-1 3.8-0.7 4.7c0.3 0.8 0.7 1 0.9 1.8 0.2 0.7-0.2 2.5-0.2 2.5"/><path class="st21" d="m593 485.3c-3-0.7-7.5-1.5-12.3-1.5-4.7 0-9.3 0.8-12.3 1.5-1.9 0.4-3.4 2.4-3.4 4.3 0 0 10 15.5 5.3 24.2-5.2 9.6-3.2 24.4-3.2 24.4h28.4s0.7-16.8-4.2-24.4c-5.1-7.9 4.9-24.2 4.9-24.2 0.1-1.9-1.4-3.9-3.2-4.3"/><path class="st16" d="m586.9 480.6 0.5 4s-1.1 9.2-6.5 8.6c-5.5-0.6-7.1-8.6-7.1-8.6l0.5-4z"/><path class="st26" d="m598.8 476.5c-2.8-3.8-5.2-8.1-8-11.8-0.5 2.2-2.1 6.3-2.1 6.3-0.7 8.8 6.8 19.2 1.8 26.2 8.5-2.9 9.1-19.5 8.3-20.7"/><path class="st27" d="m594.8 492.3c1.5-3.6 1.9-5.8 2.1-10-1.3-3.7-3.4-7-5-10.6 0.3 3.6 2.9 6.9 2.7 10.5-0.6-2.7-3.4-7.6-3.4-7.6 3.9 8.5 3.6 17.7 3.6 17.7"/><path class="st27" d="m591.4 474.9c1.6 4.5 2.3 9.3 2.1 14"/><path class="st16" d="m566.5 461.6c0 2.2-1.8 3.9-3.9 3.9-2.2 0-3.9-1.8-3.9-3.9 0-2.2 1.8-3.9 3.9-3.9 2.2-0.1 3.9 1.7 3.9 3.9"/><path class="st16" d="m602.9 460.6c0 2.2-1.8 3.9-3.9 3.9-2.2 0-3.9-1.8-3.9-3.9 0-2.2 1.8-3.9 3.9-3.9s3.9 1.8 3.9 3.9"/><path class="st16" d="m586.3 429.4h-10.7c-14.6 0-14.8 27.9-14.8 27.9s1.3 22.6 16.7 24.7h6.8c9.2 0 15.4-7.7 15.4-17.2l0.5-7.4c0 0.1 0.6-28-13.9-28"/><path class="st28" d="m574.5 460.4c1.2 0 2.1-1 2.1-2.1v-0.9c0-1.2-1-2.1-2.1-2.1-1.2 0-2.1 1-2.1 2.1v0.9c-0.1 1.1 0.9 2.1 2.1 2.1"/><path class="st28" d="m588.6 460.4c1.2 0 2.1-1 2.1-2.1v-0.9c0-1.2-1-2.1-2.1-2.1-1.2 0-2.1 1-2.1 2.1v0.9c0 1.1 1 2.1 2.1 2.1"/><path class="st22" d="m581.3 477.4c0.9 0 1.6-0.7 1.6-1.6v-0.7c0-0.9-0.7-1.6-1.6-1.6s-1.6 0.7-1.6 1.6v0.7c0 0.9 0.7 1.6 1.6 1.6"/><path class="st26" d="m580.8 436.4c-0.6 5.3-7.4 4.4-11.3 8.1-3.8 3.7-4.1 7.3-7.5 13.3-1.3-0.2-2.5 1.4-2.5 1.4s-1.5-12.5-0.4-12.9c-1.3-1.7 0.4-6.5 1.5-8.3 3.3-5.6 7.1-8.6 13.4-10.4 2.3-0.6 4.9-0.7 7 0.5 0.1 2.7-0.1 5.4-0.5 8.1"/><path class="st26" d="m579.5 435c0.6 5.3 9.2 7.6 13 11.3s2.9 7.4 6.7 10.7c1.6-0.4 2.7 1.1 2.7 1.1s1.3-11.4 0.3-11.9c1.3-1.7 1.1-4.8-1.6-9.1-3.5-5.5-7-7.8-13.3-9.5-2.3-0.6-4.9-0.7-7 0.5-0.1 2.7-1.5 3-1.2 5.7"/><path class="st27" d="m563.8 486.3c0.1-0.9-1.4-6.1-1.4-6.1s-2.3-11.7-1.5-16.5c0.3-1.5 0.7-3 0.9-4.5 0.4-2.4 0.1-7.3 0.5-9.7 1-6.5 4.4-10 8.8-13.7 1.7-1.4 3.5-2.5 5.5-2.7 0.4 0 1.1 0.2 1 0.7"/><path class="st26" d="m579.1 433.8c-6.3 1.2-10.4 11.9-12.9 20.1s-3.1 17-2.5 25.7c0.1 2.3 0.8 3.8 0.1 5.9-0.3 0.8-0.8 2.2-1 3s0.6 3.8 1 4.5c0 0 9.9-60.6 15.3-59.2z"/><path class="st27" d="m576 430.4c-2.3 0.7-4.8 1.4-6.3 3.4-0.8 1-1.2 2.3-1.9 3.3-0.6 0.8-1.3 1.4-1.9 2.2-0.7 1.1-0.9 2.4-1.1 3.7-0.5 3.1-1 6.3-1.4 9.4 0.8-2.2 1.5-4.6 2-6.9 0.2-1.1 0.4-2.2 0.8-3.2 0.3-0.8 0.8-1.5 1.2-2.3 0.9-1.6 1.9-3.1 2.8-4.7 0.2 1.4-0.4 2.8-1.2 3.9s-1.9 2.1-2.6 3.3c1.7-1 3-2.5 3.7-4.4 0.6-1.6 0.8-3.7 2.4-4.5-0.1 0.3-0.1 0.7-0.2 1 0.9-1.8 2.4-3.3 4.2-4.2"/><path class="st27" d="m581.6 432.5c0.5 2.7 2.3 5.1 4.7 6.5 1.6 0.9 3.5 1.4 4.9 2.7-1.7-2.6-6.7-3.5-7.6-6.5 0.5 0.3 3.8 2.5 4.3 2.8-0.3-0.6-2.4-4.6-2.6-5.1 1.8 1.6 5.6 5.1 7.6 7.7 1.1 1.4 0.7 2.4 1.7 3.8 1.1 1.6 3.8 3.7 3.8 5.7-2.3-8-7.8-15-15-19.1 0.5 1.8 1.8 3 2.2 4.4-1.3-0.8-2.6-1.8-4.1-3.1"/><path class="st29" d="m721 264.4c0.9 0.1 1.8 0.3 2.6 0.8s1.4 1.2 1.8 1.9c0.2 0.4 0.3 0.7 0.3 1s0 0.6-0.1 0.9c-0.2 0.6-0.5 1-1 1.4-0.9 0.7-2 1.1-2.7 1.6-0.6 0.5-0.8 1-1.4 0.9h-1.1c-0.9 0.1-1.9 0.3-3 0.7-1.1 0.3-2.2 0.7-3.3 1.2-2.2 0.9-4.4 2-6.6 3.2-4.4 2.4-8.6 5.2-12.8 8l-2.5 1.7-5-7 2.6-1.8c4.4-3 8.8-5.9 13.6-8.5 2.4-1.3 4.8-2.5 7.4-3.6 1.3-0.5 2.6-1.1 4-1.5s2.9-0.8 4.6-1c0.9 0.1 1.7 0.1 2.6 0.1"/><path class="st16" d="m684.4 282.3 1.9-1.4 5 7-1.8 1.3c-1.9 1.4-4.5 1-6-0.9-1.5-1.8-1-4.6 0.9-6"/><path class="st17" d="m731.8 267.2c-2.8-0.6-7.2-1.4-11.8-1.4s-9 0.8-11.8 1.4c-1.8 0.4-3.2 2.3-3.2 4.2v30h30v-30c0.1-1.9-1.4-3.8-3.2-4.2"/><polygon points="713.8 262.4 726.3 262.4 726.7 266.3 720 270.5 713.3 266.3" class="st30"/><path class="st22" d="m722.6 288.3c0 0.4-0.3 0.7-0.7 0.7s-0.7-0.3-0.7-0.7 0.3-0.7 0.7-0.7c0.3-0.1 0.7 0.3 0.7 0.7"/><path class="st22" d="m722.6 291.8c0 0.4-0.3 0.7-0.7 0.7s-0.7-0.3-0.7-0.7 0.3-0.7 0.7-0.7c0.3 0 0.7 0.3 0.7 0.7"/><path class="st22" d="m722.6 295.4c0 0.4-0.3 0.7-0.7 0.7s-0.7-0.3-0.7-0.7 0.3-0.7 0.7-0.7c0.3-0.1 0.7 0.3 0.7 0.7"/><path class="st22" d="m720 298.7c-0.1 0-0.3-0.1-0.3-0.3v-26.6c0-0.1 0.1-0.3 0.3-0.3 0.1 0 0.3 0.1 0.3 0.3v26.6c0 0.2-0.1 0.3-0.3 0.3"/><path class="st31" d="m738.1 337.8-3-30.9v-5.6h-30l0.1 36.5 12.2 2v-29.6c0-1.2 1-2.2 2.2-2.2h1c1.2 0 2.3 1 2.4 2.2l2.8 29.6z"/><polygon points="705.2 337.8 704 339.9 704 342.1 717.4 342.1 717.4 339.8" class="st21"/><polygon points="738.1 337.8 725.9 339.8 725.9 342.1 739.2 342.1 739.2 339.9" class="st21"/><path class="st26" d="m726.3 264.6s-2 1-6.3 1-6.3-1-6.3-1 3.4-0.7 6.3-0.7c3 0 6.3 0.7 6.3 0.7"/><path class="st16" d="m725.6 212.2h-11c-15 0-15.2 27.9-15.2 27.9v7.5c0 9.5 7.7 17.2 17.2 17.2h7c9.5 0 17.2-7.7 17.2-17.2v-7.5s-0.3-27.9-15.2-27.9"/><path class="st16" d="m704.2 249.2c0 2.2-1.8 3.9-3.9 3.9-2.2 0-3.9-1.8-3.9-3.9 0-2.2 1.8-3.9 3.9-3.9 2.2 0 3.9 1.7 3.9 3.9"/><path class="st16" d="m742.8 249.2c0 2.2-1.8 3.9-3.9 3.9-2.2 0-3.9-1.8-3.9-3.9 0-2.2 1.8-3.9 3.9-3.9 2.2 0 3.9 1.7 3.9 3.9"/><path class="st32" d="m710.1 239.1c-4 0-7.2 3.2-7.2 7.1 0 0.5 0.1 1.1 0.2 1.6 0.1 0.2 0.2 0.5 0.2 0.7 1 2.8 3.7 4.9 6.9 4.9 4 0 7.2-3.2 7.2-7.2-0.1-3.9-3.3-7.1-7.3-7.1"/><path class="st33" d="m703 247.8c0.1 0.2 0.1 0.5 0.2 0.7 0-0.3-0.1-0.5-0.2-0.7"/><path class="st32" d="m729.2 239.1c-4 0-7.2 3.2-7.2 7.1s3.2 7.2 7.2 7.2 7.2-3.2 7.2-7.2c0.1-3.9-3.2-7.1-7.2-7.1"/><path class="st28" d="m740 208.7c2.7 0.8 3.8 2.8 4.1 3.7-2-2.7-4.1-3.7-4.1-3.7m14 12.3c-3.7 1.3-6.9-1.4-6.9-1.4-0.5-3.1-1.7-5.4-2.9-7.1-0.6-11-11.5-9.1-11.5-9.1-6.8-6.2-12.6-2.5-12.6-2.5-26.6-2.3-29 18.4-29 18.4-4.1 6.2-1.6 12.7-1.6 12.7-0.4 3 1.8 5.3 1.8 5.3 0.6 2.3 2.9 4.1 2.9 4.1 1.7 1.3 2.4 3.4 2.4 3.4-0.5 2.4 1.5 3.5 1.5 3.5 0.5 0.2 1.6 1.6 1.6 1.6-0.4-1.8 2.7-13.3 2.7-13.3 1.9-10.8 13.3-12.4 13.3-12.4-1.4 2.5-2.4 4.7-3.1 6.9 3.9-5.6 6.4-6.4 6.4-6.4 3.6-3.1 6.8-2.2 6.8-2.2 3.5 2.4 7.9 1.1 7.9 1.1-2.4 2.1-6.5 1.7-6.5 1.7 3.9 2.9 8.3 1.9 8.3 1.9 0.6 3.5-3.7 6.7-3.7 6.7 5.4-1.5 6.2-5.6 6.2-5.6-0.1 3.2-3.5 5.1-3.5 5.1 2 0.7 2.6-0.1 2.6-0.1 2.9 4.7 2.4 12.3 2.4 12.3-0.7 3.9 0.6 2.3 0.6 2.3 0.5-1.1 4.5-5.1 4.5-5.1 6.6-6.7 4.5-18.9 4.5-18.9 4-0.5 4.9-2.9 4.9-2.9"/><path class="st34" d="m740 208.7c2.6 0.7 3.7 2.8 4.1 3.7-2-2.7-4.1-3.7-4.1-3.7m14 12.3c-3.7 1.3-6.9-1.4-6.9-1.4-0.5-3.1-1.7-5.4-2.9-7.1-0.5-11-11.5-9.1-11.5-9.1-6.8-6.2-12.6-2.5-12.6-2.5-26.6-2.3-29 18.4-29 18.4-0.1 0.2-0.3 0.4-0.4 0.7 2.1-1.3 4.5-3 4.8-4.3 0.5-2.4 5.2-7.7 9.4-7.4 0 0-5.3 3.5-6.3 9 0 0 8-7.6 15.9-6.7 0 0-7.1 2-10.5 6.9 0 0 4.9-3.6 7.8-2.2 0 0 6.8 3.7 11.5-1.7 0 0 2-5 8-2.7 0 0 2.2-2.9-4.3-6.8 0 0 4.9 1.5 6.8 6.5 0 0-1.1-3.3-3.6-5.5 0 0 3.7 2.3 4.3 5.5 0 0 1-2.1-1.5-5.5 0 0 4.9 5.1 1.9 9.3 0 0 1.8-1.1 2.1-4 0 0 4 6.5-4.4 11.6 0 0 2.6-0.5 4.4-2.2-0.5-0.1-0.9-0.3-0.9-0.3 0.5 0.1 0.9 0 1.2 0 0.9-0.9 1.5-2.1 1.6-3.8 0 0 1.2 3.4-1.6 3.8l-0.3 0.3c1.1 0.3 3 0.5 3.6-1.6 0 0 2.4 2.6-1.1 6.6 0 0 3.9 0.3 5.1-2.4 0 0 2.4 0.5 4.5 10.4 0.7-4.8 0-8.9 0-8.9 4-0.5 4.9-2.9 4.9-2.9"/><path class="st18" d="m729.3 253c-3.9 0-7-3.1-7-6.9 0-3.9 3.1-7 6.9-7 3.9 0 7 3.1 7 6.9 0 3.9-3.1 7-6.9 7m-19.2 0.1c-3.9 0-7-3.1-7-6.9 0-3.9 3.1-7 7-7s7 3.1 7 7c0 3.8-3.1 6.9-7 6.9m27.9-8.7c-0.6 0-1.2 0.2-1.3-0.3-0.1-0.4-0.7-2.6-2-3.7-1.3-1-2.5-1.9-4.7-2.1-1.4 0-3.6 0.1-5.4 1.6-1.7 1.5-2.4 2.8-2.9 4.3h-4.2c-0.5-1.4-1.2-2.7-2.9-4.2s-4-1.6-5.4-1.6c-2.1 0.3-3.4 1.1-4.7 2.2s-1.8 3.3-1.9 3.7-3.4 0.3-3.9 0.3c-0.6 0-0.6 0.2-0.6 0.2v1.9s3.3 0 3.8 0.2 0.6 0.3 0.6 0.6c0.7 1.6 1.2 2.7 2.4 4.3 2.6 2.6 6.4 2.4 8.5 1.5s2.6-2.1 3.4-3.1c0.8-1.1 1-3.3 1.1-3.8s0.6-0.6 0.6-0.6h2.6s0.5 0.1 0.6 0.6 0.3 2.7 1.1 3.8 1.3 2.2 3.4 3.1 6 1 8.5-1.6c1.2-1.6 1.7-2.7 2.4-4.3 0-0.3 0.1-0.4 0.6-0.6s3.4-0.2 3.4-0.2v-1.9c-0.3-0.1-2.6-0.3-3.1-0.3"/><path class="st28" d="m721.4 262.8c-0.3 0-2.3 0-2.6-0.1-0.5-0.1 1.6 3.2-1.4 2.1-2.7-1-4.8-3.3-4.8-5 0-1.8 2.5-1.7 5.3-2.2 0.6-0.1 1.9-0.7 1.9-0.7s1.4 0.6 2 0.7c3 0.5 5.5 0.7 5.5 2.5 0 1.9-2.3 4-5.1 5-1.8 0.6-0.4-2.3-0.8-2.3m7.2-3.4c-0.3-1.6-1-2.5-2.1-3-1.5-0.7-2.3-0.8-3.3-0.8-1.6 0-3.5 0.3-3.5 0.3s-2.3-0.9-4.8-0.2-3.9 2.5-4.3 3.2c-0.7 1.3 0.2 6.2 0.4 7.9 0.1 1 0.9 2.3 1.8 2.9 0.4 0.3 4.4 2.5 5.1 2.5 0.8 0 1.7 0.1 2.5 0.1s2 0 2.7-0.3c1.4-0.6 3.4-2 4.7-3.3 1.5-1.3 0.9-8.6 0.8-9.3"/><path class="st22" d="m722.6 277.5c0 0.4-0.3 0.7-0.7 0.7s-0.7-0.3-0.7-0.7 0.3-0.7 0.7-0.7c0.3 0 0.7 0.3 0.7 0.7"/><path class="st22" d="m722.6 281.1c0 0.4-0.3 0.7-0.7 0.7s-0.7-0.3-0.7-0.7 0.3-0.7 0.7-0.7c0.3-0.1 0.7 0.3 0.7 0.7"/><path class="st22" d="m722.6 284.6c0 0.4-0.3 0.7-0.7 0.7s-0.7-0.3-0.7-0.7 0.3-0.7 0.7-0.7c0.3 0 0.7 0.3 0.7 0.7"/><path class="st24" d="m720.1 259.5c-4.5 0-6.3 0.5-6.3 0.5-0.4 0.1-0.6 0.5-0.5 0.9s0.5 0.6 0.9 0.5c0 0 1.7-0.5 5.9-0.5s5.9 0.5 5.9 0.5c0.4 0.1 0.8-0.1 0.9-0.5s-0.1-0.8-0.5-0.9c0 0-1.8-0.5-6.3-0.5"/><path class="st29" d="m736.1 277.9c0.4-0.8 0.6-1.7 0.6-2.7 0-0.9-0.3-1.8-0.7-2.5-0.2-0.3-0.5-0.6-0.8-0.8s-0.6-0.3-0.9-0.4c-0.6-0.1-1.2 0-1.7 0.2-1.1 0.5-2 1.2-2.7 1.5-0.8 0.3-1.2 0.2-1.5 0.7-0.1 0.3-0.3 0.6-0.6 0.9-0.5 0.7-1.3 1.5-2.1 2.2-0.8 0.8-1.7 1.5-2.7 2.2-1.9 1.4-4 2.8-6.1 4.1-4.3 2.6-8.8 4.9-13.4 7l-2.7 1.3 3.6 7.8 2.8-1.3c4.8-2.3 9.5-4.7 14.2-7.4 2.3-1.4 4.6-2.9 6.9-4.6 1.1-0.8 2.2-1.7 3.3-2.7s2.2-2.1 3.2-3.5c0.5-0.5 0.9-1.2 1.3-2"/><path class="st16" d="m702.3 300.5 2.2-1-3.6-7.8-2.1 0.9c-2.1 0.9-3.1 3.4-2.2 5.6 0.9 2.3 3.5 3.3 5.7 2.3"/><path class="st35" d="m707.8 246.1c0 1.2 1 2.1 2.1 2.1h0.9c1.2 0 2.1-1 2.1-2.1 0-1.2-1-2.1-2.1-2.1h-0.9c-1.2-0.1-2.1 0.9-2.1 2.1"/><path class="st35" d="m726.9 246.1c0 1.2 1 2.1 2.1 2.1h0.9c1.2 0 2.1-1 2.1-2.1 0-1.2-1-2.1-2.1-2.1h-0.9c-1.1-0.1-2.1 0.9-2.1 2.1"/><path class="st36" d="m1004.2 279.2s-0.1 7 2.5 5.9c2.6-0.9-2.5-5.9-2.5-5.9z"/><path class="st36" d="m726.8 223.2s-5.4 4.4-2.9 5.7c2.4 1.4 2.9-5.7 2.9-5.7z"/><path class="st36" d="m590.9 447.5s-0.4 7 2.2 6.1c2.7-0.9-2.2-6.1-2.2-6.1z"/><path class="st21" d="m1189.7 189.6c-0.6-0.7-1.3-1.3-2.2-1.6s-1.8-0.4-2.6-0.3c-0.4 0.1-0.7 0.2-1 0.4s-0.5 0.4-0.7 0.6c-0.4 0.5-0.5 1.1-0.5 1.6 0 1.2 0.4 2.3 0.3 3.1s-0.3 1.2 0.1 1.6l0.1 0.1 0.2 0.2c0.1 0.2 0.3 0.5 0.6 0.9 0.5 0.8 1 2.2 1.5 3.7s0.8 3.1 1.1 4.4c0.3 1.2 0.4 2.1 0.4 2.1l8.5-1.5s-0.2-0.9-0.4-2.3c-0.3-1.4-0.7-3.3-1.3-5.2s-1.4-3.8-2.2-5.3c-0.4-0.7-0.8-1.4-1.2-1.8-0.2-0.2-0.3-0.4-0.4-0.5-0.3-0.1-0.3-0.2-0.3-0.2"/><path class="st16" d="m1197.4 229.5v-2.1c-0.2-7-0.6-14-1.7-21l-0.2-1.4-8.5 1.5 0.2 1.3c1 6.5 1.4 13.2 1.6 19.9v2c0 2.3 1.9 4.2 4.3 4.2s4.3-2 4.3-4.4"/><polygon points="1186.5 204.3 1194.9 202.5 1195 203.1 1186.6 204.8" class="st37"/><path class="st21" d="m1165 195.2c0.4-0.4 0.2-0.8 0.1-1.6s0.3-1.9 0.3-3.1c0-0.6-0.1-1.2-0.5-1.6-0.2-0.3-0.4-0.5-0.7-0.6-0.3-0.2-0.6-0.3-1-0.4-0.8-0.2-1.7-0.1-2.6 0.3-0.9 0.3-1.6 0.9-2.2 1.6l-0.2 0.2c-0.1 0.1-0.3 0.3-0.4 0.5-0.3 0.4-0.8 1.1-1.2 1.8-0.8 1.5-1.6 3.4-2.2 5.3s-1 3.8-1.3 5.2-0.4 2.3-0.4 2.3l8.5 1.5s0.1-0.8 0.4-2.1c0.2-1.2 0.6-2.8 1.1-4.4 0.5-1.5 1-2.9 1.5-3.7 0.2-0.4 0.4-0.7 0.6-0.9 0-0.2 0.1-0.2 0.2-0.3z"/><path class="st16" d="m1159.3 229.7v-2c0.2-6.7 0.6-13.4 1.6-19.9l0.2-1.3-8.5-1.5-0.2 1.4c-1.1 7.1-1.5 14-1.7 21v2.1c0 2.4 1.9 4.4 4.3 4.4 2.4-0.1 4.3-1.9 4.3-4.2"/><polygon points="1153.2 202.5 1161.6 204.3 1161.5 204.8 1153.1 203.1" class="st37"/><path class="st21" d="m1186 187.5c-2.8-0.6-7.2-1.4-11.8-1.4s-8.9 0.8-11.8 1.4c-1.8 0.4-3.2 2.3-3.2 4.1v30h30v-30c0-1.8-1.5-3.7-3.2-4.1"/><path class="st37" d="m1174.2 193.1c5.2 0 7.5-3.6 8-5.4l0.1-0.3-0.1-0.6c-0.2 0-0.4-0.1-0.6-0.1l0.1 0.7v0.2c-0.5 1.7-2.6 5-7.5 5s-7-3.3-7.5-5v-0.2l0.1-0.7c-0.2 0-0.4 0.1-0.6 0.1l-0.1 0.6 0.1 0.3c0.5 1.8 2.8 5.4 8 5.4"/><path class="st38" d="m1159.2 221.6 0.1 36.4 12.2 2v-29.5c0-1.2 1-2.2 2.2-2.2h1c1.2 0 2.2 1 2.2 2.2v29.5l12.2-2 0.1-36.4z"/><polygon points="1159.3 258.1 1158.2 260.1 1158.2 262.3 1171.5 262.3 1171.5 260" class="st22"/><polygon points="1189.1 258.1 1176.9 260 1176.9 262.3 1190.2 262.3 1190.2 260.1" class="st22"/><path class="st16" d="m1180.4 183.6 0.5 3.4s-2.9 3.5-6.8 3.5-6.8-3.5-6.8-3.5l0.5-3.4z"/><path class="st39" d="m1180.4 185.3s-2 1-6.3 1-6.4-1-6.4-1 3.4-0.7 6.4-0.7c2.9-0.1 6.3 0.7 6.3 0.7"/><path class="st16" d="m1157.1 164.5c0 2.8-1.8 5.1-4 5.1s-4-2.3-4-5.1 1.8-5.1 4-5.1c2.2 0.1 4 2.3 4 5.1"/><path class="st16" d="m1199 163.1c0 2.8-1.8 6.4-4 6.4s-4-2.3-4-5.1 1.8-5.1 4-5.1 4 1.1 4 3.8"/><path class="st16" d="m1194.8 149.9c0-9.6-7.8-18.8-17.4-18.8h-7.1c-9.6 0-17.4 9.2-17.4 18.8v18.4c0 9.6 7.8 17.4 17.4 17.4h7.1c9.6 0 17.4-7.8 17.4-17.4z"/><path class="st24" d="m1174.1 177.9c-6.2 0-8.5 2.4-8.6 2.5-0.3 0.3-0.3 0.9 0.1 1.2 0.3 0.3 0.9 0.3 1.2 0 0 0 2-2 7.3-2s7.3 2 7.3 2c0.3 0.3 0.9 0.3 1.2 0s0.4-0.8 0-1.2c0 0-2.3-2.5-8.5-2.5"/><path class="st40" d="m1183.4 135.5c-1 0-2 0.4-3 0.8s-1.9 0.7-2.9 1.1c-0.9 0.3-1.8 0.7-2.8 0.5-0.4-0.1-0.8-0.3-1.2-0.3-0.8-0.1-1.7 0.1-2.5 0.2-0.9 0.1-1.8-0.1-2.3-0.8-0.1-0.1-0.1-0.2-0.2-0.3-0.2-0.2-0.5 0-0.8 0.1-0.6 0.2-1.4 0-1.8-0.5-0.5 0.3-1.2 0.4-1.7 0.1-0.5-0.2-2.2-1.5-2.3-2.1 0.1 0 1.6 0.6 1.7 0.5-1.7-0.6-2.5-2.3-2.7-3.5 0.2 0 1 0.7 1.2 0.7-1.1-1.7-1.4-3.8-0.8-5.7-0.1 0.5-0.1 0.9 0.1 1.4 0.1-0.7 0.5-1.3 1-1.8l0.3 0.9c0.1-2.4 2-4.5 4.3-5-1 0.4-1.8 1.6-1.7 2.7 0.2-0.4 0.5-0.8 1-1 0 0.3 0.1 0.6 0.1 0.8 1.4-0.7 2.2-2.3 2-3.9 0.1 1.3 0.4 2.6 1 3.7 0.1-0.6 0.1-1.1 0-1.7 0.2 0.3 0.3 0.7 0.5 1v-1.3c1 1.2 2.3 2.1 3.8 2.6-0.1-0.3-1.3-1.4-1.2-1.4 0.2 0.1 2.3 0.8 2.5 0.9 0.3-1.1 1.4-1.7 2.7-1.9-0.6 0.6-1.1 0.8-0.9 1.3 0.4-0.4 1-0.7 1.5-0.9 0.1 0.3 0.1 0.6 0.1 1 0.4-0.3 0.8-0.7 1.1-1-0.1 0.6-0.1 1.2 0.3 1.6 0.5 0.5 0.8 0.3 1.2-0.2s0.2-0.8 0.5-1.8c0.2 0.9 0.2 1.9-0.1 2.8 0.2-0.2 1-0.4 1.2-0.6 0 0.7-0.3 1.3-0.1 1.9 0.1-0.2 1-1.4 1.1-1.5 0.1 0.3-0.5 1.6-0.4 1.9 0.5-0.7 1.2-1.2 1.9-1.7-0.4 0.8-0.4 1.8 0 2.6 0.2-0.3 0.4-0.6 0.7-0.9 0 0.4-0.1 0.8-0.1 1.2 0.1-0.2 0.4-0.4 0.7-0.3-0.1 0.3-0.1 0.6 0.1 0.8s0.6 0.2 0.8 0.1c-0.2 0.1-0.3 0.3-0.3 0.6-0.2 1-0.3 2-0.5 2.9 0.1-0.2 0.1-0.5 0.2-0.7-0.2 0.9-0.4 1.9-1 2.6-1.1 1.9-2 1.5-2.3 1.5"/><path class="st41" d="m1194.1 159.5s-1.3 0.5-1.4 0.5-0.5-0.3-0.4-0.5c0-0.2 0.4-0.5 0.6-0.5 0.1 0 1.3 0.4 1.3 0.4v0.1zm-3.6 4.4c-0.3 1.4-1.3 2.8-1.8 3.4-1.5 1.4-3.6 1.4-5.2 1.4-4-0.2-4.8-1.5-5.7-2.9-1.2-1.8-1.1-4.1-0.9-5.7 0.2-1.5 1.4-2.5 2.2-2.9s2.7-0.6 2.7-0.6c2.2-0.2 4.8 0.1 6.1 0.4 1.2 0.3 1.7 0.7 2.2 1.2s0.7 1.7 0.7 1.7c0.1 0.7 0 2.6-0.3 4m-21.7 1.9c-1 1.4-1.8 2.8-5.7 2.9-1.6 0-3.7 0-5.2-1.4-0.6-0.6-1.6-2-1.8-3.4-0.3-1.4-0.4-3.3-0.2-3.9 0 0 0.2-1.2 0.7-1.7s1-0.9 2.2-1.2 3.9-0.5 6.1-0.4c0 0 2 0.2 2.7 0.6 0.8 0.4 2 1.3 2.2 2.9 0.1 1.5 0.2 3.8-1 5.6m-14.8-5.8c-0.1 0-1.4-0.5-1.4-0.5v-0.1s1.2-0.4 1.3-0.4 0.5 0.2 0.5 0.5c0 0.1-0.3 0.5-0.4 0.5m41.4-1.7c0-0.3-1-0.5-1-0.5s-1.2-0.3-2.4-0.8-3.7-1.4-4.9-1.6-3.9-0.3-5.5-0.1-3.1 0.6-3.7 0.8c-0.5 0.3-1 0.6-1.3 0.8-0.2 0.2-0.5 0.4-0.7 0.3-0.2 0-0.7-0.3-0.7-0.3h-2-2s-0.5 0.3-0.7 0.3-0.4-0.2-0.7-0.3c-0.2-0.2-0.8-0.5-1.3-0.8s-2.1-0.6-3.7-0.8-4.3-0.1-5.5 0.1-3.7 1.1-4.9 1.6-2.4 0.8-2.4 0.8-0.9 0.3-1 0.5c0 0.3 0.2 2.4 0.2 2.4s1 0.3 1.6 0.5 0.8 0.6 1.3 1.4c0.4 1 1.6 3.9 2.3 5s2.4 1.8 4.5 2.3c4 0.3 5.4-0.6 6.7-1.3s2-2.3 2.5-3.1c0.4-0.8 1.2-3.9 1.3-4.2s-0.1-0.5-0.3-0.7c-0.1-0.2-0.3-0.6-0.2-0.9s0.2-0.6 0.9-0.9c0.4-0.1 1-0.2 1.4-0.2s1 0.1 1.4 0.2c0.7 0.2 0.8 0.6 0.9 0.9s-0.1 0.7-0.2 0.9-0.3 0.5-0.3 0.7c0.1 0.3 0.8 3.4 1.3 4.2 0.4 0.8 1.2 2.4 2.5 3.1s2.7 1.6 6.7 1.3c2.1-0.5 3.8-1.2 4.5-2.3s1.9-3.9 2.3-5c0.4-0.8 0.7-1.2 1.3-1.4s1.6-0.5 1.6-0.5 0.2-2.1 0.2-2.4"/><path class="st36" d="m1161.4 138.1s-5.4 4.4-2.9 5.7c2.4 1.3 2.9-5.7 2.9-5.7z"/><path class="st28" d="m1187.8 163.4c-0.2 0-0.3-0.1-0.5-0.2-2.3-1.9-5-0.1-5.1-0.1-0.3 0.2-0.8 0.1-1-0.2s-0.1-0.8 0.2-1c1.3-0.9 4.3-1.9 6.9 0.2 0.3 0.3 0.4 0.7 0.1 1.1-0.1 0.1-0.3 0.2-0.6 0.2z"/><path class="st28" d="m1166.3 163.4c-0.2 0-0.3-0.1-0.5-0.2-2.3-1.9-5-0.1-5.1-0.1-0.3 0.2-0.8 0.1-1-0.2s-0.1-0.8 0.2-1c1.3-0.9 4.3-1.9 6.9 0.2 0.3 0.3 0.4 0.7 0.1 1.1-0.2 0.1-0.4 0.2-0.6 0.2z"/></g></svg>
