<?xml version="1.0" standalone="no"?>
<!DOCTYPE svg PUBLIC "-//W3C//DTD SVG 20010904//EN"
 "http://www.w3.org/TR/2001/REC-SVG-20010904/DTD/svg10.dtd">
<svg version="1.0" xmlns="http://www.w3.org/2000/svg"
 width="700.000000pt" height="700.000000pt" viewBox="0 0 700.000000 700.000000"
 preserveAspectRatio="xMidYMid meet">
<metadata>
Created by potrace 1.11, written by Peter Selinger 2001-2013
</metadata>
<g transform="translate(0.000000,700.000000) scale(0.100000,-0.100000)"
fill="#000000" stroke="none">
<path d="M3874 6934 c-19 -7 -42 -20 -49 -31 -17 -23 -57 -145 -49 -152 3 -3
45 -19 93 -37 l89 -31 26 86 c31 103 32 111 6 143 -24 31 -67 39 -116 22z"/>
<path d="M1948 6795 c-2 -1 -55 -5 -118 -9 -63 -4 -131 -8 -150 -11 -19 -2
-78 -9 -130 -15 -339 -38 -735 -140 -1005 -259 l-70 -30 185 -1 c244 -2 588
-14 700 -25 19 -2 114 -8 210 -14 96 -7 214 -16 261 -21 144 -17 161 -15 198
24 18 19 45 36 59 39 15 4 50 27 77 52 83 77 175 150 270 215 l90 61 -287 -2
c-158 0 -288 -2 -290 -4z"/>
<path d="M2901 6713 c-176 -29 -323 -108 -550 -295 -44 -36 -87 -68 -93 -71
-7 -2 -10 -7 -6 -11 7 -8 11 -9 83 -21 28 -4 102 -27 165 -50 63 -24 194 -66
290 -95 96 -28 238 -72 315 -97 81 -26 163 -46 195 -47 30 -2 71 -6 90 -11 44
-9 426 -150 460 -169 35 -20 228 -96 242 -96 30 0 437 -185 539 -245 33 -19
62 -35 65 -35 8 0 3 194 -6 243 -26 146 -34 177 -55 222 -13 28 -32 72 -44 98
-30 69 -100 172 -168 244 -81 88 -268 183 -479 247 -43 13 -115 38 -159 54
-158 61 -350 105 -600 137 -131 17 -168 16 -284 -2z"/>
<path d="M600 6284 c0 -2 31 -35 69 -73 63 -63 131 -171 131 -208 0 -27 31
-24 212 22 248 63 689 183 695 188 2 3 -24 8 -59 12 -35 4 -71 9 -80 11 -10 1
-50 6 -90 9 -39 3 -74 8 -77 9 -9 6 -279 17 -723 31 -43 1 -78 1 -78 -1z"/>
<path d="M1627 5985 c-318 -90 -580 -165 -583 -168 -3 -2 28 -25 68 -50 128
-80 362 -261 788 -610 l164 -135 93 139 c206 311 426 567 635 742 l67 56 -97
30 c-53 16 -198 57 -321 91 -123 33 -226 62 -230 64 -3 1 -266 -70 -584 -159z"/>
<path d="M4820 5989 c0 -6 4 -18 9 -28 6 -9 20 -64 32 -122 17 -85 22 -141 23
-306 2 -233 -8 -211 124 -280 41 -21 99 -61 130 -89 32 -28 68 -57 82 -64 13
-7 67 -47 120 -88 212 -168 285 -227 290 -232 3 -3 52 -46 110 -95 58 -49 114
-99 125 -110 12 -11 65 -63 119 -115 l98 -95 -6 46 c-26 185 -282 603 -571
934 -151 173 -388 410 -587 588 -72 64 -98 79 -98 56z"/>
<path d="M3034 5847 c-249 -184 -462 -414 -679 -736 l-106 -156 118 -21 c411
-77 898 -253 1433 -520 124 -62 226 -112 226 -111 1 1 5 34 8 72 4 39 9 81 11
95 16 110 23 551 11 675 -7 64 -19 167 -21 175 0 3 -4 28 -9 55 -4 28 -17 86
-28 131 l-20 81 -81 28 c-45 15 -187 65 -315 111 -128 46 -236 84 -241 84 -9
0 -203 62 -232 74 -10 4 -37 -9 -75 -37z"/>
<path d="M4210 5485 c0 -2 9 -60 19 -127 11 -68 23 -166 27 -218 8 -113 8
-434 0 -540 -3 -41 -8 -120 -12 -175 -3 -55 -8 -109 -10 -119 -2 -10 -2 -22 1
-26 2 -3 50 -1 107 6 96 12 385 12 447 0 14 -3 62 -8 106 -11 105 -9 320 -47
470 -84 66 -16 122 -28 124 -25 10 10 -168 377 -344 707 -68 127 -69 128 -134
165 -36 20 -93 59 -126 87 -94 80 -109 88 -377 220 -139 69 -261 130 -270 135
-20 11 -28 13 -28 5z"/>
<path d="M5455 4680 c4 -12 65 -138 137 -281 117 -237 132 -260 151 -256 12 3
49 13 82 21 33 9 94 16 135 16 l75 1 -35 32 c-20 17 -76 68 -125 112 -147 131
-216 195 -290 266 -111 106 -142 128 -130 89z"/>
<path d="M2990 4628 c-5 -13 -55 -165 -110 -338 -56 -173 -110 -340 -120 -370
-11 -30 -78 -237 -151 -460 -72 -223 -141 -436 -154 -475 -13 -38 -83 -252
-155 -475 -176 -542 -246 -757 -282 -865 -17 -49 -30 -103 -30 -119 1 -40 31
-67 78 -71 51 -3 88 16 107 57 8 18 92 269 187 558 95 289 191 584 215 655 24
72 92 281 153 465 60 184 187 569 281 856 94 286 171 526 171 532 0 7 -6 12
-14 12 -13 0 -106 34 -138 51 -25 13 -27 12 -38 -13z"/>
<path d="M3995 3331 c-16 -4 -29 -12 -28 -18 2 -7 22 -42 46 -80 61 -94 261
-476 324 -619 61 -137 92 -236 86 -275 -7 -50 -68 -81 -243 -124 -399 -99
-672 -197 -850 -304 -77 -46 -230 -173 -230 -191 0 -4 21 0 48 10 26 10 70 21
97 24 83 11 193 42 376 107 228 79 360 121 494 158 98 26 144 37 250 56 17 3
60 6 97 6 80 0 128 -19 163 -66 55 -71 135 -309 161 -480 3 -16 9 -55 14 -85
17 -103 24 -225 24 -435 1 -224 -6 -340 -29 -555 -8 -74 -18 -157 -21 -185 -2
-27 -7 -57 -9 -65 -2 -8 -7 -42 -10 -74 -6 -56 -5 -58 12 -45 55 44 109 131
164 264 41 101 119 429 158 665 6 36 13 76 16 90 3 14 9 53 14 86 5 34 13 70
19 80 5 11 12 42 15 69 28 218 65 334 115 354 31 13 216 18 282 8 65 -10 185
-44 260 -74 119 -48 328 -184 452 -295 20 -18 86 -75 146 -127 61 -52 113
-100 116 -107 11 -28 24 -13 21 24 -7 97 -55 190 -172 338 -86 107 -365 395
-453 466 -51 41 -120 80 -297 169 -134 67 -173 98 -174 138 -3 90 -1 103 22
128 60 64 187 131 391 207 124 46 360 121 438 139 14 4 34 13 44 20 19 14 19
16 3 40 -17 26 -89 58 -175 78 -26 6 -56 13 -67 15 -50 12 -266 11 -341 -1
-209 -34 -432 -123 -656 -262 -52 -32 -106 -57 -128 -60 -36 -5 -40 -3 -84 53
-25 33 -46 64 -46 71 0 6 -3 13 -7 15 -5 2 -21 21 -37 42 -154 206 -398 425
-618 555 -86 50 -138 65 -193 52z"/>
<path d="M3964 3055 c16 -73 160 -627 170 -655 13 -39 29 -43 89 -23 21 8 43
10 49 7 14 -9 5 18 -59 169 -67 161 -259 547 -249 502z"/>
<path d="M6270 2569 c-277 -79 -501 -166 -605 -235 -46 -30 -54 -39 -43 -51
12 -15 121 -69 189 -93 l35 -13 160 118 c178 132 394 308 374 304 -3 0 -52
-14 -110 -30z"/>
<path d="M4375 1924 c-109 -19 -343 -83 -708 -195 -73 -23 -145 -44 -162 -49
-49 -13 -252 -75 -378 -115 -64 -20 -115 -40 -112 -45 17 -27 303 -46 445 -29
36 4 92 10 125 14 121 13 151 16 175 20 14 2 61 9 105 15 44 6 132 20 195 31
63 11 154 22 202 26 82 5 87 5 111 -19 19 -19 31 -52 50 -139 14 -63 29 -136
32 -162 4 -27 8 -56 10 -65 11 -61 35 -215 39 -257 6 -61 15 -138 21 -185 4
-31 13 -251 16 -410 2 -81 27 -197 55 -253 14 -27 27 -47 30 -45 2 2 6 37 9
77 3 40 7 77 10 81 6 9 18 138 32 352 10 142 10 635 1 708 -4 30 -10 80 -13
110 -5 46 -35 205 -50 260 -26 102 -86 253 -105 265 -28 17 -71 20 -135 9z"/>
<path d="M5365 1592 c-6 -4 -15 -18 -21 -32 -17 -36 -57 -190 -52 -195 2 -3
35 -7 74 -10 248 -18 610 -109 899 -226 l70 -29 -75 73 c-200 194 -436 343
-630 397 -76 21 -246 35 -265 22z"/>
</g>
</svg>
