<?xml version="1.0" encoding="utf-8"?>
<!-- Generator: Adobe Illustrator 21.0.0, SVG Export Plug-In . SVG Version: 6.00 Build 0)  -->
<svg version="1.1" id="Ebene_1" xmlns="http://www.w3.org/2000/svg" xmlns:xlink="http://www.w3.org/1999/xlink" x="0px" y="0px"
	 viewBox="0 0 244.8 244.8" style="enable-background:new 0 0 244.8 244.8;" xml:space="preserve">
<style type="text/css">
	.st0{fill:#BD0C70;}
	.st1{fill:#D0BC31;}
</style>
<g>
	<g>
		<g>
			<path class="st0" d="M122.4,2C56,2,2,56,2,122.4s54,120.4,120.4,120.4s120.4-54,120.4-120.4S188.8,2,122.4,2 M122.4,244.8
				C54.9,244.8,0,189.9,0,122.4S54.9,0,122.4,0s122.4,54.9,122.4,122.4S189.9,244.8,122.4,244.8"/>
			<path class="st1" d="M161.8,195.7L138.6,117c0,0,0-0.1,0-0.1l8.4-6.3l-10.4-8.4V77h-2.8v2h-3.5v-2h-2.8v2h-3.3v-5.6
				c2.1-0.6,3.7-2.6,3.7-4.9c0-2.3-1.6-4.3-3.7-4.9v-4.8c1.3-0.6,2.2-1.9,2.2-3.4c0-1.5-0.9-2.8-2.2-3.4v-4.8h-2.8v4.8
				c-1.3,0.6-2.2,1.9-2.2,3.4c0,1.5,0.9,2.8,2.2,3.4v4.8c-2.1,0.6-3.7,2.6-3.7,4.9c0,2.3,1.6,4.3,3.7,4.9V79h-3.8v-2h-2.8v2h-3.5v-2
				h-2.8v25.3l-10.4,8.4l8.4,6.3c0,0,0,0.1,0,0.1L83,195.7c-0.2,0.7,0.1,1.4,0.7,1.7c0.2,0.1,0.4,0.2,0.6,0.2c0.4,0,0.9-0.2,1.1-0.6
				l26-34.1v32.7c0,0.7,0.6,1.3,1.3,1.4c0,0,0.1,0,0.1,0c0.7,0,1.3-0.5,1.4-1.1l8.2-41.3l8.2,41.3c0.1,0.7,0.7,1.1,1.4,1.1
				c0,0,0.1,0,0.1,0c0,0,0,0,0,0c0,0,0,0,0,0c0.1,0,0.2,0,0.3,0c1-0.2,0.9-2.5,0.9-2.5v-31.6l26,34.1c0.3,0.4,0.7,0.6,1.1,0.6
				c0.2,0,0.4-0.1,0.6-0.2C161.7,197,162,196.3,161.8,195.7 M119.8,147.3l-5.5,7.2v-7.2H119.8z M111.1,95.3h3.5v13.3h-3.5V95.3z
				 M111.1,111.5h3.5v15.9h-3.5V111.5z M114.6,92.5h-3.5V81.9h3.5V92.5z M108.2,105.9v9l-5.8-4.3L108.2,105.9z M108.2,120.1v7.3
				h-2.2L108.2,120.1z M105.2,130.2h3v14.2H101L105.2,130.2z M111.4,158.2l-23.6,30.9l12.4-41.8h11.2V158.2z M111.1,130.2h3.5v14.2
				h-3.5V130.2z M114.2,181.1v-21.9l5.8-7.7L114.2,181.1z M121.2,144.4h-3.8v-14.2h3.8V144.4z M121.2,127.4h-3.8v-15.9h3.8V127.4z
				 M121.2,108.7h-3.8V95.3h3.8V108.7z M121.2,92.5h-3.8V81.9h3.8V92.5z M136.5,105.9l5.8,4.7l-5.8,4.3V105.9z M136.5,120.1l2.2,7.3
				h-2.2V120.1z M136.5,130.2h3l4.2,14.2h-7.2V130.2z M130.2,81.9h3.5v10.6h-3.5V81.9z M130.2,95.3h3.5v13.3h-3.5V95.3z
				 M130.2,111.5h3.5v15.9h-3.5V111.5z M124.1,81.9h3.3v10.6h-3.3V81.9z M124.1,95.3h3.3v13.3h-3.3V95.3z M124.1,111.5h3.3v15.9
				h-3.3V111.5z M124.1,130.2h3.3v14.2h-3.3V130.2z M130.5,180.1l-5.6-28.3l5.6,7.3V180.1z M130.5,154.5l-5.5-7.2h5.5V154.5z
				 M130.2,130.2h3.5v14.2h-3.5V130.2z M133.4,158.2v-10.9h11.2l12.4,41.8L133.4,158.2z"/>
			<path class="st0" d="M223.4,132.3c-4.9,50.3-46.7,90-97.9,91.6l-3.1-10.6l-3.1,10.6c-51.2-1.6-93-41.2-97.9-91.6l10.2-3
				l-10.6-3.1c0-1.3-0.1-2.6-0.1-3.8c0-54.9,43.9-99.8,98.4-101.5l3.1,10.6l3.1-10.6c54.6,1.7,98.4,46.5,98.4,101.5
				c0,1.3,0,2.6-0.1,3.8l-10.6,3.1L223.4,132.3z M122.4,7.8C59.2,7.8,7.8,59.2,7.8,122.4s51.4,114.5,114.5,114.5
				s114.5-51.4,114.5-114.5S185.5,7.8,122.4,7.8"/>
		</g>
	</g>
</g>
</svg>
