<?xml version="1.0" encoding="UTF-8" standalone="no"?>
<!-- Generator: Adobe Illustrator 21.1.0, SVG Export Plug-In . SVG Version: 6.00 Build 0)  -->

<svg
   xmlns:dc="http://purl.org/dc/elements/1.1/"
   xmlns:cc="http://creativecommons.org/ns#"
   xmlns:rdf="http://www.w3.org/1999/02/22-rdf-syntax-ns#"
   xmlns:svg="http://www.w3.org/2000/svg"
   xmlns="http://www.w3.org/2000/svg"
   xmlns:sodipodi="http://sodipodi.sourceforge.net/DTD/sodipodi-0.dtd"
   xmlns:inkscape="http://www.inkscape.org/namespaces/inkscape"
   xml:space="preserve"
   viewBox="0 0 270 150"
   height="150"
   width="270"
   version="1.1"
   y="0px"
   x="0px"
   id="svg140"
   sodipodi:docname="logo-strangut_optimiert.svg"
   inkscape:version="0.92.1 r15371"><defs
     id="defs144" /><sodipodi:namedview
     pagecolor="#ffffff"
     bordercolor="#666666"
     borderopacity="1"
     objecttolerance="10"
     gridtolerance="10"
     guidetolerance="10"
     inkscape:pageopacity="0"
     inkscape:pageshadow="2"
     inkscape:window-width="787"
     inkscape:window-height="642"
     id="namedview142"
     showgrid="false"
     inkscape:zoom="1.5037037"
     inkscape:cx="147.30097"
     inkscape:cy="75"
     inkscape:window-x="1981"
     inkscape:window-y="237"
     inkscape:window-maximized="0"
     inkscape:current-layer="svg140" /><metadata
     id="metadata2"><rdf:RDF><cc:Work
         rdf:about=""><dc:format>image/svg+xml</dc:format><dc:type
           rdf:resource="http://purl.org/dc/dcmitype/StillImage" /><dc:title></dc:title></cc:Work></rdf:RDF></metadata><style
     type="text/css"
     id="style4">
	.st0{fill:#878787;}
	.st1{fill:#7D3253;}
</style><g
     transform="translate(4.8,45.787739)"
     id="g138"><g
       id="g16"
       style="fill:#878787"><path
         class="st0"
         d="m 87.2,16.9 c 0.9,0.2 1.6,0.7 2.2,1.5 0.3,0.4 0.5,0.7 0.7,1.2 0.2,0.4 0.5,1 0.8,1.7 0.3,0.7 0.6,1.2 0.9,1.5 h 1.1 v -7.2 h -1.3 c -0.2,0.2 -0.3,0.4 -0.5,0.6 -0.1,0.2 -0.3,0.3 -0.5,0.3 -0.2,0 -0.3,-0.1 -0.5,-0.2 -1,-0.6 -2,-1 -2.9,-1.2 z m -5.1,18.9 c 0.2,0.1 0.7,0.3 1.4,0.6 0.7,0.3 1.5,0.4 2.4,0.5 V 35 C 84.6,34.9 83.6,34.4 82.8,33.4 82.5,33 82.2,32.6 81.9,32.1 81.7,31.6 81.4,31 81.1,30.3 c -0.3,-0.7 -0.7,-1.2 -1,-1.5 h -1 v 7.8 h 1.5 c 0.2,-0.6 0.6,-0.9 0.9,-0.9 0.1,0 0.3,0 0.6,0.1 m 5.1,1.1 c 2.3,-0.1 4.1,-0.9 5.4,-2.3 1.2,-1.3 1.8,-2.9 1.8,-4.7 0,-1.6 -0.6,-2.9 -1.8,-4 C 92.1,25.4 91.5,25 90.8,24.7 90.1,24.4 89.4,24 88.7,23.8 88,23.5 87.3,23.2 86.6,23 85.9,22.7 85.3,22.4 84.8,22.1 84.3,21.8 83.9,21.4 83.5,21 83.2,20.6 83,20.1 83,19.4 c 0,-0.6 0.2,-1.2 0.7,-1.6 0.5,-0.4 1.1,-0.7 1.9,-0.8 v -2 c -2.1,0 -3.8,0.7 -5.1,2 -1.2,1.2 -1.8,2.6 -1.8,4.2 0,1.6 0.6,2.8 1.8,3.9 0.5,0.5 1.1,0.9 1.8,1.2 l 2.1,0.9 c 0.7,0.3 1.4,0.6 2.1,0.8 0.7,0.3 1.3,0.6 1.8,0.9 0.5,0.3 1,0.7 1.3,1.2 0.3,0.5 0.5,1.1 0.5,1.9 0,0.8 -0.3,1.4 -0.8,2 -0.6,0.5 -1.3,0.9 -2.3,1 v 1.9 z m 9,-14.5 h 0.9 c 0.4,-0.3 0.7,-1 1,-2 0.1,-0.4 0.2,-0.8 0.4,-1.2 0.4,-1.4 1.4,-2.2 3,-2.3 v -1.5 h -3.2 c -0.1,0 -0.8,-0.1 -2.1,-0.2 z m 11.6,-6.9 h -5 v 18.1 c 0,0.6 -0.3,1.1 -0.8,1.4 -0.2,0.1 -0.5,0.2 -0.8,0.3 -0.3,0.1 -0.6,0.2 -0.9,0.3 v 1.1 h 9.9 v -1.1 c -0.3,-0.2 -0.6,-0.3 -0.9,-0.3 -0.3,0 -0.6,-0.1 -0.8,-0.2 -0.5,-0.3 -0.7,-0.9 -0.7,-2.1 z m 1.3,0 V 17 c 1.1,0.1 1.9,0.5 2.4,1.3 0.2,0.3 0.4,0.7 0.5,1.1 0.1,0.4 0.3,0.9 0.5,1.6 0.2,0.7 0.5,1.2 0.9,1.5 h 0.9 v -7.2 c -1.3,0.1 -2,0.2 -2.1,0.2 z m 26.1,18 h -0.3 c -0.1,0 -0.3,0.1 -0.4,0.2 -0.1,0.1 -0.2,0.3 -0.4,0.5 -0.2,0.2 -0.4,0.4 -0.6,0.4 -0.4,0 -0.8,-0.4 -1.2,-1.1 -0.2,-0.3 -0.3,-0.7 -0.5,-1.1 -0.2,-0.4 -0.3,-0.9 -0.5,-1.3 -0.2,-0.4 -0.3,-0.9 -0.5,-1.3 -0.5,-1.3 -1.2,-2.2 -2.2,-2.9 -0.4,-0.3 -1.1,-0.5 -2,-0.7 V 26 c 1,-0.1 1.9,-0.2 2.7,-0.5 2.5,-0.8 3.7,-2.4 3.7,-4.7 0,-1.6 -0.6,-2.8 -1.7,-3.8 -1.2,-1.1 -3,-1.6 -5.3,-1.6 h -1.8 v 1.4 c 1.2,0.1 2.1,0.4 2.6,1 0.5,0.6 0.8,1.7 0.8,3.3 0,1.4 -0.3,2.4 -0.9,3 -0.5,0.5 -1.3,0.8 -2.5,1 v 2.2 c 0.7,0.5 1.2,1.3 1.6,2.5 0.2,0.5 0.4,1.2 0.6,2.2 0.2,0.9 0.5,1.8 0.8,2.5 0.7,1.6 1.9,2.4 3.6,2.4 1.9,0 3.3,-0.7 4.1,-2.2 V 33.5 Z M 116,15.5 v 1.1 c 0.3,0.1 0.5,0.2 0.8,0.2 0.3,0.1 0.5,0.1 0.7,0.2 0.4,0.2 0.7,0.6 0.7,1.3 v 15.5 c 0,0.6 -0.2,1 -0.7,1.2 -0.2,0.1 -0.4,0.2 -0.7,0.2 -0.3,0.1 -0.5,0.1 -0.8,0.2 v 1.1 h 9.2 v -1.1 c -0.3,-0.1 -0.5,-0.2 -0.8,-0.2 -0.3,-0.1 -0.5,-0.1 -0.7,-0.2 -0.4,-0.2 -0.7,-0.6 -0.7,-1.2 V 15.5 Z m 32.8,17.8 c 0.2,0.5 0.3,0.8 0.3,1 0,0.4 -0.2,0.6 -0.7,0.7 -0.2,0.1 -0.5,0.1 -0.7,0.2 -0.3,0.1 -0.5,0.2 -0.8,0.3 v 0.9 h 9.5 v -1.1 c -0.6,0 -1.1,-0.3 -1.5,-0.6 -0.4,-0.4 -0.7,-0.9 -1,-1.7 L 147,15.8 c -0.1,-0.3 -0.3,-0.6 -0.5,-0.8 -0.2,0 -0.5,0 -0.8,0.1 -2,0.2 -3.4,0.6 -4.3,1 -0.1,0.3 -0.1,0.6 -0.1,0.9 0,0.3 -0.1,0.7 -0.1,1.1 l 2.1,0.7 z m -6.3,-12.7 -4.6,12.7 c -0.3,0.8 -0.7,1.3 -1.2,1.6 -0.2,0.1 -0.5,0.2 -0.7,0.3 l -0.6,0.3 v 1 h 7.1 v -1 c -0.2,-0.1 -0.5,-0.2 -0.8,-0.3 -0.3,-0.1 -0.6,-0.2 -0.8,-0.2 -0.3,-0.1 -0.5,-0.2 -0.6,-0.4 -0.2,-0.2 -0.3,-0.4 -0.3,-0.7 0,-0.3 0.1,-0.7 0.2,-1.1 l 3.3,-9.6 z m 3.1,8.1 H 143 l -0.5,1.6 h 3.7 z m 29.2,0.9 V 18.3 c 0,-0.6 0.2,-1 0.7,-1.3 0.2,-0.1 0.5,-0.2 0.7,-0.3 0.3,-0.1 0.5,-0.2 0.8,-0.3 v -1.1 h -6.6 v 1.1 c 0.3,0.1 0.6,0.2 0.8,0.3 0.3,0.1 0.5,0.2 0.7,0.3 0.5,0.2 0.7,0.6 0.7,1.3 v 8.3 z M 159,19.3 v 14.1 c 0,0.7 -0.3,1.2 -0.8,1.5 -0.2,0.1 -0.5,0.2 -0.8,0.3 -0.3,0.1 -0.5,0.2 -0.8,0.3 v 1.1 h 6.8 v -1.1 c -0.3,-0.1 -0.5,-0.2 -0.8,-0.3 -1.1,-0.3 -1.6,-0.9 -1.6,-1.8 V 22.2 Z m 13.3,17.3 h 2.6 V 32 L 163.7,15.5 h -6.9 v 1.9 c 0.2,0.1 0.8,0.2 1.6,0.3 0.4,0.1 0.8,0.1 1.3,0.2 z m 13.1,-21.1 h -7.1 v 1.1 c 0.3,0.1 0.5,0.2 0.8,0.2 0.3,0.1 0.5,0.1 0.7,0.2 0.4,0.2 0.7,0.6 0.7,1.3 v 15.5 c 0,0.6 -0.2,1 -0.7,1.2 -0.2,0.1 -0.4,0.2 -0.7,0.2 -0.3,0.1 -0.5,0.1 -0.8,0.2 v 1.1 h 7.1 z m 6.6,3.6 c 0.9,1.5 1.3,3.8 1.3,6.9 0,3.4 -0.4,5.8 -1.3,7.2 -0.4,0.7 -1,1.2 -1.7,1.5 -0.7,0.3 -1.4,0.5 -2,0.5 -0.7,0 -1.2,0 -1.5,-0.1 v 1.5 h 1.6 c 3.3,0 6,-1.1 7.8,-3.2 1.7,-1.9 2.6,-4.4 2.6,-7.4 0,-2.9 -0.8,-5.3 -2.5,-7.3 -1.9,-2.2 -4.6,-3.3 -8.1,-3.3 h -1.5 v 1.5 c 0.3,0 0.8,-0.1 1.5,-0.1 0.7,0 1.4,0.2 2.1,0.5 0.7,0.5 1.3,1 1.7,1.8 M 209.8,15 c -0.9,0 -1.7,0.2 -2.5,0.5 -1.6,0.6 -2.9,1.5 -4,2.9 -1.6,2.1 -2.5,4.6 -2.5,7.7 0,3 0.8,5.6 2.4,7.7 0.8,1 1.7,1.8 2.7,2.3 1,0.5 2.2,0.9 3.5,0.9 h 0.3 v -2 c -2.3,-0.4 -3.4,-3.3 -3.4,-8.9 0,-5.6 1.1,-8.6 3.4,-9.2 V 15 Z m 1.3,1.9 c 1.2,0 2.2,0.5 2.9,1.4 0.3,0.4 0.6,0.8 0.8,1.3 0.2,0.5 0.5,1.1 0.8,2 0.3,0.8 0.6,1.4 0.8,1.7 h 1.1 v -7.7 h -1.3 c -0.3,0.7 -0.6,1.1 -0.8,1.1 -0.1,0 -0.3,-0.1 -0.5,-0.2 -1.2,-0.8 -2.4,-1.2 -3.7,-1.3 v 1.7 z m 0,20 c 1,0 1.9,-0.1 2.7,-0.2 2.9,-0.4 4.4,-2.1 4.4,-5.1 v -1.8 c 0,-0.5 0.1,-1 0.3,-1.4 0.2,-0.4 0.5,-0.7 1.1,-0.9 0,-0.1 0.1,-0.2 0.1,-0.4 0,-0.1 0.1,-0.3 0.1,-0.4 0,-0.1 0.1,-0.3 0.1,-0.4 h -9.1 v 1.2 c 1.1,0 1.9,0.4 2.2,1.3 0.2,0.4 0.3,0.9 0.3,1.4 v 1.9 c 0,0.7 -0.2,1.4 -0.5,2 -0.3,0.5 -0.9,0.8 -1.7,0.9 z m 22.5,0 c 2.2,-0.2 3.7,-1 4.6,-2.1 0.9,-1.1 1.3,-2.7 1.3,-4.8 V 18.3 c 0,-0.6 0.2,-1.1 0.7,-1.3 0.2,-0.1 0.5,-0.2 0.7,-0.2 0.3,0 0.5,-0.1 0.7,-0.2 v -1.1 h -6.5 v 1.1 c 0.3,0.1 0.5,0.2 0.8,0.3 0.3,0.1 0.5,0.1 0.8,0.2 0.5,0.2 0.8,0.7 0.8,1.4 v 11.8 c 0,1.6 -0.3,2.8 -0.8,3.5 -0.6,0.8 -1.6,1.2 -3.1,1.3 z M 232.3,35 c -0.7,-0.1 -1.3,-0.2 -1.7,-0.4 -1.3,-0.6 -1.9,-1.9 -1.9,-3.9 V 18.2 c 0,-0.6 0.2,-1 0.7,-1.2 0.2,-0.1 0.4,-0.2 0.7,-0.2 0.3,0 0.5,-0.1 0.8,-0.2 v -1.1 h -9.5 v 1.1 c 0.2,0.1 0.5,0.2 0.7,0.3 0.3,0.1 0.5,0.1 0.7,0.2 0.5,0.2 0.7,0.6 0.7,1.2 v 13 c 0,0.9 0.2,1.8 0.5,2.5 1,2.1 3.7,3.2 8.2,3.2 v -2 z m 10,-12.6 h 0.9 c 0.4,-0.3 0.7,-1 1,-2 0.1,-0.4 0.2,-0.8 0.4,-1.2 0.4,-1.4 1.4,-2.2 3,-2.3 v -1.5 h -3.2 c -0.1,0 -0.8,-0.1 -2.1,-0.2 z m 11.5,-6.9 h -5 v 18.1 c 0,0.6 -0.3,1.1 -0.8,1.4 -0.2,0.1 -0.5,0.2 -0.8,0.3 -0.3,0.1 -0.6,0.2 -0.9,0.3 v 1.1 h 9.9 v -1.1 c -0.3,-0.2 -0.6,-0.3 -0.9,-0.3 -0.3,0 -0.6,-0.1 -0.8,-0.2 -0.5,-0.3 -0.7,-0.9 -0.7,-2.1 z m 1.4,0 V 17 c 1.1,0.1 1.9,0.5 2.4,1.3 0.2,0.3 0.4,0.7 0.5,1.1 0.1,0.4 0.3,0.9 0.5,1.6 0.2,0.7 0.5,1.2 0.9,1.5 h 0.9 v -7.2 c -1.3,0.1 -2,0.2 -2.1,0.2 z"
         id="path6"
         inkscape:connector-curvature="0"
         style="fill:#878787" /><path
         class="st0"
         d="m 170.9,56 0.2,0.1 C 171,56 171,56 170.9,56"
         id="path8"
         inkscape:connector-curvature="0"
         style="fill:#878787" /><path
         class="st0"
         d="m 193.7,65.5 h -0.3 0.3"
         id="path10"
         inkscape:connector-curvature="0"
         style="fill:#878787" /><path
         class="st0"
         d="m 244.5,52.7 -0.3,0.2 c 0,0 0.2,-0.1 0.3,-0.2"
         id="path12"
         inkscape:connector-curvature="0"
         style="fill:#878787" /><path
         class="st0"
         d="m 240,57.3 c -0.2,0.3 -0.8,0.7 -0.8,0.8 0.3,-0.3 0.7,-0.6 0.8,-0.8"
         id="path14"
         inkscape:connector-curvature="0"
         style="fill:#878787" /></g><path
       d="m 73.5,50.7 0.2,-0.1 c -0.1,0 -0.2,0 -0.2,0.1"
       id="path18"
       inkscape:connector-curvature="0" /><g
       id="g68"
       style="fill:#878787"><path
         class="st0"
         d="m 195.2,65.9 c 0,0 0.1,0 0.2,0.1 0,-0.1 0,-0.1 -0.2,-0.1"
         id="path20"
         inkscape:connector-curvature="0"
         style="fill:#878787" /><polyline
         points="179.4 63.6 179.4 63.6 179.4 63.6 179.4 63.6"
         class="st0"
         id="polyline22"
         style="fill:#878787" /><path
         class="st0"
         d="m 180.2,63.8 c -0.2,-0.1 -0.6,-0.2 -0.8,-0.2 0.2,0.1 0.5,0.2 0.8,0.2"
         id="path24"
         inkscape:connector-curvature="0"
         style="fill:#878787" /><path
         class="st0"
         d="m 177.7,62.8 c 0.1,0.1 0,0 0,0"
         id="path26"
         inkscape:connector-curvature="0"
         style="fill:#878787" /><path
         class="st0"
         d="M 170,59.4 Z"
         id="path28"
         inkscape:connector-curvature="0"
         style="fill:#878787" /><path
         class="st0"
         d="m 174.7,61.6 h -0.2 0.2"
         id="path30"
         inkscape:connector-curvature="0"
         style="fill:#878787" /><path
         class="st0"
         d="m 170,59.6 c 0.3,0.1 0.1,-0.1 -0.1,-0.2 l 0.1,0.2"
         id="path32"
         inkscape:connector-curvature="0"
         style="fill:#878787" /><path
         class="st0"
         d="m 239.2,58.1 -0.2,0.2 0.2,-0.2"
         id="path34"
         inkscape:connector-curvature="0"
         style="fill:#878787" /><path
         class="st0"
         d="M 87.2,6.8 C 87.2,4.8 81.8,3.1 81.3,2.3 80.8,1.6 83,1 83.7,1.1 c 0.8,0.1 1.4,0.4 1.7,0.6 0.2,0.1 0.3,-0.2 0.2,-0.4 -0.6,-0.7 -1.4,-0.9 -2,-0.9 -2.4,-0.2 -3.8,1.3 -3.8,1.7 0,1.8 6,3.2 6,4.6 0,0.9 -2.4,1.2 -3.4,1.2 -3.2,0 -2.3,-1.8 -3.2,-1.8 -0.3,0 -0.5,0.2 -0.5,0.7 0,1.3 1.7,2.2 4.3,2.2 2.2,0 4.2,-0.8 4.2,-2.2 m 7.2,0.5 C 94.4,7.1 94.1,6.9 93.9,6.9 93.5,6.9 92.4,8 90.7,8 89.8,8 89,7.3 89,6.4 c 0,-2 1.4,-2.9 1.8,-2.9 0.6,0 0.9,0.1 1.3,0.3 0.3,0.2 0.2,-0.1 0.2,-0.3 -0.2,-0.2 -1,-0.6 -1.7,-0.6 -1.7,0 -2.8,2 -2.8,3.6 0,2 1.8,2.6 2.8,2.6 1.6,0 3.8,-1.3 3.8,-1.8 m 5.7,1.4 C 100.1,8.4 99.7,8.3 99.5,7.9 99.3,7.3 99.4,4.7 97.7,4.7 96.7,4.7 95.9,5.5 95.2,6.3 95.1,5 95,3.7 94.8,1.8 c 0,-0.7 0.4,-1.7 -0.5,-1.7 -0.6,0 -0.6,1.2 -0.6,2 0.1,1.7 0.2,2.8 0.3,4.8 0,0.6 0.1,0.9 0,1.5 0,0.4 0.8,0.8 1.1,0.6 0.2,-0.2 0.3,-0.5 0.4,-1.1 0.2,-0.6 1.7,-2.2 2.1,-2.2 0.7,0 0.1,3.5 1.7,3.5 0.6,0 0.8,-0.3 0.8,-0.5 m 11.5,-0.8 c 0,-0.3 -0.1,-0.5 -0.5,-0.5 -0.5,0 -0.6,0.2 -1.4,0.2 -1.8,0 -0.1,-2.9 -1.8,-2.9 -0.8,0 -2,1.4 -2.7,2.3 -0.1,-1.5 -0.4,-2.8 -1.5,-2.8 -0.7,0 -1.8,1.5 -2.2,2.5 -0.1,-1.5 -0.3,-3 -1,-3 -0.4,0 -0.5,0.3 -0.5,0.6 0,2.3 0.6,4.6 1.3,4.6 0.4,0 1.7,-3.2 2.2,-3.2 0.4,0 0.1,3.2 1.2,3.2 0.6,0 2,-2.5 2.8,-2.8 0.1,0.8 0.1,2.5 1.9,2.5 1.7,0.1 2.1,-0.5 2.2,-0.7 m 4.5,0.5 c 0,-0.4 -0.7,-0.6 -0.7,-2.3 0,-0.8 0.2,-1.3 0.3,-1.9 0.1,-0.5 -0.4,-0.7 -0.6,-0.7 -0.4,0 -0.6,0.6 -0.7,1.6 -0.1,0.4 -0.8,2.5 -1.6,2.5 -0.6,0 -1,-2 -1,-3.2 -0.1,-0.9 0,-1.4 -0.8,-1.5 -0.4,-0.1 -0.4,0.8 -0.4,1.6 0.1,1.9 0.6,4.3 2.2,4.3 0.8,0 1.3,-0.6 1.6,-1.1 0.3,0.7 0.7,1.1 1.3,1.1 0.2,0.1 0.4,-0.1 0.4,-0.4 m 7,-1.1 c 0,-0.2 -0.3,-0.4 -0.5,-0.4 -0.4,0 -1.5,1.1 -3.2,1.1 -0.9,0 -1.7,-0.7 -1.7,-1.6 0,-2 1.4,-2.9 1.8,-2.9 0.6,0 0.9,0.1 1.3,0.3 0.3,0.2 0.2,-0.1 0.2,-0.3 -0.2,-0.2 -1,-0.6 -1.7,-0.6 -1.7,0 -2.8,2 -2.8,3.6 0,2 1.8,2.6 2.8,2.6 1.7,0 3.8,-1.3 3.8,-1.8 m 6.4,1.1 c 0,-0.3 -0.5,-0.5 -0.9,-0.5 -1.3,0 -2.3,-0.3 -2.9,-1.4 0.7,-0.7 1.6,-1.4 2.4,-1.9 0.5,-0.3 0,-0.8 -0.4,-0.8 -0.4,0 -2.4,1.6 -4.1,3.2 0.1,-2 0.1,-3.4 0.2,-5.1 0,-0.7 0.2,-1.7 -0.6,-1.7 -0.3,0 -0.3,0.4 -0.4,1.3 -0.1,1.3 -0.1,3.3 -0.1,5.1 0,0.8 -0.2,2.2 0.6,2.2 0.2,0 0.8,-0.7 1.7,-1.6 0.8,0.8 1.5,1.5 3.1,1.6 0.7,0.2 1.4,-0.1 1.4,-0.4 m 17.1,-7.2 c 0,-0.4 -0.5,-0.7 -0.8,-0.7 -0.6,0 -2.7,4.5 -4.4,4.5 -0.7,0 -1.4,-0.9 -1.7,-1.8 -0.8,-2 -0.5,-3.1 -1.4,-3.1 -0.8,0 -0.7,0.9 -0.6,1.5 0.1,1.7 -0.1,3.3 0,5.5 0,0.8 -0.1,1.9 0.7,1.9 0.7,0 0.5,-2.7 0.5,-4.5 0.9,1.6 1.8,1.9 2.5,1.9 1.4,0 3.1,-2 3.6,-3.2 0,0 -0.3,3.9 -0.1,5.7 0,0.3 0.2,0.7 0.5,0.7 1.2,0 0.6,-2.1 0.6,-3.7 0.1,-2 0.6,-4.1 0.6,-4.7 m 6.2,4.8 c 0,-2.2 -1.6,-3.1 -3.3,-3.1 -1.6,0 -2.6,1.9 -2.5,3.2 0.2,2.2 1.6,2.7 2.6,2.7 1.6,0.1 3.2,-0.9 3.2,-2.8 m -1.1,-0.2 c 0,1.2 -1.1,2 -2.2,2 -0.8,0 -1.4,-0.6 -1.5,-1.4 -0.1,-0.8 0,-2.2 1.3,-2.8 0,0.2 0.3,0.3 0.4,0.4 0.5,0.1 2,-0.1 2,1.8 M 162,7.4 C 162,7.1 161.8,7 161.6,7 c -0.5,0 -0.7,0.6 -1.4,0.6 -0.7,0 -1,-0.6 -1.2,-1.2 -0.7,-2 0.2,-6.2 -1.1,-6.2 -0.8,0 -0.4,0.7 -0.4,1.2 0.1,0.9 0.1,1.6 0,2.7 -0.5,-0.5 -1.3,-0.6 -1.5,-0.6 -2.2,0 -2.6,2.1 -2.6,2.7 0,1.6 0.8,2.7 2.2,2.8 1.4,0 2.1,-1 2.4,-1.8 0.4,0.9 1.1,1.5 2.1,1.5 0.8,-0.1 1.9,-0.8 1.9,-1.3 m -4.6,-2.9 c -0.2,1.9 -0.6,3.4 -1.7,3.4 -0.8,0 -1.3,-0.4 -1.3,-1.6 0,-1.3 0.9,-2.1 1.6,-2.2 0.5,0 1,0 1.4,0.4 m 9.8,3.2 c 0,-0.2 -0.2,-0.4 -0.5,-0.4 -0.2,0 -1.5,0.5 -2.4,0.5 -1.2,0 -1.9,-0.5 -2,-1.4 1.8,0 3.6,-1 3.6,-2.3 0,-0.9 -1.2,-1.2 -2,-1.2 -1.4,0 -2.8,1.2 -2.8,3 0,1.7 1.4,3 3.1,3 1.2,0 3,-0.7 3,-1.2 m -2.6,-3.6 c 0,0.6 -0.8,1.2 -2,1.2 h -0.4 c 0.1,-0.9 0.9,-1.5 1.8,-1.5 0.2,-0.1 0.6,0 0.6,0.3 m 19.2,-2.9 c -0.5,-0.6 -1.7,-0.9 -2.8,-0.9 -2,0 -5.5,2.1 -5.5,5.1 0,2.4 1.6,3.6 3.5,3.6 2.3,0 2.9,-1.2 2.9,-1.4 0,-0.3 0,-0.4 -0.4,-0.4 -0.2,0 -1.2,0.8 -2.3,0.8 -1.1,0 -2.5,-1 -2.5,-2.5 0,-3.1 3.3,-4.6 4.8,-4.6 1.2,0 1.5,0.4 1.9,0.4 0.4,0 0.3,0 0.4,-0.1 m 0.7,3.3 c 0,-0.3 -0.2,-0.7 -0.8,-0.7 -0.4,0 -0.7,0.4 -2.5,0.8 -1.6,0.3 -2.6,0.2 -2.6,0.5 0,0.4 1.3,0.5 2.1,0.4 1.3,0 1.9,-0.1 2.5,-0.4 -0.2,0.8 -0.4,1.3 -0.4,2.4 0,1.2 0.4,2.1 1.1,2.1 0.3,0 0.5,-0.4 0.5,-0.6 0,-0.4 -0.3,-0.5 -0.3,-1.7 0.1,-1.4 0.4,-2.6 0.4,-2.8 m 6.9,3.2 c 0,-0.2 -0.2,-0.4 -0.5,-0.4 -0.2,0 -1.5,0.5 -2.4,0.5 -1.2,0 -1.9,-0.5 -2,-1.4 1.8,0 3.6,-1 3.6,-2.3 0,-0.9 -1.2,-1.2 -2,-1.2 -1.4,0 -2.8,1.2 -2.8,3 0,1.7 1.4,3 3.1,3 1.2,0 3,-0.7 3,-1.2 m -2.6,-3.6 c 0,0.6 -0.8,1.2 -2,1.2 h -0.4 c 0.1,-0.9 0.9,-1.5 1.8,-1.5 0.2,-0.1 0.6,0 0.6,0.3 m 6.7,3.2 c 0,-1.7 -3.3,-1.8 -3.3,-2.5 0,-0.5 1,-1 1.6,-1 0.3,0 0.2,0.4 0.6,0.4 0.2,0 0.4,-0.3 0.4,-0.5 0,-0.3 -0.7,-0.7 -1.2,-0.7 -0.9,0 -2.6,1.2 -2.6,1.9 0,1.4 3.4,1.5 3.4,2.4 0,0.6 -0.6,0.8 -1.5,0.8 -1.3,0 -1.7,-0.8 -2.1,-0.8 -0.2,0 -0.4,0.1 -0.3,0.3 0.6,0.8 1.3,1.3 2.8,1.3 1.5,0 2.2,-1.1 2.2,-1.6 m 7.1,0 c 0,-0.2 -0.3,-0.4 -0.5,-0.4 -0.4,0 -1.5,1.1 -3.2,1.1 -0.9,0 -1.7,-0.7 -1.7,-1.6 0,-2 1.4,-2.9 1.8,-2.9 0.6,0 0.9,0.1 1.3,0.3 0.3,0.2 0.2,-0.1 0.2,-0.3 -0.2,-0.2 -1,-0.6 -1.7,-0.6 -1.7,0 -2.8,2 -2.8,3.6 0,2 1.8,2.6 2.8,2.6 1.7,0 3.8,-1.3 3.8,-1.8 m 5.8,1.4 c 0,-0.3 -0.4,-0.4 -0.6,-0.8 -0.2,-0.6 -0.1,-3.2 -1.8,-3.2 -1,0 -1.8,0.8 -2.5,1.6 -0.2,-1.3 -0.3,-2.6 -0.4,-4.5 0,-0.7 0.4,-1.7 -0.5,-1.7 -0.6,0 -0.6,1.2 -0.6,2 0.1,1.7 0.2,2.8 0.3,4.8 0,0.6 0.1,0.9 0,1.5 0,0.4 0.8,0.8 1.1,0.6 0.2,-0.2 0.3,-0.5 0.4,-1.1 0.2,-0.6 1.7,-2.2 2.1,-2.2 0.7,0 0.1,3.5 1.7,3.5 0.6,0 0.8,-0.3 0.8,-0.5 m 6,-1 c 0,-0.2 -0.2,-0.4 -0.5,-0.4 -0.2,0 -1.5,0.5 -2.4,0.5 -1.2,0 -1.9,-0.5 -2,-1.4 1.8,0 3.6,-1 3.6,-2.3 0,-0.9 -1.2,-1.2 -2,-1.2 -1.4,0 -2.8,1.2 -2.8,3 0,1.7 1.4,3 3.1,3 1.2,0 3,-0.7 3,-1.2 m -2.5,-3.6 c 0,0.6 -0.8,1.2 -2,1.2 h -0.4 c 0.1,-0.9 0.9,-1.5 1.8,-1.5 0.2,-0.1 0.6,0 0.6,0.3 m 10.9,3.7 c 0,-0.3 -0.2,-0.5 -0.5,-0.5 -0.2,0 -0.9,0.3 -1.6,0.3 -1.7,0 -0.1,-3.7 -2,-3.7 -1.1,0 -2.5,1.5 -3.6,2.7 -0.2,-1.3 -0.1,-3.3 -1.1,-3.3 -0.2,0 -0.4,0.3 -0.4,0.5 0,2.9 0.4,5 1.1,5 0.4,0 2.5,-3.2 3.7,-3.5 0.2,2.6 0.8,3.6 2.1,3.6 1.3,-0.1 2.3,-0.8 2.3,-1.1 m 6,0.6 c 0,-0.3 -0.5,-0.5 -0.9,-0.5 -1.3,0 -2.3,-0.3 -2.9,-1.4 0.7,-0.7 1.6,-1.4 2.4,-1.9 0.5,-0.3 0,-0.8 -0.4,-0.8 -0.4,0 -2.4,1.6 -4.1,3.2 0.1,-2 0.1,-3.4 0.2,-5.1 0,-0.7 0.2,-1.7 -0.6,-1.7 -0.3,0 -0.3,0.4 -0.3,1.3 -0.1,1.3 -0.1,3.3 -0.1,5.1 0,0.8 -0.2,2.2 0.6,2.2 0.2,0 0.8,-0.7 1.7,-1.6 0.8,0.8 1.5,1.5 3.1,1.6 0.6,0.2 1.3,-0.1 1.3,-0.4 m 6.5,-0.6 c 0,-0.2 -0.1,-0.3 -0.4,-0.3 -0.6,0 -0.6,0.3 -1.4,0.3 -1.6,0 -1,-1.8 -1.2,-2.5 -0.1,-0.3 -0.4,-0.2 -0.4,-0.5 -0.2,-1.2 -1.2,-1.9 -1.9,-1.9 -1.5,0 -2.6,2.1 -2.6,3.6 0,1.4 1.1,2.4 2.5,2.4 0.9,0 1.4,-0.3 1.8,-0.8 0.4,0.4 0.8,0.7 1.7,0.7 1.1,0 1.9,-0.7 1.9,-1 m -3.9,-3.1 c 0,0.3 -0.3,0.2 -0.3,0.4 -0.2,0.5 0.3,2.8 -1.3,2.8 -0.8,0 -1.3,-0.5 -1.3,-1.5 0,-1 0.6,-2.8 1.8,-2.8 0.4,0 1.1,0.7 1.1,1.1 m 7,-0.9 c 0,-0.4 -0.5,-0.6 -0.9,-0.6 -0.8,0 -1.9,1 -2.2,1.3 -0.2,-0.6 0,-1.1 -0.8,-1.1 -0.2,0 -0.3,0.2 -0.3,0.3 V 7 c 0,0.4 -0.1,0.9 -0.1,1.2 0,0.4 0.3,0.6 0.7,0.6 0.9,0 0.2,-1.4 0.9,-2.9 0.6,-1.2 1.5,-1.8 2.2,-1.7 0.4,0 0.5,-0.2 0.5,-0.4 m 3.2,3.9 c 0,-0.3 -0.4,-0.4 -0.5,-0.4 -0.2,0 -0.7,0.6 -1.1,0.6 -1,0 -1.2,-1.2 -1.2,-3 1.1,-0.1 2.1,-0.2 2.1,-0.7 0,-0.4 -0.8,-0.4 -2.1,-0.4 0.1,-0.9 0.1,-2 0.2,-2.9 0,-0.4 0.1,-0.9 -0.6,-0.9 -0.6,0 -0.5,1.7 -0.7,2.8 0,0.3 -0.1,0.7 -0.1,1.1 -0.7,0 -1.8,0 -1.8,0.4 0,0.5 1.1,0.6 1.7,0.6 0,0.8 0,1.4 0.1,1.7 0.3,1.6 1.2,2.3 2.1,2.3 1,0 1.9,-0.7 1.9,-1.2 m 0.6,-5.6 c 0,-0.4 -0.4,-0.7 -0.9,-0.7 -0.2,0 -0.5,0.1 -0.5,0.4 0,0.3 0.4,0.7 0.8,0.7 0.3,0 0.6,0 0.6,-0.4 m 3,5.3 C 245.2,7.1 245,7 244.7,7 c -0.4,0 -0.7,0.8 -1.9,0.8 -1.3,0 -0.4,-4.4 -1.2,-4.4 -0.3,0 -0.5,0.4 -0.6,0.8 -0.1,1.2 -0.1,2.2 0.2,3.4 0.2,0.7 0.6,1.3 1.5,1.3 1.3,0 2.5,-1.1 2.5,-1.5 m 6.3,1 c 0,-0.3 -0.5,-0.5 -0.9,-0.5 -1.3,0 -2.3,-0.3 -2.9,-1.4 0.7,-0.7 1.6,-1.4 2.4,-1.9 0.5,-0.3 0,-0.8 -0.4,-0.8 -0.4,0 -2.4,1.6 -4.1,3.2 0.1,-2 0.1,-3.4 0.2,-5.1 0,-0.7 0.2,-1.7 -0.6,-1.7 -0.3,0 -0.3,0.4 -0.3,1.3 -0.1,1.3 -0.1,3.3 -0.1,5.1 0,0.8 -0.2,2.2 0.6,2.2 0.2,0 0.8,-0.7 1.7,-1.6 0.8,0.8 1.5,1.5 3.1,1.6 0.6,0.2 1.3,-0.1 1.3,-0.4 m 4.8,-0.7 c 0,-0.2 -0.2,-0.4 -0.5,-0.4 -0.2,0 -1.5,0.5 -2.4,0.5 -1.2,0 -1.9,-0.5 -2,-1.4 1.8,0 3.6,-1 3.6,-2.3 0,-0.9 -1.2,-1.2 -2,-1.2 -1.4,0 -2.8,1.2 -2.8,3 0,1.7 1.4,3 3.1,3 1.2,0 3,-0.7 3,-1.2 m -2.5,-3.6 c 0,0.6 -0.8,1.2 -2,1.2 h -0.4 c 0.1,-0.9 0.9,-1.5 1.8,-1.5 0.2,-0.1 0.6,0 0.6,0.3 m 6,3.9 c 0,-0.2 -0.2,-0.4 -0.5,-0.4 -0.1,0 -0.9,0.4 -1.8,0.4 -1,0 -1,-2.5 -1,-3.7 0,-1.6 0.3,-3.2 0.3,-3.3 0,-0.4 -0.4,-0.6 -0.7,-0.6 -0.5,0 -0.7,2.9 -0.7,4.5 0.1,3 0.5,4.1 2,4.1 1,0 2.4,-0.6 2.4,-1"
         id="path36"
         inkscape:connector-curvature="0"
         style="fill:#878787" /><path
         class="st0"
         d="m 231.7,57.9 v -0.1 0.1"
         id="path38"
         inkscape:connector-curvature="0"
         style="fill:#878787" /><path
         class="st0"
         d="m 212.6,61.7 0.2,-0.1 c -0.1,0 -0.1,0 -0.2,0.1"
         id="path40"
         inkscape:connector-curvature="0"
         style="fill:#878787" /><path
         class="st0"
         d="m 242.4,53.3 c -0.1,0.1 -0.1,0.1 0,0 0.1,0 0.4,-0.2 0.7,-0.4 z"
         id="path42"
         inkscape:connector-curvature="0"
         style="fill:#878787" /><path
         class="st0"
         d="m 172.6,55.9 0.2,0.1 c -0.1,-0.1 -0.1,-0.1 -0.2,-0.1"
         id="path44"
         inkscape:connector-curvature="0"
         style="fill:#878787" /><path
         class="st0"
         d="m 195.9,62 c -0.1,0 -0.2,0 -0.3,0.1 0.1,-0.1 0.2,-0.1 0.3,-0.1"
         id="path46"
         inkscape:connector-curvature="0"
         style="fill:#878787" /><path
         class="st0"
         d="m 248.9,51.8 -0.4,0.1 c 0.1,0.1 0.2,0.1 0.4,-0.1"
         id="path48"
         inkscape:connector-curvature="0"
         style="fill:#878787" /><path
         class="st0"
         d="M 257.1,42.7"
         id="path50"
         inkscape:connector-curvature="0"
         style="fill:#878787" /><path
         class="st0"
         d="m 253.6,45.9 c -0.1,0.1 -0.1,0.2 -0.2,0.3 0.1,-0.1 0.2,-0.2 0.2,-0.3"
         id="path52"
         inkscape:connector-curvature="0"
         style="fill:#878787" /><path
         class="st0"
         d="m 253.3,46.3 0.1,-0.1 -0.1,0.1"
         id="path54"
         inkscape:connector-curvature="0"
         style="fill:#878787" /><path
         class="st0"
         d="m 35.8,95.9 c -0.2,0.3 -0.2,0.7 -0.3,1 0.1,-0.4 0.2,-0.7 0.3,-1"
         id="path56"
         inkscape:connector-curvature="0"
         style="fill:#878787" /><path
         class="st0"
         d="M 136.1,42.5"
         id="path58"
         inkscape:connector-curvature="0"
         style="fill:#878787" /><path
         class="st0"
         d="m 36.8,96.9 -0.1,0.2 c 0,0 0.1,-0.1 0.1,-0.2"
         id="path60"
         inkscape:connector-curvature="0"
         style="fill:#878787" /><path
         class="st0"
         d="m 243.7,55.8 c -0.2,0.3 -1,0.5 -0.9,0.6 0.3,-0.1 0.8,-0.3 0.9,-0.6"
         id="path62"
         inkscape:connector-curvature="0"
         style="fill:#878787" /><path
         class="st0"
         d="m 127.8,48.2 h -0.2 0.2"
         id="path64"
         inkscape:connector-curvature="0"
         style="fill:#878787" /><path
         class="st0"
         d="M 36.8,96.9 37,96.7 h -0.1 c 0,0.1 0,0.2 -0.1,0.2"
         id="path66"
         inkscape:connector-curvature="0"
         style="fill:#878787" /></g><polygon
       points=""
       class="st0"
       id="polygon70"
       style="fill:#878787" /><g
       id="g114"
       style="fill:#878787"><path
         class="st0"
         d="m 93.8,49.9 0.4,-0.2 c -0.3,0.1 -0.4,0.2 -0.4,0.2"
         id="path72"
         inkscape:connector-curvature="0"
         style="fill:#878787" /><path
         class="st0"
         d="m 35.5,96.9 -0.2,0.6 c 0.2,-0.3 0.2,-0.5 0.2,-0.6"
         id="path74"
         inkscape:connector-curvature="0"
         style="fill:#878787" /><path
         class="st0"
         d="m 73.5,61.2 c 0.1,0 0.1,-0.1 0.2,-0.1 -0.1,0.1 -0.2,0.1 -0.2,0.1"
         id="path76"
         inkscape:connector-curvature="0"
         style="fill:#878787" /><path
         class="st0"
         d="m 197.4,62.1 h 0.2 -0.2"
         id="path78"
         inkscape:connector-curvature="0"
         style="fill:#878787" /><polyline
         points="181.3 63.9 181.3 63.9 181.3 63.9 181.3 63.9"
         class="st0"
         id="polyline80"
         style="fill:#878787" /><path
         class="st0"
         d="m 182.2,63.9 c -0.3,-0.1 -0.7,-0.1 -0.9,0 0.3,0.1 0.5,0.1 0.9,0"
         id="path82"
         inkscape:connector-curvature="0"
         style="fill:#878787" /><path
         class="st0"
         d="M 179.6,63.3"
         id="path84"
         inkscape:connector-curvature="0"
         style="fill:#878787" /><path
         class="st0"
         d="M 196.6,66.5 Z"
         id="path86"
         inkscape:connector-curvature="0"
         style="fill:#878787" /><path
         class="st0"
         d="m 193.1,66.3 c -0.1,0 -0.1,-0.1 -0.2,-0.1 0.1,0 0.1,0.1 0.2,0.1"
         id="path88"
         inkscape:connector-curvature="0"
         style="fill:#878787" /><path
         class="st0"
         d="M 171.3,61 Z"
         id="path90"
         inkscape:connector-curvature="0"
         style="fill:#878787" /><path
         class="st0"
         d="m 142.3,50.2 c 2.9,0.6 6.7,1.5 9.5,2.8 0.7,-0.1 1.6,0.3 2.6,0.6 l -0.1,0.4 0.8,0.2 c 0.2,0.3 -0.6,-0.2 -0.1,0.2 l 0.4,-0.1 c 0,0.2 1.9,1 0.5,0.7 1,0.4 1.9,0.9 2.9,1.3 0.6,0.3 0.5,-0.1 1.2,0.3 0.1,0.2 -0.3,0 -0.3,0.1 2,1.3 2.8,0.4 4.7,1.6 h -0.2 c 0.4,0.1 1,0.4 1.1,0.4 -0.1,-0.5 -0.5,0 -1,-0.5 0.2,-0.3 0.8,0.2 0.9,-0.1 0.4,0.4 0.8,0.3 1.2,0.5 0.6,0.6 1.7,0.9 2.2,1.4 0.4,0 0.9,-0.1 1.7,0.2 0.4,0.5 -0.2,0.2 0.5,0.6 l 0.2,-0.1 c 0.6,0.3 0.5,0.3 0.4,0.4 0.7,0.3 0.7,-0.1 1.4,0.4 h -0.5 c 0.6,0.2 0.9,0.3 1.7,0.6 -0.1,0.1 -0.4,0 -0.6,-0.2 0.4,0.5 0.9,0.2 1.1,0.3 0,-0.1 -0.6,-0.4 -0.3,-0.5 0.4,0.2 1,0.1 1.2,0.4 h -0.5 c 1,0.2 0.6,-0.1 1.6,0.3 -0.1,0 0,0.1 -0.1,0.1 0.7,0 1.5,0.5 2.5,0.8 h -0.2 c 0.4,0 0.7,-0.1 0.9,0 -0.5,-0.3 -0.4,-0.3 -0.3,-0.5 0.6,0.6 1.2,-0.1 2.4,0.5 0,0.1 -0.4,0.2 -0.7,0 -0.5,0.2 -0.6,0.5 -1.4,0.5 0.5,0.1 1,0.2 0.9,0.3 l 0.2,-0.3 c 0.3,0.1 0.5,0.1 0.7,0.2 0.2,-0.2 -0.5,-0.5 0.2,-0.4 0.8,0.1 0.3,0.4 0.5,0.3 1,0.1 0.5,-0.2 1.4,0.1 h -0.4 c 0.7,0.3 1.7,0.3 1.8,0.8 -0.1,0.1 -0.2,0.2 -0.4,0.1 v -0.1 c -0.8,0.1 0.7,0.1 0.3,0.4 0,-0.2 1,0 1.4,0.2 l -0.1,-0.3 c 1.6,-0.4 -0.2,0.5 1.3,0.6 1,0 -0.3,-0.1 0.3,-0.2 0.6,0.1 0.8,0.4 1.8,0.4 0.2,0.1 0.8,0.3 0.8,0.6 0.6,0 1.7,0.3 2.1,0.1 -0.9,-0.3 -1,0.2 -2.1,-0.3 l 0.4,-0.2 c 0.8,0.1 1.8,0.1 2.3,0.3 -0.1,-0.1 -0.1,-0.1 -0.1,-0.2 1.1,0 1.5,-0.2 2.6,-0.1 0.1,0.3 -0.5,0.2 -1,0.2 0.7,0.3 0.7,0.1 1.8,0.2 0,0.2 -0.7,-0.1 -0.9,0.1 h 1.2 c 0.2,-0.3 0.9,0.1 1.7,0 1.8,0.1 2,-0.4 3,-0.7 0.3,0.1 0.3,0.2 0.2,0.3 -0.4,-0.2 -0.4,0 -0.5,0.1 0.6,0 1.3,0.4 1,0.5 0.9,-0.1 -0.3,-0.2 0.2,-0.3 h 1.3 c -0.2,-0.2 -0.6,-0.2 0.1,-0.4 0.6,-0.1 0.8,0 1.6,-0.1 -0.1,0.1 0.2,0.3 -0.3,0.3 0.4,0.1 0.9,0 1.1,-0.2 -0.8,-0.1 1.3,-0.2 0.7,-0.5 l 0.8,0.1 c -0.2,0 -0.2,0.1 -0.5,0.1 0.2,0.3 0.6,-0.1 0.9,-0.2 0.3,0 1,0 1.1,0.1 0.2,-0.1 0.9,-0.1 1,0 0.4,-0.1 0,-0.2 0.1,-0.3 l 1.3,-0.1 c 0.1,0.1 0.2,0.6 0.1,0.6 0.5,-0.2 0.1,-0.5 0.8,-0.5 -0.4,0.3 1,0.1 0.4,0.5 0.4,0.2 1.6,0 2.3,-0.2 0.4,-0.3 -0.7,0 -0.7,-0.3 1.8,-0.3 1.8,-1 3.2,-1.1 h -0.4 c 0.8,-0.3 0.7,-0.2 1.2,-0.5 -0.2,0.3 1.1,0.6 2.4,0.3 0.1,-0.2 -0.8,-0.1 -0.6,-0.4 l 0.9,-0.2 c 0.1,0 0,0.1 -0.1,0.1 0.8,-0.3 1.6,0.1 1.7,-0.3 l 0.9,0.2 -0.4,-0.1 c 0.1,-0.2 1,-0.4 1.1,-0.5 0.9,-0.4 1.2,-0.3 1.8,-0.3 -0.2,-0.1 -0.7,-0.2 0,-0.5 0.1,0.5 1.5,-0.2 1.6,0 0.3,-0.1 0.8,-0.1 0.8,-0.3 v 0.3 c -0.1,-0.4 1,-0.7 1.8,-1.1 0,0.6 0.9,-0.3 1.4,0 0,-0.4 1.4,-0.6 1.4,-1 0.6,-0.2 0.7,0.1 0.9,0.2 l 0.2,-0.2 c 0.4,0.1 1.5,-0.4 2.2,-0.5 l 0.5,-0.6 h 0.3 c 0.1,-0.1 0.6,-0.4 0.2,-0.4 l 0.3,-0.1 c -0.1,-0.4 0.4,-0.3 1,-0.8 0.2,0 0.2,0.1 0.1,0.2 0.3,-0.2 0.3,0.1 0.5,0.1 -0.3,0 0.9,-1.2 -0.1,-0.9 -0.1,-0.1 0.3,-0.5 0.7,-0.6 l 0.3,0.2 0.2,-0.5 c 0.5,-0.3 0.8,-0.2 1.2,-0.4 -0.4,0.2 -0.6,1.1 0.5,0.5 -0.5,0.3 -0.7,0.7 -1,0.9 0.2,-0.1 0.4,-0.1 0.1,0.2 0.8,-0.5 0.2,-0.3 1,-0.8 0.1,0.3 0.4,0.3 1.1,-0.1 l -0.6,0.1 c 0,0 0,-0.1 0.1,-0.1 -0.2,0.1 -0.3,0.1 -0.4,0 0.2,-0.1 0.8,-0.9 1,-0.8 -1,0.1 1.2,-1.1 0.6,-1.1 0,-0.1 0.6,-0.5 0.7,-0.4 -0.5,0.6 0.7,0 0.7,0.2 0.2,-0.2 -0.6,0.1 -0.4,-0.2 0.4,-0.3 0.8,-0.3 1,-0.3 l -0.1,0.2 0.7,-0.3 c 0,-0.2 -0.7,0.2 -0.2,-0.3 0.2,0 0.7,-0.5 0.7,-0.4 -0.1,0.3 0.2,0.5 -0.2,0.8 0.4,-0.3 1.6,-1.2 0.9,-1.1 l 0.5,-0.3 c -0.4,0.1 -1.3,0.5 -0.4,-0.2 v 0.1 l 0.5,-0.6 0.4,-0.1 c -0.1,-0.1 0,-0.2 0.2,-0.4 0.1,0 0.4,-0.1 0.4,0 0.7,-0.5 0.5,-0.6 0.5,-0.7 0.4,-0.3 0.5,-0.4 0.5,-0.1 0.5,-0.4 1.3,-1.1 1.8,-1.3 0.5,-0.7 -0.2,0.1 0.1,-0.4 0.9,-0.1 2.2,-1.8 3.1,-2.9 -0.6,0 0.2,-0.3 0.1,-0.8 -0.1,0.3 1.1,-0.8 0.4,0.2 0.2,-0.2 0.3,-0.4 0.4,-0.6 0.5,-0.2 -0.7,1.1 0.1,0.7 0.5,-0.7 0.5,-1.4 1.2,-2.1 0.1,0.5 0.4,-0.7 0.5,-0.3 0,0.2 -0.2,0.4 -0.4,0.7 l 0.2,-0.1 c 1.2,-1.4 0,-0.7 0.4,-1.6 0.6,-0.9 0.7,-0.6 0.9,-0.6 0.2,-0.1 0.4,-0.6 0.5,-0.9 -0.2,0.7 -0.9,1 -0.9,0.6 0.6,-0.2 0.9,-1.4 1,-1.7 -1.2,1.1 -0.6,0.9 -1.8,1.9 0,0.2 0.3,0.4 -0.4,1.1 0.2,-0.6 -0.2,-0.1 -0.3,0 0.3,0 -0.3,0.5 -0.4,0.8 -0.3,0.1 0,-0.7 -0.6,0 l 0.3,0.4 c -0.3,0.2 -0.2,-0.3 -0.6,0.3 0.1,-0.5 -0.4,-0.1 0.2,-1 -1,0.7 -1,1.6 -1.5,2.4 V 45 c 0,0.2 -0.3,0.5 -0.5,0.7 -0.5,0.4 0.2,-0.5 0,-0.5 -0.2,0.2 -0.4,0.5 -0.7,0.7 -0.1,0.2 -0.3,0.4 -0.4,0.4 0.1,-0.3 0.1,-0.5 0.1,-0.7 -0.2,0.3 -0.3,0.6 -0.5,1 0,-0.2 -0.8,0.4 -0.3,-0.2 -0.3,0.4 -0.7,0.7 -1.1,1.1 l -0.3,-0.1 c -0.2,0.3 -0.2,0.3 0.1,0.1 -0.4,0.3 -1.4,1.9 -1.6,1.3 -0.8,1 -1.2,1.2 -2.2,2.1 0.7,-0.9 -1.2,0.5 -0.4,-0.3 -0.6,0.3 -0.6,0.6 -1,1 -0.5,0.2 -0.5,-0.2 -0.1,-0.6 l -0.5,0.5 v -0.1 l -0.4,0.5 c -0.6,0.2 -0.3,-0.2 -0.8,0.1 v 0.3 l -0.4,0.1 c 0.2,0 -0.1,0.3 -0.5,0.5 v -0.1 l -0.4,0.3 c 0.4,-0.4 -0.5,0.2 -0.3,-0.1 -0.4,0.2 -0.4,0.2 -1.1,0.7 l 0.2,0.1 c -0.9,0.7 -0.2,-0.2 -1,0.2 l 0.1,0.2 c -1.3,0.3 -1.8,1.2 -2.8,1.4 0.5,-0.3 0.2,-0.4 0.3,-0.4 -0.7,0.4 -1.9,0.9 -2.6,1.5 -0.4,-0.2 -0.5,-0.2 -1.4,0 -0.6,0.3 -0.6,0.3 -0.8,0.6 -0.6,0.1 -1.6,0.7 -1.7,0.5 -0.1,0.2 -0.5,0.2 -0.8,0.4 l -0.1,-0.1 0.1,0.2 c -1.2,-0.1 -1.6,0.8 -2.8,0.8 l 0.2,-0.1 -0.4,0.2 c -0.1,-0.1 0.1,-0.2 0,-0.3 -0.7,0.2 -1.4,0.4 -2,0.5 h 0.4 c -0.4,0.1 -0.7,0.4 -1.2,0.4 0.7,-0.5 -0.7,0.2 -0.9,0 l 0.4,-0.2 c -0.6,0.2 -0.6,0.2 -0.5,0.4 -0.8,0.3 -0.6,-0.3 -1.3,0.1 l 0.5,-0.1 c 0.2,0.1 -0.1,0.4 -0.5,0.4 -0.1,0 -0.4,0 -0.1,-0.1 -0.6,0.2 -1.6,0.3 -1.8,0.5 -0.4,0 -0.3,-0.2 -0.1,-0.3 -1.3,0.5 -0.6,0.1 -1.9,0.5 v -0.1 l -0.4,0.2 -0.7,-0.1 0.3,0.1 c -0.4,0.1 -0.7,0.2 -1.2,0.3 l 0.2,-0.2 c -1.2,0.3 -1.5,-0.1 -2.6,0.4 -0.1,0 0.1,-0.1 0.2,-0.1 -1.1,0.4 -0.9,-0.2 -1.9,0.3 0.1,-0.1 -0.1,-0.1 0,-0.2 l -0.5,0.2 v -0.2 l -0.4,0.4 -0.3,-0.2 -0.2,0.1 c -0.6,-0.4 -1.3,0 -2.1,-0.3 l 0.2,0.3 c -0.9,0.4 -2,0.4 -3.1,0.3 -1.1,-0.1 -2.3,-0.2 -3.4,0 V 62 l -0.9,0.3 c -0.5,-0.2 0.3,-0.2 0.1,-0.3 -1,0.1 -0.4,0.4 -1.6,0.4 -0.6,-0.2 0.2,-0.2 0.5,-0.3 -1.1,0.1 -2.7,0.2 -3.4,0 0,0 -0.1,0.1 0,0.1 -0.7,0.1 -1.7,-0.1 -2.5,-0.1 0,-0.1 0.2,-0.1 0.4,-0.1 -0.3,0 -0.7,-0.1 -0.9,0 l 0.3,-0.2 c -0.6,-0.1 -1.8,0 -1.9,-0.3 0.1,0.1 0,0.3 -0.5,0.2 -0.2,-0.4 -1.4,0 -2.2,-0.3 0.1,-0.1 0.7,0 0.6,0 -0.4,-0.2 -0.8,0 -1.2,0 l 0.1,-0.1 c -0.7,0 -1.3,-0.1 -2,-0.1 -0.2,-0.4 -1.8,-0.3 -1.6,-0.5 -0.7,-0.2 0.5,0.3 -0.3,0.1 -0.2,-0.2 -0.8,-0.1 -0.7,-0.3 h 0.1 l -0.6,-0.1 0.4,-0.1 c -0.5,-0.1 -1,0.1 -1,0.2 -0.5,-0.2 -1.2,-0.3 -1.3,-0.6 h 0.2 c -1.4,-0.3 -2.1,-1.2 -3.2,-1.2 -0.1,-0.1 0,-0.1 0.1,-0.1 l -0.8,-0.3 0.3,-0.1 c -0.5,-0.1 -1,-0.1 -1.5,-0.2 l 0.1,-0.1 c -0.9,-0.3 -2.3,-0.8 -3.5,-1.2 h 0.2 c -1.3,-0.3 -1.2,-0.6 -2.1,-0.8 h 0.1 l -0.8,-0.3 h 0.2 c -0.7,0 -1.6,-1.1 -1.3,-0.7 -0.4,0 -1,-0.2 -1.2,-0.1 -0.9,-0.4 -0.2,-0.2 -0.6,-0.6 -0.6,-0.3 -0.8,-0.2 -1.6,-0.7 l 0.1,-0.1 c -0.4,-0.2 -0.7,-0.2 -1.3,-0.5 h 0.2 c -1,-0.2 -1,-0.9 -2,-0.8 -0.3,-0.3 -1.1,-0.6 -1,-0.8 -1.2,-0.4 -2.2,-0.8 -3.4,-1.3 0,-0.5 -0.3,-0.1 -0.9,-0.6 v 0.2 c -1.7,-0.7 -3.4,-2.1 -5.4,-2.8 v -0.2 l -0.5,0.1 c -2,-0.9 -4.7,-1.9 -6.5,-2.4 -0.6,-0.1 -1.5,0 -2.4,-0.3 h 0.1 c -1.6,-0.3 -3.3,-0.6 -5,-1 0.1,-0.1 0,-0.2 0.2,-0.2 -0.5,0.2 -1,-0.2 -1.4,-0.2 0.1,0.1 0.3,0.2 0.4,0.2 -0.5,0.1 -1.2,-0.2 -1.5,-0.4 l -0.8,0.1 c -0.1,0 -0.1,-0.1 -0.1,-0.1 l -0.2,0.1 -0.4,-0.3 c -0.2,0 -1.3,0 -1.6,0.3 -0.1,-0.1 -0.8,-0.2 -0.2,-0.2 -1,-0.1 -1.9,-0.2 -2.9,-0.2 l 0.4,0.1 c 0,0.2 -0.8,0.3 -1.3,0.2 0.6,-0.2 0.1,-0.3 -0.2,-0.5 -0.4,0.1 0.3,0.2 0.1,0.3 -0.5,0.1 -1.5,0.2 -1.8,0.1 l 0.3,-0.1 c -0.7,0.1 -1,-0.3 -1.6,-0.2 -0.6,0.2 -1,0.1 -0.9,0.4 -0.8,0.1 -0.3,-0.2 -0.6,-0.3 -0.4,0.2 -1.6,0.2 -1.8,0 -0.4,0.6 -2.3,0 -2.4,0.5 l -0.7,-0.2 c 0,0.1 -0.1,0.4 -0.7,0.5 -0.5,-0.1 -0.4,-0.3 -0.6,-0.4 l -0.3,0.5 c -3.1,-0.1 -7.1,1.1 -10.4,1.6 -1.4,0.5 -3.2,1.2 -4.9,1.7 l 0.2,-0.1 -1.7,0.4 1.3,-0.2 c -0.3,0.2 -0.6,0.3 -0.9,0.5 -1.9,0.4 -4.3,1.1 -6.4,2.2 -1.2,1.1 -1.1,0 -2.3,0.9 0.1,-0.1 0.1,-0.2 0.2,-0.3 -1.4,0.8 -2.1,1.2 -3.4,2.2 -0.1,-0.5 -0.9,0.4 -0.9,0.1 v 0.2 c -0.4,0 -1.1,0.4 -1.1,0.2 L 88,52.9 87.7,53 c -0.8,0.4 -2.5,1.5 -3.1,1.3 -1.8,1.3 -5,3 -7.4,4.4 -0.2,0.4 -0.9,0.8 -1.5,1.2 L 75,60.1 c -0.5,0.4 -0.9,1.1 -1.5,1.3 v -0.1 c -0.5,0.4 -1.1,0.6 -1.5,1.2 -0.6,0.4 -1.3,0.7 -1.2,0.3 0.2,0.4 -1.3,0.8 -1.3,0.8 L 68,64.5 64.4,67 c -3,2.1 -7,4.9 -11.1,8.2 -4.1,3.3 -8.3,7.1 -11.5,10.9 -3.2,3.8 -5.3,7.6 -6,9.9 0,0.4 -0.3,1.2 0.1,1 -0.2,0.6 -0.7,0.8 -0.6,1 0.5,-0.8 0.4,0.5 1,-0.2 l -0.2,0.5 c 0.1,0.2 0.2,-0.8 0.4,-0.5 l -0.3,-0.3 c 0.3,-0.4 0.5,-0.6 0.7,-0.6 0.1,-0.4 -0.3,-1 0.5,-1.7 l -0.1,0.3 c 0.4,-0.7 0.5,-0.3 0.6,-0.4 L 37.8,95 38.3,94.5 c -0.4,0.4 -0.6,1.3 -0.4,0.9 0.6,-0.8 -0.2,0.2 0.1,-0.5 0.2,-0.4 0.3,-0.2 0.4,-0.1 l 0.4,-0.7 c 0.1,0.1 -0.3,0.4 0,0.3 l 0.4,-1 c 0.5,0.1 0.5,-1 1.1,-1.2 -0.4,0.7 0.2,0 0.2,0.2 0.4,-0.5 0.7,-1 1.1,-1.4 0.2,-0.1 -0.2,0.5 0,0.2 0.3,-0.2 0.3,-0.5 0.4,-0.6 0.2,0 0.9,-1 1.1,-0.8 1,-0.8 0,-0.6 0.9,-1.4 0.2,0 -0.6,0.7 -0.1,0.5 L 44.6,88 c 0,0.1 0.1,0.4 -0.3,0.7 2.4,-2.1 4.3,-2.6 6.2,-4.7 0.5,-0.1 -0.1,0.3 -0.2,0.6 1.4,-1.6 2.5,-1.6 3.8,-2.7 L 54,81.7 c 2.3,-1.1 4.4,-3.2 6.8,-4.7 l -0.3,0.1 c 0.2,-0.4 0.7,-0.8 1,-1.1 0.1,0 0,0.5 0.6,0 -0.2,0 -0.5,0.2 -0.5,0.1 1.1,-0.5 2.7,-1.6 4.4,-2.7 1.7,-1.2 3.6,-2.5 5.3,-3.6 2.1,-1.5 4.5,-3.1 6.8,-4.5 2.4,-1.4 4.8,-2.8 7,-4.1 -0.7,0.4 -0.6,-0.2 0,-0.4 1.8,-0.1 2.4,-1.5 4.2,-1.8 2.6,-1.6 5.3,-2.1 7.6,-3.8 l 0.1,0.2 c 0.4,-0.1 0.5,-0.3 0.9,-0.4 v 0.1 c 1,-0.3 2.1,-1 2.7,-1.1 l -0.1,-0.2 c 0.6,-0.2 0.4,0.1 0.9,-0.3 v 0.1 l 0.6,-0.5 c 0.1,0.4 1.6,-0.6 2.2,-0.5 0.7,-0.3 2.1,-1 3.3,-1.2 0.3,0.1 1.7,-0.3 2.6,-0.4 1.8,-0.5 4.3,-1.2 6.6,-1.5 l -0.1,-0.3 0.6,-0.1 c 0,0.1 0.1,0.1 0,0.1 0.5,0.2 1.4,-0.3 1.9,-0.2 -0.3,-0.2 -0.4,0 -0.8,0.1 -0.5,-0.1 -0.1,-0.4 0.6,-0.4 v 0.1 l 0.4,-0.2 c 0.1,0.2 0.5,0.3 0.6,0.5 2,-0.3 3.3,-0.8 5.3,-0.8 -0.2,0.3 1.5,-0.1 1.1,0.3 1.2,-0.2 -0.2,-0.3 0.3,-0.6 0.3,0 0.7,-0.1 0.8,0 -0.2,0.1 0.3,0.3 0,0.3 h 0.8 c 0.1,0 -0.1,0.1 -0.2,0.1 1.7,-0.3 3,0.3 4.5,0.1 0.1,-0.1 -0.6,-0.1 -0.5,-0.2 1.5,-0.2 1.3,0.3 2.7,0.2 l -0.3,0.2 c 0.5,-0.1 0.7,-0.3 1.4,0 0.1,0.3 -0.6,0.1 -1,0.2 0.2,0 0.7,0.1 1,0 0.3,0 0.5,0 0.4,-0.2 0.6,0 0.8,0.3 1.1,0.4 0,-0.1 -0.5,-0.3 -0.2,-0.3 0.8,0.3 2.1,0.5 3.1,0.7 0,0.1 0,0.2 -0.1,0.2 1.3,-0.3 1.1,0.3 2.2,0.5"
         id="path92"
         inkscape:connector-curvature="0"
         style="fill:#878787" /><path
         class="st0"
         d="m 197,66.6 -0.4,-0.1 c 0,0.1 0,0.1 -0.2,0.2 z"
         id="path94"
         inkscape:connector-curvature="0"
         style="fill:#878787" /><path
         class="st0"
         d="m 176.4,62.5 h -0.2 c 0.1,0.1 0.1,0.1 0.2,0"
         id="path96"
         inkscape:connector-curvature="0"
         style="fill:#878787" /><path
         class="st0"
         d="m 171.4,61.2 c 0.4,0.1 0.1,-0.1 -0.1,-0.2 0,0 0,0.1 0.1,0.2"
         id="path98"
         inkscape:connector-curvature="0"
         style="fill:#878787" /><path
         class="st0"
         d="m 208.9,65.7 c -0.1,0 -0.1,0.1 -0.1,0.1 0.1,0 0.1,-0.1 0.1,-0.1"
         id="path100"
         inkscape:connector-curvature="0"
         style="fill:#878787" /><path
         class="st0"
         d="m 240.5,57.6 h -0.1 0.1"
         id="path102"
         inkscape:connector-curvature="0"
         style="fill:#878787" /><path
         class="st0"
         d="m 238.6,58 c -0.1,0 -0.2,0.1 -0.3,0.2 0.2,0 0.3,-0.1 0.3,-0.2"
         id="path104"
         inkscape:connector-curvature="0"
         style="fill:#878787" /><path
         class="st0"
         d="m 201,66.1 c -0.1,0 -0.2,0 -0.3,0.1 0.1,0 0.2,0 0.3,-0.1"
         id="path106"
         inkscape:connector-curvature="0"
         style="fill:#878787" /><path
         class="st0"
         d="m 238,58.4 -0.4,0.2 z"
         id="path108"
         inkscape:connector-curvature="0"
         style="fill:#878787" /><path
         class="st0"
         d="m 241,57.3 c -0.2,0.1 -0.4,0.2 -0.5,0.2 0.2,0 0.4,-0.1 0.5,-0.2"
         id="path110"
         inkscape:connector-curvature="0"
         style="fill:#878787" /><path
         class="st0"
         d="m 220.7,63.7 c -0.4,0.2 -0.2,0.1 0,0"
         id="path112"
         inkscape:connector-curvature="0"
         style="fill:#878787" /></g><polygon
       points="236.3,59.6 236.2,59.7 "
       class="st0"
       id="polygon116"
       style="fill:#878787" /><g
       id="g124"
       style="fill:#878787"><path
         class="st0"
         d="m 242.8,56.5 c -0.1,0 -0.1,0.1 -0.2,0.2 l 0.2,-0.2"
         id="path118"
         inkscape:connector-curvature="0"
         style="fill:#878787" /><path
         class="st0"
         d="m 227.4,62.5 c 0.1,-0.1 0.1,-0.2 0.1,-0.2 -0.1,0 -0.2,0 -0.1,0.2"
         id="path120"
         inkscape:connector-curvature="0"
         style="fill:#878787" /><path
         class="st0"
         d="m 187,48.8 c 0.4,0.1 1.1,0.1 2,0.1 1.5,0 2.7,-0.3 3.5,-1 0.7,-0.6 1.3,-1.6 1.3,-3.1 0,-1.3 -0.5,-2.3 -1.3,-2.9 -0.7,-0.5 -1.7,-0.8 -3.1,-0.8 -0.9,0 -1.7,0.1 -2.3,0.2 v 7.5 z m 1.7,-6.2 c 0.1,0 0.4,-0.1 0.8,-0.1 1.5,0 2.4,0.8 2.4,2.4 0,1.8 -1,2.7 -2.6,2.7 h -0.6 z m 11.3,0.7 h -1.7 v 3.3 c 0,0.1 0,0.3 -0.1,0.4 -0.1,0.3 -0.4,0.6 -0.9,0.6 -0.6,0 -0.9,-0.5 -0.9,-1.3 v -3 h -1.7 v 3.2 c 0,1.7 0.8,2.4 1.9,2.4 1,0 1.5,-0.6 1.7,-0.9 l 0.1,0.8 h 1.5 V 47 43.3 Z m 1.4,5.6 h 1.7 v -3.3 c 0,-0.1 0,-0.3 0.1,-0.4 0.1,-0.3 0.4,-0.6 0.9,-0.6 0.6,0 0.9,0.5 0.9,1.2 v 3 h 1.7 v -3.2 c 0,-1.7 -0.8,-2.4 -1.9,-2.4 -0.3,0 -0.6,0.1 -0.9,0.2 -0.3,0.1 -0.5,0.3 -0.7,0.6 v -3.2 h -1.7 v 8.1 z m 6.6,0 h 1.7 v -3.2 c 0,-0.2 0,-0.3 0.1,-0.4 0.1,-0.3 0.4,-0.6 0.9,-0.6 0.6,0 0.9,0.5 0.9,1.2 V 49 h 1.7 v -3.3 c 0,-1.6 -0.8,-2.4 -2,-2.4 -0.9,0 -1.5,0.5 -1.7,0.9 l -0.1,-0.8 H 208 v 1.8 z m 11.5,-2.3 c 0,-0.1 0.1,-0.4 0.1,-0.7 0,-1.4 -0.7,-2.8 -2.5,-2.8 -1.9,0 -2.8,1.5 -2.8,2.9 0,1.7 1.1,2.8 2.9,2.8 0.7,0 1.4,-0.1 2,-0.4 L 219,47.2 c -0.5,0.2 -0.9,0.2 -1.5,0.2 -0.8,0 -1.5,-0.3 -1.6,-1 h 3.6 z m -3.6,-1.1 c 0,-0.5 0.3,-1.1 1.1,-1.1 0.8,0 1,0.7 1,1.1 z m 4.7,3.4 h 1.7 v -3.2 c 0,-0.2 0,-0.3 0.1,-0.4 0.1,-0.3 0.4,-0.6 0.9,-0.6 0.6,0 0.9,0.5 0.9,1.2 V 49 h 1.7 v -3.3 c 0,-1.6 -0.8,-2.4 -2,-2.4 -0.9,0 -1.5,0.5 -1.7,0.9 l -0.1,-0.8 h -1.5 v 1.8 z"
         id="path122"
         inkscape:connector-curvature="0"
         style="fill:#878787" /></g><g
       id="g136"
       style="fill:#7d3253"><path
         class="st1"
         d="m 26.8,25 c -1,-2.8 -4.5,-10.2 -6.9,-14.4 l 3.8,15.2 c 0.3,-0.1 0.6,-0.2 0.9,-0.2 0.8,-0.3 1.6,-0.5 2.2,-0.6"
         id="path126"
         inkscape:connector-curvature="0"
         style="fill:#7d3253" /><path
         class="st1"
         d="m 32.2,35.8 c -0.8,-2 -1.3,-2.1 -14.6,2 C 13,39.2 7.4,40.9 0,43 c 1.2,0.7 4.2,1.3 11.5,0.5 13.7,-1.5 16.5,-3.3 17.3,-1 0.7,2.3 3.2,17.7 3,23.5 -0.2,3.7 1,6.1 2,7.3 0,-0.9 0.2,-2.3 0.4,-4.4 0.8,-7.7 2.4,-21.9 -2,-33.1"
         id="path128"
         inkscape:connector-curvature="0"
         style="fill:#7d3253" /><path
         class="st1"
         d="m 55.7,28.1 c 1,0.5 2.1,1 3.3,1.7 3.3,-2.3 8.6,-6.1 11,-8.5 -6,1.5 -13.6,4.1 -15.9,6 0.5,0.3 1.1,0.6 1.6,0.8"
         id="path130"
         inkscape:connector-curvature="0"
         style="fill:#7d3253" /><path
         class="st1"
         d="M 69.2,51.6 C 64.9,47.5 57.2,40.5 49,41.7 c -0.1,0.2 -0.2,0.6 -0.3,1.1 -0.2,1 -0.5,2.3 -0.7,3.8 h 0.2 c 5.5,-0.3 15.1,2.9 21,5"
         id="path132"
         inkscape:connector-curvature="0"
         style="fill:#7d3253" /><path
         class="st1"
         d="m 61.3,35.1 c -1.7,-1.5 -3.5,-2.6 -5.1,-3.4 l -1.8,-0.9 c -1.9,-0.9 -3.2,-1.5 -3.6,-2.7 -0.2,-0.6 -0.1,-1.2 0.2,-1.7 1.8,-3.1 10.5,-5.9 16,-7.5 1.2,-0.3 2.2,-0.6 3,-0.8 0,-0.5 -0.2,-1.1 -1,-1.4 -10.6,-4.5 -21,1.8 -25,4.2 -1.5,0.9 -2.8,1.7 -3.7,0.3 C 38.7,18.8 33,10.5 23.9,6 23.1,5.6 21.5,5.6 20.6,5.9 c 0.3,0.5 1,1.6 1.7,2.9 3.1,5.5 8.5,16 7.7,17.7 -0.3,0.7 -0.9,1 -2.5,1.4 -0.6,0.2 -1.2,0.3 -2.1,0.5 -3.2,0.8 -8.2,2 -14,4.2 -5,1.9 -7.7,4.5 -9.1,6.5 1.4,-0.4 2.6,-0.8 3.9,-1.1 4.1,-1.2 7.6,-2.2 10.5,-3.1 7.3,-2.2 11.5,-3.5 14.1,-3.5 2.3,0 3.4,1 4.3,3.3 4.7,11.8 3,26.6 2.2,34.5 -0.1,1.1 -0.3,2.3 -0.3,3.1 4.4,-2.4 6.4,-15.2 7.6,-23.1 0.1,-0.6 0.2,-1.2 0.3,-1.7 1,-6.5 1.6,-8.5 3.3,-8.8 0.3,-0.1 0.7,-0.1 1,-0.1 3.3,-0.4 6.5,0.3 9.4,1.5 5.6,2.4 10.3,6.8 13.3,9.6 0.8,0.7 1.6,1.5 2.2,2 0.1,-0.2 0.1,-0.4 0.1,-0.6 -0.1,-2.9 -4.4,-8.3 -12.9,-16"
         id="path134"
         inkscape:connector-curvature="0"
         style="fill:#7d3253" /></g></g></svg>