<?xml version="1.0" encoding="UTF-8" standalone="no"?>
<!-- Generator: Adobe Illustrator 21.1.0, SVG Export Plug-In . SVG Version: 6.00 Build 0)  -->
<svg xmlns:rdf="http://www.w3.org/1999/02/22-rdf-syntax-ns#" xmlns="http://www.w3.org/2000/svg" xml:space="preserve" height="150" width="270" version="1.1" y="0px" x="0px" xmlns:cc="http://creativecommons.org/ns#" xmlns:dc="http://purl.org/dc/elements/1.1/" viewBox="0 0 270.00001 149.99999"><metadata><rdf:RDF><cc:Work rdf:about=""><dc:format>image/svg+xml</dc:format><dc:type rdf:resource="http://purl.org/dc/dcmitype/StillImage"/><dc:title/></cc:Work></rdf:RDF></metadata><style type="text/css">
	.st0{fill:#FECF56;}
	.st1{fill:#878787;}
</style><g transform="translate(10.85 6.7365)"><g fill="#fecf56"><path class="st0" d="m238.2 37.2c-0.2-0.2-0.5-0.4-0.7-0.6 1.8 3.7 3.4 7.2 4.4 9.3h0.1c1.5-0.7 3.3-0.9 4.9-0.8-3.1-3.1-6-5.7-8.7-7.9"/><path class="st0" d="m214.1 2.2c0.3-0.8-0.1-1.8-0.9-2.1s-1.8 0.1-2.1 0.9l-0.9 2.3c1.1 0.3 2.1 0.7 3.1 1z"/><path class="st0" d="m228.2 29.6c-0.9-0.6-1.3-0.9-1.6-1.2-2.8-1.6-5.9-3.2-9.2-4.6 1.7 7.3 0.8 15.9 0.3 19.8 1.1-0.1 2.5-0.2 4.3-0.2 4 0 9.6 0.5 16.3 2.2-2-4.4-4.5-9.5-6.8-13.8-1.4-0.8-2.5-1.6-3.3-2.2"/><path class="st0" d="m195.4 16.2c-4.5-1.3-8.2-2.2-10.6-2.8l-18.8 5.1c5.8 3.5 13.3 10.1 16.5 13 2-3.2 6.9-10.6 12.9-15.3"/><path class="st0" d="m174.1 11.8c-1.1-0.1-2.2-0.2-3.5-0.3-3.3-0.2-7.2-0.4-11.6-0.4 1.9 1.4 3 3.1 3.6 4.4 0.1 0.2 0.1 0.3 0.2 0.5l4.6-1.3 9.8-2.7c-1 0-2-0.1-3.1-0.2"/><path class="st0" d="m213.6 22.3c-0.1 0-0.2-0.1-0.3-0.1-2-0.8-4-1.5-6-2.2-1-0.4-2-0.7-3.1-1-0.5-0.2-1-0.3-1.6-0.5-0.7-0.2-1.4-0.5-2.1-0.7-0.4-0.1-0.9-0.3-1.3-0.4-2.6 1.7-5.2 4.2-7.5 6.9-2.5 2.9-4.7 6-6.2 8.4 0.2 0 0.3 0.1 0.5 0.1 4.6 0.8 8.8 1.9 12.6 3.2 1 0.4 2.1 0.7 3 1.1 5.8 2.2 10.3 4.5 12.8 5.9h0.1c0.8-5.5 1.2-14.4-0.9-20.7"/><path class="st0" d="m187.7 2.5c-15.2-0.4-25.1 2.7-30.6 5.3-0.1 0-0.2 0.1-0.2 0.1 1.3 0 2.6-0.1 3.8-0.1 6.5 0 11.8 0.4 15.5 0.9 0.4 0 0.7 0.1 1.1 0.1 1.4 0.2 2.5 0.3 3.4 0.5 0.2 0 0.3 0 0.5 0.1h0.2c0.2 0 0.3 0 0.5 0.1 0.1-0.1 0.3-0.2 0.4-0.4l0.3-0.3 0.3-0.3c0.5-0.5 1.1-1 1.7-1.6 0 0 0.1 0 0.1-0.1 1.3-1.2 2.9-2.5 4.8-3.7l0.9-0.6c-1 0.1-1.8 0-2.7 0"/><path class="st0" d="m245.5 36.1c-3.1-5.4-8.3-12.3-17-19.7-0.4-0.3-0.7-0.6-1.1-0.9 0.1 0.3 0.2 0.7 0.3 1 0.3 1.1 0.5 2.3 0.7 3.3 0 0.3 0.1 0.7 0.1 1s0.1 0.7 0.1 1c0.1 0.7 0.1 1.4 0.2 2v1.4c0 0.4 0 0.7 0.1 1 0.2 0.1 0.6 0.4 1 0.7 0 0 0.1 0.1 0.2 0.1 0.2 0.2 0.5 0.3 0.8 0.5 0.2 0.1 0.4 0.3 0.6 0.5 0.7 0.5 1.5 1.1 2.4 1.7 0.2 0.2 0.5 0.4 0.8 0.6 1.5 1.1 3.3 2.5 5.3 4.1 2.1 1.7 4.4 3.7 6.8 6l1.5 1.5c-0.6-1.6-1.5-3.6-2.8-5.8"/><path class="st0" d="m225.5 22.9c0-0.2 0-0.5-0.1-0.7-0.1-0.9-0.2-1.9-0.4-2.9 0-0.1 0-0.3-0.1-0.4l-0.3-1.5-0.3-0.9c-0.7-2.2-2.1-4.4-4-6.4-2.6-1.4-4.9-2.5-7.8-3.6-0.3-0.1-0.7-0.3-1.1-0.4h-0.1c-0.6-0.2-1.2-0.4-1.9-0.6-2.7-0.8-5.9-1.4-10.1-2.1h-0.1c-3.2 0.2-5.9 1-8.1 2.4-0.2 0.1-0.3 0.2-0.5 0.3-0.3 0.2-0.5 0.4-0.8 0.5-0.6 0.4-1.1 0.9-1.7 1.3-0.2 0.1-0.3 0.3-0.5 0.4-0.7 0.6-1.3 1.1-1.8 1.6l-0.3 0.3c0.7 0.2 1.4 0.3 2.3 0.6 0.9 0.2 2 0.5 3.1 0.8 2.3 0.6 4.9 1.3 7.7 2.2 0.7 0.2 1.4 0.4 2.2 0.7 0.4 0.1 0.7 0.2 1.1 0.3 0.5 0.2 1 0.3 1.5 0.5s1 0.3 1.5 0.5h0.1c1 0.3 2 0.7 3 1 1 0.4 2 0.7 3.1 1.1 0.2 0.1 0.5 0.2 0.7 0.3 0.6 0.2 3.2 1.3 3.9 1.5 0.1 0 0.1 0.1 0.2 0.1 3.3 1.4 6.5 2.8 9.5 4.4 0.2-0.3 0.2-0.8 0.1-1.3"/></g><g fill="#878787"><path class="st1" d="m11.5 51.3c-0.3 0.2-0.5 0.4-0.7 0.7z"/><path class="st1" d="m11.7 52.3-0.2 0.1c0.1 0 0.1 0 0.2-0.1"/><path class="st1" d="m11.7 52.3 0.2-0.1h-0.1s0 0.1-0.1 0.1"/><path class="st1" d="m10.8 52-0.4 0.4 0.4-0.4"/></g><path d="m156.1 106.2h-0.2 0.2"/><path fill="#fecf56" class="st0" d="m197.8 48.5 3.1-9.4c-1-0.4-2-0.7-3-1.1l-3.4 10.4h3.3z"/><path fill="#fecf56" class="st0" d="m185.5 75.8-3.9 11.8c-0.3 0.8 0.2 1.7 1 2 0.2 0.1 0.3 0.1 0.5 0.1 0.7 0 1.3-0.4 1.5-1.1l4.2-12.8z"/><g fill="#878787"><path class="st1" d="m12.1 53c0.9 0.2 1.6 0.7 2.3 1.5 0.3 0.4 0.5 0.8 0.7 1.2s0.5 1 0.8 1.7 0.6 1.2 0.9 1.5h1.2v-7.3h-1.4c-0.2 0.2-0.3 0.5-0.5 0.6-0.2 0.2-0.3 0.3-0.5 0.3s-0.3-0.1-0.5-0.2c-1-0.7-2-1.1-3-1.2zm-5.1 19.2c0.3 0.1 0.7 0.3 1.4 0.6s1.5 0.4 2.4 0.5v-1.9c-1.3-0.1-2.3-0.7-3.1-1.6-0.3-0.4-0.6-0.9-0.9-1.3-0.2-0.5-0.5-1.1-0.8-1.9s-0.7-1.3-1.1-1.5h-1v7.9h1.5c0.3-0.6 0.6-0.9 0.9-0.9 0.2 0 0.4 0 0.7 0.1m5.1 1.1c2.3-0.1 4.2-0.9 5.5-2.4 1.2-1.3 1.8-2.9 1.8-4.8 0-1.6-0.6-3-1.8-4.1-0.5-0.5-1.1-0.9-1.8-1.2s-1.4-0.7-2.1-1-1.4-0.6-2.1-0.8c-0.7-0.3-1.3-0.6-1.8-0.9s-1-0.7-1.3-1.1-0.5-1-0.5-1.6 0.3-1.2 0.7-1.6c0.5-0.4 1.2-0.7 2-0.8v-2c-2.1 0-3.8 0.7-5.2 2.1-1.2 1.2-1.8 2.7-1.8 4.3s0.6 2.9 1.8 3.9c0.5 0.5 1.1 0.9 1.8 1.2s1.4 0.7 2.1 0.9l2.1 0.9c0.7 0.3 1.3 0.6 1.8 1s1 0.8 1.3 1.2c0.3 0.5 0.5 1.1 0.5 1.9s-0.3 1.5-0.8 2c-0.6 0.5-1.3 0.9-2.3 1v1.9zm9.2-14.7h0.9c0.4-0.3 0.7-1 1.1-2 0.1-0.4 0.2-0.8 0.4-1.2 0.5-1.4 1.5-2.2 3-2.4v-1.5h-3.2c-0.1 0-0.9-0.1-2.2-0.2zm11.8-7.1h-5v18.4c0 0.6-0.3 1.1-0.8 1.4-0.2 0.1-0.5 0.2-0.8 0.3s-0.6 0.2-0.9 0.3v1.1h10v-1.1c-0.3-0.2-0.6-0.3-0.9-0.3s-0.6-0.1-0.8-0.2c-0.5-0.3-0.8-1-0.8-2.1zm1.3 0v1.5c1.1 0.1 2 0.5 2.5 1.3 0.2 0.3 0.4 0.7 0.5 1.1s0.3 0.9 0.5 1.6 0.5 1.2 0.9 1.5h0.9v-7.3c-1.3 0.2-2 0.2-2.2 0.2h-3.1zm26.5 18.4h-0.3c-0.2 0-0.3 0.1-0.4 0.2s-0.2 0.3-0.4 0.5-0.4 0.4-0.6 0.4c-0.4 0-0.8-0.4-1.2-1.1-0.2-0.3-0.4-0.7-0.5-1.2-0.2-0.4-0.3-0.9-0.5-1.3-0.2-0.5-0.3-0.9-0.5-1.3-0.5-1.3-1.3-2.3-2.2-2.9-0.4-0.3-1.1-0.5-2-0.7v-0.1c1-0.1 1.9-0.2 2.8-0.5 2.5-0.8 3.8-2.4 3.8-4.8 0-1.6-0.6-2.9-1.7-3.9-1.3-1.1-3.1-1.6-5.4-1.6h-1.8v1.4c1.2 0.1 2.1 0.4 2.6 1 0.6 0.6 0.8 1.7 0.8 3.3 0 1.4-0.3 2.4-0.9 3.1-0.5 0.5-1.4 0.9-2.6 1v2.2c0.7 0.5 1.2 1.4 1.6 2.5 0.2 0.5 0.4 1.2 0.6 2.2s0.5 1.8 0.9 2.6c0.7 1.6 2 2.5 3.7 2.5 1.9 0 3.3-0.8 4.2-2.3zm-19.5-18.4v1.1c0.3 0.1 0.5 0.2 0.8 0.3s0.5 0.1 0.7 0.2c0.5 0.2 0.7 0.7 0.7 1.3v15.7c0 0.6-0.2 1-0.7 1.3-0.2 0.1-0.4 0.2-0.7 0.2-0.3 0.1-0.5 0.1-0.8 0.3v1.1h9.3v-1.1c-0.3-0.1-0.5-0.2-0.8-0.3s-0.5-0.1-0.7-0.2c-0.5-0.2-0.7-0.6-0.7-1.3v-18.6zm33.4 18.2c0.2 0.5 0.3 0.8 0.3 1 0 0.4-0.2 0.6-0.7 0.8-0.2 0.1-0.5 0.1-0.7 0.2s-0.5 0.2-0.8 0.3v1h9.7v-1.1c-0.6-0.1-1.1-0.3-1.5-0.6-0.4-0.4-0.7-0.9-1.1-1.7l-7-17.6c-0.1-0.3-0.3-0.6-0.5-0.9-0.2 0-0.5 0-0.8 0.1-2 0.3-3.5 0.6-4.4 1-0.1 0.3-0.1 0.6-0.1 0.9s-0.1 0.7-0.1 1.1l2.2 0.7zm-6.4-12.9-4.7 12.9c-0.3 0.8-0.7 1.3-1.3 1.6-0.2 0.1-0.5 0.2-0.7 0.3s-0.5 0.2-0.7 0.3v1h7.2v-1c-0.3-0.1-0.5-0.2-0.8-0.3s-0.6-0.2-0.8-0.2c-0.3-0.1-0.5-0.2-0.6-0.4-0.2-0.2-0.3-0.4-0.3-0.7s0.1-0.7 0.2-1.1l3.4-9.7zm3.1 8.2h-2.6l-0.5 1.6h3.7zm29.7 0.9v-11.5c0-0.6 0.2-1.1 0.7-1.3 0.2-0.1 0.5-0.2 0.7-0.3 0.3-0.1 0.6-0.2 0.8-0.3v-1.1h-6.7v1.1c0.3 0.1 0.6 0.2 0.9 0.3s0.5 0.2 0.8 0.3c0.5 0.2 0.7 0.7 0.7 1.3v8.5zm-16.1-10.5v14.4c0 0.7-0.3 1.2-0.8 1.5-0.2 0.1-0.5 0.3-0.8 0.3-0.3 0.1-0.5 0.2-0.8 0.3v1.1h6.9v-1.1c-0.3-0.1-0.5-0.2-0.8-0.3-1.1-0.3-1.7-0.9-1.7-1.9v-11.3zm13.5 17.6h2.6v-4.7l-11.3-16.8h-7v1.9c0.2 0.1 0.8 0.2 1.6 0.3 0.4 0.1 0.8 0.2 1.3 0.2zm13.4-21.5h-7.2v1.1c0.3 0.1 0.5 0.2 0.8 0.3s0.5 0.1 0.7 0.2c0.5 0.2 0.7 0.7 0.7 1.3v15.7c0 0.6-0.2 1-0.7 1.3-0.2 0.1-0.4 0.2-0.7 0.2-0.3 0.1-0.5 0.1-0.8 0.3v1.1h7.2zm6.7 3.7c0.9 1.5 1.3 3.8 1.3 7 0 3.5-0.4 5.9-1.3 7.3-0.5 0.7-1 1.2-1.7 1.5s-1.4 0.5-2.1 0.5-1.2 0-1.5-0.1v1.6h1.6c3.4 0 6.1-1.1 8-3.2 1.8-2 2.6-4.5 2.6-7.5s-0.8-5.4-2.5-7.4c-1.9-2.2-4.6-3.3-8.2-3.3h-1.5v1.4c0.3 0 0.8-0.1 1.5-0.1s1.4 0.2 2.1 0.6 1.2 0.9 1.7 1.7m17.4 7.4c3.5 0 5.3 1.5 5.3 4.4s-1.5 4.4-4.5 4.4c-0.4 0-0.6 0-0.8-0.1v1.7h2.5c2.8 0 4.9-0.6 6.3-1.8 1.4-1.1 2-2.5 2-4.2s-0.7-3.1-2-4.1c-1.2-0.9-2.7-1.4-4.6-1.4v-0.1c1.6-0.2 2.8-0.7 3.7-1.4 1-0.8 1.6-2 1.6-3.4 0-1.6-0.6-2.9-1.7-3.8s-2.9-1.3-5.3-1.3h-2.6v1.5h0.8c0.4 0 0.8 0.1 1.3 0.3 1.4 0.5 2.2 1.8 2.2 3.7 0 2.7-1.4 4-4.2 4zm-1.3-11.1h-7.2v1.1c0.3 0.1 0.5 0.2 0.8 0.3s0.5 0.1 0.7 0.2c0.4 0.2 0.7 0.7 0.7 1.3v15.7c0 0.6-0.2 1-0.7 1.3-0.2 0.1-0.4 0.2-0.7 0.2-0.3 0.1-0.5 0.1-0.8 0.3v1.1h7.2zm26.4 18.2c0.2 0.5 0.3 0.8 0.3 1 0 0.4-0.2 0.6-0.7 0.8-0.2 0.1-0.5 0.1-0.7 0.2-0.3 0.1-0.5 0.2-0.8 0.3v1h9.7v-1.1c-0.6-0.1-1.1-0.3-1.5-0.6-0.4-0.4-0.7-0.9-1.1-1.7l-7-17.6c-0.1-0.3-0.3-0.6-0.5-0.9-0.2 0-0.5 0-0.8 0.1-2 0.3-3.5 0.6-4.4 1-0.1 0.3-0.1 0.6-0.1 0.9s-0.1 0.7-0.1 1.1l2.2 0.7zm-6.4-12.9-4.7 12.9c-0.3 0.8-0.7 1.3-1.3 1.6-0.2 0.1-0.5 0.2-0.7 0.3s-0.5 0.2-0.7 0.3v1h7.2v-1c-0.3-0.1-0.5-0.2-0.8-0.3s-0.6-0.2-0.8-0.2c-0.3-0.1-0.5-0.2-0.6-0.4-0.2-0.2-0.3-0.4-0.3-0.7s0.1-0.7 0.2-1.1l3.4-9.7zm3.1 8.2h-2.6l-0.5 1.6h3.7zm20.1-12c0.9 0.2 1.6 0.7 2.3 1.5 0.3 0.4 0.5 0.8 0.7 1.2s0.5 1 0.8 1.7 0.6 1.2 0.9 1.5h1.1v-7.3h-1.4c-0.2 0.2-0.3 0.5-0.5 0.6-0.2 0.2-0.3 0.3-0.5 0.3s-0.3-0.1-0.5-0.2c-1-0.7-2-1.1-3-1.2v1.9zm-5.2 19.2c0.3 0.1 0.7 0.3 1.4 0.6s1.5 0.4 2.4 0.5v-1.9c-1.3-0.1-2.3-0.7-3.1-1.6-0.3-0.4-0.6-0.9-0.9-1.3-0.2-0.5-0.5-1.1-0.8-1.9s-0.7-1.3-1-1.5h-1v7.9h1.5c0.3-0.6 0.6-0.9 0.9-0.9 0.2 0 0.4 0 0.6 0.1m5.2 1.1c2.3-0.1 4.2-0.9 5.5-2.4 1.2-1.3 1.8-2.9 1.8-4.8 0-1.6-0.6-3-1.8-4.1-0.5-0.5-1.1-0.9-1.8-1.2s-1.4-0.7-2.1-1-1.4-0.6-2.1-0.8c-0.7-0.3-1.3-0.6-1.8-0.9s-1-0.7-1.3-1.1-0.5-1-0.5-1.6 0.2-1.2 0.7-1.6 1.2-0.7 2-0.8v-2c-2.1 0-3.8 0.7-5.2 2.1-1.2 1.2-1.8 2.7-1.8 4.3s0.6 2.9 1.8 3.9c0.5 0.5 1.1 0.9 1.8 1.2s1.4 0.7 2.1 0.9l2.1 0.9c0.7 0.3 1.3 0.6 1.8 1s1 0.8 1.3 1.2c0.3 0.5 0.5 1.1 0.5 1.9s-0.3 1.5-0.8 2c-0.6 0.5-1.3 0.9-2.3 1v1.9zm21.9-3.6c0.2 0.5 0.3 0.8 0.3 1 0 0.4-0.2 0.6-0.7 0.8-0.2 0.1-0.5 0.1-0.7 0.2-0.3 0.1-0.5 0.2-0.8 0.3v1h9.7v-1.1c-0.6-0.1-1.1-0.3-1.5-0.6-0.4-0.4-0.7-0.9-1.1-1.7l-7-17.6c-0.1-0.3-0.3-0.6-0.5-0.9-0.2 0-0.5 0-0.8 0.1-2 0.3-3.5 0.6-4.4 1-0.1 0.3-0.1 0.6-0.1 0.9s-0.1 0.7-0.1 1.1l2.2 0.7zm-6.4-12.9-4.7 12.9c-0.3 0.8-0.7 1.3-1.3 1.6-0.2 0.1-0.5 0.2-0.7 0.3s-0.5 0.2-0.7 0.3v1h7.2v-1c-0.3-0.1-0.5-0.2-0.8-0.3s-0.6-0.2-0.8-0.2c-0.3-0.1-0.5-0.2-0.6-0.4-0.2-0.2-0.3-0.4-0.3-0.7s0.1-0.7 0.2-1.1l3.4-9.7zm3.1 8.2h-2.6l-0.5 1.6h3.7zm31.1 4.9h-0.3c-0.1 0-0.3 0.1-0.4 0.2s-0.3 0.3-0.4 0.5c-0.2 0.2-0.4 0.4-0.6 0.4-0.4 0-0.8-0.4-1.2-1.1-0.2-0.3-0.4-0.7-0.5-1.2-0.2-0.4-0.3-0.9-0.5-1.3-0.2-0.5-0.3-0.9-0.5-1.3-0.5-1.3-1.3-2.3-2.2-2.9-0.4-0.3-1.1-0.5-2-0.7v-0.1c1-0.1 1.9-0.2 2.8-0.5 2.5-0.8 3.8-2.4 3.8-4.8 0-1.6-0.6-2.9-1.7-3.9-1.3-1.1-3.1-1.6-5.4-1.6h-1.8v1.4c1.3 0.1 2.1 0.4 2.6 1 0.6 0.6 0.8 1.7 0.8 3.3 0 1.4-0.3 2.4-0.9 3.1-0.5 0.5-1.4 0.9-2.6 1v2.2c0.7 0.5 1.2 1.4 1.6 2.5 0.2 0.5 0.4 1.2 0.6 2.2s0.5 1.8 0.9 2.6c0.7 1.6 2 2.5 3.7 2.5 1.9 0 3.3-0.8 4.2-2.3zm-19.5-18.4v1.1c0.3 0.1 0.5 0.2 0.8 0.3s0.5 0.1 0.7 0.2c0.5 0.2 0.7 0.7 0.7 1.3v15.7c0 0.6-0.2 1-0.7 1.3-0.2 0.1-0.4 0.2-0.7 0.2-0.3 0.1-0.5 0.1-0.8 0.3v1.1h9.3v-1.1c-0.3-0.1-0.5-0.2-0.8-0.3s-0.5-0.1-0.7-0.2c-0.5-0.2-0.7-0.6-0.7-1.3v-18.6z"/><path class="st1" d="m13.1 42.4c0-1.9-5.3-3.7-5.8-4.4s1.7-1.3 2.3-1.2c0.8 0.1 1.4 0.4 1.7 0.6 0.2 0.1 0.3-0.2 0.2-0.4-0.6-0.7-1.3-0.9-2-0.9-2.3-0.2-3.7 1.2-3.7 1.7 0 1.8 5.9 3.1 5.9 4.5 0 0.9-2.4 1.2-3.3 1.2-3.1 0-2.2-1.8-3.1-1.8-0.3 0-0.5 0.2-0.5 0.7 0 1.3 1.6 2.2 4.2 2.2 2.1-0.1 4.1-0.8 4.1-2.2m6.2-0.8c0-2.2-1.6-3-3.3-3-1.5 0-2.5 1.9-2.4 3.2 0.2 2.1 1.6 2.6 2.6 2.6 1.5 0 3.1-1 3.1-2.8m-1-0.2c0 1.2-1 1.9-2.2 1.9-0.8 0-1.4-0.6-1.5-1.4s0-2.2 1.3-2.7c0 0.2 0.3 0.3 0.4 0.4 0.5 0.1 2-0.1 2 1.8m6.9 2.6c0-0.4-0.7-0.6-0.7-2.3 0-0.8 0.2-1.2 0.3-1.8 0.1-0.5-0.4-0.7-0.6-0.7-0.3 0-0.6 0.6-0.7 1.5-0.1 0.4-0.8 2.5-1.6 2.5-0.6 0-0.9-2-1-3.1-0.1-0.9 0-1.4-0.7-1.5-0.4-0.1-0.4 0.8-0.4 1.6 0.1 1.8 0.6 4.2 2.1 4.2 0.8 0 1.3-0.6 1.6-1 0.3 0.7 0.7 1.1 1.3 1.1 0.3-0.1 0.4-0.2 0.4-0.5m5.3-5c0-0.4-0.2-0.6-0.5-0.6-0.7 0-1.4 2.4-2.4 4.2-0.7-1.2-0.9-4.2-1.8-4.2-0.3 0-0.6 0.3-0.5 0.6 0.2 0.9 0.4 1.7 0.6 2.6 0.3 1.1 0.9 2.6 1.6 2.6 0.5 0 1.1-1.5 1.6-2.5 0.7-0.9 1.4-2.2 1.4-2.7m5.9 4.3c0-0.2-0.2-0.4-0.5-0.4-0.2 0-1.5 0.5-2.4 0.5-1.2 0-1.8-0.5-2-1.4 1.8 0 3.5-1 3.5-2.2 0-0.9-1.1-1.2-2-1.2-1.3 0-2.7 1.2-2.7 3 0 1.7 1.3 2.9 3 2.9 1.3 0 3.1-0.8 3.1-1.2m-2.5-3.6c0 0.6-0.7 1.2-2 1.2h-0.4c0.1-0.9 0.9-1.4 1.7-1.5 0.3 0 0.7 0.1 0.7 0.3m10.6 3.7c0-0.3-0.2-0.5-0.5-0.5-0.2 0-0.9 0.3-1.5 0.3-1.6 0-0.1-3.7-2-3.7-1.1 0-2.5 1.5-3.5 2.6-0.2-1.1-0.1-3.1-1.1-3.1-0.2 0-0.4 0.3-0.4 0.4 0 2.9 0.4 4.9 1.1 4.9 0.4 0 2.4-3.1 3.6-3.4 0.2 2.5 0.8 3.5 2.1 3.5 1.2 0 2.2-0.7 2.2-1m0.2-5.6c0-0.4-0.4-0.6-0.9-0.7-0.2 0-0.5 0.1-0.5 0.4s0.4 0.7 0.8 0.7c0.3 0 0.6 0 0.6-0.4m2.9 5.2c0-0.3-0.2-0.4-0.5-0.4-0.4 0-0.7 0.7-1.9 0.7-1.3 0-0.4-4.3-1.2-4.3-0.3 0-0.5 0.4-0.6 0.8-0.1 1.2-0.1 2.1 0.2 3.3 0.2 0.7 0.6 1.3 1.5 1.3 1.4 0 2.5-1.1 2.5-1.4m3.6-3.5c0-0.4-0.5-0.6-0.9-0.6-0.8 0-1.8 1-2.2 1.3-0.2-0.6 0-1.1-0.8-1.1-0.2 0-0.3 0.2-0.3 0.3v3.2c0 0.4-0.1 0.9-0.1 1.2 0 0.4 0.3 0.6 0.6 0.6 0.9 0 0.2-1.4 0.8-2.8 0.5-1.2 1.5-1.7 2.1-1.7 0.7 0 0.8-0.2 0.8-0.4m3.7 3.4c0-1.7-3.3-1.7-3.3-2.5 0-0.5 1-1 1.5-1 0.3 0 0.2 0.4 0.6 0.4 0.2 0 0.4-0.3 0.4-0.5 0-0.3-0.7-0.7-1.2-0.7-0.9 0-2.5 1.2-2.5 1.8 0 1.4 3.4 1.4 3.4 2.4 0 0.5-0.6 0.8-1.5 0.8-1.3 0-1.7-0.8-2.1-0.8-0.2 0-0.4 0.1-0.3 0.3 0.6 0.8 1.3 1.3 2.8 1.3 1.6 0.1 2.2-1 2.2-1.5m14.9-0.5c0-1.9-5.3-3.7-5.8-4.4s1.6-1.3 2.3-1.2c0.8 0.1 1.4 0.4 1.7 0.6 0.2 0.1 0.3-0.2 0.2-0.4-0.6-0.7-1.3-0.9-2-0.9-2.3-0.2-3.7 1.2-3.7 1.7 0 1.8 5.9 3.1 5.9 4.5 0 0.9-2.4 1.2-3.3 1.2-3.1 0-2.2-1.8-3.1-1.8-0.3 0-0.5 0.2-0.5 0.7 0 1.3 1.6 2.2 4.2 2.2 2.1-0.1 4.1-0.8 4.1-2.2m7.3-0.9c0-1.3-1.8-2.8-3.7-2.8-1.1 0-1.8 0.6-2.1 0.6-0.4 0-0.9-0.6-0.9 0.4v5.9c0 1.5 0.1 2.4 0.9 2.4 0.6 0 0.5-0.7 0.5-0.9 0-0.6-0.1-2-0.1-3.3 2.6 0.9 5.4-0.2 5.4-2.3m-1.2-0.2c0 1.3-1.8 2.3-4.3 1.7v-1.9c0.1-0.8 0.9-1.4 2-1.4 1 0.1 2.3 0.8 2.3 1.6m2.9-3.5c0-0.4-0.4-0.6-0.9-0.7-0.2 0-0.5 0.1-0.5 0.4s0.4 0.7 0.8 0.7c0.3 0 0.6 0 0.6-0.4m2.9 5.2c0-0.3-0.2-0.4-0.5-0.4-0.4 0-0.7 0.7-1.9 0.7-1.3 0-0.4-4.3-1.2-4.3-0.3 0-0.5 0.4-0.6 0.8-0.1 1.2-0.1 2.1 0.2 3.3 0.2 0.7 0.6 1.3 1.5 1.3 1.4 0 2.5-1.1 2.5-1.4m5.3 0.3c0-0.2-0.2-0.4-0.5-0.4s-1.5 0.5-2.4 0.5c-1.2 0-1.8-0.5-2-1.4 1.8 0 3.5-1 3.5-2.2 0-0.9-1.1-1.2-2-1.2-1.3 0-2.7 1.2-2.7 3 0 1.7 1.3 2.9 3 2.9 1.3 0 3.1-0.8 3.1-1.2m-2.5-3.6c0 0.6-0.7 1.2-2 1.2h-0.4c0.1-0.9 0.9-1.4 1.7-1.5 0.3 0 0.7 0.1 0.7 0.3m5.9 3.9c0-0.2-0.2-0.4-0.5-0.4-0.1 0-0.9 0.4-1.8 0.4s-1-2.4-1-3.6c0-1.6 0.3-3.1 0.3-3.2 0-0.4-0.4-0.6-0.7-0.6-0.4 0-0.7 2.8-0.7 4.4 0.1 2.9 0.5 4 1.9 4 1.2 0 2.5-0.6 2.5-1m7-3.5c0-0.4-0.3-0.6-0.7-0.6-0.7 0-0.6 2.4-1.4 3.4-0.8-1.2-1.1-3.3-2.1-3.3-0.8 0-1.3 2.6-2 3.1-0.6-1.4-0.6-3.9-1.7-3.9-0.2 0-0.5 0.3-0.4 0.5 0.4 1.2 0.5 1.8 0.7 2.7 0.3 1.1 0.9 2.4 1.3 2.4 0.9 0 1.6-2.4 2-3 0.5 0.6 1.2 3.3 2.2 3.3 0.6 0 1-1.2 1.4-2.1 0.4-1 0.6-1.9 0.7-2.5m7.9 3.2c0-0.2-0.1-0.3-0.4-0.3-0.6 0-0.6 0.3-1.3 0.3-1.6 0-0.9-1.8-1.2-2.4-0.1-0.3-0.3-0.2-0.4-0.5-0.2-1.2-1.1-1.9-1.9-1.9-1.5 0-2.5 2-2.5 3.5 0 1.4 1.1 2.4 2.4 2.4 0.9 0 1.4-0.3 1.8-0.8 0.4 0.4 0.8 0.7 1.7 0.7 1 0.1 1.8-0.6 1.8-1m-3.8-2.9c0 0.3-0.3 0.2-0.3 0.4-0.2 0.5 0.3 2.8-1.3 2.8-0.8 0-1.3-0.5-1.3-1.5s0.6-2.7 1.8-2.8c0.4 0 1.1 0.7 1.1 1.1m6.8-0.9c0-0.4-0.5-0.6-0.9-0.6-0.8 0-1.8 1-2.2 1.3-0.2-0.6 0-1.1-0.8-1.1-0.2 0-0.3 0.2-0.3 0.3v3.2c0 0.4-0.1 0.9-0.1 1.2 0 0.4 0.3 0.6 0.6 0.6 0.9 0 0.2-1.4 0.8-2.8 0.5-1.2 1.5-1.7 2.1-1.7 0.7 0 0.8-0.2 0.8-0.4m4.9 3.8c0-0.2-0.2-0.4-0.5-0.4-0.2 0-1.5 0.5-2.4 0.5-1.2 0-1.8-0.5-2-1.4 1.8 0 3.5-1 3.5-2.2 0-0.9-1.1-1.2-2-1.2-1.3 0-2.7 1.2-2.7 3 0 1.7 1.3 2.9 3 2.9 1.3 0 3.1-0.8 3.1-1.2m-2.5-3.6c0 0.6-0.7 1.2-2 1.2h-0.4c0.1-0.9 0.9-1.4 1.7-1.5 0.3 0 0.7 0.1 0.7 0.3m10.7 3.7c0-0.3-0.2-0.5-0.5-0.5-0.2 0-0.9 0.3-1.5 0.3-1.6 0-0.1-3.7-2-3.7-1.1 0-2.5 1.5-3.5 2.6-0.2-1.2-0.1-3.3-1.1-3.3-0.2 0-0.4 0.3-0.4 0.4 0 2.9 0.4 4.9 1.1 4.9 0.4 0 2.4-3.1 3.6-3.4 0.2 2.5 0.8 3.5 2.1 3.5 1.2 0.2 2.2-0.5 2.2-0.8m12-0.9c0-1.5-2.2-2.2-3.1-2.4 0.8-0.5 1.9-1.4 1.9-2.7 0-1.1-1.2-1.3-2.4-1.3-4 0-4.8 1.6-4.8 1.6 0 0.1 0.1 0.1 0.1 0.2 0.8-0.6 2.7-1 4.3-1 0.8 0 1.8 0.1 1.8 0.6 0 1.2-1.9 2.3-2.3 2.4-0.1-0.8-0.2-1.5-0.6-1.5s-0.5 0.3-0.5 0.5c0.1 1 0.2 2 0.3 3.1 0 0.4 0 0.9 0.5 0.9s0.4-0.5 0.4-1c0-0.3 0-0.6-0.1-1 1.4 0.2 3.4 0.6 3.4 1.6 0 1.1-1.6 1.3-2.5 1.3-2.7 0-2.2-1.5-3-1.5-0.2 0-0.4 0.1-0.4 0.5 0 1.4 2.7 1.9 3.4 1.9 1.9-0.1 3.6-0.7 3.6-2.2m8.2 0.8c0-0.2-0.1-0.3-0.4-0.3-0.6 0-0.6 0.3-1.3 0.3-1.6 0-0.9-1.8-1.2-2.4-0.1-0.3-0.3-0.2-0.4-0.5-0.2-1.2-1.1-1.9-1.9-1.9-1.5 0-2.5 2-2.5 3.5 0 1.4 1.1 2.4 2.4 2.4 0.9 0 1.4-0.3 1.8-0.8 0.4 0.4 0.7 0.7 1.7 0.7 1 0.1 1.8-0.6 1.8-1m-3.8-2.9c0 0.3-0.3 0.2-0.3 0.4-0.2 0.5 0.3 2.8-1.3 2.8-0.8 0-1.3-0.5-1.3-1.5s0.6-2.7 1.8-2.8c0.5 0 1.1 0.7 1.1 1.1m11 2.6c0-0.3-0.2-0.4-0.4-0.4-0.5 0-0.7 0.6-1.4 0.6-0.6 0-1-0.6-1.2-1.2-0.7-2 0.2-6-1-6-0.8 0-0.4 0.7-0.4 1.2 0.1 0.9 0.1 1.5 0 2.6-0.5-0.5-1.2-0.6-1.5-0.6-2.1 0-2.6 2-2.6 2.6 0 1.6 0.8 2.7 2.2 2.7s2-1 2.4-1.8c0.4 0.9 1.1 1.4 2.1 1.4 0.7 0.1 1.8-0.6 1.8-1.1m-4.5-2.8c-0.2 1.9-0.6 3.4-1.7 3.4-0.7 0-1.3-0.4-1.3-1.6 0-1.3 0.8-2 1.6-2.1 0.5-0.1 1-0.1 1.4 0.3m9.6 3.1c0-0.2-0.2-0.4-0.5-0.4-0.2 0-1.5 0.5-2.4 0.5-1.2 0-1.8-0.5-2-1.4 1.8 0 3.5-1 3.5-2.2 0-0.9-1.1-1.2-2-1.2-1.3 0-2.7 1.2-2.7 3 0 1.7 1.3 2.9 3 2.9 1.3 0 3.1-0.8 3.1-1.2m-2.5-3.6c0 0.6-0.7 1.2-2 1.2h-0.4c0.1-0.9 0.9-1.4 1.7-1.5 0.3 0 0.7 0.1 0.7 0.3m12.9 3.7c0-0.3-0.1-0.5-0.5-0.5-0.5 0-0.6 0.2-1.3 0.2-1.7 0-0.1-2.8-1.8-2.8-0.7 0-1.9 1.3-2.6 2.2-0.1-1.5-0.4-2.7-1.4-2.7-0.7 0-1.7 1.4-2.2 2.4-0.1-1.4-0.3-2.9-0.9-2.9-0.3 0-0.5 0.3-0.5 0.6 0 2.2 0.6 4.5 1.3 4.5 0.4 0 1.7-3.2 2.2-3.2 0.4 0 0.1 3.2 1.2 3.2 0.6 0 1.9-2.4 2.7-2.7 0.1 0.7 0.1 2.5 1.9 2.5 1.4 0 1.9-0.5 1.9-0.8m4.7-1.8c0-2.2-1.6-3-3.3-3-1.5 0-2.5 1.9-2.4 3.2 0.2 2.1 1.6 2.6 2.6 2.6 1.5 0 3.1-1 3.1-2.8m-1-0.2c0 1.2-1 1.9-2.2 1.9-0.8 0-1.4-0.6-1.5-1.4s0-2.2 1.3-2.7c0 0.2 0.3 0.3 0.4 0.4 0.5 0.1 2-0.1 2 1.8m10.1 1.6c0-0.3-0.2-0.4-0.4-0.4-0.5 0-0.7 0.6-1.4 0.6-0.6 0-1-0.6-1.2-1.2-0.7-2 0.2-6-1-6-0.8 0-0.4 0.7-0.4 1.2 0.1 0.9 0.1 1.5 0 2.6-0.5-0.5-1.2-0.6-1.5-0.6-2.1 0-2.6 2-2.6 2.6 0 1.6 0.8 2.7 2.2 2.7s2-1 2.4-1.8c0.4 0.9 1.1 1.4 2.1 1.4 0.7 0.1 1.8-0.6 1.8-1.1m-4.5-2.8c-0.2 1.9-0.6 3.4-1.7 3.4-0.7 0-1.3-0.4-1.3-1.6 0-1.3 0.8-2 1.6-2.1 0.5-0.1 0.9-0.1 1.4 0.3m9.5 3.1c0-0.2-0.2-0.4-0.5-0.4-0.2 0-1.5 0.5-2.4 0.5-1.2 0-1.8-0.5-2-1.4 1.8 0 3.5-1 3.5-2.2 0-0.9-1.1-1.2-2-1.2-1.3 0-2.7 1.2-2.7 3 0 1.7 1.3 2.9 3 2.9 1.4 0 3.1-0.8 3.1-1.2m-2.5-3.6c0 0.6-0.7 1.2-2 1.2h-0.4c0.1-0.9 0.9-1.4 1.7-1.5 0.3 0 0.7 0.1 0.7 0.3m10.7 3.7c0-0.3-0.2-0.5-0.5-0.5-0.2 0-0.9 0.3-1.5 0.3-1.6 0-0.1-3.7-2-3.7-1.1 0-2.5 1.5-3.5 2.6-0.2-1.2-0.1-3.3-1.1-3.3-0.2 0-0.4 0.3-0.4 0.4 0 2.9 0.4 4.9 1.1 4.9 0.4 0 2.4-3.1 3.6-3.4 0.2 2.5 0.8 3.5 2.1 3.5 1.2 0.2 2.2-0.5 2.2-0.8"/><path class="st1" d="m196.8 98.9v-0.1 0.1"/><path class="st1" d="m177.8 102.3 0.2-0.1-0.2 0.1"/><path class="st1" d="m207.6 94.4c0.1 0 0.4-0.2 0.7-0.4z"/><path class="st1" d="m137.8 96 0.2 0.1c-0.1 0-0.1-0.1-0.2-0.1"/><path class="st1" d="m161 102.4c-0.1 0-0.2 0-0.3 0.1 0.1 0 0.3 0 0.3-0.1"/><path class="st1" d="m214.2 93-0.4 0.1s0.2 0 0.4-0.1"/><path class="st1" d="m222.5 84c-0.1 0-0.1 0 0 0"/><path class="st1" d="m218.9 87.1c-0.1 0.1-0.1 0.2-0.2 0.3 0.1-0.1 0.2-0.2 0.2-0.3"/><path class="st1" d="m218.6 87.6 0.1-0.1-0.1 0.1"/><path class="st1" d="m0.5 134.2c-0.2 0.3-0.2 0.6-0.3 1 0.1-0.3 0.2-0.6 0.3-1"/><path class="st1" d="m101.5 82.2"/><path class="st1" d="m1.5 135.3-0.2 0.2c0.1 0 0.2-0.1 0.2-0.2"/><path class="st1" d="m208.9 96.9c-0.2 0.3-1 0.5-0.9 0.6 0.3-0.1 0.8-0.3 0.9-0.6"/><path class="st1" d="m93.1 87.8h-0.2 0.2"/><path class="st1" d="m1.5 135.3 0.2-0.2h-0.1c0 0.1-0.1 0.2-0.1 0.2"/><polygon points="61.2 88.4 61.2 88.5" class="st1"/><path class="st1" d="m0.2 135.2-0.2 0.6c0.1-0.2 0.2-0.4 0.2-0.6"/><path class="st1" d="m38.6 100.1c0.1 0 0.1-0.1 0.2-0.1-0.1 0-0.1 0.1-0.2 0.1"/><path class="st1" d="m162.6 102.6h0.2-0.2"/><polyline points="146.4 104.2 146.4 104.2 146.4 104.2 146.4 104.2" class="st1"/><path class="st1" d="m147.3 104.2c-0.3-0.1-0.7-0.1-0.9 0 0.3 0 0.5 0.1 0.9 0"/><path class="st1" d="m144.7 103.6"/><path class="st1" d="m161.6 107z"/><path class="st1" d="m158.2 106.7c-0.1 0-0.1-0.1-0.2-0.1 0 0.1 0.1 0.1 0.2 0.1"/><path class="st1" d="m136.5 101.1z"/><path class="st1" d="m107.6 89.9c2.9 0.6 6.7 1.6 9.5 2.9 0.7 0 1.6 0.3 2.5 0.7l-0.1 0.4 0.8 0.2c0.2 0.3-0.6-0.2-0.1 0.2l0.4-0.1c0 0.2 1.8 1 0.5 0.7 1 0.4 1.9 0.9 2.9 1.4 0.6 0.3 0.5-0.1 1.2 0.3 0.1 0.2-0.3 0-0.3 0.1 1.9 1.3 2.8 0.5 4.7 1.7h-0.2c0.4 0.1 1 0.4 1.1 0.4-0.1-0.5-0.5 0-1-0.5 0.2-0.3 0.8 0.2 0.9-0.1 0.4 0.4 0.8 0.3 1.2 0.5 0.6 0.6 1.7 0.9 2.1 1.4 0.4 0.1 0.9-0.1 1.7 0.2 0.4 0.5-0.2 0.2 0.5 0.6l0.2-0.1c0.6 0.3 0.5 0.3 0.4 0.4 0.7 0.3 0.7 0 1.4 0.4h-0.5c0.6 0.2 0.9 0.3 1.7 0.7-0.1 0.1-0.4 0-0.6-0.2 0.4 0.5 0.9 0.2 1.1 0.3 0-0.1-0.6-0.4-0.3-0.5 0.4 0.2 1 0.1 1.2 0.4h-0.5c1 0.2 0.6-0.1 1.6 0.4-0.1 0-0.1 0.1-0.1 0.1 0.7 0 1.5 0.5 2.5 0.8h-0.2c0.4 0.1 0.7-0.1 0.9 0-0.5-0.3-0.3-0.3-0.3-0.5 0.6 0.6 1.2 0 2.4 0.5-0.1 0.1-0.4 0.2-0.7 0-0.5 0.2-0.6 0.5-1.4 0.4 0.5 0.1 1 0.2 0.9 0.3l0.2-0.3c0.3 0.1 0.5 0.2 0.7 0.2 0.2-0.2-0.5-0.5 0.2-0.4 0.8 0.1 0.3 0.4 0.4 0.3 1 0.1 0.5-0.2 1.4 0.1h-0.4c0.7 0.3 1.7 0.4 1.8 0.8-0.1 0.1-0.2 0.2-0.4 0.1v-0.1c-0.8 0.1 0.7 0.1 0.3 0.4 0-0.2 1 0 1.4 0.2l-0.1-0.3c1.6-0.4-0.2 0.5 1.3 0.7 1 0-0.3-0.1 0.3-0.2 0.6 0.2 0.8 0.4 1.8 0.5 0.2 0.1 0.8 0.4 0.8 0.6 0.6 0 1.7 0.4 2.1 0.1-0.9-0.4-1 0.2-2.1-0.4l0.4-0.2c0.8 0.1 1.8 0.1 2.3 0.3-0.1-0.1-0.1-0.1-0.1-0.2 1.1 0 1.5-0.2 2.6 0 0.1 0.3-0.5 0.2-1 0.1 0.7 0.3 0.7 0.1 1.8 0.3 0 0.2-0.7-0.1-0.9 0.1h1.2c0.2-0.3 0.9 0.1 1.7 0 1.8 0.1 2-0.4 3-0.7 0.3 0.1 0.3 0.2 0.2 0.3-0.4-0.2-0.4 0-0.5 0.1 0.6 0 1.3 0.4 1 0.5 0.9-0.1-0.3-0.2 0.2-0.3h1.3c-0.2-0.2-0.6-0.2 0.1-0.4 0.6-0.1 0.8 0 1.6 0-0.1 0.1 0.2 0.3-0.3 0.3 0.4 0.1 0.9 0.1 1.1-0.1-0.8-0.1 1.3-0.2 0.7-0.5l0.8 0.1c-0.2 0-0.2 0.1-0.5 0.1 0.2 0.3 0.6-0.1 0.9-0.2 0.3 0 1 0 1.1 0.1 0.2-0.1 0.9-0.1 1 0.1 0.4-0.1 0-0.2 0.1-0.3l1.3-0.1c0.1 0.1 0.2 0.6 0 0.6 0.5-0.2 0.1-0.5 0.9-0.5-0.4 0.3 1 0.1 0.4 0.6 0.4 0.2 1.6 0 2.3-0.1 0.4-0.3-0.7 0-0.7-0.3 1.8-0.3 1.8-1 3.2-1.1h-0.4c0.8-0.3 0.7-0.2 1.2-0.5-0.2 0.3 1.1 0.7 2.4 0.3 0.1-0.2-0.8-0.1-0.6-0.4l0.9-0.2c0.1 0 0 0.1-0.1 0.1 0.8-0.3 1.6 0.1 1.7-0.3l0.9 0.3-0.4-0.1c0.1-0.2 1-0.4 1.1-0.5 0.9-0.4 1.2-0.3 1.8-0.3-0.2-0.1-0.7-0.3 0.1-0.5 0.1 0.5 1.6-0.2 1.6 0 0.3-0.1 0.8-0.1 0.8-0.3v0.3c0-0.4 1-0.7 1.8-1 0 0.6 0.9-0.3 1.4 0.1 0-0.4 1.4-0.6 1.4-1 0.6-0.2 0.7 0.1 0.9 0.2l0.2-0.2c0.4 0.1 1.5-0.3 2.2-0.5l0.5-0.6h0.3c0.1-0.1 0.6-0.4 0.2-0.4l0.3-0.1c-0.1-0.4 0.4-0.3 1-0.7 0.2 0 0.2 0.1 0.1 0.2 0.3-0.1 0.3 0.1 0.5 0.1-0.3 0 0.9-1.2-0.1-0.9-0.1-0.1 0.3-0.5 0.7-0.5l0.3 0.2 0.2-0.5c0.5-0.3 0.8-0.2 1.2-0.4-0.4 0.2-0.6 1.1 0.4 0.5-0.5 0.3-0.7 0.6-1 0.9 0.2-0.1 0.4-0.1 0.1 0.2 0.8-0.5 0.2-0.3 1-0.8 0.1 0.3 0.4 0.3 1.1 0l-0.6 0.1s0-0.1 0.1-0.1c-0.2 0.1-0.3 0.1-0.4 0 0.2-0.1 0.8-0.8 1-0.8-1 0 1.2-1.1 0.6-1.1 0-0.1 0.6-0.5 0.7-0.4-0.5 0.6 0.7 0 0.7 0.2 0.2-0.2-0.6 0.1-0.4-0.2 0.4-0.3 0.8-0.3 1-0.3l-0.1 0.2 0.7-0.3c0-0.2-0.7 0.2-0.2-0.3 0.2 0 0.7-0.5 0.7-0.4-0.1 0.3 0.2 0.5-0.2 0.8 0.4-0.3 1.6-1.1 0.9-1l0.5-0.3c-0.4 0.1-1.3 0.5-0.4-0.2v0.1l0.5-0.6 0.4-0.1c-0.1-0.1 0-0.2 0.2-0.4 0.1 0 0.4-0.1 0.4 0 0.7-0.5 0.5-0.6 0.5-0.7 0.4-0.3 0.5-0.4 0.5-0.1 0.5-0.4 1.4-1.1 1.8-1.3 0.6-0.7-0.2 0.1 0.1-0.4 0.9-0.1 2.2-1.8 3.1-2.9-0.6 0 0.2-0.3 0.1-0.8-0.1 0.3 1.2-0.8 0.4 0.3 0.2-0.2 0.3-0.4 0.5-0.6 0.5-0.2-0.7 1.1 0.1 0.7 0.5-0.7 0.5-1.4 1.3-2.1 0.1 0.5 0.4-0.7 0.5-0.3 0 0.2-0.2 0.4-0.4 0.7l0.2-0.1c1.2-1.4 0-0.7 0.4-1.6 0.6-0.9 0.7-0.6 0.9-0.5 0.2-0.1 0.4-0.6 0.5-0.9-0.2 0.7-0.9 0.9-0.9 0.6 0.6-0.2 0.9-1.4 1-1.7-1.2 1.1-0.6 0.9-1.8 1.9 0 0.2 0.3 0.4-0.4 1 0.2-0.6-0.2-0.1-0.3 0 0.3 0-0.3 0.5-0.4 0.8-0.3 0.1 0-0.7-0.6 0l0.2 0.4c-0.3 0.2-0.2-0.3-0.6 0.3 0.1-0.5-0.4-0.1 0.2-1-1.1 0.7-1 1.5-1.5 2.4v-0.2c0 0.2-0.3 0.5-0.5 0.7-0.5 0.4 0.2-0.5 0-0.5l-0.7 0.7c-0.1 0.2-0.3 0.4-0.4 0.4 0.1-0.3 0.1-0.5 0.1-0.7-0.2 0.3-0.3 0.6-0.5 1 0-0.2-0.8 0.4-0.3-0.2l-1.1 1.1-0.3-0.1c-0.2 0.3-0.2 0.3 0.1 0.1-0.4 0.3-1.4 1.9-1.6 1.3-0.8 0.9-1.2 1.1-2.3 2.1 0.7-0.9-1.3 0.4-0.4-0.3-0.6 0.3-0.6 0.6-1 1-0.5 0.2-0.5-0.2-0.1-0.6l-0.5 0.5v-0.1l-0.4 0.4c-0.6 0.2-0.3-0.2-0.8 0.1v0.3l-0.4 0.1c0.2 0-0.1 0.3-0.5 0.5v-0.1l-0.4 0.3c0.4-0.4-0.5 0.2-0.3-0.1-0.4 0.2-0.4 0.2-1.1 0.7l0.2 0.1c-0.9 0.7-0.2-0.2-1 0.2l0.1 0.2c-1.3 0.3-1.8 1.2-2.8 1.3 0.5-0.3 0.2-0.4 0.3-0.4-0.7 0.4-1.9 0.9-2.6 1.4-0.4-0.2-0.5-0.2-1.4 0-0.6 0.2-0.7 0.3-0.8 0.5-0.6 0.1-1.6 0.6-1.7 0.4-0.1 0.2-0.5 0.1-0.8 0.4l-0.1-0.1 0.1 0.2c-1.2-0.1-1.7 0.8-2.8 0.7l0.2-0.1-0.4 0.2c-0.1-0.1 0.1-0.2 0.1-0.3-0.7 0.2-1.4 0.4-2.1 0.5h0.4c-0.4 0.1-0.7 0.4-1.2 0.4 0.7-0.5-0.7 0.2-0.9-0.1l0.4-0.2c-0.6 0.2-0.6 0.2-0.5 0.4-0.8 0.3-0.6-0.3-1.3 0.1l0.5-0.1c0.2 0.1-0.2 0.3-0.5 0.4-0.1 0-0.4-0.1-0.1-0.1-0.6 0.2-1.6 0.3-1.8 0.4-0.4 0-0.3-0.2-0.1-0.3-1.3 0.4-0.6 0.1-1.9 0.5v-0.1l-0.4 0.2-0.7-0.1 0.3 0.1c-0.4 0.1-0.7 0.2-1.2 0.2l0.2-0.2c-1.2 0.3-1.5-0.1-2.6 0.3-0.1 0 0.1-0.1 0.2-0.1-1.1 0.4-0.9-0.2-1.9 0.3 0.1-0.1-0.1-0.1 0-0.2l-0.5 0.2v-0.2l-0.4 0.4-0.3-0.2-0.2 0.1c-0.6-0.4-1.3 0-2.1-0.3l0.2 0.3c-0.9 0.4-2 0.4-3.1 0.3s-2.3-0.2-3.4-0.1v-0.2l-0.9 0.3c-0.5-0.2 0.3-0.2 0.1-0.3-1 0.1-0.4 0.4-1.6 0.4-0.6-0.2 0.2-0.2 0.5-0.3-1.1 0.1-2.7 0.2-3.4 0 0 0-0.1 0.1 0 0.1-0.7 0.1-1.7-0.1-2.4-0.2 0-0.1 0.2-0.1 0.4-0.1-0.3 0-0.7-0.2-0.9-0.1l0.3-0.2c-0.6-0.1-1.8 0-1.9-0.3 0.1 0.1 0 0.3-0.5 0.2-0.2-0.4-1.4 0-2.2-0.4 0.1-0.1 0.7 0 0.6 0-0.4-0.2-0.8 0-1.2 0l0.1-0.1c-0.7 0-1.3-0.1-2-0.1-0.2-0.4-1.8-0.3-1.6-0.6-0.7-0.2 0.5 0.3-0.3 0.1-0.2-0.2-0.8-0.1-0.7-0.3h0.1l-0.6-0.1 0.4-0.1c-0.5-0.1-1 0.1-1 0.2-0.5-0.3-1.2-0.3-1.3-0.6h0.2c-1.4-0.3-2.1-1.3-3.2-1.2-0.1-0.1 0-0.1 0.1-0.1l-0.8-0.3 0.3-0.1c-0.5-0.1-1-0.1-1.5-0.2l0.1-0.1c-0.9-0.4-2.3-0.8-3.4-1.2h0.2c-1.3-0.3-1.2-0.6-2.1-0.8h0.1l-0.8-0.3h0.2c-0.7 0-1.6-1.1-1.3-0.7-0.4 0-1-0.2-1.2-0.1-0.9-0.4-0.1-0.2-0.6-0.6-0.6-0.3-0.8-0.2-1.6-0.7l0.1-0.1c-0.4-0.2-0.7-0.2-1.3-0.5h0.2c-1-0.2-1-0.9-2-0.8-0.3-0.3-1.1-0.6-1-0.8-1.2-0.4-2.2-0.8-3.4-1.3 0-0.5-0.3-0.1-0.9-0.6v0.2c-1.7-0.8-3.4-2.1-5.3-2.8v-0.2l-0.5 0.1c-2-0.9-4.7-2-6.4-2.5-0.6-0.1-1.5-0.1-2.4-0.4h0.1c-1.6-0.3-3.3-0.6-5-1 0.1-0.1 0-0.2 0.2-0.2-0.5 0.2-1-0.2-1.4-0.2 0.1 0.1 0.3 0.2 0.4 0.2-0.5 0.1-1.2-0.2-1.5-0.4l-0.8 0.1-0.1-0.1-0.2 0.1-0.4-0.3c-0.2 0-1.3 0-1.6 0.3-0.1-0.1-0.8-0.2-0.2-0.2-1-0.1-1.9-0.2-2.9-0.2l0.4 0.1c0 0.2-0.8 0.3-1.3 0.2 0.6-0.2 0.1-0.3-0.2-0.5-0.4 0.1 0.3 0.2 0.1 0.3-0.5 0.1-1.5 0.2-1.8 0.1l0.3-0.1c-0.7 0.1-1-0.3-1.6-0.3-0.6 0.2-1 0-0.9 0.4-0.9 0.1-0.3-0.2-0.6-0.3-0.4 0.2-1.6 0.1-1.8 0-0.4 0.6-2.3 0-2.4 0.5l-0.7-0.2c0 0.1-0.1 0.4-0.7 0.5-0.5-0.1-0.4-0.3-0.6-0.4l-0.3 0.5c-3.1-0.1-7.1 1-10.4 1.4-1.4 0.5-3.2 1.2-4.9 1.6l0.2-0.1-1.7 0.4 1.3-0.2c-0.3 0.2-0.6 0.3-1 0.4-1.9 0.4-4.4 1.1-6.4 2.1-1.2 1.1-1.1-0.1-2.3 0.9 0.1-0.1 0.1-0.2 0.2-0.3-1.4 0.8-2.1 1.2-3.4 2.1-0.1-0.5-0.9 0.4-0.9 0.1v0.2c-0.4 0-1.1 0.3-1.1 0.2l-0.5 0.5-0.3-0.1c-0.8 0.4-2.5 1.4-3.1 1.3-1.9 1.3-5 3-7.5 4.3-0.3 0.4-1 0.8-1.5 1.1l-0.8 0.2c-0.5 0.4-0.9 1.1-1.5 1.2v-0.1c-0.5 0.4-1.1 0.6-1.5 1.2-0.6 0.4-1.3 0.7-1.2 0.3 0.2 0.4-1.3 0.8-1.3 0.8l-1.4 0.9-3.6 2.4c-3 2-7.1 4.8-11.2 8-4.2 3.2-8.4 7-11.7 10.7s-5.4 7.5-6.1 9.8c0 0.4-0.3 1.2 0.1 1-0.3 0.6-0.7 0.7-0.6 1 0.5-0.8 0.4 0.5 1-0.2l-0.2 0.5c0.1 0.2 0.2-0.8 0.4-0.5l-0.3-0.3c0.3-0.4 0.5-0.6 0.7-0.6 0.1-0.4-0.2-1 0.5-1.7l-0.1 0.3c0.4-0.7 0.5-0.3 0.6-0.4l-0.1 0.2 0.6-0.5c-0.4 0.4-0.6 1.3-0.4 0.9 0.6-0.8-0.2 0.2 0.1-0.5 0.2-0.4 0.3-0.2 0.4-0.1l0.4-0.7c0.1 0.1-0.3 0.4 0 0.3l0.4-1c0.5 0.1 0.5-1 1.1-1.1-0.4 0.7 0.2 0 0.2 0.2 0.4-0.5 0.7-0.9 1.1-1.4 0.2-0.1-0.2 0.5 0 0.2 0.3-0.2 0.3-0.5 0.4-0.6 0.2 0 0.9-1 1.1-0.8 1-0.8 0.1-0.6 1-1.4 0.2 0-0.6 0.7-0.1 0.5l0.8-0.9c0 0.1 0.1 0.4-0.3 0.7 2.4-2.1 4.3-2.5 6.3-4.6 0.5-0.1-0.1 0.3-0.2 0.6 1.4-1.6 2.5-1.5 3.9-2.7l-0.1-0.2c2.3-1.1 4.4-3.2 6.8-4.6l-0.3 0.1c0.2-0.4 0.7-0.8 1-1.1 0.1 0 0 0.5 0.6 0-0.2 0-0.5 0.2-0.5 0.1 1.1-0.5 2.7-1.5 4.4-2.7 1.7-1.1 3.7-2.4 5.3-3.5 2.1-1.5 4.5-3 6.9-4.4s4.8-2.7 7.1-4c-0.7 0.4-0.6-0.2 0-0.4 1.8-0.1 2.5-1.4 4.2-1.7 2.6-1.6 5.3-2.1 7.7-3.7l0.1 0.2c0.4-0.1 0.5-0.2 0.9-0.4v0.1c1-0.3 2.1-1 2.7-1.1v-0.2c0.6-0.2 0.4 0.1 0.9-0.3v0.1l0.6-0.5c0.1 0.4 1.7-0.5 2.2-0.5 0.7-0.3 2.1-0.9 3.3-1.2 0.3 0.2 1.7-0.2 2.6-0.4 1.8-0.5 4.3-1.1 6.6-1.4l-0.1-0.3 0.6-0.1c0 0.1 0.1 0.1 0 0.1 0.5 0.2 1.4-0.3 1.9-0.2-0.3-0.2-0.4 0-0.8 0.1-0.5-0.1-0.1-0.4 0.6-0.3v0.1l0.4-0.3c0.1 0.2 0.5 0.3 0.6 0.5 2-0.3 3.3-0.8 5.4-0.8-0.2 0.2 1.5-0.1 1.1 0.3 1.2-0.2-0.2-0.3 0.3-0.6 0.3 0 0.7-0.1 0.8 0-0.2 0.1 0.3 0.3 0 0.3h0.8c0.1 0-0.1 0.1-0.2 0.1 1.7-0.2 3 0.3 4.5 0.2 0.1-0.1-0.6-0.1-0.5-0.2 1.5-0.2 1.3 0.4 2.7 0.3l-0.3 0.2c0.5-0.1 0.7-0.3 1.4 0 0.1 0.3-0.6 0.1-1 0.2 0.2 0 0.7 0.1 1 0.1s0.5 0 0.4-0.2c0.6 0 0.8 0.3 1.1 0.4 0-0.1-0.5-0.3-0.2-0.3 0.8 0.3 2.1 0.5 3 0.8 0 0.1 0 0.2-0.1 0.2 0.9-0.3 0.7 0.2 1.8 0.4"/><path class="st1" d="m162.1 107.1-0.4-0.1c0 0.1 0 0.1-0.2 0.2z"/><path class="st1" d="m141.5 102.7h-0.2c0.1 0.1 0.2 0.1 0.2 0"/><path class="st1" d="m136.5 101.3c0.4 0.1 0.1-0.1-0.1-0.2 0.1 0 0 0.1 0.1 0.2"/><path class="st1" d="m174 106.4c-0.1 0-0.1 0.1-0.1 0.1l0.1-0.1"/><path class="st1" d="m205.6 98.6h-0.1c0 0.1 0.1 0.1 0.1 0"/><path class="st1" d="m203.8 99.1c-0.1 0-0.2 0.1-0.3 0.2 0.1-0.1 0.2-0.2 0.3-0.2"/><path class="st1" d="m166 106.7c-0.1 0-0.2 0-0.3 0.1 0.2 0 0.3-0.1 0.3-0.1"/><path class="st1" d="m203.2 99.4-0.4 0.2z"/><path class="st1" d="m206.2 98.4c-0.2 0.1-0.4 0.2-0.5 0.2 0.2 0 0.3-0.1 0.5-0.2"/><path class="st1" d="m185.8 104.5c-0.4 0.2-0.2 0.1 0 0"/><polygon points="201.3 100.7 201.5 100.6 201.4 100.6" class="st1"/><path class="st1" d="m208 97.6c-0.1 0-0.1 0.1-0.2 0.1l0.2-0.1"/><path class="st1" d="m192.5 103.3c0.1-0.1 0.1-0.2 0.1-0.2-0.1 0-0.2 0.1-0.1 0.2"/><path class="st1" d="m121.8 84.3c0.4 0.2 1.3 0.5 2.2 0.5 2.1 0 3.1-1.1 3.1-2.4 0-1.1-0.6-1.8-2-2.3-1-0.4-1.4-0.6-1.4-1.1 0-0.4 0.4-0.7 1.1-0.7s1.3 0.2 1.6 0.4l0.4-1.4c-0.5-0.2-1.1-0.4-1.9-0.4-1.8 0-2.9 1-2.9 2.3 0 1.1 0.8 1.8 2.1 2.3 0.9 0.3 1.3 0.6 1.3 1.1s-0.4 0.8-1.2 0.8c-0.7 0-1.5-0.2-1.9-0.5zm6.5-6.2v1h-0.7v1.3h0.7v2.3c0 0.8 0.2 1.3 0.5 1.6s0.7 0.5 1.3 0.5c0.5 0 0.9-0.1 1.1-0.1v-1.3h-0.5c-0.5 0-0.7-0.3-0.7-1v-2h1.2v-1.3h-1.2v-1.5zm3.9 6.6h1.7v-3.2c0.1-0.5 0.5-0.9 1.2-0.9h0.5v-1.6h-0.4c-0.5 0-1.2 0.3-1.5 1.2l-0.1-1h-1.5v5.5zm8.7-3.3c0-1.3-0.6-2.4-2.4-2.4-1 0-1.8 0.3-2.1 0.5l0.3 1.1c0.4-0.2 1-0.4 1.5-0.4 0.8 0 1 0.4 1 0.7v0.1c-2 0-3.2 0.7-3.2 2.1 0 0.9 0.7 1.7 1.8 1.7 0.7 0 1.2-0.2 1.6-0.7l0.1 0.6h1.5c-0.1-0.3-0.1-0.8-0.1-1.3zm-1.6 1.3v0.3c-0.1 0.3-0.5 0.6-0.9 0.6s-0.7-0.2-0.7-0.7c0-0.7 0.7-0.9 1.6-0.9zm3 2h1.7v-3.2c0-0.2 0-0.3 0.1-0.4 0.1-0.3 0.4-0.6 0.9-0.6 0.6 0 0.9 0.5 0.9 1.2v3.1h1.7v-3.3c0-1.6-0.8-2.4-2-2.4-0.9 0-1.5 0.5-1.7 0.9l-0.1-0.8h-1.5v1.8zm10.2-8v3c-0.2-0.4-0.8-0.6-1.5-0.6-1.3 0-2.5 1.1-2.5 2.9 0 1.7 1 2.8 2.4 2.8 0.7 0 1.4-0.3 1.7-0.9l0.1 0.8h1.5v-8zm0 5.5v0.4c-0.1 0.5-0.5 0.8-1 0.8-0.7 0-1.2-0.6-1.2-1.5s0.4-1.6 1.2-1.6c0.5 0 0.9 0.4 1 0.8v0.3zm3.1 2.5h1.7v-3.3c0-0.1 0-0.3 0.1-0.4 0.1-0.3 0.4-0.6 0.9-0.6 0.6 0 0.9 0.5 0.9 1.2v3h1.7v-3.2c0-1.7-0.8-2.4-1.9-2.4-0.3 0-0.6 0.1-0.9 0.2s-0.5 0.3-0.7 0.6v-3.2h-1.7v8.1zm11.2-3.3c0-1.3-0.6-2.4-2.4-2.4-1 0-1.8 0.3-2.1 0.5l0.3 1.1c0.4-0.2 1-0.4 1.5-0.4 0.8 0 1 0.4 1 0.7v0.1c-2 0-3.2 0.7-3.2 2.1 0 0.9 0.7 1.7 1.8 1.7 0.7 0 1.2-0.2 1.6-0.7l0.1 0.6h1.5c-0.1-0.3-0.1-0.8-0.1-1.3zm-1.6 1.3v0.3c-0.1 0.3-0.5 0.6-0.9 0.6s-0.7-0.2-0.7-0.7c0-0.7 0.7-0.9 1.6-0.9zm8.2-3.5h-1.7v3.3c0 0.1 0 0.3-0.1 0.4-0.1 0.3-0.4 0.6-0.9 0.6-0.6 0-0.9-0.5-0.9-1.3v-3h-1.7v3.2c0 1.7 0.8 2.4 1.9 2.4 1 0 1.5-0.6 1.7-0.9l0.1 0.8h1.5v-5.5zm1.1 5.2c0.4 0.2 1.1 0.4 1.8 0.4 1.6 0 2.4-0.8 2.4-1.8 0-0.8-0.4-1.3-1.5-1.7-0.7-0.2-0.9-0.4-0.9-0.6 0-0.3 0.2-0.4 0.7-0.4s0.9 0.2 1.2 0.3l0.3-1.2c-0.3-0.2-0.9-0.3-1.5-0.3-1.4 0-2.2 0.8-2.2 1.8 0 0.7 0.4 1.3 1.6 1.7 0.6 0.2 0.8 0.3 0.8 0.6s-0.2 0.5-0.7 0.5-1.2-0.2-1.5-0.4zm17.3 0.2c0.4 0.1 1.1 0.1 2 0.1 1.5 0 2.7-0.3 3.5-1 0.7-0.6 1.3-1.6 1.3-3.1 0-1.3-0.5-2.3-1.3-2.9-0.7-0.5-1.7-0.8-3.1-0.8-0.9 0-1.7 0.1-2.3 0.2v7.5zm1.7-6.2c0.1 0 0.4-0.1 0.8-0.1 1.5 0 2.4 0.8 2.4 2.4 0 1.8-1 2.7-2.6 2.7h-0.6zm8.8 0.6c-1.8 0-3 1.1-3 2.9s1.2 2.8 2.9 2.8c1.5 0 2.9-0.9 2.9-2.9 0-1.6-1.1-2.8-2.8-2.8m-0.1 1.2c0.8 0 1.1 0.8 1.1 1.6 0 1-0.4 1.7-1.1 1.7s-1.1-0.7-1.1-1.7c0-0.7 0.3-1.6 1.1-1.6m-1.2-1.8c0.5 0 0.8-0.4 0.8-0.8 0-0.5-0.3-0.8-0.8-0.8s-0.8 0.3-0.8 0.8c0 0.4 0.4 0.8 0.8 0.8m2.4 0c0.5 0 0.8-0.4 0.8-0.8 0-0.5-0.3-0.8-0.8-0.8s-0.8 0.3-0.8 0.8c0 0.4 0.3 0.8 0.8 0.8zm2.4 6c0.4 0.2 1.1 0.4 1.8 0.4 1.6 0 2.4-0.8 2.4-1.8 0-0.8-0.4-1.3-1.5-1.7-0.7-0.2-0.9-0.4-0.9-0.6 0-0.3 0.2-0.4 0.7-0.4s0.9 0.2 1.2 0.3l0.3-1.2c-0.3-0.2-0.9-0.3-1.5-0.3-1.4 0-2.2 0.8-2.2 1.8 0 0.7 0.4 1.3 1.6 1.7 0.6 0.2 0.8 0.3 0.8 0.6s-0.2 0.5-0.7 0.5-1.2-0.2-1.5-0.4zm10.1-1.9c0-0.1 0.1-0.4 0.1-0.7 0-1.4-0.7-2.8-2.5-2.8-1.9 0-2.8 1.5-2.8 2.9 0 1.7 1.1 2.8 2.9 2.8 0.7 0 1.4-0.1 2-0.3l-0.2-1.2c-0.5 0.2-0.9 0.2-1.5 0.2-0.8 0-1.5-0.3-1.6-1.1h3.6zm-3.6-1.2c0-0.5 0.3-1.1 1.1-1.1s1 0.7 1 1.1z"/></g></g></svg>
