<?xml version="1.0" encoding="UTF-8" standalone="no"?>
<!-- Created with Inkscape (http://www.inkscape.org/) -->

<svg
   xmlns:dc="http://purl.org/dc/elements/1.1/"
   xmlns:cc="http://creativecommons.org/ns#"
   xmlns:rdf="http://www.w3.org/1999/02/22-rdf-syntax-ns#"
   xmlns:svg="http://www.w3.org/2000/svg"
   xmlns="http://www.w3.org/2000/svg"
   xmlns:sodipodi="http://sodipodi.sourceforge.net/DTD/sodipodi-0.dtd"
   xmlns:inkscape="http://www.inkscape.org/namespaces/inkscape"
   xml:space="preserve"
   height="134"
   width="223"
   version="1.1"
   viewBox="0 0 222.99531 134.0047"
   id="svg99"
   sodipodi:docname="logo-latelier-creatif.svg"
   inkscape:version="0.92+devel (unknown)"><sodipodi:namedview
     pagecolor="#ffffff"
     bordercolor="#666666"
     inkscape:document-rotation="0"
     borderopacity="1"
     objecttolerance="10"
     gridtolerance="10"
     guidetolerance="10"
     inkscape:pageopacity="0"
     inkscape:pageshadow="2"
     inkscape:window-width="1680"
     inkscape:window-height="986"
     id="namedview101"
     showgrid="false"
     inkscape:zoom="3.6021224"
     inkscape:cx="93.475232"
     inkscape:cy="97.262592"
     inkscape:window-x="0"
     inkscape:window-y="27"
     inkscape:window-maximized="1"
     inkscape:current-layer="g29" /><metadata
     id="metadata2"><rdf:RDF><cc:Work
         rdf:about=""><dc:format>image/svg+xml</dc:format><dc:type
           rdf:resource="http://purl.org/dc/dcmitype/StillImage" /><dc:title /></cc:Work></rdf:RDF></metadata><defs
     id="defs13"><clipPath
       id="clipPath18"
       clipPathUnits="userSpaceOnUse"><path
         d="m0 99.686h166.56v-99.686h-166.56z"
         id="path4" /></clipPath><clipPath
       id="clipPath78"
       clipPathUnits="userSpaceOnUse"><path
         d="m0 99.686h166.56v-99.686h-166.56z"
         id="path7" /></clipPath><clipPath
       id="clipPath94"
       clipPathUnits="userSpaceOnUse"><path
         d="m0 99.686h166.56v-99.686h-166.56z"
         id="path10" /></clipPath></defs><g
     transform="matrix(1.3333 0 0 -1.3333 .46030 133.46)"
     id="g97"><g
       clip-path="url(#clipPath18)"
       id="g65"><g
         stroke-width="0"
         id="g31"><g
           transform="translate(42.498,29.606)"
           id="g17"
           style="stroke:#1d1d1b;stroke-opacity:1;stroke-width:0.30001802;stroke-miterlimit:4;stroke-dasharray:none"><path
             stroke-width="0"
             d="m0 0c-0.33 0-0.672 0.035-1.018 0.104-0.529 0.093-1.01 0.277-1.427 0.544-0.417 0.265-0.786 0.594-1.096 0.977-0.31 0.381-0.567 0.806-0.763 1.264-0.196 0.455-0.341 0.936-0.434 1.431-0.21 1.137-0.168 2.389 0.124 3.721 0.293 1.33 0.762 2.693 1.395 4.049 0.633 1.359 1.415 2.714 2.325 4.028 0.897 1.297 1.859 2.501 2.859 3.578-0.126 0.126-0.261 0.269-0.402 0.426-0.16 0.175-0.31 0.368-0.458 0.588-0.143 0.212-0.27 0.436-0.376 0.665-0.107 0.23-0.184 0.465-0.226 0.698-0.029 0.156 0.052 0.262 0.22 0.293 0.132 0.026 0.191-0.027 0.216-0.074 0.024-0.043 0.047-0.086 0.071-0.129 0.155-0.401 0.349-0.786 0.58-1.149 0.219-0.343 0.473-0.651 0.756-0.913 0.609 0.637 1.242 1.239 1.881 1.79 0.655 0.564 1.316 1.063 1.965 1.484 0.657 0.425 1.302 0.782 1.915 1.06 0.624 0.281 1.212 0.475 1.749 0.575 0.934 0.173 1.652 0.083 2.138-0.264 0.486-0.349 0.791-0.843 0.907-1.468 0.069-0.376 0.073-0.75 0.012-1.113-0.062-0.364-0.164-0.691-0.303-0.974-0.035-0.072-0.132-0.246-0.295-0.534-0.163-0.286-0.423-0.61-0.772-0.963-0.352-0.352-0.808-0.699-1.356-1.03-0.552-0.334-1.237-0.578-2.037-0.726-0.679-0.126-1.325-0.167-1.916-0.127-0.596 0.041-1.146 0.136-1.634 0.284-0.489 0.148-0.931 0.336-1.316 0.56-0.363 0.212-0.672 0.44-0.919 0.679-0.975-1.099-1.912-2.297-2.787-3.561-0.887-1.282-1.653-2.597-2.275-3.907-0.623-1.314-1.085-2.624-1.375-3.892s-0.334-2.464-0.132-3.554c0.135-0.646 0.355-1.237 0.655-1.76 0.297-0.518 0.678-0.957 1.132-1.302 0.451-0.344 0.98-0.584 1.571-0.715 0.593-0.132 1.269-0.13 2.007 0.008 0.673 0.157 1.275 0.355 1.788 0.59 0.508 0.236 1.025 0.584 1.537 1.04 0.284 0.24 0.587 0.534 0.902 0.876 0.318 0.346 0.641 0.749 0.959 1.197 0.323 0.447 0.652 0.97 0.979 1.553 0.321 0.572 2.752 4.083 3.258 5.118 0.577 1.176 1.101 2.375 1.558 3.564 0.022 0.054 0.044 0.106 0.065 0.164 0.008 0.026 0.013 0.045 0.017 0.058-0.251 0.127-0.448 0.293-0.586 0.495-0.145 0.208-0.241 0.434-0.285 0.673-0.044 0.238-0.043 0.44 0.002 0.598 0.046 0.16 0.112 0.287 0.198 0.38 0.086 0.094 0.177 0.157 0.276 0.194 0.099 0.036 0.156 0.053 0.189 0.059 0.214 0.039 0.381 0.032 0.513-0.022 0.131-0.054 0.233-0.132 0.303-0.232 0.069-0.097 0.117-0.195 0.143-0.291 0.025-0.092 0.042-0.163 0.051-0.209 0.064-0.348 0.02-0.804-0.134-1.354 0.183-0.061 0.398-0.106 0.638-0.134 0.508-0.058 1.045-0.053 1.478-0.02 0.212 0.016 0.382 0.035 0.505 0.058 0.101 0.018 0.247 0.037 0.424 0.055 0.185 0.018 0.381 0.017 0.582-0.001 0.204-0.022 0.392-0.088 0.561-0.197 0.175-0.114 0.287-0.296 0.333-0.541 0.045-0.243-0.018-0.588-0.194-1.054-0.169-0.452-0.392-0.957-0.679-1.546-0.282-0.575-0.587-1.194-0.915-1.858-0.33-0.665-0.63-1.331-0.89-1.978-0.264-0.654-0.468-1.292-0.606-1.899-0.137-0.602-0.164-1.142-0.078-1.606 0.168-0.902 0.778-1.245 1.867-1.042 0.376 0.07 0.842 0.243 1.384 0.516 0.544 0.273 1.14 0.623 1.772 1.039 0.631 0.417 1.296 0.898 1.976 1.433 0.687 0.542 1.36 1.107 2.002 1.677 0.018 0.03 0.054 0.058 0.099 0.072-0.001 0.004-0.001 0.007-0.002 0.012-0.083 0.444-0.112 0.923-0.085 1.424 0.027 0.495 0.101 0.988 0.22 1.467 0.116 0.468 0.265 0.922 0.443 1.349 0.163 0.393 0.344 0.748 0.538 1.059-0.229 0.065-0.4 0.117-0.514 0.153-0.136 0.042-0.223 0.082-0.268 0.122-0.039 0.033-0.083 0.08-0.068 0.136 0.001 0.001 0.004 0.015-0.002 0.045-0.016 0.083-0.005 0.154 0.032 0.208s0.1 0.091 0.185 0.106c0.007 0.001 0.013 0.002 0.019 0.003l0.018 0.032 0.056-0.011c0.032-0.011 0.045-0.031 0.05-0.05 0.023-0.014 0.067-0.036 0.156-0.068 0.104-0.042 0.32-0.107 0.643-0.193 1.024 1.599 2.171 2.947 3.41 4.009 1.253 1.073 2.551 1.741 3.857 1.983 0.447 0.084 0.898 0.103 1.338 0.056 0.441-0.047 0.851-0.154 1.217-0.317 0.368-0.165 0.684-0.394 0.938-0.678 0.257-0.286 0.424-0.63 0.497-1.021 0.121-0.654 0.028-1.276-0.278-1.849-0.3-0.567-0.716-1.073-1.236-1.505-0.515-0.429-1.097-0.79-1.728-1.074-0.633-0.285-1.234-0.481-1.784-0.582-0.667-0.124-1.327-0.187-1.96-0.187h-0.013c-0.643 0.002-1.23 0.029-1.744 0.082-0.521 0.053-0.99 0.127-1.391 0.22-0.374 0.087-0.668 0.158-0.881 0.212-0.178-0.247-0.353-0.566-0.522-0.948-0.175-0.398-0.321-0.83-0.434-1.285-0.112-0.451-0.191-0.926-0.234-1.413-0.042-0.484-0.023-0.951 0.058-1.386 0.157-0.851 0.583-1.485 1.266-1.882 0.684-0.4 1.666-0.484 2.916-0.253 0.49 0.093 0.983 0.219 1.466 0.379 0.492 0.161 0.961 0.338 1.396 0.519 0.444 0.186 0.839 0.371 1.176 0.549 0.347 0.185 0.628 0.344 0.834 0.475 0.553 0.348 1.109 0.726 1.654 1.125 0.534 0.39 1.077 0.822 1.611 1.282 0.537 0.461 1.088 0.99 1.639 1.572 0.555 0.584 1.147 1.265 1.759 2.023 0.076 0.058 0.125 0.085 0.167 0.092 0.02 0.004 0.041 0.007 0.063 0.005 0.398 0.83 0.983 1.722 1.753 2.671 1.238 1.51 2.566 2.763 3.946 3.724 1.384 0.961 2.769 1.576 4.118 1.826 0.643 0.118 1.248 0.15 1.799 0.095 0.023 0.004 0.089 0.002 0.388-0.05 0.226-0.039 0.472-0.125 0.754-0.262 0.272-0.133 0.537-0.329 0.787-0.582 0.251-0.255 0.419-0.607 0.502-1.046 0.18-0.973-0.181-2.211-1.072-3.685 0.353 0.343 0.698 0.68 1.032 1.007 0.448 0.439 0.845 0.825 1.187 1.159 0.341 0.332 0.624 0.6 0.84 0.799 0.257 0.236 0.34 0.296 0.376 0.314 0.023 0.021 0.059 0.037 0.111 0.047 0.087 0.014 0.157 0.004 0.211-0.032 0.054-0.037 0.09-0.1 0.106-0.185 0.014-0.073-0.05-0.165-0.22-0.32-0.142-0.129-0.367-0.328-0.673-0.599-0.301-0.267-0.689-0.63-1.152-1.081-0.451-0.437-0.983-0.978-1.627-1.654-1.108-1.167-1.928-2.18-2.439-3.011-0.507-0.825-0.723-1.459-0.644-1.885 0.037-0.201 0.133-0.351 0.292-0.459 0.164-0.114 0.354-0.191 0.567-0.227 0.212-0.037 0.438-0.05 0.671-0.038 0.241 0.012 0.444 0.035 0.621 0.068 0.679 0.126 1.376 0.402 2.071 0.82 0.696 0.418 1.397 0.934 2.082 1.534 0.682 0.598 1.352 1.264 1.991 1.981 0.641 0.72 1.239 1.453 1.778 2.181l0.012 0.011c0.01 0.007 0.019 0.014 0.028 0.02 0.311 0.397 0.633 0.796 0.958 1.189l0.053 0.063c0.378 0.458 0.761 0.922 1.15 1.395 0.421 0.513 0.83 1.005 1.215 1.462 0.4 0.476 0.794 0.937 1.172 1.371 0.853 1.012 1.695 1.994 2.505 2.923-0.193-0.033-0.453-0.074-0.767-0.121-0.432-0.063-0.916-0.129-1.438-0.195l-1.522-0.187c-0.495-0.06-0.888-0.101-1.168-0.121-0.177 0.005-0.286 0.091-0.314 0.241-0.017 0.091-0.01 0.25 0.222 0.294l0.035 0.006c0.026 0.005 0.056 0.011 0.092 0.016 0.051 0.011 0.134 0.019 0.274 0.028 1.661 0.166 3.288 0.372 4.833 0.612 0.667 2.113 1.291 4.017 1.856 5.659 0.579 1.682 1.1 3.119 1.551 4.271 0.465 1.191 0.857 2.079 1.199 2.713 0.355 0.656 0.642 0.997 0.877 1.041 0.07 0.014 0.168 0.006 0.3-0.02 0.151-0.03 0.251-0.175 0.298-0.43 0.04-0.22 0.047-0.476 0.02-0.762-0.027-0.283-0.053-0.494-0.076-0.625-0.221-1.194-0.562-2.405-1.013-3.598-0.454-1.193-0.944-2.329-1.457-3.376-0.515-1.05-1.026-2.01-1.517-2.852-0.471-0.806-0.835-1.421-1.107-1.874 0.276 0.05 0.553 0.098 0.824 0.142 0.301 0.047 0.605 0.099 0.931 0.16 1.083 0.2 2.151 0.423 3.177 0.66 0.175 0.03 0.287-0.045 0.319-0.217 0.031-0.17-0.21-0.272-0.395-0.336-0.253-0.087-0.564-0.169-0.924-0.243-0.393-0.083-0.789-0.158-1.09-0.215l-0.874-0.161c-0.413-0.077-0.813-0.147-1.186-0.207-0.396-0.066-0.787-0.127-1.164-0.182-0.054-0.08-0.098-0.148-0.131-0.204-0.034-0.06-0.07-0.118-0.107-0.171-0.386-1.242-0.752-2.424-1.096-3.547-0.368-1.199-0.662-2.17-0.898-2.97-0.254-0.855-0.455-1.543-0.604-2.061-0.194-0.67-0.232-0.784-0.246-0.814-0.067-0.21-0.113-0.42-0.138-0.626-0.044-0.18-0.07-0.38-0.076-0.603-0.007-0.218 0.01-0.434 0.049-0.642 0.083-0.447 0.287-0.759 0.606-0.928 0.324-0.173 0.779-0.205 1.351-0.099 0.68 0.126 1.363 0.361 2.029 0.696s1.321 0.73 1.946 1.176c0.629 0.45 1.224 0.934 1.77 1.442 0.552 0.511 1.06 1.017 1.511 1.501 0.468 0.501 0.852 0.937 1.176 1.332 0.33 0.402 0.584 0.716 0.765 0.938 0.025 0.021 0.048 0.037 0.07 0.051 0.156 0.403 0.322 0.799 0.497 1.185l0.085 0.187c0.226 0.497 0.434 0.954 0.625 1.37 0.302 0.672 0.61 1.321 0.915 1.93 0.301 0.602 0.584 1.151 0.839 1.631 0.248 0.467 0.529 0.975 0.858 1.555 0.016 0.07 0.082 0.117 0.195 0.137 0.17 0.03 0.285-0.046 0.317-0.218 0.007-0.041 0-0.1-0.024-0.174-0.33-0.584-0.622-1.106-0.868-1.563-0.259-0.477-0.542-1.02-0.841-1.616s-0.607-1.236-0.917-1.902c-0.222-0.476-0.45-0.974-0.675-1.481-0.245-0.549-0.475-1.118-0.682-1.689-0.207-0.572-0.368-1.139-0.479-1.687-0.11-0.542-0.126-1.029-0.048-1.448 0.048-0.261 0.137-0.461 0.265-0.594 0.13-0.132 0.281-0.22 0.451-0.262 0.173-0.044 0.366-0.059 0.571-0.044 0.206 0.015 0.411 0.042 0.608 0.078 0.65 0.121 1.345 0.388 2.066 0.796 0.723 0.408 1.446 0.909 2.151 1.487 0.699 0.576 1.393 1.219 2.063 1.912 0.67 0.696 2.77 2.843 3.002 3.277 0.655 1.224 1.304 2.424 1.93 3.568 1.065 1.961 2.11 3.85 3.106 5.615 0.957 1.7 1.867 3.304 2.705 4.769 0.773 1.351 1.434 2.502 1.966 3.418 0.502 0.864 0.829 1.419 0.941 1.602 0.207 0.36 0.444 0.618 0.704 0.766 0.254 0.144 0.472 0.233 0.647 0.265 0.541 0.1 0.96-0.024 1.241-0.372 0.273-0.339 0.455-0.746 0.541-1.213 0.043-0.229 0.069-0.456 0.077-0.672 0.007-0.214 0.004-0.416-0.008-0.602-0.014-0.17-0.029-0.322-0.048-0.454-0.02-0.117-0.025-0.167-0.024-0.177l0.002-0.011-0.003-0.006c-0.176-1.192-0.604-2.52-1.271-3.948-0.67-1.43-1.595-2.94-2.753-4.489-1.161-1.554-2.582-3.155-4.222-4.758-1.644-1.606-3.56-3.206-5.697-4.751-0.239-0.441-0.485-0.907-0.732-1.383-0.251-0.486-0.485-0.928-0.712-1.347 0.105-0.07 0.299-0.183 0.576-0.34 0.321-0.18 0.719-0.315 1.185-0.4 0.392-0.083 0.796-0.117 1.196-0.108 0.399 0.013 0.819 0.058 1.249 0.139 1.043 0.192 2.075 0.55 3.062 1.063 0.992 0.514 1.889 1.055 2.666 1.608 0.438 0.314 0.975 0.749 1.595 1.291 0.616 0.539 1.245 1.205 1.87 1.98 0.075 0.06 0.125 0.086 0.166 0.093 0.084 0.017 0.156 0.007 0.21-0.032 0.055-0.038 0.09-0.1 0.105-0.185 0.015-0.077-0.001-0.151-0.048-0.219-0.662-0.789-1.317-1.475-1.948-2.046-0.63-0.567-1.184-1.019-1.648-1.343-0.856-0.603-1.806-1.168-2.821-1.679-1.022-0.514-2.077-0.875-3.134-1.07-0.799-0.148-1.598-0.159-2.381-0.033-0.706 0.114-1.276 0.29-1.7 0.524 0.038-0.153 0.075-0.298 0.106-0.439 0.045-0.196 0.085-0.392 0.121-0.586 0.193-1.042 0.263-2.161 0.21-3.326-0.045-1.167-0.209-2.341-0.479-3.488-0.269-1.154-0.638-2.281-1.093-3.35-0.457-1.072-0.995-2.043-1.601-2.886-0.49-0.693-0.991-1.246-1.492-1.641-0.505-0.399-0.988-0.643-1.439-0.726-0.221-0.043-0.419-0.04-0.584 0.004-0.169 0.044-0.307 0.119-0.41 0.219-0.1 0.096-0.181 0.212-0.24 0.344-0.058 0.131-0.099 0.26-0.121 0.385-0.052 0.281-0.04 0.678 0.035 1.179 0.071 0.49 0.167 0.993 0.282 1.494 0.115 0.499 0.228 0.949 0.337 1.336 0.148 0.536 0.196 0.659 0.219 0.706 0.173 0.578 0.445 1.311 0.808 2.167 0.362 0.854 0.794 1.82 1.287 2.867 0.482 1.023 1.037 2.15 1.65 3.35 0.581 1.136 1.21 2.356 1.872 3.627 0.328 0.634 0.668 1.281 1.012 1.936-0.522-0.628-1.078-1.264-1.659-1.894-0.655-0.708-1.347-1.366-2.058-1.954-0.708-0.588-1.45-1.103-2.207-1.532h-0.001c-0.755-0.426-1.536-0.716-2.32-0.86-0.261-0.049-0.529-0.083-0.796-0.101-0.269-0.016-0.531 0.014-0.765 0.093-0.237 0.079-0.442 0.22-0.612 0.42-0.167 0.198-0.287 0.482-0.355 0.844-0.086 0.466-0.074 0.992 0.036 1.564 0.054 0.283 0.123 0.571 0.204 0.864-0.472-0.555-0.964-1.091-1.472-1.601-0.818-0.824-1.647-1.563-2.463-2.196-0.816-0.635-1.635-1.168-2.436-1.585-0.802-0.418-1.561-0.696-2.254-0.825-0.76-0.142-1.37-0.071-1.813 0.203-0.443 0.278-0.721 0.705-0.827 1.272-0.043 0.237-0.059 0.479-0.047 0.718 0.01 0.236 0.033 0.459 0.069 0.663 0.037 0.205 0.07 0.365 0.102 0.487 0.032 0.126 0.053 0.204 0.063 0.238 0.01 0.033 0.09 0.302 0.243 0.807 0.151 0.499 0.359 1.166 0.619 1.98 0.261 0.818 0.554 1.751 0.882 2.803l0.077 0.246c0.276 0.881 0.558 1.782 0.847 2.705-0.1-0.118-0.214-0.251-0.282-0.331-0.306-0.358-0.693-0.81-1.163-1.356-0.468-0.546-0.982-1.149-1.541-1.807-0.548-0.645-1.085-1.283-1.596-1.899-0.531-0.641-0.965-1.173-1.326-1.624-0.25-0.313-0.442-0.563-0.575-0.747l-0.011-0.044-0.01-0.02c-0.451-0.6-0.981-1.251-1.618-1.989-0.62-0.718-1.294-1.408-2.002-2.052-0.712-0.647-1.468-1.221-2.249-1.705-0.783-0.487-1.587-0.81-2.387-0.959-0.23-0.042-0.488-0.07-0.788-0.086-0.297-0.016-0.587 0.014-0.864 0.083-0.282 0.07-0.532 0.193-0.744 0.366-0.215 0.177-0.354 0.428-0.413 0.748-0.071 0.381 0.029 0.869 0.297 1.455-1.03-1.169-2.026-2.145-2.967-2.908-1.043-0.845-2.064-1.364-3.033-1.544-0.496-0.091-0.992-0.102-1.476-0.032-0.485 0.07-0.936 0.223-1.339 0.452-0.404 0.23-0.751 0.541-1.03 0.923-0.281 0.384-0.474 0.852-0.574 1.394-0.104 0.562-0.069 1.173 0.105 1.831-0.393-0.459-0.773-0.878-1.136-1.253-0.573-0.589-1.138-1.127-1.681-1.597-0.542-0.471-1.094-0.906-1.642-1.294-0.533-0.377-1.102-0.763-1.691-1.146-0.307-0.182-0.654-0.371-1.062-0.58-0.382-0.195-0.789-0.38-1.244-0.564-0.432-0.175-0.887-0.34-1.351-0.489-0.464-0.15-0.933-0.269-1.393-0.354-0.493-0.091-0.984-0.137-1.458-0.138v0.06-0.06h-0.009c-0.475 0-0.922 0.066-1.329 0.198-0.598 0.193-1.063 0.517-1.381 0.96-0.204 0.288-0.366 0.605-0.483 0.95-0.68-0.61-1.36-1.179-2.027-1.694-0.711-0.549-1.408-1.044-2.072-1.466-0.667-0.426-1.299-0.78-1.881-1.054-0.583-0.274-1.106-0.456-1.555-0.539-0.636-0.087-1.149 0.019-1.528 0.307s-0.623 0.712-0.726 1.262c-0.109 0.589-0.047 1.305 0.183 2.128 0.23 0.821 0.529 1.671 0.89 2.526 0.356 0.842 0.745 1.68 1.157 2.488 0.405 0.792 0.736 1.465 0.983 1.999 0.051 0.13 0.097 0.263 0.135 0.397 0.036 0.124 0.045 0.238 0.027 0.333-0.022 0.119-0.078 0.197-0.172 0.239-0.107 0.048-0.231 0.079-0.367 0.09-0.142 0.011-0.285 0.009-0.424-0.009-0.151-0.02-0.259-0.037-0.331-0.051-0.045-0.007-0.211-0.025-0.343-0.039-0.189-0.02-0.425-0.033-0.723-0.038-0.297-0.006-0.606 0.006-0.926 0.032-0.311 0.024-0.601 0.078-0.861 0.162-0.032-0.077-0.056-0.143-0.071-0.194-0.472-1.311-1.026-2.576-1.65-3.766-0.621-1.185-3.612-5.799-4.225-6.614-0.694-0.921-1.35-1.645-1.953-2.152-0.563-0.468-1.145-0.851-1.728-1.134-0.584-0.284-1.207-0.487-1.853-0.607-0.321-0.059-0.68-0.097-1.068-0.114l-0.003 0.06 0.003-0.06c-0.064-0.003-0.127-0.004-0.191-0.004m23.309 7.926c0.014-0.061 0.029-0.122 0.046-0.181 0.012 0.028 0.015 0.06 0.008 0.097-0.006 0.028-0.024 0.057-0.054 0.084m0.226 5.842v-0.002 0.001zm61.107 4.393c-1.123-2.145-2.087-4.074-2.867-5.733-0.797-1.691-1.443-3.189-1.918-4.45-0.475-1.262-0.806-2.332-0.986-3.182-0.179-0.844-0.222-1.532-0.128-2.044 0.045-0.241 0.125-0.405 0.239-0.483 0.112-0.078 0.292-0.093 0.535-0.049 0.476 0.09 0.974 0.379 1.482 0.859 0.511 0.485 1.005 1.113 1.471 1.867s0.893 1.627 1.272 2.592c0.378 0.966 0.689 1.997 0.924 3.064 0.236 1.065 0.384 2.16 0.439 3.255 0.056 1.094-0.009 2.156-0.195 3.159-0.07 0.38-0.161 0.764-0.268 1.145m-42.561-9.407c0.42-0.059 0.856-0.051 1.293 0.031 0.631 0.116 1.264 0.372 1.88 0.759s1.224 0.862 1.808 1.411c0.577 0.544 1.149 1.136 1.699 1.762 0.551 0.626 1.076 1.243 1.56 1.832 0.642 0.763 1.167 1.457 1.559 2.068 0.391 0.608 0.695 1.156 0.904 1.633 0.208 0.477 0.337 0.891 0.381 1.232 0.045 0.342 0.046 0.636 0.002 0.872-0.062 0.337-0.196 0.608-0.399 0.805-0.205 0.2-0.425 0.354-0.652 0.459-0.227 0.103-0.434 0.171-0.616 0.199-0.233 0.036-0.282 0.038-0.289 0.039-0.536 0.041-1.091 0.011-1.664-0.095-1.288-0.239-2.609-0.83-3.926-1.756-1.32-0.929-2.601-2.143-3.808-3.609-1.736-2.124-2.484-3.91-2.224-5.309 0.082-0.446 0.245-0.84 0.482-1.168 0.238-0.326 0.529-0.589 0.866-0.781 0.336-0.192 0.72-0.321 1.144-0.384m-16.977 4.946 0.588-0.14c0.263-0.062 0.581-0.122 0.944-0.18 0.369-0.059 0.77-0.101 1.192-0.123 0.428-0.022 0.89-0.024 1.374-0.005 0.482 0.019 0.972 0.074 1.458 0.164 0.618 0.114 1.229 0.322 1.816 0.619 0.588 0.297 1.11 0.649 1.55 1.042 0.442 0.394 0.787 0.832 1.025 1.303 0.236 0.467 0.314 0.93 0.232 1.372-0.057 0.309-0.189 0.581-0.391 0.811-0.203 0.231-0.461 0.42-0.765 0.565-0.305 0.145-0.648 0.238-1.018 0.277-0.374 0.04-0.753 0.025-1.127-0.045-0.483-0.089-1.002-0.256-1.545-0.498-0.545-0.243-1.115-0.591-1.695-1.034-0.582-0.444-1.193-1.015-1.815-1.697-0.602-0.66-1.215-1.478-1.823-2.431m-13.007 2.973c-0.136-0.04-0.202-0.168-0.203-0.391l-0.002-0.015c-0.003-0.013-0.009-0.049 0.008-0.139 0.03-0.161 0.1-0.328 0.207-0.497 0.087-0.137 0.18-0.235 0.28-0.293 0.065 0.254 0.103 0.45 0.116 0.599 0.016 0.163 0.015 0.295-0.005 0.396-0.02 0.11-0.065 0.202-0.135 0.274-0.063 0.065-0.149 0.087-0.266 0.066m-9.367 3.045c0.177-0.143 0.357-0.274 0.536-0.392h0.001c0.2-0.132 0.42-0.261 0.674-0.393 0.5-0.252 1.111-0.431 1.815-0.534 0.705-0.103 1.475-0.079 2.295 0.072 0.754 0.14 1.4 0.37 1.918 0.684 0.52 0.316 0.942 0.643 1.254 0.974 0.311 0.328 0.541 0.623 0.683 0.876 0.167 0.301 0.222 0.399 0.236 0.418 0.104 0.225 0.185 0.506 0.235 0.828 0.048 0.319 0.045 0.632-0.01 0.927-0.038 0.208-0.106 0.413-0.205 0.612-0.096 0.192-0.236 0.354-0.418 0.479-0.181 0.125-0.421 0.21-0.712 0.256-0.294 0.047-0.656 0.029-1.076-0.048-0.498-0.093-1.047-0.274-1.632-0.539-0.586-0.266-1.199-0.61-1.821-1.023-0.622-0.414-1.266-0.899-1.912-1.445-0.624-0.526-1.25-1.116-1.861-1.752m96.218 22.852c-0.062 0-0.128-0.006-0.2-0.019-0.203-0.037-0.393-0.134-0.568-0.287v-0.001c-0.178-0.154-0.321-0.321-0.429-0.494l-0.632-1.068c-0.336-0.567-0.77-1.315-1.287-2.222-0.519-0.913-1.121-1.967-1.802-3.162-0.689-1.212-1.424-2.511-2.183-3.864-0.759-1.351-1.569-2.817-2.41-4.356-0.759-1.386-1.558-2.853-2.374-4.365 1.899 1.451 3.608 2.933 5.085 4.412 1.533 1.535 2.859 3.058 3.94 4.526 1.081 1.467 1.95 2.896 2.58 4.249 0.631 1.352 1.034 2.609 1.2 3.736l0.01 0.027c0.004 0.013 0.023 0.129 0.072 0.556 0.041 0.368 0.022 0.766-0.056 1.184-0.028 0.149-0.071 0.301-0.13 0.452-0.058 0.148-0.134 0.281-0.222 0.393-0.086 0.109-0.195 0.194-0.324 0.251-0.077 0.035-0.168 0.052-0.27 0.052m-26.256-3.234c-0.093-0.036-0.298-0.248-0.711-1.173-0.348-0.78-0.75-1.777-1.195-2.964-0.449-1.196-0.925-2.532-1.414-3.969-0.425-1.248-0.84-2.49-1.236-3.699 0.236 0.395 0.529 0.894 0.887 1.507 0.495 0.844 0.999 1.808 1.498 2.864 0.498 1.053 0.964 2.182 1.384 3.353 0.419 1.17 0.693 2.332 0.814 3.454 0.021 0.138 0.026 0.255 0.017 0.347-0.009 0.091-0.019 0.167-0.03 0.227-0.005 0.027-0.01 0.043-0.014 0.053"
             fill="#1d1d1b"
             id="path15"
             style="stroke:#1d1d1b;stroke-opacity:1;stroke-width:0.30001802;stroke-miterlimit:4;stroke-dasharray:none" /></g><g
           transform="translate(36.867,83.271)"
           id="g21"
           style="stroke:#1d1d1b;stroke-opacity:1;stroke-width:0.30001802;stroke-miterlimit:4;stroke-dasharray:none"><path
             stroke-width="0"
             d="m0 0c-0.452 0.208-0.934 0.266-1.434 0.173-0.952-0.176-1.831-0.524-2.612-1.035-0.767-0.502-1.465-1.107-2.077-1.799-0.291 0.055-0.598 0.106-0.912 0.153-0.339 0.049-0.687 0.085-1.034 0.106-0.349 0.022-0.694 0.03-1.031 0.024-0.336-0.006-0.654-0.036-0.944-0.09-0.491-0.092-0.939-0.22-1.332-0.38-0.39-0.159-0.723-0.317-0.99-0.471-0.269-0.155-0.559-0.349-0.857-0.576-0.065-0.04-0.136-0.119-0.109-0.267 0.012-0.061 0.047-0.115 0.104-0.162 0.061-0.052 0.132-0.07 0.212-0.055 0.019 0.004 0.047 0.015 0.124 0.072 0.026 0.012 0.08 0.046 0.25 0.169 0.151 0.109 0.353 0.234 0.602 0.37 0.251 0.139 0.549 0.28 0.911 0.429 0.349 0.143 0.748 0.256 1.185 0.337 0.509 0.095 1.092 0.112 1.73 0.05 0.588-0.057 1.147-0.121 1.664-0.191-0.595-0.745-1.162-1.576-1.686-2.471-0.547-0.931-1.081-1.939-1.587-2.996-0.504-1.052-1.018-2.159-1.529-3.291-0.497-1.105-1.039-2.257-1.61-3.423-1.002-2.059-1.99-3.88-2.937-5.413-0.931-1.51-1.897-2.803-2.871-3.845-0.817 0.544-1.634 0.967-2.428 1.257-0.813 0.296-1.735 0.368-2.745 0.213-0.278-0.051-0.558-0.143-0.832-0.275-0.274-0.131-0.516-0.307-0.72-0.524-0.203-0.216-0.357-0.472-0.458-0.756-0.102-0.289-0.118-0.625-0.049-1.003 0.071-0.381 0.246-0.697 0.521-0.941 0.271-0.241 0.595-0.423 0.963-0.54 0.367-0.116 0.764-0.18 1.18-0.19 0.414-0.008 0.813 0.018 1.184 0.088 0.586 0.108 1.197 0.342 1.817 0.696 0.603 0.346 1.145 0.773 1.612 1.272 0.31-0.237 0.66-0.508 1.066-0.829 0.387-0.306 0.821-0.616 1.29-0.919 0.464-0.299 0.989-0.594 1.559-0.88 0.567-0.283 1.222-0.551 1.947-0.795 0.867-0.302 1.694-0.486 2.457-0.55 0.273-0.023 0.537-0.034 0.794-0.034 0.466 0 0.905 0.037 1.311 0.112 0.321 0.06 0.672 0.169 1.046 0.327 0.371 0.157 0.713 0.371 1.017 0.636 0.305 0.266 0.543 0.592 0.707 0.969 0.165 0.382 0.2 0.836 0.105 1.35-0.104 0.562-0.416 1.099-0.925 1.6-0.198 0.19-0.348 0.32-0.461 0.397-0.115 0.08-0.207 0.128-0.271 0.146-0.032 0.015-0.127 0.061-0.197 0.023-0.075-0.016-0.131-0.05-0.167-0.101-0.041-0.06-0.052-0.139-0.033-0.236 0.005-0.029 0.009-0.048 0.233-0.192 0.132-0.084 0.288-0.204 0.464-0.359 0.176-0.154 0.345-0.345 0.501-0.571 0.156-0.222 0.263-0.485 0.318-0.783 0.075-0.401 0.051-0.754-0.069-1.049-0.121-0.298-0.301-0.561-0.537-0.782-0.234-0.22-0.517-0.402-0.842-0.54-0.323-0.139-0.656-0.239-0.988-0.301-0.574-0.105-1.227-0.129-1.943-0.064-0.716 0.062-1.504 0.238-2.341 0.522-0.701 0.231-1.326 0.489-1.857 0.769-0.529 0.276-1.024 0.563-1.472 0.851-0.451 0.291-0.867 0.584-1.239 0.873-0.356 0.277-0.721 0.543-1.085 0.796 0.976 1.028 1.948 2.332 2.892 3.877 0.955 1.565 1.951 3.399 2.961 5.451 0.575 1.19 1.127 2.372 1.642 3.515 0.529 1.172 1.052 2.297 1.555 3.341 0.513 1.068 1.052 2.079 1.601 3.003 0.543 0.914 1.137 1.746 1.764 2.473 0.413-0.078 0.804-0.151 1.171-0.222 0.379-0.073 0.751-0.129 1.105-0.165 0.357-0.038 0.721-0.056 1.074-0.053 0.36 0.003 0.752 0.044 1.165 0.12 0.464 0.086 0.853 0.219 1.158 0.397 0.306 0.177 0.551 0.382 0.727 0.61 0.177 0.227 0.294 0.469 0.347 0.717 0.053 0.246 0.058 0.483 0.017 0.704-0.1 0.54-0.383 0.92-0.842 1.131m-20.664-26.109c-0.526-0.308-1.061-0.513-1.588-0.611-0.273-0.051-0.58-0.08-0.913-0.088-0.334-0.001-0.656 0.028-0.965 0.102-0.306 0.075-0.583 0.204-0.823 0.381-0.237 0.175-0.409 0.423-0.511 0.73-0.095 0.513 0.02 0.945 0.343 1.285 0.327 0.345 0.757 0.569 1.277 0.665 0.318 0.06 0.63 0.088 0.937 0.088 0.523 0 1.028-0.085 1.511-0.256 0.75-0.265 1.502-0.652 2.236-1.15-0.487-0.461-0.993-0.847-1.504-1.146m20.919 24.204c-0.086-0.19-0.219-0.365-0.396-0.52s-0.394-0.285-0.645-0.385c-0.255-0.102-0.528-0.181-0.812-0.232-0.483-0.09-0.945-0.123-1.369-0.102-0.428 0.023-0.876 0.079-1.328 0.167-0.202 0.043-0.411 0.081-0.618 0.113-0.175 0.026-0.367 0.06-0.574 0.1 0.583 0.579 1.198 1.077 1.828 1.479 0.658 0.419 1.417 0.726 2.255 0.912 0.147 0.027 0.319 0.041 0.504 0.036s0.365-0.038 0.534-0.097c0.167-0.058 0.313-0.153 0.434-0.28 0.12-0.125 0.202-0.306 0.244-0.539 0.046-0.246 0.027-0.466-0.057-0.652"
             fill="#1d1d1b"
             id="path19"
             style="stroke:#1d1d1b;stroke-opacity:1;stroke-width:0.30001802;stroke-miterlimit:4;stroke-dasharray:none" /></g><g
           transform="translate(76.019,92.072)"
           id="g25"
           style="stroke:#1d1d1b;stroke-opacity:1;stroke-width:0.30001802;stroke-miterlimit:4;stroke-dasharray:none"><path
             stroke-width="0"
             d="m0 0c-0.732 0.343-1.466 0.53-2.181 0.557-0.713 0.028-1.394-0.019-2.021-0.135-1.562-0.29-3.002-0.867-4.279-1.714-1.274-0.845-2.475-1.918-3.569-3.189-1.091-1.269-2.127-2.747-3.079-4.394-0.956-1.657-1.901-3.441-2.809-5.303-0.07-0.141-0.139-0.284-0.207-0.432-0.058-0.127-0.114-0.256-0.166-0.386-0.305 0.031-0.609 0.035-0.908 0.012-0.315-0.027-0.617-0.067-0.898-0.119-0.413-0.077-0.812-0.196-1.184-0.352-0.373-0.158-0.697-0.361-0.964-0.603-0.271-0.245-0.471-0.54-0.595-0.88s-0.147-0.727-0.069-1.15c0.085-0.456 0.332-0.863 0.737-1.21 0.389-0.333 0.981-0.588 1.76-0.757-0.449-1.112-0.886-2.176-1.299-3.161-0.424-1.014-0.891-1.934-1.387-2.734-0.497-0.799-1.059-1.471-1.671-1.998-0.612-0.525-1.333-0.868-2.144-1.018-0.627-0.117-1.184-0.072-1.653 0.134-0.472 0.207-0.875 0.493-1.198 0.853s-0.577 0.751-0.753 1.161c-0.178 0.409-0.296 0.77-0.352 1.074-0.033 0.172-0.147 0.249-0.317 0.217-0.081-0.015-0.141-0.05-0.178-0.104-0.041-0.059-0.052-0.138-0.034-0.234 0.006-0.034 0.035-0.152 0.096-0.391 0.059-0.231 0.157-0.5 0.293-0.801 0.134-0.3 0.315-0.622 0.536-0.956 0.222-0.335 0.505-0.636 0.842-0.895s0.739-0.453 1.195-0.576c0.242-0.066 0.505-0.1 0.789-0.1 0.254 0 0.525 0.027 0.81 0.08 0.908 0.168 1.713 0.544 2.39 1.117 0.674 0.571 1.285 1.289 1.817 2.132 0.531 0.839 1.022 1.8 1.461 2.858 0.426 1.026 0.862 2.121 1.297 3.256 0.607-0.057 1.325-0.067 2.132-0.033 0.837 0.035 1.809 0.156 2.889 0.357 0.354 0.065 0.693 0.135 1.008 0.21 0.305 0.072 0.619 0.152 0.935 0.241 0.612-0.976 1.11-1.977 1.481-2.975 0.377-1.018 0.658-2.018 0.834-2.973l0.012-0.06 0.533 0.099-0.011 0.06c-0.226 1.221-0.403 2.387-0.524 3.464-0.12 1.071-0.192 2.137-0.215 3.171 0.647 0.277 1.21 0.567 1.674 0.862 0.473 0.301 0.872 0.575 1.185 0.816 0.312 0.24 0.618 0.527 0.913 0.858 0.059 0.086 0.083 0.169 0.068 0.248-0.015 0.081-0.061 0.139-0.131 0.169-0.063 0.027-0.125 0.035-0.182 0.024-0.041-0.008-0.089-0.034-0.154-0.083l-0.013-0.013c-0.002-0.003-0.026-0.034-0.222-0.237-0.135-0.141-0.343-0.322-0.618-0.538-0.271-0.214-0.627-0.463-1.057-0.741-0.408-0.263-0.896-0.523-1.452-0.777 0.02 1.842 0.201 3.567 0.537 5.127 0.342 1.589 0.768 3.057 1.266 4.363 0.496 1.3 1.043 2.474 1.628 3.491 0.582 1.012 1.146 1.886 1.675 2.599 0.531 0.713 0.992 1.277 1.371 1.675 0.365 0.385 0.599 0.629 0.701 0.736 0.531 0.065 1.09 0.066 1.662 0.003 0.579-0.064 1.167-0.225 1.735-0.471 0.051-0.035 0.116-0.045 0.193-0.03 0.081 0.014 0.14 0.047 0.174 0.096 0.032 0.046 0.041 0.103 0.029 0.169-0.02 0.111-0.075 0.189-0.164 0.234m-20.224-19.53c-0.227 0.046-0.456 0.105-0.681 0.173-0.234 0.07-0.46 0.169-0.671 0.295-0.205 0.121-0.385 0.271-0.533 0.444-0.143 0.168-0.24 0.38-0.286 0.63-0.072 0.382-0.041 0.716 0.089 0.99 0.133 0.277 0.322 0.509 0.563 0.691 0.244 0.184 0.522 0.334 0.826 0.445 0.311 0.112 0.612 0.196 0.895 0.248 0.497 0.092 0.992 0.126 1.469 0.105-0.312-0.679-0.604-1.361-0.869-2.027-0.269-0.676-0.536-1.341-0.802-1.994m5.71 0.341c-0.443-0.089-0.874-0.173-1.281-0.249-0.863-0.127-1.623-0.201-2.257-0.217-0.606-0.014-1.155-0.002-1.631 0.042 0.271 0.655 0.543 1.325 0.809 1.995 0.269 0.674 0.567 1.36 0.888 2.037 1.041-0.152 1.96-0.542 2.735-1.161 0.768-0.611 1.445-1.329 2.013-2.135-0.453-0.126-0.882-0.231-1.276-0.312m2.884-1.389c-0.226 0.482-0.485 0.943-0.772 1.373 0.364 0.123 0.716 0.251 1.048 0.38 0.003-0.502 0.019-1.013 0.047-1.523 0.022-0.389 0.056-0.794 0.102-1.21-0.128 0.322-0.27 0.65-0.425 0.98m6.456 19.701c-0.307-0.351-0.646-0.779-1.005-1.272-0.356-0.49-0.742-1.062-1.148-1.702-0.405-0.638-0.801-1.357-1.176-2.136-0.379-0.763-0.743-1.604-1.085-2.5-0.34-0.893-0.645-1.864-0.906-2.884-0.261-1.018-0.471-2.115-0.623-3.26-0.15-1.134-0.226-2.348-0.227-3.61-0.204-0.082-0.426-0.164-0.659-0.245-0.238-0.082-0.475-0.16-0.705-0.232-0.574 0.877-1.284 1.664-2.112 2.34-0.824 0.671-1.809 1.117-2.928 1.324 0.045 0.096 0.091 0.189 0.137 0.279 0.059 0.114 0.116 0.233 0.173 0.355 0.901 1.873 1.826 3.627 2.75 5.212 0.924 1.587 1.92 3.013 2.961 4.238 1.037 1.221 2.174 2.261 3.381 3.09 1.148 0.79 2.424 1.361 3.794 1.699-0.176-0.192-0.384-0.424-0.622-0.696"
             fill="#1d1d1b"
             id="path23"
             style="stroke:#1d1d1b;stroke-opacity:1;stroke-width:0.30001802;stroke-miterlimit:4;stroke-dasharray:none" /></g><g
           transform="translate(155.65,86.438)"
           id="g29"><path
             stroke-width="0"
             d="m0 0c-0.047 0.039-0.092 0.054-0.139 0.046-0.046-0.009-0.082-0.031-0.105-0.068-0.653-0.58-1.321-1.139-2.006-1.677-0.684-0.538-1.344-1.017-1.979-1.435-0.634-0.419-1.228-0.766-1.779-1.041-0.551-0.276-1.017-0.45-1.399-0.521-1.118-0.207-1.764 0.156-1.938 1.089-0.088 0.475-0.061 1.018 0.078 1.63 0.14 0.611 0.343 1.247 0.61 1.906 0.265 0.658 0.562 1.319 0.891 1.981 0.329 0.663 0.633 1.281 0.914 1.856 0.283 0.574 0.507 1.087 0.677 1.537 0.17 0.451 0.235 0.792 0.192 1.022-0.042 0.229-0.146 0.396-0.308 0.501-0.161 0.104-0.339 0.166-0.532 0.186-0.195 0.019-0.385 0.02-0.572 0.001-0.185-0.018-0.325-0.037-0.417-0.053-0.123-0.023-0.293-0.043-0.511-0.059-0.22-0.017-0.455-0.025-0.708-0.025-0.254 0.001-0.515 0.015-0.782 0.046-0.266 0.03-0.501 0.081-0.706 0.154 0.165 0.569 0.213 1.029 0.149 1.381-0.009 0.046-0.026 0.114-0.051 0.204-0.024 0.091-0.068 0.181-0.134 0.273-0.063 0.09-0.156 0.161-0.275 0.209-0.12 0.049-0.279 0.056-0.48 0.018-0.03-0.005-0.088-0.024-0.178-0.056-0.089-0.032-0.173-0.092-0.252-0.178s-0.142-0.204-0.185-0.354-0.044-0.341-0.001-0.57c0.042-0.23 0.134-0.447 0.276-0.65 0.14-0.204 0.34-0.368 0.601-0.494 0.004-0.015-0.005-0.053-0.025-0.112-0.022-0.06-0.043-0.114-0.066-0.166-0.459-1.194-0.979-2.382-1.558-3.566-0.581-1.184-1.299-2.33-2.155-3.438-0.001-0.003 0-0.006-0.001-0.009-0.384-0.451-0.76-0.878-1.119-1.255-0.556-0.587-1.104-1.111-1.643-1.575-0.54-0.464-1.078-0.892-1.615-1.284-0.539-0.393-1.089-0.768-1.657-1.127-0.213-0.134-0.492-0.292-0.838-0.475s-0.741-0.367-1.18-0.551c-0.442-0.185-0.908-0.358-1.401-0.521-0.493-0.162-0.985-0.288-1.473-0.379-1.273-0.236-2.257-0.149-2.959 0.259-0.701 0.408-1.133 1.049-1.295 1.921-0.082 0.444-0.102 0.911-0.059 1.403 0.043 0.49 0.122 0.963 0.236 1.421 0.114 0.456 0.258 0.886 0.437 1.291s0.362 0.736 0.554 0.993c0.215-0.055 0.521-0.129 0.919-0.221 0.397-0.093 0.858-0.166 1.383-0.219 0.525-0.054 1.103-0.081 1.738-0.082 0.633-0.002 1.287 0.06 1.961 0.185 0.551 0.102 1.141 0.294 1.769 0.577 0.628 0.282 1.2 0.638 1.715 1.066 0.516 0.427 0.922 0.922 1.222 1.484s0.389 1.165 0.27 1.808c-0.071 0.382-0.23 0.713-0.48 0.991s-0.557 0.498-0.918 0.661c-0.364 0.163-0.764 0.266-1.199 0.312-0.437 0.046-0.876 0.028-1.322-0.054-1.3-0.241-2.577-0.897-3.828-1.968-1.25-1.07-2.39-2.413-3.422-4.029-0.348 0.093-0.58 0.162-0.691 0.205-0.11 0.042-0.176 0.074-0.195 0.094-0.021 0.02-0.022 0.028-0.004 0.023 0.015-0.005-0.006-0.013-0.068-0.025-0.136-0.025-0.194-0.107-0.168-0.245 0.006-0.03 0.006-0.054 0.002-0.07-0.005-0.017 0.011-0.042 0.049-0.074 0.037-0.033 0.119-0.07 0.245-0.109 0.127-0.04 0.324-0.099 0.591-0.175-0.209-0.324-0.4-0.696-0.575-1.117-0.177-0.42-0.323-0.866-0.441-1.34-0.052-0.207-0.091-0.418-0.125-0.63-0.022-0.012-0.036-0.014-0.062-0.034-0.55-0.703-1.16-1.402-1.832-2.096-0.671-0.694-1.36-1.332-2.067-1.914-0.708-0.583-1.427-1.08-2.159-1.492-0.732-0.413-1.426-0.681-2.085-0.802-0.2-0.037-0.404-0.063-0.614-0.078-0.213-0.015-0.408-0.001-0.592 0.045-0.183 0.045-0.341 0.138-0.479 0.279-0.136 0.141-0.232 0.349-0.281 0.624-0.08 0.429-0.064 0.919 0.047 1.47s0.272 1.115 0.482 1.692c0.21 0.576 0.437 1.141 0.684 1.694 0.246 0.552 0.472 1.045 0.675 1.479 0.306 0.657 0.613 1.292 0.918 1.903 0.306 0.611 0.588 1.149 0.842 1.616 0.253 0.466 0.542 0.982 0.864 1.549 0.02 0.067 0.026 0.115 0.021 0.146-0.027 0.139-0.108 0.194-0.245 0.169-0.092-0.017-0.142-0.05-0.149-0.099-0.322-0.566-0.61-1.086-0.863-1.561-0.251-0.474-0.532-1.016-0.837-1.627-0.308-0.611-0.612-1.253-0.913-1.926-0.215-0.467-0.453-0.987-0.71-1.556-0.171-0.377-0.317-0.767-0.47-1.154-0.023-0.012-0.04-0.016-0.07-0.038-0.642-0.722-1.269-1.38-1.878-1.975-0.611-0.596-1.243-1.156-1.898-1.681-0.656-0.525-1.354-1.023-2.099-1.493-0.744-0.47-1.571-0.94-2.482-1.41-0.505-0.268-0.996-0.445-1.47-0.533-0.596-0.11-1.126-0.054-1.588 0.169-0.46 0.223-0.748 0.641-0.861 1.254-0.026 0.138-0.042 0.273-0.052 0.406-0.008 0.132-0.007 0.256 0.003 0.368 0.009 0.128 0.019 0.241 0.033 0.338 0.089 0.46 0.188 0.926 0.298 1.398 0.112 0.471 0.232 0.948 0.365 1.433 1.645 1.633 3.052 3.07 4.226 4.308 1.171 1.238 2.181 2.383 3.032 3.435 0.85 1.051 1.579 2.057 2.184 3.017 0.607 0.958 1.166 1.977 1.68 3.053 0.17 0.364 0.339 0.752 0.508 1.162 0.169 0.412 0.313 0.827 0.435 1.245 0.121 0.418 0.207 0.83 0.257 1.235 0.052 0.405 0.049 0.769-0.011 1.09-0.089 0.474-0.306 0.85-0.65 1.127-0.344 0.276-0.767 0.367-1.274 0.274-0.337-0.062-0.702-0.225-1.097-0.488-0.411-0.266-0.833-0.653-1.269-1.161-0.437-0.508-0.837-1.014-1.205-1.517-0.366-0.504-0.666-0.951-0.902-1.343-0.237-0.392-0.352-0.596-0.349-0.611-0.325-0.646-0.622-1.243-0.893-1.791-0.27-0.549-0.577-1.196-0.921-1.94-0.346-0.745-0.7-1.555-1.06-2.429-0.34-0.807-0.703-1.694-1.085-2.658-0.385-0.966-0.751-1.952-1.102-2.959-0.354-1.007-0.669-2.008-0.953-3.002-0.006-0.02-0.009-0.038-0.015-0.059-0.024-0.012-0.042-0.016-0.074-0.04-0.619-0.765-1.206-1.439-1.763-2.024-0.555-0.587-1.104-1.111-1.643-1.576-0.539-0.464-1.077-0.892-1.615-1.284s-1.089-0.768-1.657-1.126c-0.212-0.134-0.49-0.293-0.838-0.476-0.345-0.183-0.739-0.366-1.181-0.551-0.441-0.185-0.907-0.358-1.4-0.52-0.491-0.163-0.984-0.289-1.472-0.38-1.272-0.236-2.259-0.149-2.959 0.26-0.702 0.408-1.134 1.049-1.296 1.921-0.083 0.443-0.102 0.911-0.057 1.402 0.043 0.491 0.121 0.964 0.235 1.421 0.112 0.456 0.258 0.887 0.438 1.292 0.176 0.405 0.361 0.735 0.551 0.992 0.217-0.054 0.522-0.129 0.921-0.221 0.398-0.092 0.858-0.165 1.382-0.218 0.525-0.054 1.104-0.082 1.737-0.083 0.635-0.001 1.288 0.061 1.963 0.185 0.55 0.102 1.14 0.294 1.768 0.577 0.63 0.283 1.201 0.638 1.716 1.066 0.516 0.428 0.921 0.922 1.221 1.485 0.3 0.562 0.39 1.164 0.27 1.807-0.07 0.382-0.231 0.713-0.48 0.991-0.25 0.278-0.555 0.499-0.919 0.661-0.362 0.163-0.762 0.267-1.197 0.313-0.437 0.045-0.877 0.027-1.322-0.055-1.3-0.241-2.576-0.897-3.827-1.968-1.252-1.07-2.391-2.413-3.423-4.029-0.35 0.094-0.581 0.162-0.692 0.205-0.109 0.042-0.174 0.074-0.194 0.094-0.02 0.021-0.021 0.028-0.004 0.023 0.015-0.005-0.007-0.013-0.068-0.024-0.137-0.025-0.194-0.107-0.168-0.244 0.005-0.032 0.007-0.055 0.001-0.072-0.005-0.016 0.012-0.042 0.05-0.074 0.036-0.033 0.119-0.068 0.245-0.109 0.126-0.04 0.323-0.098 0.592-0.175-0.209-0.324-0.401-0.696-0.578-1.116-0.175-0.421-0.321-0.867-0.44-1.341-0.044-0.179-0.077-0.362-0.108-0.545-0.01-0.006-0.015-0.005-0.024-0.013-0.182-0.223-0.436-0.536-0.765-0.937-0.331-0.402-0.723-0.846-1.179-1.334s-0.961-0.989-1.514-1.504c-0.555-0.515-1.145-0.996-1.776-1.445-0.63-0.448-1.281-0.842-1.954-1.181-0.674-0.338-1.355-0.571-2.045-0.699-1.178-0.219-1.855 0.14-2.028 1.073-0.04 0.214-0.057 0.433-0.05 0.656 0.006 0.222 0.031 0.425 0.076 0.608 0.026 0.21 0.074 0.425 0.142 0.643 0.014 0.019 0.094 0.286 0.244 0.805 0.149 0.518 0.351 1.205 0.605 2.06 0.251 0.853 0.55 1.843 0.896 2.968 0.347 1.124 0.713 2.307 1.101 3.552 0.037 0.054 0.073 0.112 0.109 0.174 0.037 0.062 0.085 0.138 0.148 0.229 0.4 0.058 0.797 0.12 1.189 0.185 0.392 0.064 0.786 0.134 1.184 0.207 0.216 0.04 0.507 0.094 0.874 0.162 0.368 0.068 0.73 0.139 1.089 0.214 0.357 0.074 0.664 0.154 0.918 0.24 0.252 0.087 0.37 0.176 0.354 0.268-0.026 0.138-0.108 0.194-0.245 0.168-1.034-0.238-2.094-0.459-3.18-0.66-0.307-0.056-0.618-0.11-0.933-0.161-0.315-0.05-0.633-0.105-0.955-0.164 0.29 0.481 0.682 1.143 1.176 1.986 0.492 0.843 0.999 1.791 1.515 2.845 0.517 1.054 1.003 2.176 1.454 3.368 0.452 1.193 0.789 2.386 1.011 3.583 0.023 0.131 0.047 0.338 0.074 0.62 0.028 0.282 0.02 0.529-0.019 0.744-0.043 0.23-0.126 0.357-0.249 0.381-0.122 0.025-0.216 0.032-0.277 0.021-0.213-0.041-0.491-0.377-0.835-1.01-0.34-0.633-0.739-1.535-1.196-2.703-0.456-1.169-0.974-2.59-1.549-4.264-0.577-1.675-1.199-3.571-1.866-5.689-1.572-0.243-3.197-0.449-4.875-0.617-0.126-0.008-0.216-0.017-0.268-0.027-0.056-0.01-0.098-0.017-0.127-0.023-0.139-0.025-0.197-0.099-0.174-0.222 0.024-0.122 0.107-0.186 0.25-0.191 0.281 0.02 0.67 0.06 1.165 0.121 0.496 0.059 1.004 0.122 1.522 0.186s0.998 0.129 1.437 0.195 0.75 0.115 0.934 0.149c-0.876-1.001-1.748-2.018-2.617-3.049-0.38-0.434-0.77-0.89-1.172-1.368-0.403-0.479-0.807-0.965-1.214-1.46-0.406-0.495-0.808-0.98-1.203-1.458-0.395-0.476-0.764-0.937-1.11-1.38-0.065-0.076-0.089-0.152-0.077-0.229 0.01-0.045 0.033-0.088 0.073-0.129 0.039-0.04 0.096-0.053 0.173-0.039 0.061 0.012 0.118 0.054 0.166 0.126 0.11 0.179 0.354 0.505 0.733 0.979 0.38 0.474 0.823 1.015 1.326 1.623 0.506 0.607 1.038 1.241 1.598 1.898 0.558 0.657 1.072 1.259 1.542 1.806 0.468 0.545 0.856 0.997 1.161 1.355 0.306 0.357 0.466 0.544 0.478 0.563-0.348-1.109-0.687-2.19-1.014-3.239-0.329-1.051-0.622-1.983-0.884-2.8-0.259-0.816-0.465-1.475-0.617-1.978-0.154-0.504-0.235-0.772-0.244-0.806-0.01-0.032-0.031-0.112-0.063-0.236-0.033-0.125-0.065-0.286-0.101-0.482-0.034-0.197-0.057-0.414-0.067-0.654-0.013-0.239 0.003-0.474 0.046-0.704 0.102-0.55 0.369-0.961 0.798-1.229 0.431-0.268 1.02-0.333 1.77-0.194 0.689 0.127 1.435 0.399 2.238 0.817 0.801 0.418 1.61 0.944 2.426 1.577 0.817 0.635 1.637 1.364 2.457 2.189 0.673 0.676 1.307 1.401 1.917 2.156-0.003-0.043-0.01-0.086-0.012-0.129-0.028-0.496 0.001-0.966 0.083-1.41 0.105-0.566 0.313-1.066 0.622-1.499 0.31-0.434 0.761-0.746 1.35-0.937 0.406-0.131 0.845-0.196 1.32-0.195 0.474 0.001 0.956 0.046 1.447 0.137 0.459 0.085 0.921 0.202 1.384 0.351 0.464 0.149 0.912 0.312 1.347 0.487 0.434 0.176 0.848 0.362 1.239 0.562 0.39 0.199 0.742 0.39 1.056 0.576 0.58 0.375 1.143 0.757 1.688 1.143 0.548 0.386 1.094 0.816 1.639 1.288 0.545 0.474 1.104 1.004 1.676 1.594 0.42 0.431 0.862 0.933 1.312 1.47-0.156-0.637-0.295-1.256-0.388-1.834-0.01-0.034-0.023-0.175-0.041-0.423-0.018-0.249 0.003-0.533 0.064-0.855 0.05-0.275 0.147-0.539 0.289-0.789 0.142-0.251 0.326-0.463 0.556-0.634s0.51-0.289 0.839-0.354c0.328-0.066 0.714-0.058 1.159 0.024 0.244 0.045 0.511 0.11 0.795 0.195 0.285 0.084 0.572 0.2 0.862 0.349 0.928 0.457 1.772 0.93 2.528 1.418 0.758 0.488 1.471 1 2.14 1.536 0.668 0.535 1.313 1.11 1.937 1.724 0.419 0.415 0.851 0.863 1.288 1.327-0.148-0.455-0.274-0.905-0.36-1.345-0.108-0.566-0.119-1.079-0.034-1.538 0.065-0.353 0.179-0.624 0.341-0.815 0.162-0.192 0.357-0.326 0.585-0.402 0.228-0.077 0.475-0.106 0.742-0.089 0.266 0.017 0.528 0.05 0.79 0.099 0.779 0.144 1.546 0.428 2.299 0.854 0.753 0.424 1.488 0.931 2.201 1.523 0.713 0.591 1.397 1.24 2.049 1.947 0.524 0.565 1.017 1.133 1.495 1.701-0.001-0.032-0.007-0.064-0.009-0.097-0.029-0.496 0.001-0.965 0.083-1.409 0.104-0.566 0.312-1.066 0.622-1.5 0.31-0.433 0.76-0.746 1.349-0.937 0.406-0.131 0.845-0.196 1.321-0.195 0.474 0.001 0.957 0.046 1.446 0.138 0.459 0.085 0.922 0.202 1.386 0.351 0.463 0.149 0.911 0.311 1.345 0.486 0.434 0.176 0.847 0.363 1.239 0.562 0.39 0.199 0.743 0.391 1.057 0.576 0.579 0.376 1.143 0.757 1.689 1.144 0.546 0.386 1.092 0.815 1.638 1.288 0.544 0.473 1.103 1.004 1.675 1.593 0.573 0.588 1.174 1.274 1.805 2.056 0.038 0.055 0.051 0.112 0.038 0.173-0.002 0.011-0.011 0.012-0.014 0.022 0.532 0.772 1.035 1.566 1.477 2.409 0.627 1.193 1.175 2.442 1.645 3.749 0.019 0.066 0.051 0.151 0.095 0.255 0.272-0.093 0.571-0.152 0.901-0.178s0.635-0.036 0.92-0.032c0.285 0.006 0.522 0.018 0.717 0.039 0.195 0.02 0.308 0.033 0.337 0.038 0.077 0.014 0.19 0.031 0.335 0.05 0.148 0.02 0.293 0.022 0.439 0.01 0.144-0.012 0.272-0.044 0.385-0.095 0.113-0.05 0.181-0.144 0.207-0.282 0.021-0.107 0.011-0.228-0.028-0.361-0.038-0.135-0.085-0.269-0.139-0.406-0.249-0.537-0.577-1.203-0.983-1.999s-0.792-1.622-1.154-2.481c-0.364-0.859-0.66-1.698-0.889-2.516-0.227-0.818-0.289-1.517-0.181-2.099 0.1-0.535 0.333-0.943 0.703-1.223 0.369-0.28 0.862-0.378 1.48-0.296 0.444 0.082 0.957 0.26 1.54 0.535 0.582 0.273 1.206 0.623 1.873 1.046 0.666 0.425 1.356 0.912 2.069 1.464 0.713 0.551 1.422 1.146 2.128 1.784 0.052 0.056 0.073 0.123 0.057 0.2-0.008 0.046-0.035 0.089-0.083 0.127m-26.732 2.529c0.619 0.677 1.228 1.247 1.814 1.695 0.582 0.444 1.153 0.792 1.696 1.033 0.541 0.241 1.062 0.408 1.544 0.499 0.377 0.069 0.755 0.084 1.127 0.045 0.372-0.041 0.714-0.134 1.019-0.278 0.303-0.145 0.561-0.334 0.764-0.564 0.206-0.232 0.333-0.497 0.391-0.81 0.082-0.444 0.005-0.906-0.231-1.371-0.241-0.473-0.584-0.911-1.024-1.303-0.442-0.394-0.965-0.743-1.551-1.039-0.588-0.297-1.199-0.505-1.816-0.619-0.49-0.091-0.981-0.146-1.458-0.164-0.482-0.019-0.946-0.017-1.372 0.005-0.425 0.023-0.825 0.064-1.192 0.122-0.367 0.059-0.683 0.119-0.945 0.18l-0.588 0.141c0.604 0.946 1.215 1.763 1.822 2.428m-23.791-5.041c0.403 1.094 0.815 2.165 1.225 3.181 0.419 1.04 0.811 1.962 1.197 2.82 0.392 0.869 0.742 1.632 1.04 2.27 0.297 0.635 0.549 1.148 0.748 1.525 0.074 0.14 0.299 0.567 0.334 0.614l0.002 0.006c0.259 0.453 0.503 0.857 0.726 1.2 0.214 0.33 0.464 0.694 0.765 1.112 0.288 0.4 0.599 0.784 0.923 1.141 0.324 0.356 0.667 0.669 1.019 0.93 0.345 0.257 0.692 0.419 1.034 0.482 0.093 0.017 0.182 0.025 0.268 0.025 0.239 0 0.45-0.065 0.634-0.196 0.251-0.178 0.411-0.453 0.48-0.818 0.086-0.462 0.033-1.078-0.154-1.83-0.189-0.755-0.52-1.636-0.983-2.618-0.325-0.687-0.676-1.353-1.042-1.982-0.358-0.615-0.757-1.251-1.191-1.892-0.423-0.626-0.905-1.273-1.432-1.923-0.534-0.659-1.134-1.365-1.782-2.097-0.655-0.74-1.407-1.55-2.237-2.407-0.78-0.807-1.666-1.709-2.634-2.686 0.321 1.056 0.677 2.112 1.06 3.143m-14.498-2.049c0.62 0.679 1.229 1.249 1.814 1.696 0.584 0.445 1.154 0.792 1.695 1.033 0.544 0.242 1.063 0.409 1.544 0.498 0.377 0.069 0.756 0.084 1.128 0.045 0.369-0.04 0.714-0.133 1.018-0.277 0.303-0.144 0.56-0.334 0.765-0.565 0.203-0.229 0.334-0.501 0.391-0.81 0.083-0.443 0.003-0.904-0.232-1.37-0.239-0.471-0.582-0.909-1.024-1.303-0.44-0.392-0.962-0.743-1.55-1.04s-1.197-0.505-1.816-0.619c-0.486-0.09-0.977-0.145-1.458-0.164-0.483-0.019-0.944-0.017-1.373 0.006-0.425 0.022-0.826 0.063-1.193 0.121-0.361 0.058-0.68 0.119-0.942 0.18l-0.59 0.142c0.608 0.95 1.22 1.766 1.823 2.427m-9.973 5.38c0.491 1.438 0.966 2.772 1.414 3.964 0.445 1.186 0.848 2.182 1.194 2.96 0.413 0.924 0.619 1.136 0.712 1.172 0.004-0.009 0.008-0.026 0.013-0.052 0.012-0.058 0.021-0.133 0.031-0.227 0.008-0.09 0.004-0.206-0.016-0.347-0.123-1.12-0.396-2.28-0.815-3.45-0.419-1.167-0.885-2.294-1.383-3.35-0.502-1.057-1.006-2.02-1.497-2.86-0.357-0.608-0.651-1.106-0.888-1.507 0.381 1.166 0.788 2.381 1.235 3.697m64.045 6.532c-0.103 0.058-0.197 0.156-0.282 0.292-0.108 0.17-0.177 0.337-0.207 0.496-0.014 0.087-0.012 0.123-0.007 0.137l0.002 0.019c0 0.223 0.066 0.351 0.201 0.39 0.116 0.021 0.205-0.001 0.267-0.066 0.07-0.072 0.116-0.163 0.135-0.272 0.02-0.102 0.021-0.236 0.005-0.398-0.015-0.154-0.054-0.354-0.114-0.598"
             fill="#1d1d1b"
             id="path27"
             style="stroke:#1d1d1b;stroke-opacity:1;stroke-width:0.30001802;stroke-miterlimit:4;stroke-dasharray:none" /></g></g><g
         transform="translate(122.8,65.808)"
         id="g35"
         style="stroke:#1d1d1b;stroke-opacity:1;stroke-width:0.30001802;stroke-miterlimit:4;stroke-dasharray:none"><path
           d="m0 0c-1.382 0-2.502-1.12-2.502-2.502 0-1.383 1.12-2.503 2.502-2.503s2.502 1.12 2.502 2.503c0 1.382-1.12 2.502-2.502 2.502"
           fill="#836fa5"
           id="path33"
           style="stroke:#1d1d1b;stroke-opacity:1;stroke-width:0.30001802;stroke-miterlimit:4;stroke-dasharray:none" /></g><g
         stroke-width="0"
         transform="translate(122.8,60.619)"
         id="g39"
         style="stroke:#1d1d1b;stroke-opacity:1;stroke-width:0.30001802;stroke-miterlimit:4;stroke-dasharray:none"><path
           stroke-width="0"
           d="m0 0c-1.48 0-2.686 1.207-2.686 2.688 0 1.479 1.206 2.684 2.686 2.684 1.481 0 2.686-1.205 2.686-2.684 0-1.481-1.205-2.688-2.686-2.688m0 5.005c-1.279 0-2.318-1.04-2.318-2.317 0-1.281 1.039-2.322 2.318-2.322s2.319 1.041 2.319 2.322c0 1.277-1.04 2.317-2.319 2.317"
           fill="#1d1d1b"
           id="path37"
           style="stroke:#1d1d1b;stroke-opacity:1;stroke-width:0.30001802;stroke-miterlimit:4;stroke-dasharray:none" /></g><g
         transform="translate(122.81,65.808)"
         id="g43"
         style="stroke:#1d1d1b;stroke-opacity:1;stroke-width:0.30001802;stroke-miterlimit:4;stroke-dasharray:none"><path
           d="m0 0c-1.385 0-2.508-1.12-2.508-2.502 0-1.383 1.123-2.503 2.508-2.503z"
           fill="#d1e4be"
           id="path41"
           style="stroke:#1d1d1b;stroke-opacity:1;stroke-width:0.30001802;stroke-miterlimit:4;stroke-dasharray:none" /></g><g
         stroke-width="0"
         transform="translate(122.81,60.619)"
         id="g47"
         style="stroke:#1d1d1b;stroke-opacity:1;stroke-width:0.30001802;stroke-miterlimit:4;stroke-dasharray:none"><path
           stroke-width="0"
           d="m0 0c-1.484 0-2.691 1.207-2.691 2.688 0 1.479 1.207 2.684 2.691 2.684 0.101 0 0.183-0.082 0.183-0.184v-5.004c0-0.102-0.082-0.184-0.183-0.184m-0.184 4.999c-1.196-0.094-2.141-1.095-2.141-2.311 0-1.219 0.945-2.221 2.141-2.314z"
           fill="#1d1d1b"
           id="path45"
           style="stroke:#1d1d1b;stroke-opacity:1;stroke-width:0.30001802;stroke-miterlimit:4;stroke-dasharray:none" /></g><g
         transform="translate(118.21,92.909)"
         id="g51"
         style="stroke:#1d1d1b;stroke-opacity:1;stroke-width:0.30001802;stroke-miterlimit:4;stroke-dasharray:none"><path
           d="m0 0c0 1.385 1.12 2.508 2.502 2.508 1.383 0 2.503-1.123 2.503-2.508z"
           fill="#d1e4be"
           id="path49"
           style="stroke:#1d1d1b;stroke-opacity:1;stroke-width:0.30001802;stroke-miterlimit:4;stroke-dasharray:none" /></g><g
         stroke-width="0"
         transform="translate(123.21,92.726)"
         id="g55"
         style="stroke:#1d1d1b;stroke-opacity:1;stroke-width:0.30001802;stroke-miterlimit:4;stroke-dasharray:none"><path
           stroke-width="0"
           d="m0 0h-5.005c-0.101 0-0.183 0.082-0.183 0.183 0 1.484 1.205 2.691 2.685 2.691 1.481 0 2.686-1.207 2.686-2.691 0-0.101-0.082-0.183-0.183-0.183m-4.815 0.366h4.625c-0.094 1.197-1.095 2.142-2.313 2.142-1.217 0-2.219-0.945-2.312-2.142"
           fill="#1d1d1b"
           id="path53"
           style="stroke:#1d1d1b;stroke-opacity:1;stroke-width:0.30001802;stroke-miterlimit:4;stroke-dasharray:none" /></g><g
         transform="translate(79.59,55.184)"
         id="g59"
         style="stroke:#1d1d1b;stroke-opacity:1;stroke-width:0.30001802;stroke-miterlimit:4;stroke-dasharray:none"><path
           d="m0 0s-3.156-4.497-9.796-5.162c-0.12 0.544-0.541 1.177-0.541 1.177s6.551 1.329 8.293 4.166z"
           fill="#836fa5"
           id="path57"
           style="stroke:#1d1d1b;stroke-opacity:1;stroke-width:0.30001802;stroke-miterlimit:4;stroke-dasharray:none" /></g><g
         stroke-width="0"
         transform="translate(69.794,49.838)"
         id="g63"
         style="stroke:#1d1d1b;stroke-opacity:1;stroke-width:0.30001802;stroke-miterlimit:4;stroke-dasharray:none"><path
           stroke-width="0"
           d="m0 0c-0.085 0-0.16 0.06-0.179 0.145-0.111 0.502-0.511 1.108-0.515 1.114-0.033 0.051-0.04 0.115-0.016 0.172 0.023 0.055 0.073 0.096 0.133 0.109 0.064 0.012 6.493 1.346 8.174 4.082 0.035 0.06 0.099 0.098 0.172 0.086l2.044-0.18c0.065-0.005 0.122-0.046 0.149-0.106 0.028-0.058 0.022-0.128-0.016-0.182-0.032-0.045-3.281-4.573-9.928-5.239-0.006 0-0.012-0.001-0.018-0.001m-0.25 1.236c0.12-0.208 0.29-0.533 0.387-0.854 5.466 0.602 8.526 3.863 9.308 4.811l-1.598 0.141c-1.658-2.52-6.865-3.82-8.097-4.098"
           fill="#1d1d1b"
           id="path61"
           style="stroke:#1d1d1b;stroke-opacity:1;stroke-width:0.30001802;stroke-miterlimit:4;stroke-dasharray:none" /></g></g><g
       transform="translate(40.684,84.835)"
       id="g69"
       style="stroke:#1d1d1b;stroke-opacity:1;stroke-width:0.30001802;stroke-miterlimit:4;stroke-dasharray:none"><path
         d="m0 0-1.764-8.888 4.043 8.888z"
         fill="#836fa5"
         id="path67"
         style="stroke:#1d1d1b;stroke-opacity:1;stroke-width:0.30001802;stroke-miterlimit:4;stroke-dasharray:none" /></g><g
       clip-path="url(#clipPath78)"
       id="g75"
       style="stroke:#1d1d1b;stroke-opacity:1;stroke-width:0.30001802;stroke-miterlimit:4;stroke-dasharray:none"><g
         transform="translate(38.92,75.764)"
         id="g73"
         style="stroke:#1d1d1b;stroke-opacity:1;stroke-width:0.30001802;stroke-miterlimit:4;stroke-dasharray:none"><path
           d="m0 0c-0.019 0-0.038 0.003-0.056 0.009-0.088 0.029-0.141 0.119-0.124 0.21l1.764 8.888c0.017 0.085 0.093 0.147 0.18 0.147h2.278c0.063 0 0.121-0.032 0.154-0.084 0.034-0.053 0.039-0.118 0.013-0.175l-4.042-8.888c-0.031-0.067-0.097-0.107-0.167-0.107m1.914 8.888-1.427-7.193 3.271 7.193z"
           fill="#1d1d1b"
           id="path71"
           style="stroke:#1d1d1b;stroke-opacity:1;stroke-width:0.30001802;stroke-miterlimit:4;stroke-dasharray:none" /></g></g><g
       transform="translate(41.199,75.947)"
       id="g79"
       style="stroke:#1d1d1b;stroke-opacity:1;stroke-width:0.30001802;stroke-miterlimit:4;stroke-dasharray:none"><path
         d="m0 0 1.764 8.888-4.043-8.888z"
         fill="#d1e4be"
         id="path77"
         style="stroke:#1d1d1b;stroke-opacity:1;stroke-width:0.30001802;stroke-miterlimit:4;stroke-dasharray:none" /></g><g
       stroke-width="0"
       id="g95"><g
         stroke-width="0"
         clip-path="url(#clipPath94)"
         id="g93"><g
           transform="translate(41.199,75.764)"
           id="g83"><path
             stroke-width="0"
             d="m0 0h-2.279c-0.062 0-0.12 0.032-0.154 0.084-0.034 0.053-0.039 0.118-0.013 0.175l4.043 8.888c0.038 0.085 0.136 0.128 0.222 0.098 0.089-0.029 0.142-0.119 0.124-0.21l-1.763-8.888c-0.017-0.085-0.093-0.147-0.18-0.147m-1.995 0.366h1.845l1.427 7.193z"
             fill="#1d1d1b"
             id="path81" /></g><g
           transform="translate(4.0122,1.4248)"
           id="g87"><path
             stroke-width="0"
             d="m0 0v4.988h-0.962v-1.967h-2.088v1.967h-0.962v-4.988h0.962v2.109h2.088v-2.109zm4.44 0v2.323c0 0.295-0.044 0.54-0.132 0.739-0.088 0.197-0.213 0.34-0.374 0.43-0.162 0.09-0.318 0.153-0.467 0.186-0.15 0.032-0.322 0.05-0.517 0.05-0.57 0-1.066-0.144-1.489-0.428l0.285-0.748c0.351 0.241 0.727 0.363 1.126 0.363 0.437 0 0.655-0.192 0.655-0.578v-0.185c-0.237 0.115-0.515 0.171-0.833 0.171-0.399 0-0.74-0.101-1.023-0.305-0.283-0.206-0.424-0.504-0.424-0.899 0-0.385 0.125-0.682 0.374-0.89 0.25-0.209 0.571-0.315 0.966-0.315 0.394 0 0.708 0.117 0.94 0.351v-0.265zm-2.128 0.834c-0.107 0.071-0.16 0.166-0.16 0.285 0 0.143 0.064 0.248 0.192 0.318 0.129 0.069 0.297 0.102 0.506 0.102 0.252 0 0.478-0.04 0.677-0.121v-0.392c-0.218-0.199-0.472-0.298-0.762-0.298-0.195 0-0.346 0.035-0.453 0.106m6.66-0.834v2.295c0 0.504-0.123 0.868-0.367 1.094-0.245 0.225-0.548 0.339-0.909 0.339-0.418 0-0.743-0.144-0.976-0.428v0.342h-0.927v-3.642h0.927v2.011c0 0.551 0.23 0.825 0.691 0.825 0.219 0 0.379-0.065 0.481-0.198s0.153-0.348 0.153-0.643v-1.995zm3.499 0.265v-0.265h0.926v5.146l-0.926-0.42v-1.348c-0.186 0.233-0.445 0.35-0.777 0.35-0.442 0-0.804-0.172-1.087-0.518-0.283-0.344-0.424-0.806-0.424-1.386 0-0.607 0.134-1.078 0.403-1.411 0.268-0.332 0.635-0.499 1.101-0.499 0.365 0 0.627 0.117 0.784 0.351m-1.173 0.811c-0.126 0.182-0.189 0.431-0.189 0.748 0 0.328 0.063 0.579 0.189 0.752s0.306 0.26 0.538 0.26c0.276 0 0.487-0.1 0.635-0.299v-1.439c-0.138-0.195-0.35-0.292-0.635-0.292-0.232 0-0.412 0.09-0.538 0.27m5.078-1.076 0.463 1.817c0.076 0.319 0.116 0.499 0.121 0.542 0.005-0.043 0.045-0.223 0.121-0.542l0.463-1.817h0.82l1.026 3.642h-0.912l-0.442-1.775c-0.014-0.052-0.032-0.138-0.053-0.256-0.022-0.119-0.035-0.193-0.04-0.22-0.052 0.236-0.088 0.395-0.107 0.476l-0.456 1.775h-0.841l-0.463-1.775c-0.019-0.081-0.054-0.24-0.107-0.476-0.004 0.027-0.017 0.101-0.039 0.22-0.021 0.118-0.039 0.204-0.053 0.256l-0.428 1.775h-0.912l1.019-3.642zm6.997 0.527-0.57 0.578c-0.199-0.251-0.461-0.377-0.784-0.377-0.209 0-0.388 0.064-0.538 0.196-0.149 0.13-0.234 0.309-0.253 0.537h2.373c0.019 0.134 0.029 0.316 0.029 0.55 0 0.559-0.15 0.986-0.449 1.278s-0.687 0.439-1.162 0.439c-0.522 0-0.937-0.171-1.243-0.513-0.306-0.343-0.46-0.806-0.46-1.391 0-0.597 0.152-1.065 0.456-1.404 0.304-0.337 0.72-0.506 1.247-0.506 0.566 0 1.017 0.205 1.354 0.613m-1.354 2.388c0.19 0 0.348-0.06 0.474-0.179 0.126-0.118 0.203-0.282 0.232-0.491h-1.489c0.057 0.446 0.318 0.67 0.783 0.67m3.749-2.915v2.031c0 0.523 0.209 0.784 0.627 0.784 0.242 0 0.463-0.071 0.663-0.213l0.128 0.847c-0.223 0.186-0.47 0.279-0.741 0.279-0.323 0-0.549-0.135-0.677-0.407v0.321h-0.927v-3.642zm4.325 2.587 1.069 1.055h-1.111l-0.977-0.991v2.495l-0.926-0.436v-4.71h0.926v1.597l0.342 0.328 1.005-1.925h1.012zm4.582-2.384c0.257 0.193 0.385 0.464 0.385 0.817 0 0.328-0.104 0.581-0.313 0.758-0.209 0.178-0.504 0.329-0.884 0.452-0.475 0.143-0.713 0.291-0.713 0.443 0 0.181 0.155 0.27 0.464 0.27 0.256 0 0.494-0.101 0.712-0.305l0.62 0.506c-0.337 0.388-0.781 0.584-1.332 0.584-0.38 0-0.696-0.092-0.948-0.275-0.252-0.182-0.378-0.433-0.378-0.752 0-0.299 0.1-0.538 0.299-0.716 0.2-0.178 0.516-0.339 0.948-0.48 0.247-0.096 0.419-0.176 0.517-0.239 0.097-0.065 0.146-0.147 0.146-0.246 0-0.214-0.183-0.322-0.549-0.322-0.309 0-0.594 0.131-0.855 0.393l-0.613-0.521c0.143-0.199 0.347-0.359 0.613-0.476 0.266-0.119 0.546-0.18 0.841-0.18 0.437 0 0.784 0.098 1.04 0.289m3.578 2.384 1.069 1.055h-1.112l-0.976-0.991v2.495l-0.927-0.436v-4.71h0.927v1.597l0.342 0.328 1.004-1.925h1.012zm5.48-2.587v3.642h-0.927v-2.009c0-0.552-0.23-0.827-0.691-0.827-0.219 0-0.379 0.067-0.481 0.203s-0.153 0.347-0.153 0.637v1.996h-0.927v-2.294c0-0.499 0.124-0.863 0.371-1.09 0.247-0.229 0.549-0.344 0.905-0.344 0.423 0 0.748 0.144 0.976 0.429v-0.343zm4.603 0v2.295c0 0.504-0.122 0.868-0.367 1.094-0.245 0.225-0.548 0.339-0.909 0.339-0.418 0-0.743-0.144-0.976-0.428v0.342h-0.926v-3.642h0.926v2.011c0 0.551 0.231 0.825 0.691 0.825 0.219 0 0.379-0.065 0.481-0.198 0.103-0.133 0.154-0.348 0.154-0.643v-1.995zm3.634 0.203c0.257 0.193 0.385 0.464 0.385 0.817 0 0.328-0.104 0.581-0.313 0.758-0.21 0.178-0.504 0.329-0.884 0.452-0.475 0.143-0.713 0.291-0.713 0.443 0 0.181 0.155 0.27 0.463 0.27 0.257 0 0.494-0.101 0.713-0.305l0.62 0.506c-0.337 0.388-0.781 0.584-1.333 0.584-0.38 0-0.696-0.092-0.947-0.275-0.252-0.182-0.378-0.433-0.378-0.752 0-0.299 0.1-0.538 0.299-0.716 0.2-0.178 0.516-0.339 0.948-0.48 0.247-0.096 0.419-0.176 0.517-0.239 0.097-0.065 0.146-0.147 0.146-0.246 0-0.214-0.183-0.322-0.549-0.322-0.309 0-0.594 0.131-0.855 0.393l-0.613-0.521c0.143-0.199 0.347-0.359 0.613-0.476 0.266-0.119 0.546-0.18 0.841-0.18 0.437 0 0.784 0.098 1.04 0.289m3.435-0.125 0.107 0.807c-0.204-0.106-0.404-0.157-0.599-0.157-0.171 0-0.256 0.094-0.256 0.285v1.816h0.812v0.813h-0.812v1.504l-0.927-0.443v-1.061h-0.52v-0.813h0.52v-1.952c0-0.642 0.295-0.963 0.884-0.963 0.299 0 0.563 0.056 0.791 0.164m6.257 0.4l0.384-0.478h1.205l-1.026 1.233c0.213 0.342 0.32 0.762 0.32 1.261h-0.912c0-0.161-0.019-0.322-0.057-0.483l-0.549 0.654c0.528 0.348 0.791 0.766 0.791 1.254 0 0.348-0.115 0.626-0.345 0.839-0.231 0.211-0.529 0.316-0.895 0.316-0.37 0-0.674-0.101-0.912-0.306-0.237-0.205-0.356-0.492-0.356-0.863 0-0.366 0.157-0.731 0.47-1.096-0.708-0.371-1.061-0.856-1.061-1.455 0-0.437 0.137-0.786 0.413-1.047 0.275-0.262 0.644-0.393 1.104-0.393 0.575 0 1.05 0.189 1.426 0.564m-0.827 3.766c0.076-0.079 0.114-0.191 0.114-0.339 0-0.265-0.138-0.481-0.413-0.647-0.238 0.265-0.357 0.501-0.357 0.704 0 0.124 0.035 0.222 0.104 0.293s0.16 0.106 0.274 0.106c0.109 0 0.202-0.039 0.278-0.117m-0.98-3.282c-0.116 0.104-0.174 0.245-0.174 0.421 0 0.313 0.199 0.579 0.598 0.799l0.855-1.056c-0.242-0.214-0.508-0.32-0.798-0.32-0.204 0-0.364 0.051-0.481 0.156m8.519 1.867v0.813h-0.783v0.371c0 0.166 0.087 0.249 0.263 0.249 0.143 0 0.316-0.04 0.52-0.121v0.755c-0.232 0.119-0.503 0.178-0.812 0.178-0.599 0-0.898-0.292-0.898-0.877v-0.555h-0.506v-0.813h0.506v-2.829h0.927v2.829zm1.924-2.829v2.031c0 0.523 0.209 0.784 0.628 0.784 0.242 0 0.463-0.071 0.662-0.213l0.129 0.847c-0.224 0.186-0.471 0.279-0.742 0.279-0.323 0-0.548-0.135-0.677-0.407v0.321h-0.926v-3.642zm5.324 0v2.323c0 0.295-0.044 0.54-0.132 0.739-0.088 0.197-0.213 0.34-0.374 0.43-0.162 0.09-0.317 0.153-0.467 0.186-0.15 0.032-0.322 0.05-0.517 0.05-0.57 0-1.066-0.144-1.489-0.428l0.285-0.748c0.351 0.241 0.727 0.363 1.126 0.363 0.437 0 0.655-0.192 0.655-0.578v-0.185c-0.237 0.115-0.515 0.171-0.833 0.171-0.399 0-0.74-0.101-1.023-0.305-0.283-0.206-0.424-0.504-0.424-0.899 0-0.385 0.125-0.682 0.374-0.89 0.25-0.209 0.571-0.315 0.966-0.315 0.394 0 0.708 0.117 0.94 0.351v-0.265zm-2.128 0.834c-0.106 0.071-0.16 0.166-0.16 0.285 0 0.143 0.064 0.248 0.193 0.318 0.128 0.069 0.296 0.102 0.505 0.102 0.252 0 0.478-0.04 0.677-0.121v-0.392c-0.218-0.199-0.472-0.298-0.762-0.298-0.195 0-0.346 0.035-0.453 0.106m6.66-0.834v2.295c0 0.504-0.123 0.868-0.367 1.094-0.245 0.225-0.548 0.339-0.909 0.339-0.418 0-0.743-0.144-0.976-0.428v0.342h-0.926v-3.642h0.926v2.011c0 0.551 0.23 0.825 0.691 0.825 0.219 0 0.379-0.065 0.481-0.198s0.153-0.348 0.153-0.643v-1.995zm4.297 0v0.827h-1.867l1.874 2.11v0.705h-2.922v-0.827h1.746l-1.881-2.087v-0.728zm2.515 4.29c0.1 0.101 0.15 0.224 0.15 0.37 0 0.149-0.05 0.272-0.15 0.371-0.1 0.101-0.223 0.151-0.37 0.151-0.148 0-0.271-0.05-0.371-0.151-0.1-0.099-0.15-0.222-0.15-0.371 0-0.151 0.049-0.275 0.147-0.374 0.097-0.097 0.222-0.145 0.374-0.145 0.147 0 0.27 0.049 0.37 0.149m1.354 0c0.1 0.101 0.15 0.224 0.15 0.37 0 0.149-0.05 0.272-0.15 0.371-0.1 0.101-0.223 0.151-0.37 0.151-0.148 0-0.271-0.05-0.371-0.151-0.1-0.099-0.15-0.222-0.15-0.371 0-0.151 0.049-0.275 0.146-0.374 0.098-0.097 0.223-0.145 0.375-0.145 0.147 0 0.27 0.049 0.37 0.149m0.627-2.473c0 0.589-0.151 1.055-0.452 1.398-0.302 0.342-0.709 0.513-1.222 0.513s-0.921-0.171-1.223-0.513c-0.301-0.343-0.452-0.809-0.452-1.398 0-0.593 0.15-1.058 0.449-1.397 0.299-0.337 0.708-0.506 1.226-0.506 0.517 0 0.926 0.169 1.225 0.506 0.3 0.339 0.449 0.804 0.449 1.397m-2.22-0.741c-0.135 0.182-0.203 0.429-0.203 0.741 0 0.315 0.068 0.563 0.203 0.746 0.136 0.182 0.318 0.273 0.546 0.273 0.232 0 0.415-0.09 0.548-0.271 0.133-0.179 0.2-0.429 0.2-0.748 0-0.318-0.067-0.566-0.2-0.745-0.133-0.177-0.316-0.266-0.548-0.266-0.228 0-0.41 0.09-0.546 0.27m5.712-0.873c0.257 0.193 0.385 0.464 0.385 0.817 0 0.328-0.105 0.581-0.314 0.758-0.209 0.178-0.503 0.329-0.883 0.452-0.475 0.143-0.713 0.291-0.713 0.443 0 0.181 0.154 0.27 0.463 0.27 0.257 0 0.494-0.101 0.713-0.305l0.62 0.506c-0.338 0.388-0.782 0.584-1.333 0.584-0.38 0-0.696-0.092-0.948-0.275-0.251-0.182-0.377-0.433-0.377-0.752 0-0.299 0.1-0.538 0.299-0.716 0.2-0.178 0.515-0.339 0.948-0.48 0.247-0.096 0.419-0.176 0.516-0.239 0.098-0.065 0.147-0.147 0.147-0.246 0-0.214-0.183-0.322-0.549-0.322-0.309 0-0.594 0.131-0.855 0.393l-0.613-0.521c0.142-0.199 0.347-0.359 0.613-0.476 0.266-0.119 0.546-0.18 0.841-0.18 0.437 0 0.783 0.098 1.04 0.289m2.487 4.024c0.104 0.103 0.157 0.232 0.157 0.384 0 0.153-0.053 0.28-0.157 0.381-0.105 0.103-0.233 0.154-0.385 0.154s-0.28-0.052-0.385-0.158c-0.104-0.103-0.156-0.229-0.156-0.377 0-0.147 0.053-0.275 0.16-0.382s0.234-0.16 0.381-0.16c0.152 0 0.28 0.052 0.385 0.158m0.078-0.585h-0.926v-3.642h0.926zm3.677-3.439c0.257 0.193 0.385 0.464 0.385 0.817 0 0.328-0.104 0.581-0.313 0.758-0.209 0.178-0.504 0.329-0.884 0.452-0.475 0.143-0.713 0.291-0.713 0.443 0 0.181 0.155 0.27 0.464 0.27 0.256 0 0.494-0.101 0.712-0.305l0.62 0.506c-0.337 0.388-0.781 0.584-1.332 0.584-0.381 0-0.696-0.092-0.948-0.275-0.252-0.182-0.378-0.433-0.378-0.752 0-0.299 0.1-0.538 0.299-0.716 0.2-0.178 0.516-0.339 0.948-0.48 0.247-0.096 0.419-0.176 0.517-0.239 0.097-0.065 0.146-0.147 0.146-0.246 0-0.214-0.183-0.322-0.549-0.322-0.309 0-0.594 0.131-0.855 0.393l-0.613-0.521c0.143-0.199 0.347-0.359 0.613-0.476 0.266-0.119 0.546-0.18 0.841-0.18 0.437 0 0.784 0.098 1.04 0.289m4.604 0.866-0.884 0.264c-0.109-0.352-0.323-0.527-0.641-0.527-0.214 0-0.387 0.091-0.52 0.274s-0.2 0.429-0.2 0.737c0 0.309 0.068 0.556 0.203 0.742 0.136 0.185 0.315 0.277 0.538 0.277 0.29 0 0.494-0.156 0.613-0.47l0.884 0.292c-0.228 0.713-0.734 1.07-1.518 1.07-0.504 0-0.906-0.171-1.208-0.513-0.302-0.343-0.453-0.809-0.453-1.398 0-0.593 0.15-1.058 0.449-1.397 0.3-0.337 0.703-0.506 1.212-0.506 0.793 0 1.301 0.386 1.525 1.155m2.18-1.069v2.045c0 0.528 0.231 0.791 0.692 0.791 0.422 0 0.634-0.268 0.634-0.805v-2.031h0.926v2.295c0 0.504-0.122 0.868-0.367 1.094-0.245 0.225-0.547 0.339-0.908 0.339-0.419 0-0.744-0.144-0.977-0.428v1.846l-0.94-0.428v-4.718zm6.521 0.527-0.57 0.578c-0.2-0.251-0.461-0.377-0.784-0.377-0.209 0-0.389 0.064-0.538 0.196-0.15 0.13-0.234 0.309-0.253 0.537h2.373c0.019 0.134 0.028 0.316 0.028 0.55 0 0.559-0.15 0.986-0.449 1.278s-0.686 0.439-1.161 0.439c-0.523 0-0.937-0.171-1.244-0.513-0.306-0.343-0.46-0.806-0.46-1.391 0-0.597 0.152-1.065 0.457-1.404 0.304-0.337 0.719-0.506 1.247-0.506 0.565 0 1.016 0.205 1.354 0.613m-1.354 2.388c0.19 0 0.348-0.06 0.474-0.179 0.125-0.118 0.203-0.282 0.231-0.491h-1.489c0.057 0.446 0.318 0.67 0.784 0.67m7.942-2.594c0.339 0.271 0.509 0.641 0.509 1.112 0 0.171-0.021 0.329-0.064 0.473-0.043 0.146-0.113 0.272-0.21 0.378-0.098 0.108-0.19 0.198-0.278 0.275-0.088 0.076-0.21 0.149-0.367 0.22-0.157 0.072-0.281 0.124-0.371 0.158-0.09 0.033-0.218 0.078-0.384 0.134-0.214 0.073-0.371 0.127-0.471 0.168-0.1 0.04-0.197 0.101-0.292 0.178-0.096 0.078-0.142 0.167-0.142 0.268 0 0.151 0.058 0.269 0.173 0.352 0.117 0.083 0.28 0.125 0.489 0.125 0.414 0 0.699-0.176 0.855-0.527l0.862 0.284c-0.094 0.343-0.289 0.62-0.581 0.834-0.292 0.215-0.651 0.321-1.08 0.321-0.517 0-0.928-0.132-1.232-0.395-0.304-0.264-0.456-0.59-0.456-0.981 0-0.189 0.035-0.362 0.103-0.515 0.07-0.156 0.147-0.279 0.232-0.371 0.086-0.092 0.212-0.185 0.378-0.275s0.3-0.154 0.403-0.192c0.102-0.038 0.253-0.09 0.452-0.157 0.176-0.056 0.308-0.104 0.396-0.138 0.087-0.036 0.188-0.085 0.302-0.147 0.115-0.061 0.195-0.131 0.243-0.207 0.047-0.076 0.071-0.164 0.071-0.263 0-0.195-0.072-0.344-0.217-0.45-0.145-0.103-0.342-0.156-0.588-0.156-0.238 0-0.452 0.071-0.642 0.213-0.19 0.144-0.339 0.333-0.449 0.571l-0.877-0.328c0.144-0.428 0.386-0.762 0.728-1.005 0.342-0.242 0.746-0.364 1.211-0.364 0.522 0 0.954 0.137 1.294 0.407m4.55 0.108c0.28 0.342 0.42 0.804 0.42 1.388 0 0.603-0.137 1.074-0.411 1.409-0.272 0.335-0.636 0.502-1.093 0.502-0.337 0-0.598-0.117-0.783-0.35v0.264h-0.927v-5.067l0.927 0.42v1.27c0.185-0.234 0.444-0.351 0.776-0.351 0.447 0 0.809 0.172 1.091 0.515m-1.867 0.676v1.439c0.147 0.195 0.358 0.292 0.634 0.292 0.233 0 0.411-0.091 0.537-0.273 0.126-0.183 0.19-0.431 0.19-0.746 0-0.323-0.064-0.572-0.19-0.748-0.126-0.175-0.304-0.263-0.537-0.263-0.3 0-0.511 0.099-0.634 0.299m4.47-1.105v2.031c0 0.523 0.209 0.784 0.628 0.784 0.243 0 0.463-0.071 0.663-0.213l0.128 0.847c-0.223 0.186-0.47 0.279-0.741 0.279-0.323 0-0.549-0.135-0.678-0.407v0.321h-0.925v-3.642zm5.325 0v2.323c0 0.295-0.044 0.54-0.132 0.739-0.088 0.197-0.213 0.34-0.374 0.43-0.162 0.09-0.318 0.153-0.467 0.186-0.15 0.032-0.322 0.05-0.518 0.05-0.569 0-1.065-0.144-1.488-0.428l0.284-0.748c0.352 0.241 0.728 0.363 1.126 0.363 0.438 0 0.657-0.192 0.657-0.578v-0.185c-0.238 0.115-0.516 0.171-0.834 0.171-0.399 0-0.741-0.101-1.023-0.305-0.283-0.206-0.425-0.504-0.425-0.899 0-0.385 0.125-0.682 0.374-0.89 0.25-0.209 0.572-0.315 0.967-0.315 0.394 0 0.708 0.117 0.941 0.351v-0.265zm-2.127 0.834c-0.108 0.071-0.161 0.166-0.161 0.285 0 0.143 0.064 0.248 0.193 0.318 0.128 0.069 0.296 0.102 0.506 0.102 0.251 0 0.476-0.04 0.677-0.121v-0.392c-0.219-0.199-0.473-0.298-0.763-0.298-0.195 0-0.346 0.035-0.452 0.106m6.488 0.235-0.884 0.264c-0.109-0.352-0.323-0.527-0.641-0.527-0.214 0-0.387 0.091-0.52 0.274-0.134 0.183-0.2 0.429-0.2 0.737 0 0.309 0.068 0.556 0.203 0.742 0.136 0.185 0.314 0.277 0.538 0.277 0.29 0 0.494-0.156 0.612-0.47l0.885 0.292c-0.228 0.713-0.734 1.07-1.518 1.07-0.504 0-0.907-0.171-1.208-0.513-0.302-0.343-0.454-0.809-0.454-1.398 0-0.593 0.151-1.058 0.45-1.397 0.3-0.337 0.703-0.506 1.212-0.506 0.793 0 1.3 0.386 1.525 1.155m2.19-1.069v2.045c0 0.528 0.23 0.791 0.692 0.791 0.422 0 0.634-0.268 0.634-0.805v-2.031h0.926v2.295c0 0.504-0.122 0.868-0.367 1.094-0.245 0.225-0.547 0.339-0.909 0.339-0.419 0-0.744-0.144-0.976-0.428v1.846l-0.94-0.428v-4.718zm5.587 2.587 1.069 1.055h-1.112l-0.98-0.991v2.495l-0.93-0.436v-4.71h0.927v1.597l0.34 0.328 1-1.925h1.012zm5.48-2.587v3.642h-0.927v-2.009c0-0.552-0.23-0.827-0.691-0.827-0.219 0-0.379 0.067-0.481 0.203s-0.154 0.347-0.154 0.637v1.996h-0.925v-2.294c0-0.499 0.123-0.863 0.37-1.09 0.247-0.229 0.548-0.344 0.905-0.344 0.423 0 0.749 0.144 0.976 0.429v-0.343zm2.387 0v5.146l-0.93-0.436v-4.71zm3.335 0.078 0.106 0.807c-0.203-0.106-0.403-0.157-0.598-0.157-0.171 0-0.256 0.094-0.256 0.285v1.816h0.811v0.813h-0.811v1.504l-0.94-0.443v-1.061h-0.521v-0.813h0.521v-1.952c0-0.642 0.294-0.963 0.883-0.963 0.299 0 0.562 0.056 0.791 0.164m4.42-0.078v3.642h-0.926v-2.009c0-0.552-0.231-0.827-0.691-0.827-0.219 0-0.379 0.067-0.481 0.203s-0.153 0.347-0.153 0.637v1.996h-0.93v-2.294c0-0.499 0.124-0.863 0.371-1.09 0.247-0.229 0.548-0.344 0.904-0.344 0.424 0 0.748 0.144 0.977 0.429v-0.343zm2.352 0v2.031c0 0.523 0.209 0.784 0.627 0.784 0.241 0 0.463-0.071 0.662-0.213l0.129 0.847c-0.223 0.186-0.47 0.279-0.741 0.279-0.323 0-0.549-0.135-0.677-0.407v0.321h-0.926v-3.642z"
             fill="#1d1d1b"
             id="path85" /></g><g
           transform="translate(19.812,13.896)"
           id="g91"><path
             stroke-width="0"
             d="m0 0-2.387 6.235h-1.176l-2.387-6.235h1.291l0.481 1.292h2.405l0.481-1.292zm-3.786 2.388 0.615 1.621c0.095 0.237 0.16 0.425 0.196 0.561 0.035-0.136 0.101-0.324 0.196-0.561l0.614-1.621zm10.6-2.388-2.2 4 1.817 2.235h-1.425l-2.36-2.974v2.974h-1.203v-6.235h1.203v1.56l1.158 1.424 1.603-2.984zm5.612 5.077v1.158h-4.766v-1.158h1.782v-5.077h1.203v5.077zm2.806 1.158h-1.203v-6.235h1.203zm4.703-6.235l2.2 6.235h-1.282l-1.372-4.079c-0.054-0.178-0.092-0.321-0.116-0.427-0.048 0.177-0.089 0.321-0.125 0.427l-1.372 4.079h-1.3l2.209-6.235zm7.937 0v1.141h-3.243v1.505h1.8v1.14h-1.8v1.31h3.056v1.139h-4.258v-6.235zm9.691 0-2.2 4 1.817 2.235h-1.425l-2.361-2.974v2.974h-1.202v-6.235h1.202v1.56l1.158 1.424 1.604-2.984zm2.717 0v2.325h1.256l1.167-2.325h1.354l-1.212 2.485c0.386 0.137 0.685 0.376 0.895 0.717 0.211 0.342 0.317 0.702 0.317 1.083 0 0.57-0.165 1.037-0.495 1.403-0.329 0.366-0.859 0.547-1.59 0.547h-2.895v-6.235zm0 5.096h1.71c0.291 0 0.5-0.077 0.628-0.232s0.192-0.347 0.192-0.579c0-0.237-0.066-0.433-0.196-0.588-0.131-0.155-0.339-0.231-0.624-0.231h-1.71zm9.958-5.096v1.141h-3.242v1.505h1.799v1.14h-1.799v1.31h3.055v1.139h-4.258v-6.235zm7.171 0-2.387 6.235h-1.176l-2.387-6.235h1.291l0.481 1.292h2.405l0.481-1.292zm-3.786 2.388 0.615 1.621c0.095 0.237 0.16 0.425 0.196 0.561 0.035-0.136 0.101-0.324 0.196-0.561l0.614-1.621zm8.792 2.689v1.158h-4.766v-1.158h1.782v-5.077h1.203v5.077zm2.806 1.158h-1.203v-6.235h1.203zm4.703-6.235l2.2 6.235h-1.282l-1.372-4.079c-0.054-0.178-0.092-0.321-0.116-0.427-0.048 0.177-0.089 0.321-0.125 0.427l-1.372 4.079h-1.3l2.209-6.235zm5.692 3.189h-2.334v-1.113h2.334zm3.928-3.189 0.918 3.68c0.041 0.141 0.071 0.297 0.089 0.463 0.017-0.161 0.047-0.319 0.089-0.473l0.944-3.67h1.122l1.345 6.235h-1.229l-0.695-3.508c-0.029-0.125-0.056-0.28-0.08-0.463-0.024 0.177-0.053 0.335-0.089 0.471l-0.873 3.5h-1.042l-0.855-3.5c-0.036-0.136-0.066-0.294-0.089-0.471-0.024 0.183-0.051 0.338-0.08 0.463l-0.695 3.508h-1.238l1.336-6.235zm10.377 0v1.141h-3.242v1.505h1.799v1.14h-1.799v1.31h3.055v1.139h-4.258v-6.235zm2.851 0v2.325h1.256l1.167-2.325h1.354l-1.212 2.485c0.386 0.137 0.684 0.376 0.895 0.717 0.211 0.342 0.317 0.702 0.317 1.083 0 0.57-0.165 1.037-0.495 1.403-0.329 0.366-0.859 0.547-1.59 0.547h-2.895v-6.235zm0 5.096h1.71c0.291 0 0.5-0.077 0.628-0.232s0.191-0.347 0.191-0.579c0-0.237-0.065-0.433-0.196-0.588-0.13-0.155-0.338-0.231-0.623-0.231h-1.71zm10.888-5.096l-2.201 4 1.818 2.235h-1.426l-2.361-2.974v2.974h-1.203v-6.235h1.203v1.56l1.162 1.424 1.6-2.984zm4.93 0.401c0.424 0.338 0.637 0.802 0.637 1.389 0 0.214-0.027 0.412-0.08 0.594-0.054 0.18-0.141 0.338-0.263 0.471-0.122 0.134-0.238 0.249-0.347 0.343-0.11 0.095-0.263 0.188-0.459 0.277-0.196 0.088-0.351 0.153-0.463 0.195-0.113 0.041-0.274 0.099-0.481 0.17-0.268 0.089-0.464 0.158-0.588 0.21-0.125 0.05-0.247 0.124-0.366 0.221-0.118 0.098-0.178 0.21-0.178 0.334 0 0.19 0.073 0.337 0.219 0.442 0.145 0.103 0.348 0.155 0.61 0.155 0.516 0 0.873-0.22 1.069-0.659l1.077 0.356c-0.118 0.428-0.36 0.776-0.726 1.042-0.365 0.268-0.815 0.402-1.349 0.402-0.647 0-1.161-0.165-1.541-0.494-0.38-0.33-0.57-0.739-0.57-1.226 0-0.237 0.043-0.453 0.129-0.645 0.086-0.194 0.183-0.347 0.289-0.463 0.107-0.117 0.265-0.231 0.473-0.343 0.207-0.113 0.375-0.193 0.503-0.24 0.128-0.048 0.316-0.114 0.566-0.197 0.219-0.072 0.384-0.13 0.494-0.173 0.11-0.045 0.236-0.107 0.378-0.184 0.143-0.076 0.244-0.162 0.303-0.258 0.06-0.095 0.089-0.205 0.089-0.33 0-0.242-0.09-0.43-0.271-0.561-0.181-0.129-0.426-0.196-0.735-0.196-0.297 0-0.564 0.089-0.802 0.269-0.237 0.177-0.424 0.415-0.561 0.712l-1.096-0.41c0.178-0.535 0.481-0.954 0.909-1.256 0.427-0.303 0.932-0.454 1.514-0.454 0.653 0 1.192 0.168 1.617 0.507m6.694 4.676v1.158h-4.766v-1.158h1.79v-5.077h1.202v5.077zm6.19-5.077-2.39 6.235h-1.175l-2.37-6.235h1.292l0.481 1.292h2.405l0.49-1.292zm-3.786 2.388 0.615 1.621c0.095 0.237 0.16 0.425 0.196 0.561 0.035-0.136 0.1-0.324 0.196-0.561l0.614-1.621zm8.792 2.689v1.158h-4.766v-1.158h1.782v-5.077h1.202v5.077zm5.923 0v1.158h-4.765v-1.158h1.781v-5.077h1.203v5.077z"
             fill="#1d1d1b"
             id="path89" /></g></g></g></g></svg>