<?xml version="1.0" encoding="utf-8"?>
<!-- Generator: Adobe Illustrator 21.0.0, SVG Export Plug-In . SVG Version: 6.00 Build 0)  -->
<svg version="1.1" id="Ebene_1" xmlns="http://www.w3.org/2000/svg" xmlns:xlink="http://www.w3.org/1999/xlink" x="0px" y="0px"
	 viewBox="0 0 362.3 330.8" style="enable-background:new 0 0 362.3 330.8;" xml:space="preserve">
<style type="text/css">
	.st0{fill:#BD0C70;}
	.st1{fill:#D0BC31;}
	.st2{fill:#1B1B19;}
</style>
<g>
	<g>
		<g>
			<path class="st0" d="M180.8,2C114.4,2,60.4,56,60.4,122.4s54,120.4,120.4,120.4s120.4-54,120.4-120.4S247.2,2,180.8,2
				 M180.8,244.8c-67.5,0-122.4-54.9-122.4-122.4S113.3,0,180.8,0s122.4,54.9,122.4,122.4S248.3,244.8,180.8,244.8"/>
			<path class="st1" d="M220.2,195.7L197,117c0,0,0-0.1,0-0.1l8.4-6.3l-10.4-8.4V77h-2.8v2h-3.5v-2h-2.8v2h-3.3v-5.6
				c2.1-0.6,3.7-2.6,3.7-4.9c0-2.3-1.6-4.3-3.7-4.9v-4.8c1.3-0.6,2.2-1.9,2.2-3.4c0-1.5-0.9-2.8-2.2-3.4v-4.8h-2.8v4.8
				c-1.3,0.6-2.2,1.9-2.2,3.4c0,1.5,0.9,2.8,2.2,3.4v4.8c-2.1,0.6-3.7,2.6-3.7,4.9c0,2.3,1.6,4.3,3.7,4.9V79h-3.8v-2H173v2h-3.5v-2
				h-2.8v25.3l-10.4,8.4l8.4,6.3c0,0,0,0.1,0,0.1l-23.2,78.7c-0.2,0.7,0.1,1.4,0.7,1.7c0.2,0.1,0.4,0.2,0.6,0.2
				c0.4,0,0.9-0.2,1.1-0.6l26-34.1v32.7c0,0.7,0.6,1.3,1.3,1.4c0,0,0.1,0,0.1,0c0.7,0,1.3-0.5,1.4-1.1l8.2-41.3l8.2,41.3
				c0.1,0.7,0.7,1.1,1.4,1.1c0,0,0.1,0,0.1,0c0,0,0,0,0,0c0,0,0,0,0,0c0.1,0,0.2,0,0.3,0c1-0.2,0.9-2.5,0.9-2.5v-31.6l26,34.1
				c0.3,0.4,0.7,0.6,1.1,0.6c0.2,0,0.4-0.1,0.6-0.2C220.1,197,220.4,196.3,220.2,195.7 M178.1,147.3l-5.5,7.2v-7.2H178.1z
				 M169.5,95.3h3.5v13.3h-3.5V95.3z M169.5,111.5h3.5v15.9h-3.5V111.5z M173,92.5h-3.5V81.9h3.5V92.5z M166.6,105.9v9l-5.8-4.3
				L166.6,105.9z M166.6,120.1v7.3h-2.2L166.6,120.1z M163.6,130.2h3v14.2h-7.2L163.6,130.2z M169.8,158.2l-23.6,30.9l12.4-41.8
				h11.2V158.2z M169.5,130.2h3.5v14.2h-3.5V130.2z M172.6,181.1v-21.9l5.8-7.7L172.6,181.1z M179.6,144.4h-3.8v-14.2h3.8V144.4z
				 M179.6,127.4h-3.8v-15.9h3.8V127.4z M179.6,108.7h-3.8V95.3h3.8V108.7z M179.6,92.5h-3.8V81.9h3.8V92.5z M194.9,105.9l5.8,4.7
				l-5.8,4.3V105.9z M194.9,120.1l2.2,7.3h-2.2V120.1z M194.9,130.2h3l4.2,14.2h-7.2V130.2z M188.6,81.9h3.5v10.6h-3.5V81.9z
				 M188.6,95.3h3.5v13.3h-3.5V95.3z M188.6,111.5h3.5v15.9h-3.5V111.5z M182.5,81.9h3.3v10.6h-3.3V81.9z M182.5,95.3h3.3v13.3h-3.3
				V95.3z M182.5,111.5h3.3v15.9h-3.3V111.5z M182.5,130.2h3.3v14.2h-3.3V130.2z M188.9,180.1l-5.6-28.3l5.6,7.3V180.1z
				 M188.9,154.5l-5.5-7.2h5.5V154.5z M188.6,130.2h3.5v14.2h-3.5V130.2z M191.7,158.2v-10.9H203l12.4,41.8L191.7,158.2z"/>
			<path class="st0" d="M281.8,132.3c-4.9,50.3-46.7,90-97.9,91.6l-3.1-10.6l-3.1,10.6c-51.2-1.6-93-41.2-97.9-91.6l10.2-3
				l-10.6-3.1c0-1.3-0.1-2.6-0.1-3.8c0-54.9,43.9-99.8,98.4-101.5l3.1,10.6l3.1-10.6c54.6,1.7,98.4,46.5,98.4,101.5
				c0,1.3,0,2.6-0.1,3.8l-10.6,3.1L281.8,132.3z M180.8,7.8c-63.2,0-114.5,51.4-114.5,114.5s51.4,114.5,114.5,114.5
				s114.5-51.4,114.5-114.5S243.9,7.8,180.8,7.8"/>
		</g>
	</g>
	<g>
		<path class="st2" d="M0,329.8v-47.5h19.1v6.9H7.3v12.4h8.5v6.9H7.3v21.3H0z"/>
		<path class="st2" d="M20.7,329.8v-35h6.6v4.8c0.8-1.7,1.8-3,3-3.9c1.2-0.9,2.5-1.3,3.9-1.3h0.7v7.3c-0.3-0.2-0.6-0.3-1-0.3
			c-0.3-0.1-0.7-0.1-1.1-0.1c-1.7,0-3,0.5-4,1.5c-1,1-1.5,2.4-1.5,4.1v22.9H20.7z"/>
		<path class="st2" d="M37.7,319.9v-15.7c0-3,0.9-5.5,2.8-7.4c1.8-1.9,4.2-2.9,7.1-2.9c3,0,5.3,0.9,6.9,2.7c1.6,1.8,2.4,4.3,2.4,7.7
			v8.9H44.5v6.6c0,1.8,0.2,3.1,0.6,3.8c0.4,0.7,1.2,1.1,2.2,1.1c1.1,0,1.8-0.3,2.2-0.9c0.4-0.6,0.6-1.9,0.6-4v-2.4h6.7v2.6
			c0,3.6-0.8,6.3-2.4,8.1c-1.6,1.8-4.1,2.7-7.3,2.7c-2.9,0-5.2-1-6.9-2.9C38.6,325.9,37.7,323.3,37.7,319.9z M44.5,307.6h5.7v-3.5
			c0-1.5-0.2-2.5-0.7-3.2c-0.4-0.6-1.2-1-2.2-1c-1,0-1.8,0.3-2.2,1c-0.4,0.6-0.7,1.7-0.7,3.2V307.6z"/>
		<path class="st2" d="M62.3,288.8v-6.5H69v6.5H62.3z M62.3,329.8v-35H69v35H62.3z"/>
		<path class="st2" d="M76.1,329.8v-29.6h-3.7v-5.5h3.7v-4.1c0-2.8,0.6-4.9,1.9-6.3c1.3-1.4,3.2-2.1,5.7-2.1c0.7,0,1.3,0,1.9,0.1
			c0.6,0.1,1.2,0.2,1.8,0.4v5.7c-0.5-0.1-0.8-0.2-1.2-0.2s-0.5-0.1-0.6-0.1c-1.1,0-1.9,0.2-2.4,0.7c-0.5,0.5-0.7,1.2-0.7,2.3v3.6
			h4.2v5.5h-4.2v29.6H76.1z"/>
		<path class="st2" d="M109.4,294.7v35h-6.5v-3.8c-1.2,1.4-2.5,2.5-3.8,3.3s-2.6,1.1-3.8,1.1c-1.5,0-2.6-0.5-3.4-1.6
			c-0.8-1-1.1-2.6-1.1-4.7v-29.3h6.5v26.9c0,0.8,0.1,1.4,0.4,1.8c0.3,0.4,0.7,0.6,1.3,0.6c0.5,0,1.1-0.2,1.8-0.7
			c0.7-0.5,1.4-1.1,2-1.9v-26.6H109.4z"/>
		<path class="st2" d="M115.8,329.8v-35h6.6v3.8c1.2-1.4,2.4-2.5,3.7-3.2c1.3-0.7,2.5-1.1,3.7-1.1c1.5,0,2.7,0.5,3.4,1.5
			c0.8,1,1.1,2.6,1.1,4.6v29.3h-6.5v-26.4c0-1.1-0.1-1.8-0.4-2.2c-0.3-0.4-0.7-0.6-1.4-0.6c-0.5,0-1.1,0.2-1.8,0.7
			c-0.7,0.5-1.4,1.1-2,1.9v26.6H115.8z"/>
		<path class="st2" d="M140.6,329.8v-47.5h6.6v25.3l6-12.8h7l-6.5,11.8l6.9,23.3H154l-4.6-17.3l-2.2,4.1v13.2H140.6z"/>
		<path class="st2" d="M177.3,317.6v-24.3c0-3.7,1-6.7,3.1-8.8c2-2.1,4.9-3.2,8.4-3.2c3.4,0,6.1,1.1,8.1,3.3c2,2.2,3,5.2,3,8.9v4.6
			h-7.5v-5.2c0-1.6-0.3-2.9-1-3.7c-0.6-0.8-1.6-1.2-2.8-1.2s-2.2,0.4-2.8,1.2c-0.6,0.8-1,2.1-1,3.7v26.5c0,1.6,0.3,2.9,1,3.7
			c0.6,0.8,1.6,1.2,2.8,1.2s2.2-0.4,2.8-1.2c0.6-0.8,1-2.1,1-3.7v-6.5h7.5v5c0,4.2-1,7.4-2.9,9.6c-2,2.3-4.7,3.4-8.4,3.4
			c-3.7,0-6.5-1.1-8.4-3.4C178.3,325.2,177.3,321.9,177.3,317.6z"/>
		<path class="st2" d="M224,294.7v35h-6.5v-3.8c-1.2,1.4-2.5,2.5-3.8,3.3c-1.3,0.7-2.6,1.1-3.8,1.1c-1.5,0-2.6-0.5-3.4-1.6
			c-0.8-1-1.1-2.6-1.1-4.7v-29.3h6.5v26.9c0,0.8,0.1,1.4,0.4,1.8c0.3,0.4,0.7,0.6,1.3,0.6c0.5,0,1.1-0.2,1.8-0.7
			c0.7-0.5,1.4-1.1,2-1.9v-26.6H224z"/>
		<path class="st2" d="M227.1,329.8l6.7-18.3l-6.2-16.8h6.5l3.2,9.4h0.3l3.1-9.4h6.7l-6.4,16.6l6.7,18.4h-6.4l-3.7-10.8h-0.3
			l-3.8,10.8H227.1z"/>
		<path class="st2" d="M250.8,329.8v-47.5h6.6v16.3c1.2-1.4,2.4-2.5,3.7-3.2c1.3-0.7,2.5-1.1,3.7-1.1c1.5,0,2.7,0.5,3.4,1.5
			c0.8,1,1.1,2.6,1.1,4.6v29.3h-6.5v-26.4c0-1.1-0.1-1.8-0.4-2.2c-0.3-0.4-0.7-0.6-1.4-0.6c-0.5,0-1.1,0.2-1.8,0.7
			c-0.7,0.5-1.4,1.1-2,1.9v26.6H250.8z"/>
		<path class="st2" d="M287,325.8c-1,1.4-2.2,2.5-3.4,3.3c-1.3,0.8-2.6,1.1-3.9,1.1c-1.8,0-3.2-0.7-4.2-2c-1-1.3-1.5-3.2-1.5-5.7
			c0-3.2,0.9-6,2.7-8.3c1.8-2.3,5.2-4.7,10.1-7.3v-3.8c0-1.1-0.2-1.9-0.6-2.4c-0.4-0.5-0.9-0.8-1.6-0.8c-0.9,0-1.6,0.3-2.2,0.8
			c-0.5,0.5-0.8,1.2-0.8,2.2v1.9h-6.6c0-0.1,0-0.3,0-0.5c0-0.2,0-0.4,0-0.5c0-2.9,0.9-5.3,2.8-7.2c1.9-1.9,4.2-2.8,7-2.8
			c3,0,5.2,0.9,6.6,2.7c1.4,1.8,2.2,4.6,2.2,8.3v14.9c0,2.3,0.1,4.4,0.2,6.1s0.3,3,0.5,3.9h-6.5c-0.2-0.5-0.3-1-0.4-1.6
			S287.1,326.8,287,325.8z M286.8,321V312c-2.3,1.5-3.9,2.9-4.8,4.2c-0.9,1.3-1.3,2.9-1.3,4.7c0,1.1,0.2,1.9,0.5,2.5
			c0.3,0.6,0.8,0.9,1.5,0.9c0.8,0,1.5-0.3,2.3-0.9C285.8,322.8,286.4,322,286.8,321z"/>
		<path class="st2" d="M296.4,294.7h6l4,21.6h0.3l3.3-21.6h6.4l-6.8,35h-6L296.4,294.7z"/>
		<path class="st2" d="M319,319.9v-15.7c0-3,0.9-5.5,2.8-7.4c1.8-1.9,4.2-2.9,7.1-2.9c3,0,5.3,0.9,6.9,2.7c1.6,1.8,2.4,4.3,2.4,7.7
			v8.9h-12.4v6.6c0,1.8,0.2,3.1,0.6,3.8c0.4,0.7,1.2,1.1,2.2,1.1c1.1,0,1.8-0.3,2.2-0.9c0.4-0.6,0.6-1.9,0.6-4v-2.4h6.7v2.6
			c0,3.6-0.8,6.3-2.4,8.1c-1.6,1.8-4.1,2.7-7.3,2.7c-2.9,0-5.2-1-6.9-2.9C319.9,325.9,319,323.3,319,319.9z M325.8,307.6h5.7v-3.5
			c0-1.5-0.2-2.5-0.7-3.2c-0.4-0.6-1.2-1-2.2-1c-1,0-1.8,0.3-2.2,1c-0.4,0.6-0.7,1.7-0.7,3.2V307.6z"/>
		<path class="st2" d="M343.6,329.8v-35h6.6v3.8c1.2-1.4,2.4-2.5,3.7-3.2c1.3-0.7,2.5-1.1,3.7-1.1c1.5,0,2.7,0.5,3.4,1.5
			c0.8,1,1.1,2.6,1.1,4.6v29.3h-6.5v-26.4c0-1.1-0.1-1.8-0.4-2.2c-0.3-0.4-0.7-0.6-1.4-0.6c-0.5,0-1.1,0.2-1.8,0.7
			c-0.7,0.5-1.4,1.1-2,1.9v26.6H343.6z"/>
	</g>
</g>
</svg>
