<?xml version="1.0" encoding="utf-8"?>
<!-- Generator: Adobe Illustrator 21.1.0, SVG Export Plug-In . SVG Version: 6.00 Build 0)  -->
<svg version="1.1" id="Ebene_1" xmlns="http://www.w3.org/2000/svg" xmlns:xlink="http://www.w3.org/1999/xlink" x="0px" y="0px"
	 viewBox="0 0 166.6 99.7" style="enable-background:new 0 0 166.6 99.7;" xml:space="preserve">
<style type="text/css">
	.st0{fill:#846FA5;}
	.st1{fill:#D2E5BF;}
</style>
<g>
	<g>
		<path d="M115.2,30.8c-0.1,0-0.3,0.2-0.7,1.2c-0.3,0.8-0.8,1.8-1.2,3c-0.4,1.2-0.9,2.5-1.4,4c-0.4,1.2-0.8,2.5-1.2,3.7
			c0.2-0.4,0.5-0.9,0.9-1.5c0.5-0.8,1-1.8,1.5-2.9c0.5-1.1,1-2.2,1.4-3.4c0.4-1.2,0.7-2.3,0.8-3.5c0-0.1,0-0.3,0-0.3
			C115.2,31,115.2,30.9,115.2,30.8C115.2,30.8,115.2,30.8,115.2,30.8 M141.4,27.5c-0.1,0-0.1,0-0.2,0c-0.2,0-0.4,0.1-0.6,0.3v0
			c-0.2,0.2-0.3,0.3-0.4,0.5l-0.6,1.1c-0.3,0.6-0.8,1.3-1.3,2.2c-0.5,0.9-1.1,2-1.8,3.2c-0.7,1.2-1.4,2.5-2.2,3.9
			c-0.8,1.4-1.6,2.8-2.4,4.4c-0.8,1.4-1.6,2.9-2.4,4.4c1.9-1.4,3.6-2.9,5.1-4.4c1.5-1.5,2.9-3.1,3.9-4.5c1.1-1.5,1.9-2.9,2.6-4.2
			c0.6-1.4,1-2.6,1.2-3.7l0,0c0,0,0-0.1,0.1-0.6c0-0.4,0-0.8-0.1-1.2c0-0.1-0.1-0.3-0.1-0.5c-0.1-0.1-0.1-0.3-0.2-0.4
			c-0.1-0.1-0.2-0.2-0.3-0.3C141.6,27.6,141.5,27.5,141.4,27.5 M45.2,50.4c0.2,0.1,0.4,0.3,0.5,0.4h0c0.2,0.1,0.4,0.3,0.7,0.4
			c0.5,0.3,1.1,0.4,1.8,0.5c0.7,0.1,1.5,0.1,2.3-0.1c0.8-0.1,1.4-0.4,1.9-0.7c0.5-0.3,0.9-0.6,1.3-1c0.3-0.3,0.5-0.6,0.7-0.9
			c0.2-0.3,0.2-0.4,0.2-0.4c0.1-0.2,0.2-0.5,0.2-0.8c0-0.3,0-0.6,0-0.9c0-0.2-0.1-0.4-0.2-0.6c-0.1-0.2-0.2-0.4-0.4-0.5
			c-0.2-0.1-0.4-0.2-0.7-0.3c-0.3,0-0.7,0-1.1,0c-0.5,0.1-1,0.3-1.6,0.5c-0.6,0.3-1.2,0.6-1.8,1c-0.6,0.4-1.3,0.9-1.9,1.4
			C46.5,49.2,45.8,49.8,45.2,50.4 M54.6,53.4c-0.1,0-0.2,0.2-0.2,0.4l0,0c0,0,0,0,0,0.1c0,0.2,0.1,0.3,0.2,0.5
			c0.1,0.1,0.2,0.2,0.3,0.3c0.1-0.3,0.1-0.5,0.1-0.6c0-0.2,0-0.3,0-0.4c0-0.1-0.1-0.2-0.1-0.3C54.8,53.4,54.7,53.4,54.6,53.4
			 M67.6,56.4l0.6,0.1c0.3,0.1,0.6,0.1,0.9,0.2c0.4,0.1,0.8,0.1,1.2,0.1c0.4,0,0.9,0,1.4,0c0.5,0,1-0.1,1.5-0.2
			c0.6-0.1,1.2-0.3,1.8-0.6c0.6-0.3,1.1-0.6,1.5-1c0.4-0.4,0.8-0.8,1-1.3c0.2-0.5,0.3-0.9,0.2-1.4c-0.1-0.3-0.2-0.6-0.4-0.8
			c-0.2-0.2-0.5-0.4-0.8-0.6c-0.3-0.1-0.6-0.2-1-0.3c-0.4,0-0.8,0-1.1,0c-0.5,0.1-1,0.3-1.5,0.5c-0.5,0.2-1.1,0.6-1.7,1
			c-0.6,0.4-1.2,1-1.8,1.7C68.8,54.6,68.2,55.5,67.6,56.4 M84.6,61.4c0.4,0.1,0.9,0.1,1.3,0c0.6-0.1,1.3-0.4,1.9-0.8
			c0.6-0.4,1.2-0.9,1.8-1.4c0.6-0.5,1.1-1.1,1.7-1.8c0.6-0.6,1.1-1.2,1.6-1.8c0.6-0.8,1.2-1.5,1.6-2.1c0.4-0.6,0.7-1.2,0.9-1.6
			c0.2-0.5,0.3-0.9,0.4-1.2c0-0.3,0-0.6,0-0.9c-0.1-0.3-0.2-0.6-0.4-0.8c-0.2-0.2-0.4-0.4-0.7-0.5c-0.2-0.1-0.4-0.2-0.6-0.2
			c-0.2,0-0.3,0-0.3,0c-0.5,0-1.1,0-1.7,0.1c-1.3,0.2-2.6,0.8-3.9,1.8c-1.3,0.9-2.6,2.1-3.8,3.6c-1.7,2.1-2.5,3.9-2.2,5.3
			c0.1,0.4,0.2,0.8,0.5,1.2c0.2,0.3,0.5,0.6,0.9,0.8C83.8,61.2,84.2,61.3,84.6,61.4 M127.1,52c-1.1,2.1-2.1,4.1-2.9,5.7
			c-0.8,1.7-1.4,3.2-1.9,4.5c-0.5,1.3-0.8,2.3-1,3.2c-0.2,0.8-0.2,1.5-0.1,2c0,0.2,0.1,0.4,0.2,0.5c0.1,0.1,0.3,0.1,0.5,0
			c0.5-0.1,1-0.4,1.5-0.9c0.5-0.5,1-1.1,1.5-1.9c0.5-0.8,0.9-1.6,1.3-2.6c0.4-1,0.7-2,0.9-3.1c0.2-1.1,0.4-2.2,0.4-3.3
			c0.1-1.1,0-2.2-0.2-3.2C127.3,52.7,127.2,52.3,127.1,52 M66,56.3C66,56.3,66,56.3,66,56.3C66,56.3,66,56.3,66,56.3L66,56.3z
			 M65.8,62.2c0,0.1,0,0.1,0,0.2C65.9,62.3,65.9,62.3,65.8,62.2C65.9,62.2,65.8,62.2,65.8,62.2 M42.5,70.1c-0.3,0-0.7,0-1-0.1
			c-0.5-0.1-1-0.3-1.4-0.5c-0.4-0.3-0.8-0.6-1.1-1c-0.3-0.4-0.6-0.8-0.8-1.3c-0.2-0.5-0.3-0.9-0.4-1.4c-0.2-1.1-0.2-2.4,0.1-3.7
			c0.3-1.3,0.8-2.7,1.4-4c0.6-1.4,1.4-2.7,2.3-4c0.9-1.3,1.9-2.5,2.9-3.6c-0.1-0.1-0.3-0.3-0.4-0.4c-0.2-0.2-0.3-0.4-0.5-0.6
			c-0.1-0.2-0.3-0.4-0.4-0.7C43.1,48.5,43,48.3,43,48c0-0.2,0.1-0.3,0.2-0.3c0.1,0,0.2,0,0.2,0.1c0,0,0,0.1,0.1,0.1
			c0.2,0.4,0.3,0.8,0.6,1.1c0.2,0.3,0.5,0.7,0.8,0.9c0.6-0.6,1.2-1.2,1.9-1.8c0.7-0.6,1.3-1.1,2-1.5c0.7-0.4,1.3-0.8,1.9-1.1
			c0.6-0.3,1.2-0.5,1.7-0.6c0.9-0.2,1.7-0.1,2.1,0.3c0.5,0.3,0.8,0.8,0.9,1.5c0.1,0.4,0.1,0.8,0,1.1c-0.1,0.4-0.2,0.7-0.3,1
			c0,0.1-0.1,0.2-0.3,0.5c-0.2,0.3-0.4,0.6-0.8,1c-0.4,0.4-0.8,0.7-1.4,1c-0.6,0.3-1.2,0.6-2,0.7c-0.7,0.1-1.3,0.2-1.9,0.1
			c-0.6,0-1.1-0.1-1.6-0.3c-0.5-0.1-0.9-0.3-1.3-0.6c-0.4-0.2-0.7-0.4-0.9-0.7c-1,1.1-1.9,2.3-2.8,3.6c-0.9,1.3-1.7,2.6-2.3,3.9
			c-0.6,1.3-1.1,2.6-1.4,3.9c-0.3,1.3-0.3,2.5-0.1,3.6c0.1,0.6,0.4,1.2,0.7,1.8c0.3,0.5,0.7,1,1.1,1.3c0.5,0.3,1,0.6,1.6,0.7
			c0.6,0.1,1.3,0.1,2,0c0.7-0.2,1.3-0.4,1.8-0.6c0.5-0.2,1-0.6,1.5-1c0.3-0.2,0.6-0.5,0.9-0.9c0.3-0.3,0.6-0.7,1-1.2
			c0.3-0.4,0.7-1,1-1.6c0.3-0.6,0.6-1.2,0.9-2c0-0.1,0.1-0.1,0.2-0.2c0.1,0,0.2,0,0.2,0c0,0,0,0,0,0c0.7-1,1.3-2,1.9-3
			c0.6-1.2,1.1-2.4,1.6-3.6c0-0.1,0-0.1,0.1-0.2c0,0,0,0,0-0.1c-0.3-0.1-0.4-0.3-0.6-0.5c-0.1-0.2-0.2-0.4-0.3-0.7
			c0-0.2,0-0.4,0-0.6c0-0.2,0.1-0.3,0.2-0.4c0.1-0.1,0.2-0.2,0.3-0.2c0.1,0,0.2-0.1,0.2-0.1c0.2,0,0.4,0,0.5,0
			c0.1,0.1,0.2,0.1,0.3,0.2c0.1,0.1,0.1,0.2,0.1,0.3c0,0.1,0,0.2,0.1,0.2c0.1,0.3,0,0.8-0.1,1.4c0.2,0.1,0.4,0.1,0.6,0.1
			c0.5,0.1,1,0.1,1.5,0c0.2,0,0.4,0,0.5-0.1c0.1,0,0.2,0,0.4-0.1c0.2,0,0.4,0,0.6,0c0.2,0,0.4,0.1,0.6,0.2c0.2,0.1,0.3,0.3,0.3,0.5
			c0,0.2,0,0.6-0.2,1.1c-0.2,0.5-0.4,1-0.7,1.5c-0.3,0.6-0.6,1.2-0.9,1.9c-0.3,0.7-0.6,1.3-0.9,2c-0.3,0.7-0.5,1.3-0.6,1.9
			c-0.1,0.6-0.2,1.1-0.1,1.6c0.2,0.9,0.8,1.2,1.9,1c0.4-0.1,0.8-0.2,1.4-0.5c0.5-0.3,1.1-0.6,1.8-1c0.6-0.4,1.3-0.9,2-1.4
			c0.7-0.5,1.4-1.1,2-1.7c0,0,0.1-0.1,0.1-0.1c0,0,0,0,0,0c-0.1-0.4-0.1-0.9-0.1-1.4c0-0.5,0.1-1,0.2-1.5c0.1-0.5,0.3-0.9,0.4-1.3
			c0.2-0.4,0.3-0.7,0.5-1.1c-0.2-0.1-0.4-0.1-0.5-0.2c-0.1,0-0.2-0.1-0.3-0.1c0,0-0.1-0.1-0.1-0.1c0,0,0,0,0,0c0-0.1,0-0.2,0-0.2
			C66,56,66,56,66.1,56c0,0,0,0,0,0l0,0l0.1,0c0,0,0,0,0.1,0c0,0,0.1,0,0.2,0.1c0.1,0,0.3,0.1,0.6,0.2c1-1.6,2.2-2.9,3.4-4
			c1.3-1.1,2.6-1.7,3.9-2c0.4-0.1,0.9-0.1,1.3-0.1c0.4,0,0.9,0.2,1.2,0.3c0.4,0.2,0.7,0.4,0.9,0.7c0.3,0.3,0.4,0.6,0.5,1
			c0.1,0.7,0,1.3-0.3,1.8c-0.3,0.6-0.7,1.1-1.2,1.5c-0.5,0.4-1.1,0.8-1.7,1.1c-0.6,0.3-1.2,0.5-1.8,0.6c-0.7,0.1-1.3,0.2-2,0.2h0
			c-0.6,0-1.2,0-1.7-0.1c-0.5-0.1-1-0.1-1.4-0.2c-0.4-0.1-0.7-0.2-0.9-0.2c-0.2,0.2-0.4,0.6-0.5,0.9c-0.2,0.4-0.3,0.8-0.4,1.3
			c-0.1,0.5-0.2,0.9-0.2,1.4c0,0.5,0,1,0.1,1.4c0.2,0.9,0.6,1.5,1.3,1.9c0.7,0.4,1.7,0.5,2.9,0.3c0.5-0.1,1-0.2,1.5-0.4
			c0.5-0.2,1-0.3,1.4-0.5c0.4-0.2,0.8-0.4,1.2-0.5c0.3-0.2,0.6-0.3,0.8-0.5c0.6-0.3,1.1-0.7,1.7-1.1c0.5-0.4,1.1-0.8,1.6-1.3
			c0.5-0.5,1.1-1,1.6-1.6c0.6-0.6,1.1-1.3,1.8-2c0.1-0.1,0.1-0.1,0.2-0.1c0,0,0,0,0.1,0c0.4-0.8,1-1.7,1.8-2.7
			c1.2-1.5,2.6-2.8,3.9-3.7c1.4-1,2.8-1.6,4.1-1.8c0.6-0.1,1.2-0.1,1.8-0.1c0,0,0.1,0,0.4,0c0.2,0,0.5,0.1,0.8,0.3
			c0.3,0.1,0.5,0.3,0.8,0.6c0.3,0.3,0.4,0.6,0.5,1c0.2,1-0.2,2.2-1.1,3.7c0.4-0.3,0.7-0.7,1-1c0.4-0.4,0.8-0.8,1.2-1.2
			c0.3-0.3,0.6-0.6,0.8-0.8c0.3-0.2,0.3-0.3,0.4-0.3c0,0,0.1,0,0.1,0c0.1,0,0.2,0,0.2,0c0.1,0,0.1,0.1,0.1,0.2
			c0,0.1-0.1,0.2-0.2,0.3c-0.1,0.1-0.4,0.3-0.7,0.6c-0.3,0.3-0.7,0.6-1.2,1.1c-0.5,0.4-1,1-1.6,1.7c-1.1,1.2-1.9,2.2-2.4,3
			c-0.5,0.8-0.7,1.5-0.6,1.9c0,0.2,0.1,0.4,0.3,0.5c0.2,0.1,0.4,0.2,0.6,0.2c0.2,0,0.4,0,0.7,0c0.2,0,0.4,0,0.6-0.1
			c0.7-0.1,1.4-0.4,2.1-0.8c0.7-0.4,1.4-0.9,2.1-1.5c0.7-0.6,1.4-1.3,2-2c0.6-0.7,1.2-1.5,1.8-2.2l0,0c0,0,0,0,0,0
			c0.3-0.4,0.6-0.8,1-1.2l0.1-0.1c0.4-0.5,0.8-0.9,1.1-1.4c0.4-0.5,0.8-1,1.2-1.5c0.4-0.5,0.8-0.9,1.2-1.4c0.9-1,1.7-2,2.5-2.9
			c-0.2,0-0.5,0.1-0.8,0.1c-0.4,0.1-0.9,0.1-1.4,0.2l-1.5,0.2c-0.5,0.1-0.9,0.1-1.2,0.1c-0.2,0-0.3-0.1-0.3-0.2c0-0.1,0-0.3,0.2-0.3
			l0,0c0,0,0.1,0,0.1,0c0.1,0,0.1,0,0.3,0c1.7-0.2,3.3-0.4,4.8-0.6c0.7-2.1,1.3-4,1.9-5.7c0.6-1.7,1.1-3.1,1.6-4.3
			c0.5-1.2,0.9-2.1,1.2-2.7c0.4-0.7,0.6-1,0.9-1c0.1,0,0.2,0,0.3,0c0.2,0,0.3,0.2,0.3,0.4c0,0.2,0,0.5,0,0.8c0,0.3-0.1,0.5-0.1,0.6
			c-0.2,1.2-0.6,2.4-1,3.6c-0.5,1.2-0.9,2.3-1.5,3.4c-0.5,1-1,2-1.5,2.9c-0.5,0.8-0.8,1.4-1.1,1.9c0.3,0,0.6-0.1,0.8-0.1
			c0.3,0,0.6-0.1,0.9-0.2c1.1-0.2,2.2-0.4,3.2-0.7c0.2,0,0.3,0,0.3,0.2c0,0.2-0.2,0.3-0.4,0.3c-0.3,0.1-0.6,0.2-0.9,0.2
			c-0.4,0.1-0.8,0.2-1.1,0.2l-0.9,0.2c-0.4,0.1-0.8,0.1-1.2,0.2c-0.4,0.1-0.8,0.1-1.2,0.2c-0.1,0.1-0.1,0.1-0.1,0.2
			c0,0.1-0.1,0.1-0.1,0.2c-0.4,1.2-0.8,2.4-1.1,3.5c-0.4,1.2-0.7,2.2-0.9,3c-0.3,0.9-0.5,1.5-0.6,2.1c-0.2,0.7-0.2,0.8-0.2,0.8
			c-0.1,0.2-0.1,0.4-0.1,0.6c0,0.2-0.1,0.4-0.1,0.6c0,0.2,0,0.4,0,0.6c0.1,0.4,0.3,0.8,0.6,0.9c0.3,0.2,0.8,0.2,1.4,0.1
			c0.7-0.1,1.4-0.4,2-0.7c0.7-0.3,1.3-0.7,1.9-1.2c0.6-0.4,1.2-0.9,1.8-1.4c0.6-0.5,1.1-1,1.5-1.5c0.5-0.5,0.9-0.9,1.2-1.3
			c0.3-0.4,0.6-0.7,0.8-0.9c0,0,0,0,0.1-0.1c0.2-0.4,0.3-0.8,0.5-1.2l0.1-0.2c0.2-0.5,0.4-1,0.6-1.4c0.3-0.7,0.6-1.3,0.9-1.9
			c0.3-0.6,0.6-1.2,0.8-1.6c0.2-0.5,0.5-1,0.9-1.6c0-0.1,0.1-0.1,0.2-0.1c0.2,0,0.3,0,0.3,0.2c0,0,0,0.1,0,0.2
			c-0.3,0.6-0.6,1.1-0.9,1.6c-0.3,0.5-0.5,1-0.8,1.6c-0.3,0.6-0.6,1.2-0.9,1.9c-0.2,0.5-0.5,1-0.7,1.5c-0.2,0.5-0.5,1.1-0.7,1.7
			c-0.2,0.6-0.4,1.1-0.5,1.7c-0.1,0.5-0.1,1,0,1.4c0,0.3,0.1,0.5,0.3,0.6c0.1,0.1,0.3,0.2,0.5,0.3c0.2,0,0.4,0.1,0.6,0
			c0.2,0,0.4,0,0.6-0.1c0.7-0.1,1.3-0.4,2.1-0.8c0.7-0.4,1.4-0.9,2.2-1.5c0.7-0.6,1.4-1.2,2.1-1.9c0.7-0.7,1.3-1.4,1.8-2.1l0,0
			c0.1,0,0.1-0.1,0.2-0.1c0.1,0,0.2,0,0.2,0c0.1,0,0.1,0.1,0.1,0.2c0.2-0.4,0.5-0.9,0.7-1.3c0.7-1.2,1.3-2.4,1.9-3.6
			c1.1-2,2.1-3.9,3.1-5.6c1-1.7,1.9-3.3,2.7-4.8c0.8-1.4,1.4-2.5,2-3.4c0.5-0.9,0.8-1.4,0.9-1.6c0.2-0.4,0.4-0.6,0.7-0.8
			c0.3-0.1,0.5-0.2,0.6-0.3c0.5-0.1,1,0,1.2,0.4c0.3,0.3,0.5,0.7,0.5,1.2c0,0.2,0.1,0.5,0.1,0.7c0,0.2,0,0.4,0,0.6
			c0,0.2,0,0.3,0,0.5c0,0.1,0,0.2,0,0.2l0,0l0,0c-0.2,1.2-0.6,2.5-1.3,3.9c-0.7,1.4-1.6,2.9-2.8,4.5c-1.2,1.6-2.6,3.2-4.2,4.8
			c-1.6,1.6-3.6,3.2-5.7,4.8c-0.2,0.4-0.5,0.9-0.7,1.4c-0.3,0.5-0.5,0.9-0.7,1.3c0.1,0.1,0.3,0.2,0.6,0.3c0.3,0.2,0.7,0.3,1.2,0.4
			c0.4,0.1,0.8,0.1,1.2,0.1c0.4,0,0.8-0.1,1.2-0.1c1-0.2,2.1-0.6,3.1-1.1c1-0.5,1.9-1.1,2.7-1.6c0.4-0.3,1-0.7,1.6-1.3
			c0.6-0.5,1.2-1.2,1.9-2c0.1-0.1,0.1-0.1,0.2-0.1c0.1,0,0.2,0,0.2,0c0.1,0,0.1,0.1,0.1,0.2c0,0.1,0,0.2,0,0.2
			c-0.7,0.8-1.3,1.5-1.9,2c-0.6,0.6-1.2,1-1.6,1.3c-0.9,0.6-1.8,1.2-2.8,1.7c-1,0.5-2.1,0.9-3.1,1.1c-0.8,0.1-1.6,0.2-2.4,0
			c-0.7-0.1-1.3-0.3-1.7-0.5c0,0.2,0.1,0.3,0.1,0.4c0,0.2,0.1,0.4,0.1,0.6c0.2,1,0.3,2.2,0.2,3.3c-0.1,1.2-0.2,2.3-0.5,3.5
			c-0.3,1.2-0.6,2.3-1.1,3.3c-0.5,1.1-1,2-1.6,2.9c-0.5,0.7-1,1.2-1.5,1.6c-0.5,0.4-1,0.6-1.4,0.7c-0.2,0-0.4,0-0.6,0
			c-0.2,0-0.3-0.1-0.4-0.2c-0.1-0.1-0.2-0.2-0.2-0.3c-0.1-0.1-0.1-0.3-0.1-0.4c-0.1-0.3,0-0.7,0-1.2c0.1-0.5,0.2-1,0.3-1.5
			c0.1-0.5,0.2-0.9,0.3-1.3c0.1-0.5,0.2-0.7,0.2-0.7c0.2-0.6,0.4-1.3,0.8-2.2c0.4-0.9,0.8-1.8,1.3-2.9c0.5-1,1-2.2,1.7-3.4
			c0.6-1.1,1.2-2.4,1.9-3.6c0.3-0.6,0.7-1.3,1-1.9c-0.5,0.6-1.1,1.3-1.7,1.9c-0.7,0.7-1.3,1.4-2.1,2c-0.7,0.6-1.4,1.1-2.2,1.5h0
			c-0.8,0.4-1.5,0.7-2.3,0.9c-0.3,0-0.5,0.1-0.8,0.1c-0.3,0-0.5,0-0.8-0.1c-0.2-0.1-0.4-0.2-0.6-0.4c-0.2-0.2-0.3-0.5-0.4-0.8
			c-0.1-0.5-0.1-1,0-1.6c0.1-0.3,0.1-0.6,0.2-0.9c-0.5,0.6-1,1.1-1.5,1.6c-0.8,0.8-1.6,1.6-2.5,2.2c-0.8,0.6-1.6,1.2-2.4,1.6
			c-0.8,0.4-1.6,0.7-2.3,0.8c-0.8,0.1-1.4,0.1-1.8-0.2c-0.4-0.3-0.7-0.7-0.8-1.3c0-0.2-0.1-0.5,0-0.7c0-0.2,0-0.5,0.1-0.7
			c0-0.2,0.1-0.4,0.1-0.5c0-0.1,0.1-0.2,0.1-0.2c0,0,0.1-0.3,0.2-0.8c0.2-0.5,0.4-1.2,0.6-2c0.3-0.8,0.6-1.8,0.9-2.8l0.1-0.2
			c0.3-0.9,0.6-1.8,0.8-2.7c-0.1,0.1-0.2,0.3-0.3,0.3c-0.3,0.4-0.7,0.8-1.2,1.4c-0.5,0.5-1,1.1-1.5,1.8c-0.5,0.6-1.1,1.3-1.6,1.9
			c-0.5,0.6-1,1.2-1.3,1.6c-0.3,0.3-0.4,0.6-0.6,0.7c0,0,0,0,0,0l0,0c-0.5,0.6-1,1.3-1.6,2c-0.6,0.7-1.3,1.4-2,2.1
			c-0.7,0.6-1.5,1.2-2.2,1.7c-0.8,0.5-1.6,0.8-2.4,1c-0.2,0-0.5,0.1-0.8,0.1c-0.3,0-0.6,0-0.9-0.1c-0.3-0.1-0.5-0.2-0.7-0.4
			c-0.2-0.2-0.4-0.4-0.4-0.7c-0.1-0.4,0-0.9,0.3-1.5c-1,1.2-2,2.1-3,2.9c-1,0.8-2.1,1.4-3,1.5c-0.5,0.1-1,0.1-1.5,0
			c-0.5-0.1-0.9-0.2-1.3-0.5c-0.4-0.2-0.8-0.5-1-0.9c-0.3-0.4-0.5-0.9-0.6-1.4c-0.1-0.6-0.1-1.2,0.1-1.8c-0.4,0.5-0.8,0.9-1.1,1.3
			c-0.6,0.6-1.1,1.1-1.7,1.6c-0.5,0.5-1.1,0.9-1.6,1.3c-0.5,0.4-1.1,0.8-1.7,1.1c-0.3,0.2-0.7,0.4-1.1,0.6c-0.4,0.2-0.8,0.4-1.2,0.6
			c-0.4,0.2-0.9,0.3-1.4,0.5c-0.5,0.1-0.9,0.3-1.4,0.4c-0.5,0.1-1,0.1-1.5,0.1v-0.1v0.1h0c-0.5,0-0.9-0.1-1.3-0.2
			c-0.6-0.2-1.1-0.5-1.4-1c-0.2-0.3-0.4-0.6-0.5-1c-0.7,0.6-1.4,1.2-2,1.7c-0.7,0.5-1.4,1-2.1,1.5c-0.7,0.4-1.3,0.8-1.9,1.1
			c-0.6,0.3-1.1,0.5-1.6,0.5c-0.6,0.1-1.1,0-1.5-0.3c-0.4-0.3-0.6-0.7-0.7-1.3c-0.1-0.6,0-1.3,0.2-2.1c0.2-0.8,0.5-1.7,0.9-2.5
			c0.4-0.8,0.7-1.7,1.2-2.5c0.4-0.8,0.7-1.5,1-2c0.1-0.1,0.1-0.3,0.1-0.4c0-0.1,0-0.2,0-0.3c0-0.1-0.1-0.2-0.2-0.2
			c-0.1,0-0.2-0.1-0.4-0.1c-0.1,0-0.3,0-0.4,0c-0.2,0-0.3,0-0.3,0c0,0-0.2,0-0.3,0c-0.2,0-0.4,0-0.7,0c-0.3,0-0.6,0-0.9,0
			c-0.3,0-0.6-0.1-0.9-0.2c0,0.1-0.1,0.1-0.1,0.2c-0.5,1.3-1,2.6-1.7,3.8c-0.6,1.2-1.3,2.3-2.1,3.4c0,0-0.1,0.1-0.2,0.1
			c-0.1,0-0.1,0-0.1,0c-0.6,1.3-1.1,2.3-1.8,3.1c-0.7,0.9-1.4,1.6-2,2.2c-0.6,0.5-1.1,0.9-1.7,1.1c-0.6,0.3-1.2,0.5-1.9,0.6
			c-0.3,0.1-0.7,0.1-1.1,0.1l0-0.1l0,0.1C42.6,70.1,42.6,70.1,42.5,70.1"/>
		<path d="M37.1,18.4c-0.1,0.2-0.2,0.4-0.4,0.5c-0.2,0.2-0.4,0.3-0.6,0.4c-0.3,0.1-0.5,0.2-0.8,0.2c-0.5,0.1-0.9,0.1-1.4,0.1
			c-0.4,0-0.9-0.1-1.3-0.2c-0.2,0-0.4-0.1-0.6-0.1c-0.2,0-0.4-0.1-0.6-0.1c0.6-0.6,1.2-1.1,1.8-1.5c0.7-0.4,1.4-0.7,2.3-0.9
			c0.1,0,0.3,0,0.5,0c0.2,0,0.4,0,0.5,0.1c0.2,0.1,0.3,0.2,0.4,0.3c0.1,0.1,0.2,0.3,0.2,0.5C37.2,17.9,37.2,18.2,37.1,18.4
			 M16.2,42.6c-0.5,0.3-1.1,0.5-1.6,0.6c-0.3,0.1-0.6,0.1-0.9,0.1c-0.3,0-0.7,0-1-0.1c-0.3-0.1-0.6-0.2-0.8-0.4
			c-0.2-0.2-0.4-0.4-0.5-0.7c-0.1-0.5,0-0.9,0.3-1.3c0.3-0.3,0.8-0.6,1.3-0.7C13.3,40,13.7,40,14,40c0.5,0,1,0.1,1.5,0.3
			c0.8,0.3,1.5,0.7,2.2,1.2C17.2,41.9,16.7,42.3,16.2,42.6 M36.9,16.4c-0.5-0.2-0.9-0.3-1.4-0.2c-1,0.2-1.8,0.5-2.6,1
			c-0.8,0.5-1.5,1.1-2.1,1.8c-0.3-0.1-0.6-0.1-0.9-0.2c-0.3,0-0.7-0.1-1-0.1c-0.3,0-0.7,0-1,0c-0.3,0-0.7,0-0.9,0.1
			c-0.5,0.1-0.9,0.2-1.3,0.4c-0.4,0.2-0.7,0.3-1,0.5c-0.3,0.2-0.6,0.3-0.9,0.6c-0.1,0-0.1,0.1-0.1,0.3c0,0.1,0,0.1,0.1,0.2
			c0.1,0.1,0.1,0.1,0.2,0.1c0,0,0,0,0.1-0.1c0,0,0.1,0,0.3-0.2c0.2-0.1,0.4-0.2,0.6-0.4c0.3-0.1,0.5-0.3,0.9-0.4
			c0.3-0.1,0.7-0.3,1.2-0.3c0.5-0.1,1.1-0.1,1.7-0.1c0.6,0.1,1.1,0.1,1.7,0.2c-0.6,0.7-1.2,1.6-1.7,2.5c-0.5,0.9-1.1,1.9-1.6,3
			c-0.5,1.1-1,2.2-1.5,3.3c-0.5,1.1-1,2.3-1.6,3.4c-1,2.1-2,3.9-2.9,5.4C20,38.7,19.1,40,18.1,41c-0.8-0.5-1.6-1-2.4-1.3
			c-0.8-0.3-1.7-0.4-2.7-0.2c-0.3,0.1-0.6,0.1-0.8,0.3c-0.3,0.1-0.5,0.3-0.7,0.5c-0.2,0.2-0.4,0.5-0.5,0.8c-0.1,0.3-0.1,0.6,0,1
			c0.1,0.4,0.2,0.7,0.5,0.9c0.3,0.2,0.6,0.4,1,0.5c0.4,0.1,0.8,0.2,1.2,0.2c0.4,0,0.8,0,1.2-0.1c0.6-0.1,1.2-0.3,1.8-0.7
			c0.6-0.3,1.1-0.8,1.6-1.3c0.3,0.2,0.7,0.5,1.1,0.8c0.4,0.3,0.8,0.6,1.3,0.9c0.5,0.3,1,0.6,1.6,0.9c0.6,0.3,1.2,0.6,1.9,0.8
			c0.9,0.3,1.7,0.5,2.5,0.5c0.3,0,0.5,0,0.8,0c0.5,0,0.9,0,1.3-0.1c0.3-0.1,0.7-0.2,1-0.3c0.4-0.2,0.7-0.4,1-0.6
			c0.3-0.3,0.5-0.6,0.7-1c0.2-0.4,0.2-0.8,0.1-1.3c-0.1-0.6-0.4-1.1-0.9-1.6c-0.2-0.2-0.3-0.3-0.5-0.4c-0.1-0.1-0.2-0.1-0.3-0.1
			c0,0-0.1-0.1-0.2,0c-0.1,0-0.1,0-0.2,0.1c0,0.1-0.1,0.1,0,0.2c0,0,0,0,0.2,0.2c0.1,0.1,0.3,0.2,0.5,0.4c0.2,0.2,0.3,0.3,0.5,0.6
			c0.2,0.2,0.3,0.5,0.3,0.8c0.1,0.4,0.1,0.8-0.1,1c-0.1,0.3-0.3,0.6-0.5,0.8c-0.2,0.2-0.5,0.4-0.8,0.5c-0.3,0.1-0.7,0.2-1,0.3
			c-0.6,0.1-1.2,0.1-1.9,0.1c-0.7-0.1-1.5-0.2-2.3-0.5c-0.7-0.2-1.3-0.5-1.9-0.8c-0.5-0.3-1-0.6-1.5-0.9c-0.5-0.3-0.9-0.6-1.2-0.9
			c-0.4-0.3-0.7-0.5-1.1-0.8c1-1,1.9-2.3,2.9-3.9c1-1.6,2-3.4,3-5.5c0.6-1.2,1.1-2.4,1.6-3.5c0.5-1.2,1.1-2.3,1.6-3.3
			c0.5-1.1,1.1-2.1,1.6-3c0.5-0.9,1.1-1.7,1.8-2.5c0.4,0.1,0.8,0.2,1.2,0.2c0.4,0.1,0.8,0.1,1.1,0.2c0.4,0,0.7,0.1,1.1,0.1
			c0.4,0,0.8,0,1.2-0.1c0.5-0.1,0.9-0.2,1.2-0.4c0.3-0.2,0.6-0.4,0.7-0.6c0.2-0.2,0.3-0.5,0.3-0.7c0.1-0.2,0.1-0.5,0-0.7
			C37.6,17,37.3,16.7,36.9,16.4"/>
		<path d="M70.8,8.5c-0.3,0.4-0.6,0.8-1,1.3c-0.4,0.5-0.7,1.1-1.1,1.7c-0.4,0.6-0.8,1.4-1.2,2.1c-0.4,0.8-0.7,1.6-1.1,2.5
			C66.1,17,65.8,18,65.5,19c-0.3,1-0.5,2.1-0.6,3.3c-0.2,1.1-0.2,2.3-0.2,3.6c-0.2,0.1-0.4,0.2-0.7,0.2c-0.2,0.1-0.5,0.2-0.7,0.2
			c-0.6-0.9-1.3-1.7-2.1-2.3c-0.8-0.7-1.8-1.1-2.9-1.3c0-0.1,0.1-0.2,0.1-0.3c0.1-0.1,0.1-0.2,0.2-0.4c0.9-1.9,1.8-3.6,2.8-5.2
			c0.9-1.6,1.9-3,3-4.2c1-1.2,2.2-2.3,3.4-3.1c1.1-0.8,2.4-1.4,3.8-1.7C71.3,8,71.1,8.3,70.8,8.5 M64.4,28.2
			c-0.2-0.5-0.5-0.9-0.8-1.4c0.4-0.1,0.7-0.3,1-0.4c0,0.5,0,1,0,1.5c0,0.4,0.1,0.8,0.1,1.2C64.7,28.9,64.5,28.6,64.4,28.2
			 M61.5,26.8c-0.4,0.1-0.9,0.2-1.3,0.2c-0.9,0.1-1.6,0.2-2.3,0.2c-0.6,0-1.2,0-1.6,0c0.3-0.7,0.5-1.3,0.8-2c0.3-0.7,0.6-1.4,0.9-2
			c1,0.2,2,0.5,2.7,1.2c0.8,0.6,1.4,1.3,2,2.1C62.3,26.6,61.9,26.8,61.5,26.8 M55.8,27.2c-0.2,0-0.5-0.1-0.7-0.2
			c-0.2-0.1-0.5-0.2-0.7-0.3c-0.2-0.1-0.4-0.3-0.5-0.4c-0.1-0.2-0.2-0.4-0.3-0.6c-0.1-0.4,0-0.7,0.1-1c0.1-0.3,0.3-0.5,0.6-0.7
			c0.2-0.2,0.5-0.3,0.8-0.4c0.3-0.1,0.6-0.2,0.9-0.2c0.5-0.1,1-0.1,1.5-0.1c-0.3,0.7-0.6,1.4-0.9,2C56.3,25.9,56.1,26.5,55.8,27.2
			 M76,7.6c-0.7-0.3-1.5-0.5-2.2-0.6c-0.7,0-1.4,0-2,0.1c-1.6,0.3-3,0.9-4.3,1.7c-1.3,0.8-2.5,1.9-3.6,3.2c-1.1,1.3-2.1,2.7-3.1,4.4
			c-1,1.7-1.9,3.4-2.8,5.3c-0.1,0.1-0.1,0.3-0.2,0.4c-0.1,0.1-0.1,0.3-0.2,0.4c-0.3,0-0.6,0-0.9,0c-0.3,0-0.6,0.1-0.9,0.1
			c-0.4,0.1-0.8,0.2-1.2,0.4c-0.4,0.2-0.7,0.4-1,0.6c-0.3,0.2-0.5,0.5-0.6,0.9c-0.1,0.3-0.1,0.7-0.1,1.2c0.1,0.5,0.3,0.9,0.7,1.2
			c0.4,0.3,1,0.6,1.8,0.8c-0.4,1.1-0.9,2.2-1.3,3.2c-0.4,1-0.9,1.9-1.4,2.7c-0.5,0.8-1.1,1.5-1.7,2c-0.6,0.5-1.3,0.9-2.1,1
			c-0.6,0.1-1.2,0.1-1.7-0.1c-0.5-0.2-0.9-0.5-1.2-0.9c-0.3-0.4-0.6-0.8-0.8-1.2c-0.2-0.4-0.3-0.8-0.4-1.1c0-0.2-0.1-0.2-0.3-0.2
			c-0.1,0-0.1,0.1-0.2,0.1c0,0.1-0.1,0.1,0,0.2c0,0,0,0.2,0.1,0.4c0.1,0.2,0.2,0.5,0.3,0.8c0.1,0.3,0.3,0.6,0.5,1
			c0.2,0.3,0.5,0.6,0.8,0.9s0.7,0.5,1.2,0.6c0.2,0.1,0.5,0.1,0.8,0.1c0.3,0,0.5,0,0.8-0.1c0.9-0.2,1.7-0.5,2.4-1.1
			c0.7-0.6,1.3-1.3,1.8-2.1c0.5-0.8,1-1.8,1.5-2.9c0.4-1,0.9-2.1,1.3-3.3c0.6,0.1,1.3,0.1,2.1,0c0.8,0,1.8-0.2,2.9-0.4
			c0.4-0.1,0.7-0.1,1-0.2c0.3-0.1,0.6-0.2,0.9-0.2c0.6,1,1.1,2,1.5,3c0.4,1,0.7,2,0.8,3l0,0.1l0.5-0.1l0-0.1
			c-0.2-1.2-0.4-2.4-0.5-3.5c-0.1-1.1-0.2-2.1-0.2-3.2c0.6-0.3,1.2-0.6,1.7-0.9c0.5-0.3,0.9-0.6,1.2-0.8c0.3-0.2,0.6-0.5,0.9-0.9
			c0.1-0.1,0.1-0.2,0.1-0.2c0-0.1-0.1-0.1-0.1-0.2c-0.1,0-0.1,0-0.2,0c0,0-0.1,0-0.2,0.1l0,0c0,0,0,0-0.2,0.2
			c-0.1,0.1-0.3,0.3-0.6,0.5c-0.3,0.2-0.6,0.5-1.1,0.7c-0.4,0.3-0.9,0.5-1.5,0.8c0-1.8,0.2-3.6,0.5-5.1c0.3-1.6,0.8-3.1,1.3-4.4
			c0.5-1.3,1-2.5,1.6-3.5c0.6-1,1.1-1.9,1.7-2.6c0.5-0.7,1-1.3,1.4-1.7c0.4-0.4,0.6-0.6,0.7-0.7c0.5-0.1,1.1-0.1,1.7,0
			c0.6,0.1,1.2,0.2,1.7,0.5c0.1,0,0.1,0,0.2,0c0.1,0,0.1,0,0.2-0.1c0,0,0-0.1,0-0.2C76.2,7.8,76.1,7.7,76,7.6"/>
		<path d="M144.7,5.9c-0.1-0.1-0.2-0.2-0.3-0.3c-0.1-0.2-0.2-0.3-0.2-0.5c0-0.1,0-0.1,0-0.1l0,0c0-0.2,0.1-0.4,0.2-0.4
			c0.1,0,0.2,0,0.3,0.1c0.1,0.1,0.1,0.2,0.1,0.3c0,0.1,0,0.2,0,0.4C144.8,5.5,144.8,5.7,144.7,5.9 M80.7,12.5c0.5-1.4,1-2.8,1.4-4
			c0.4-1.2,0.8-2.2,1.2-3c0.4-0.9,0.6-1.1,0.7-1.2c0,0,0,0,0,0.1c0,0.1,0,0.1,0,0.2c0,0.1,0,0.2,0,0.3c-0.1,1.1-0.4,2.3-0.8,3.4
			c-0.4,1.2-0.9,2.3-1.4,3.3c-0.5,1.1-1,2-1.5,2.9c-0.4,0.6-0.6,1.1-0.9,1.5C79.8,15,80.2,13.8,80.7,12.5 M90.6,17.8
			c0.6-0.7,1.2-1.2,1.8-1.7c0.6-0.4,1.2-0.8,1.7-1c0.5-0.2,1.1-0.4,1.5-0.5c0.4-0.1,0.8-0.1,1.1,0c0.4,0,0.7,0.1,1,0.3
			c0.3,0.1,0.6,0.3,0.8,0.6c0.2,0.2,0.3,0.5,0.4,0.8c0.1,0.4,0,0.9-0.2,1.4c-0.2,0.5-0.6,0.9-1,1.3c-0.4,0.4-1,0.7-1.5,1
			c-0.6,0.3-1.2,0.5-1.8,0.6c-0.5,0.1-1,0.1-1.5,0.2c-0.5,0-0.9,0-1.4,0c-0.4,0-0.8-0.1-1.2-0.1c-0.4-0.1-0.7-0.1-0.9-0.2l-0.6-0.1
			C89.4,19.3,90,18.5,90.6,17.8 M105.1,15.8c0.4-1.1,0.8-2.2,1.2-3.2c0.4-1,0.8-2,1.2-2.8c0.4-0.9,0.7-1.6,1-2.3
			c0.3-0.6,0.5-1.1,0.7-1.5c0.1-0.1,0.3-0.6,0.3-0.6l0,0c0.3-0.5,0.5-0.9,0.7-1.2c0.2-0.3,0.5-0.7,0.8-1.1c0.3-0.4,0.6-0.8,0.9-1.1
			c0.3-0.4,0.7-0.7,1-0.9c0.3-0.3,0.7-0.4,1-0.5c0.1,0,0.2,0,0.3,0c0.2,0,0.5,0.1,0.6,0.2c0.3,0.2,0.4,0.5,0.5,0.8
			c0.1,0.5,0,1.1-0.2,1.8c-0.2,0.8-0.5,1.6-1,2.6c-0.3,0.7-0.7,1.4-1,2c-0.4,0.6-0.8,1.3-1.2,1.9c-0.4,0.6-0.9,1.3-1.4,1.9
			c-0.5,0.7-1.1,1.4-1.8,2.1c-0.7,0.7-1.4,1.6-2.2,2.4c-0.8,0.8-1.7,1.7-2.6,2.7C104.4,17.9,104.7,16.8,105.1,15.8 M128.9,10.8
			c0.6-0.7,1.2-1.2,1.8-1.7c0.6-0.4,1.2-0.8,1.7-1c0.5-0.2,1.1-0.4,1.5-0.5c0.4-0.1,0.8-0.1,1.1,0c0.4,0,0.7,0.1,1,0.3
			c0.3,0.1,0.6,0.3,0.8,0.6c0.2,0.2,0.3,0.5,0.4,0.8c0.1,0.4,0,0.9-0.2,1.4c-0.2,0.5-0.6,0.9-1,1.3c-0.4,0.4-1,0.7-1.6,1
			c-0.6,0.3-1.2,0.5-1.8,0.6c-0.5,0.1-1,0.1-1.5,0.2c-0.5,0-0.9,0-1.4,0c-0.4,0-0.8-0.1-1.2-0.1c-0.4-0.1-0.7-0.1-0.9-0.2l-0.6-0.1
			C127.7,12.2,128.3,11.4,128.9,10.8 M155.7,13.3c0,0-0.1-0.1-0.1,0c0,0-0.1,0-0.1,0.1c-0.7,0.6-1.3,1.1-2,1.7c-0.7,0.5-1.3,1-2,1.4
			c-0.6,0.4-1.2,0.8-1.8,1c-0.6,0.3-1,0.4-1.4,0.5c-1.1,0.2-1.8-0.2-1.9-1.1c-0.1-0.5-0.1-1,0.1-1.6c0.1-0.6,0.3-1.2,0.6-1.9
			c0.3-0.7,0.6-1.3,0.9-2c0.3-0.7,0.6-1.3,0.9-1.9c0.3-0.6,0.5-1.1,0.7-1.5c0.2-0.5,0.2-0.8,0.2-1c0-0.2-0.1-0.4-0.3-0.5
			c-0.2-0.1-0.3-0.2-0.5-0.2c-0.2,0-0.4,0-0.6,0c-0.2,0-0.3,0-0.4,0.1c-0.1,0-0.3,0-0.5,0.1c-0.2,0-0.5,0-0.7,0c-0.3,0-0.5,0-0.8,0
			c-0.3,0-0.5-0.1-0.7-0.2c0.2-0.6,0.2-1,0.1-1.4c0,0,0-0.1-0.1-0.2c0-0.1-0.1-0.2-0.1-0.3c-0.1-0.1-0.2-0.2-0.3-0.2
			c-0.1,0-0.3-0.1-0.5,0c0,0-0.1,0-0.2,0.1c-0.1,0-0.2,0.1-0.3,0.2c-0.1,0.1-0.1,0.2-0.2,0.4s0,0.3,0,0.6c0,0.2,0.1,0.4,0.3,0.7
			c0.1,0.2,0.3,0.4,0.6,0.5c0,0,0,0.1,0,0.1c0,0.1,0,0.1-0.1,0.2c-0.5,1.2-1,2.4-1.6,3.6c-0.6,1.2-1.3,2.3-2.2,3.4c0,0,0,0,0,0
			c-0.4,0.5-0.8,0.9-1.1,1.3c-0.6,0.6-1.1,1.1-1.6,1.6c-0.5,0.5-1.1,0.9-1.6,1.3c-0.5,0.4-1.1,0.8-1.7,1.1c-0.2,0.1-0.5,0.3-0.8,0.5
			c-0.3,0.2-0.7,0.4-1.2,0.6c-0.4,0.2-0.9,0.4-1.4,0.5c-0.5,0.2-1,0.3-1.5,0.4c-1.3,0.2-2.3,0.1-3-0.3c-0.7-0.4-1.1-1-1.3-1.9
			c-0.1-0.4-0.1-0.9-0.1-1.4c0-0.5,0.1-1,0.2-1.4c0.1-0.5,0.3-0.9,0.4-1.3c0.2-0.4,0.4-0.7,0.6-1c0.2,0.1,0.5,0.1,0.9,0.2
			c0.4,0.1,0.9,0.2,1.4,0.2c0.5,0.1,1.1,0.1,1.7,0.1c0.6,0,1.3-0.1,2-0.2c0.6-0.1,1.1-0.3,1.8-0.6c0.6-0.3,1.2-0.6,1.7-1.1
			c0.5-0.4,0.9-0.9,1.2-1.5c0.3-0.6,0.4-1.2,0.3-1.8c-0.1-0.4-0.2-0.7-0.5-1c-0.3-0.3-0.6-0.5-0.9-0.7c-0.4-0.2-0.8-0.3-1.2-0.3
			c-0.4,0-0.9,0-1.3,0.1c-1.3,0.2-2.6,0.9-3.8,2c-1.3,1.1-2.4,2.4-3.4,4c-0.3-0.1-0.6-0.2-0.7-0.2c-0.1,0-0.2-0.1-0.2-0.1
			c0,0,0,0,0,0c0,0,0,0-0.1,0c-0.1,0-0.2,0.1-0.2,0.2c0,0,0,0.1,0,0.1c0,0,0,0,0,0.1c0,0,0.1,0.1,0.2,0.1c0.1,0,0.3,0.1,0.6,0.2
			c-0.2,0.3-0.4,0.7-0.6,1.1c-0.2,0.4-0.3,0.9-0.4,1.3c-0.1,0.2-0.1,0.4-0.1,0.6c0,0,0,0-0.1,0c-0.6,0.7-1.2,1.4-1.8,2.1
			s-1.4,1.3-2.1,1.9c-0.7,0.6-1.4,1.1-2.2,1.5c-0.7,0.4-1.4,0.7-2.1,0.8c-0.2,0-0.4,0.1-0.6,0.1c-0.2,0-0.4,0-0.6,0
			c-0.2,0-0.3-0.1-0.5-0.3s-0.2-0.3-0.3-0.6c-0.1-0.4-0.1-0.9,0-1.5c0.1-0.6,0.3-1.1,0.5-1.7c0.2-0.6,0.4-1.1,0.7-1.7
			c0.2-0.6,0.5-1,0.7-1.5c0.3-0.7,0.6-1.3,0.9-1.9s0.6-1.1,0.8-1.6c0.3-0.5,0.5-1,0.9-1.5c0-0.1,0-0.1,0-0.1c0-0.1-0.1-0.2-0.2-0.2
			c-0.1,0-0.1,0.1-0.1,0.1c-0.3,0.6-0.6,1.1-0.9,1.6c-0.3,0.5-0.5,1-0.8,1.6c-0.3,0.6-0.6,1.3-0.9,1.9c-0.2,0.5-0.5,1-0.7,1.6
			c-0.2,0.4-0.3,0.8-0.5,1.2c0,0,0,0-0.1,0c-0.6,0.7-1.3,1.4-1.9,2c-0.6,0.6-1.2,1.2-1.9,1.7c-0.7,0.5-1.4,1-2.1,1.5
			c-0.7,0.5-1.6,0.9-2.5,1.4c-0.5,0.3-1,0.4-1.5,0.5c-0.6,0.1-1.1,0.1-1.6-0.2c-0.5-0.2-0.7-0.6-0.9-1.3c0-0.1,0-0.3-0.1-0.4
			c0-0.1,0-0.3,0-0.4c0-0.1,0-0.2,0-0.3c0.1-0.5,0.2-0.9,0.3-1.4c0.1-0.5,0.2-0.9,0.4-1.4c1.6-1.6,3.1-3.1,4.2-4.3
			c1.2-1.2,2.2-2.4,3-3.4c0.8-1.1,1.6-2.1,2.2-3c0.6-1,1.2-2,1.7-3.1c0.2-0.4,0.3-0.8,0.5-1.2c0.2-0.4,0.3-0.8,0.4-1.2
			s0.2-0.8,0.3-1.2c0.1-0.4,0-0.8,0-1.1c-0.1-0.5-0.3-0.9-0.6-1.1C115,0,114.6-0.1,114.1,0c-0.3,0.1-0.7,0.2-1.1,0.5
			c-0.4,0.3-0.8,0.7-1.3,1.2c-0.4,0.5-0.8,1-1.2,1.5c-0.4,0.5-0.7,1-0.9,1.3c-0.2,0.4-0.4,0.6-0.3,0.6c-0.3,0.6-0.6,1.2-0.9,1.8
			c-0.3,0.5-0.6,1.2-0.9,1.9c-0.3,0.7-0.7,1.6-1.1,2.4c-0.3,0.8-0.7,1.7-1.1,2.7c-0.4,1-0.8,2-1.1,3c-0.4,1-0.7,2-1,3c0,0,0,0,0,0.1
			c0,0,0,0-0.1,0c-0.6,0.8-1.2,1.4-1.8,2c-0.6,0.6-1.1,1.1-1.6,1.6c-0.5,0.5-1.1,0.9-1.6,1.3c-0.5,0.4-1.1,0.8-1.7,1.1
			c-0.2,0.1-0.5,0.3-0.8,0.5c-0.3,0.2-0.7,0.4-1.2,0.6c-0.4,0.2-0.9,0.4-1.4,0.5c-0.5,0.2-1,0.3-1.5,0.4c-1.3,0.2-2.3,0.1-3-0.3
			c-0.7-0.4-1.1-1-1.3-1.9c-0.1-0.4-0.1-0.9-0.1-1.4c0-0.5,0.1-1,0.2-1.4c0.1-0.5,0.3-0.9,0.4-1.3c0.2-0.4,0.4-0.7,0.6-1
			c0.2,0.1,0.5,0.1,0.9,0.2c0.4,0.1,0.9,0.2,1.4,0.2c0.5,0.1,1.1,0.1,1.7,0.1c0.6,0,1.3-0.1,2-0.2c0.6-0.1,1.1-0.3,1.8-0.6
			c0.6-0.3,1.2-0.6,1.7-1.1c0.5-0.4,0.9-0.9,1.2-1.5c0.3-0.6,0.4-1.2,0.3-1.8c-0.1-0.4-0.2-0.7-0.5-1c-0.3-0.3-0.6-0.5-0.9-0.7
			c-0.4-0.2-0.8-0.3-1.2-0.3c-0.4,0-0.9,0-1.3,0.1c-1.3,0.2-2.6,0.9-3.8,2c-1.3,1.1-2.4,2.4-3.4,4C88,20.1,87.7,20,87.6,20
			c-0.1,0-0.2-0.1-0.2-0.1c0,0,0,0,0,0c0,0,0,0-0.1,0c-0.1,0-0.2,0.1-0.2,0.2c0,0,0,0.1,0,0.1c0,0,0,0,0,0.1c0,0,0.1,0.1,0.2,0.1
			c0.1,0,0.3,0.1,0.6,0.2c-0.2,0.3-0.4,0.7-0.6,1.1c-0.2,0.4-0.3,0.9-0.4,1.3c0,0.2-0.1,0.4-0.1,0.5c0,0,0,0,0,0
			c-0.2,0.2-0.4,0.5-0.8,0.9c-0.3,0.4-0.7,0.8-1.2,1.3s-1,1-1.5,1.5c-0.6,0.5-1.1,1-1.8,1.4c-0.6,0.4-1.3,0.8-2,1.2
			c-0.7,0.3-1.4,0.6-2,0.7c-1.2,0.2-1.9-0.1-2-1.1c0-0.2-0.1-0.4-0.1-0.7c0-0.2,0-0.4,0.1-0.6c0-0.2,0.1-0.4,0.1-0.6
			c0,0,0.1-0.3,0.2-0.8c0.2-0.5,0.4-1.2,0.6-2.1c0.3-0.9,0.6-1.8,0.9-3c0.3-1.1,0.7-2.3,1.1-3.6c0-0.1,0.1-0.1,0.1-0.2
			c0-0.1,0.1-0.1,0.1-0.2c0.4-0.1,0.8-0.1,1.2-0.2c0.4-0.1,0.8-0.1,1.2-0.2c0.2,0,0.5-0.1,0.9-0.2c0.4-0.1,0.7-0.1,1.1-0.2
			c0.4-0.1,0.7-0.2,0.9-0.2c0.3-0.1,0.4-0.2,0.4-0.3c0-0.1-0.1-0.2-0.2-0.2c-1,0.2-2.1,0.5-3.2,0.7c-0.3,0.1-0.6,0.1-0.9,0.2
			c-0.3,0-0.6,0.1-1,0.2c0.3-0.5,0.7-1.1,1.2-2c0.5-0.8,1-1.8,1.5-2.8s1-2.2,1.5-3.4c0.5-1.2,0.8-2.4,1-3.6c0-0.1,0-0.3,0.1-0.6
			c0-0.3,0-0.5,0-0.7c0-0.2-0.1-0.4-0.2-0.4c-0.1,0-0.2,0-0.3,0c-0.2,0-0.5,0.4-0.8,1c-0.3,0.6-0.7,1.5-1.2,2.7
			c-0.5,1.2-1,2.6-1.5,4.3c-0.6,1.7-1.2,3.6-1.9,5.7c-1.6,0.2-3.2,0.4-4.9,0.6c-0.1,0-0.2,0-0.3,0c-0.1,0-0.1,0-0.1,0
			c-0.1,0-0.2,0.1-0.2,0.2c0,0.1,0.1,0.2,0.3,0.2c0.3,0,0.7-0.1,1.2-0.1c0.5-0.1,1-0.1,1.5-0.2c0.5-0.1,1-0.1,1.4-0.2
			c0.4-0.1,0.8-0.1,0.9-0.1c-0.9,1-1.7,2-2.6,3c-0.4,0.4-0.8,0.9-1.2,1.4c-0.4,0.5-0.8,1-1.2,1.5c-0.4,0.5-0.8,1-1.2,1.5
			c-0.4,0.5-0.8,0.9-1.1,1.4c-0.1,0.1-0.1,0.2-0.1,0.2c0,0,0,0.1,0.1,0.1c0,0,0.1,0.1,0.2,0c0.1,0,0.1-0.1,0.2-0.1
			c0.1-0.2,0.4-0.5,0.7-1c0.4-0.5,0.8-1,1.3-1.6c0.5-0.6,1-1.2,1.6-1.9c0.6-0.7,1.1-1.3,1.5-1.8c0.5-0.5,0.9-1,1.2-1.4
			c0.3-0.4,0.5-0.5,0.5-0.6c-0.3,1.1-0.7,2.2-1,3.2c-0.3,1.1-0.6,2-0.9,2.8c-0.3,0.8-0.5,1.5-0.6,2c-0.2,0.5-0.2,0.8-0.2,0.8
			c0,0,0,0.1-0.1,0.2c0,0.1-0.1,0.3-0.1,0.5c0,0.2-0.1,0.4-0.1,0.7c0,0.2,0,0.5,0,0.7c0.1,0.6,0.4,1,0.8,1.2c0.4,0.3,1,0.3,1.8,0.2
			c0.7-0.1,1.4-0.4,2.2-0.8s1.6-0.9,2.4-1.6c0.8-0.6,1.6-1.4,2.5-2.2c0.7-0.7,1.3-1.4,1.9-2.2c0,0,0,0.1,0,0.1c0,0.5,0,1,0.1,1.4
			c0.1,0.6,0.3,1.1,0.6,1.5c0.3,0.4,0.8,0.7,1.3,0.9c0.4,0.1,0.8,0.2,1.3,0.2s1,0,1.4-0.1c0.5-0.1,0.9-0.2,1.4-0.4
			c0.5-0.1,0.9-0.3,1.3-0.5c0.4-0.2,0.8-0.4,1.2-0.6c0.4-0.2,0.7-0.4,1.1-0.6c0.6-0.4,1.1-0.8,1.7-1.1c0.5-0.4,1.1-0.8,1.6-1.3
			c0.5-0.5,1.1-1,1.7-1.6c0.4-0.4,0.9-0.9,1.3-1.5c-0.2,0.6-0.3,1.3-0.4,1.8c0,0,0,0.2,0,0.4c0,0.2,0,0.5,0.1,0.9
			c0.1,0.3,0.1,0.5,0.3,0.8c0.1,0.3,0.3,0.5,0.6,0.6c0.2,0.2,0.5,0.3,0.8,0.4c0.3,0.1,0.7,0.1,1.2,0c0.2,0,0.5-0.1,0.8-0.2
			c0.3-0.1,0.6-0.2,0.9-0.3c0.9-0.5,1.8-0.9,2.5-1.4c0.8-0.5,1.5-1,2.1-1.5c0.7-0.5,1.3-1.1,1.9-1.7c0.4-0.4,0.9-0.9,1.3-1.3
			c-0.1,0.5-0.3,0.9-0.4,1.3c-0.1,0.6-0.1,1.1,0,1.5c0.1,0.4,0.2,0.6,0.3,0.8c0.2,0.2,0.4,0.3,0.6,0.4c0.2,0.1,0.5,0.1,0.7,0.1
			c0.3,0,0.5-0.1,0.8-0.1c0.8-0.1,1.5-0.4,2.3-0.9c0.8-0.4,1.5-0.9,2.2-1.5c0.7-0.6,1.4-1.2,2.1-1.9c0.5-0.6,1-1.1,1.5-1.7
			c0,0,0,0.1,0,0.1c0,0.5,0,1,0.1,1.4c0.1,0.6,0.3,1.1,0.6,1.5c0.3,0.4,0.8,0.7,1.3,0.9c0.4,0.1,0.8,0.2,1.3,0.2s1,0,1.4-0.1
			c0.5-0.1,0.9-0.2,1.4-0.4c0.5-0.1,0.9-0.3,1.3-0.5c0.4-0.2,0.8-0.4,1.2-0.6c0.4-0.2,0.7-0.4,1.1-0.6c0.6-0.4,1.1-0.8,1.7-1.1
			c0.5-0.4,1.1-0.8,1.6-1.3c0.5-0.5,1.1-1,1.7-1.6c0.6-0.6,1.2-1.3,1.8-2.1c0-0.1,0-0.1,0-0.2c0,0,0,0,0,0c0.5-0.8,1-1.6,1.5-2.4
			c0.6-1.2,1.2-2.4,1.6-3.7c0-0.1,0.1-0.2,0.1-0.3c0.3,0.1,0.6,0.2,0.9,0.2c0.3,0,0.6,0,0.9,0c0.3,0,0.5,0,0.7,0c0.2,0,0.3,0,0.3,0
			c0.1,0,0.2,0,0.3,0c0.1,0,0.3,0,0.4,0s0.3,0,0.4,0.1c0.1,0.1,0.2,0.1,0.2,0.3c0,0.1,0,0.2,0,0.4c0,0.1-0.1,0.3-0.1,0.4
			c-0.2,0.5-0.6,1.2-1,2c-0.4,0.8-0.8,1.6-1.2,2.5c-0.4,0.9-0.7,1.7-0.9,2.5c-0.2,0.8-0.3,1.5-0.2,2.1c0.1,0.5,0.3,0.9,0.7,1.2
			c0.4,0.3,0.9,0.4,1.5,0.3c0.4-0.1,1-0.3,1.5-0.5c0.6-0.3,1.2-0.6,1.9-1c0.7-0.4,1.4-0.9,2.1-1.5c0.7-0.6,1.4-1.1,2.1-1.8
			c0.1-0.1,0.1-0.1,0.1-0.2C155.7,13.4,155.7,13.3,155.7,13.3"/>
		<path class="st0" d="M122.8,33.9c-1.4,0-2.5,1.1-2.5,2.5c0,1.4,1.1,2.5,2.5,2.5c1.4,0,2.5-1.1,2.5-2.5
			C125.3,35,124.2,33.9,122.8,33.9"/>
		<path d="M122.8,34.1c-1.3,0-2.3,1-2.3,2.3c0,1.3,1,2.3,2.3,2.3c1.3,0,2.3-1,2.3-2.3C125.1,35.1,124.1,34.1,122.8,34.1 M122.8,39.1
			c-1.5,0-2.7-1.2-2.7-2.7c0-1.5,1.2-2.7,2.7-2.7c1.5,0,2.7,1.2,2.7,2.7C125.5,37.9,124.3,39.1,122.8,39.1"/>
		<path class="st1" d="M122.8,33.9c-1.4,0-2.5,1.1-2.5,2.5c0,1.4,1.1,2.5,2.5,2.5V33.9z"/>
		<path d="M122.6,34.1c-1.2,0.1-2.1,1.1-2.1,2.3c0,1.2,0.9,2.2,2.1,2.3V34.1z M122.8,39.1c-1.5,0-2.7-1.2-2.7-2.7
			c0-1.5,1.2-2.7,2.7-2.7c0.1,0,0.2,0.1,0.2,0.2v5C123,39,122.9,39.1,122.8,39.1"/>
		<path class="st1" d="M118.2,6.8c0-1.4,1.1-2.5,2.5-2.5c1.4,0,2.5,1.1,2.5,2.5H118.2z"/>
		<path d="M118.4,6.6h4.6c-0.1-1.2-1.1-2.1-2.3-2.1C119.5,4.5,118.5,5.4,118.4,6.6 M123.2,7h-5c-0.1,0-0.2-0.1-0.2-0.2
			c0-1.5,1.2-2.7,2.7-2.7c1.5,0,2.7,1.2,2.7,2.7C123.4,6.9,123.3,7,123.2,7"/>
		<path class="st0" d="M79.6,44.5c0,0-3.2,4.5-9.8,5.2c-0.1-0.5-0.5-1.2-0.5-1.2s6.6-1.3,8.3-4.2L79.6,44.5z"/>
		<path d="M69.5,48.6c0.1,0.2,0.3,0.5,0.4,0.9c5.5-0.6,8.5-3.9,9.3-4.8l-1.6-0.1C76,47.1,70.8,48.4,69.5,48.6 M69.8,49.9
			c-0.1,0-0.2-0.1-0.2-0.1c-0.1-0.5-0.5-1.1-0.5-1.1c0,0,0-0.1,0-0.2c0-0.1,0.1-0.1,0.1-0.1c0.1,0,6.5-1.3,8.2-4.1
			c0-0.1,0.1-0.1,0.2-0.1l2,0.2c0.1,0,0.1,0,0.1,0.1c0,0.1,0,0.1,0,0.2C79.7,44.7,76.5,49.2,69.8,49.9
			C69.8,49.9,69.8,49.9,69.8,49.9"/>
	</g>
	<polygon class="st0" points="40.7,14.9 38.9,23.8 43,14.9 	"/>
	<g>
		<path d="M40.8,15.1l-1.4,7.2l3.3-7.2H40.8z M38.9,24C38.9,24,38.9,24,38.9,24c-0.1,0-0.2-0.1-0.2-0.2l1.8-8.9
			c0-0.1,0.1-0.1,0.2-0.1H43c0.1,0,0.1,0,0.2,0.1c0,0.1,0,0.1,0,0.2l-4,8.9C39.1,23.9,39,24,38.9,24"/>
	</g>
	<polygon class="st1" points="41.2,23.8 43,14.9 38.9,23.8 	"/>
	<g>
		<path d="M39.2,23.6H41l1.4-7.2L39.2,23.6z M41.2,24h-2.3c-0.1,0-0.1,0-0.2-0.1c0-0.1,0-0.1,0-0.2l4-8.9c0-0.1,0.1-0.1,0.2-0.1
			c0.1,0,0.1,0.1,0.1,0.2l-1.8,8.9C41.4,23.9,41.3,24,41.2,24"/>
		<path d="M165.1,98.3v-2c0-0.5,0.2-0.8,0.6-0.8c0.2,0,0.5,0.1,0.7,0.2l0.1-0.8c-0.2-0.2-0.5-0.3-0.7-0.3c-0.3,0-0.5,0.1-0.7,0.4
			v-0.3h-0.9v3.6H165.1z M162.8,98.3v-3.6h-0.9v2c0,0.6-0.2,0.8-0.7,0.8c-0.2,0-0.4-0.1-0.5-0.2c-0.1-0.1-0.2-0.3-0.2-0.6v-2h-0.9
			v2.3c0,0.5,0.1,0.9,0.4,1.1c0.2,0.2,0.5,0.3,0.9,0.3c0.4,0,0.7-0.1,1-0.4v0.3H162.8z M158.4,98.2l0.1-0.8
			c-0.2,0.1-0.4,0.2-0.6,0.2c-0.2,0-0.3-0.1-0.3-0.3v-1.8h0.8v-0.8h-0.8v-1.5l-0.9,0.4v1.1h-0.5v0.8h0.5v2c0,0.6,0.3,1,0.9,1
			C157.9,98.4,158.1,98.3,158.4,98.2 M155,98.3v-5.1l-0.9,0.4v4.7H155z M152.6,98.3v-3.6h-0.9v2c0,0.6-0.2,0.8-0.7,0.8
			c-0.2,0-0.4-0.1-0.5-0.2c-0.1-0.1-0.2-0.3-0.2-0.6v-2h-0.9v2.3c0,0.5,0.1,0.9,0.4,1.1c0.2,0.2,0.5,0.3,0.9,0.3
			c0.4,0,0.7-0.1,1-0.4v0.3H152.6z M147.2,95.7l1.1-1.1h-1.1l-1,1v-2.5l-0.9,0.4v4.7h0.9v-1.6l0.3-0.3l1,1.9h1L147.2,95.7z
			 M141.6,98.3v-2c0-0.5,0.2-0.8,0.7-0.8c0.4,0,0.6,0.3,0.6,0.8v2h0.9V96c0-0.5-0.1-0.9-0.4-1.1c-0.2-0.2-0.5-0.3-0.9-0.3
			c-0.4,0-0.7,0.1-1,0.4v-1.8l-0.9,0.4v4.7H141.6z M139.4,97.2l-0.9-0.3c-0.1,0.4-0.3,0.5-0.6,0.5c-0.2,0-0.4-0.1-0.5-0.3
			c-0.1-0.2-0.2-0.4-0.2-0.7s0.1-0.6,0.2-0.7c0.1-0.2,0.3-0.3,0.5-0.3c0.3,0,0.5,0.2,0.6,0.5l0.9-0.3c-0.2-0.7-0.7-1.1-1.5-1.1
			c-0.5,0-0.9,0.2-1.2,0.5c-0.3,0.3-0.5,0.8-0.5,1.4c0,0.6,0.1,1.1,0.4,1.4c0.3,0.3,0.7,0.5,1.2,0.5C138.7,98.4,139.2,98,139.4,97.2
			 M132.9,97.5c-0.1-0.1-0.2-0.2-0.2-0.3c0-0.1,0.1-0.2,0.2-0.3c0.1-0.1,0.3-0.1,0.5-0.1c0.3,0,0.5,0,0.7,0.1v0.4
			c-0.2,0.2-0.5,0.3-0.8,0.3C133.2,97.6,133,97.5,132.9,97.5 M135,98.3V96c0-0.3,0-0.5-0.1-0.7c-0.1-0.2-0.2-0.3-0.4-0.4
			c-0.2-0.1-0.3-0.2-0.5-0.2c-0.2,0-0.3,0-0.5,0c-0.6,0-1.1,0.1-1.5,0.4l0.3,0.7c0.4-0.2,0.7-0.4,1.1-0.4c0.4,0,0.7,0.2,0.7,0.6v0.2
			c-0.2-0.1-0.5-0.2-0.8-0.2c-0.4,0-0.7,0.1-1,0.3c-0.3,0.2-0.4,0.5-0.4,0.9c0,0.4,0.1,0.7,0.4,0.9c0.3,0.2,0.6,0.3,1,0.3
			c0.4,0,0.7-0.1,0.9-0.3v0.3H135z M129.7,98.3v-2c0-0.5,0.2-0.8,0.6-0.8c0.2,0,0.5,0.1,0.7,0.2l0.1-0.8c-0.2-0.2-0.5-0.3-0.7-0.3
			c-0.3,0-0.5,0.1-0.7,0.4v-0.3h-0.9v3.6H129.7z M125.3,97.2v-1.4c0.1-0.2,0.4-0.3,0.6-0.3c0.2,0,0.4,0.1,0.5,0.3
			c0.1,0.2,0.2,0.4,0.2,0.7c0,0.3-0.1,0.6-0.2,0.7s-0.3,0.3-0.5,0.3C125.6,97.5,125.4,97.4,125.3,97.2 M127.1,97.9
			c0.3-0.3,0.4-0.8,0.4-1.4c0-0.6-0.1-1.1-0.4-1.4s-0.6-0.5-1.1-0.5c-0.3,0-0.6,0.1-0.8,0.3v-0.3h-0.9v5.1l0.9-0.4V98
			c0.2,0.2,0.4,0.3,0.8,0.3C126.5,98.4,126.8,98.2,127.1,97.9 M122.6,98c0.3-0.3,0.5-0.6,0.5-1.1c0-0.2,0-0.3-0.1-0.5
			c0-0.1-0.1-0.3-0.2-0.4c-0.1-0.1-0.2-0.2-0.3-0.3c-0.1-0.1-0.2-0.2-0.4-0.2c-0.2-0.1-0.3-0.1-0.4-0.2c-0.1,0-0.2-0.1-0.4-0.1
			c-0.2-0.1-0.4-0.1-0.5-0.2c-0.1,0-0.2-0.1-0.3-0.2s-0.1-0.2-0.1-0.3c0-0.2,0.1-0.3,0.2-0.4c0.1-0.1,0.3-0.1,0.5-0.1
			c0.4,0,0.7,0.2,0.9,0.5l0.9-0.3c-0.1-0.3-0.3-0.6-0.6-0.8c-0.3-0.2-0.7-0.3-1.1-0.3c-0.5,0-0.9,0.1-1.2,0.4
			c-0.3,0.3-0.5,0.6-0.5,1c0,0.2,0,0.4,0.1,0.5c0.1,0.2,0.1,0.3,0.2,0.4c0.1,0.1,0.2,0.2,0.4,0.3c0.2,0.1,0.3,0.2,0.4,0.2
			c0.1,0,0.3,0.1,0.5,0.2c0.2,0.1,0.3,0.1,0.4,0.1c0.1,0,0.2,0.1,0.3,0.1c0.1,0.1,0.2,0.1,0.2,0.2c0,0.1,0.1,0.2,0.1,0.3
			c0,0.2-0.1,0.3-0.2,0.4c-0.1,0.1-0.3,0.2-0.6,0.2c-0.2,0-0.5-0.1-0.6-0.2c-0.2-0.1-0.3-0.3-0.4-0.6l-0.9,0.3
			c0.1,0.4,0.4,0.8,0.7,1c0.3,0.2,0.7,0.4,1.2,0.4C121.8,98.4,122.2,98.2,122.6,98 M114.6,95.4c0.2,0,0.3,0.1,0.5,0.2
			c0.1,0.1,0.2,0.3,0.2,0.5h-1.5C113.9,95.6,114.2,95.4,114.6,95.4 M116,97.8l-0.6-0.6c-0.2,0.3-0.5,0.4-0.8,0.4
			c-0.2,0-0.4-0.1-0.5-0.2c-0.2-0.1-0.2-0.3-0.3-0.5h2.4c0-0.1,0-0.3,0-0.5c0-0.6-0.2-1-0.4-1.3c-0.3-0.3-0.7-0.4-1.2-0.4
			c-0.5,0-0.9,0.2-1.2,0.5c-0.3,0.3-0.5,0.8-0.5,1.4c0,0.6,0.2,1.1,0.5,1.4c0.3,0.3,0.7,0.5,1.2,0.5C115.2,98.4,115.7,98.2,116,97.8
			 M109.5,98.3v-2c0-0.5,0.2-0.8,0.7-0.8c0.4,0,0.6,0.3,0.6,0.8v2h0.9V96c0-0.5-0.1-0.9-0.4-1.1c-0.2-0.2-0.5-0.3-0.9-0.3
			c-0.4,0-0.7,0.1-1,0.4v-1.8l-0.9,0.4v4.7H109.5z M107.3,97.2l-0.9-0.3c-0.1,0.4-0.3,0.5-0.6,0.5c-0.2,0-0.4-0.1-0.5-0.3
			c-0.1-0.2-0.2-0.4-0.2-0.7s0.1-0.6,0.2-0.7c0.1-0.2,0.3-0.3,0.5-0.3c0.3,0,0.5,0.2,0.6,0.5l0.9-0.3c-0.2-0.7-0.7-1.1-1.5-1.1
			c-0.5,0-0.9,0.2-1.2,0.5c-0.3,0.3-0.5,0.8-0.5,1.4c0,0.6,0.2,1.1,0.4,1.4c0.3,0.3,0.7,0.5,1.2,0.5C106.6,98.4,107.1,98,107.3,97.2
			 M102.7,98.1c0.3-0.2,0.4-0.5,0.4-0.8c0-0.3-0.1-0.6-0.3-0.8s-0.5-0.3-0.9-0.5c-0.5-0.1-0.7-0.3-0.7-0.4c0-0.2,0.2-0.3,0.5-0.3
			c0.3,0,0.5,0.1,0.7,0.3l0.6-0.5c-0.3-0.4-0.8-0.6-1.3-0.6c-0.4,0-0.7,0.1-0.9,0.3c-0.3,0.2-0.4,0.4-0.4,0.8c0,0.3,0.1,0.5,0.3,0.7
			c0.2,0.2,0.5,0.3,0.9,0.5c0.2,0.1,0.4,0.2,0.5,0.2c0.1,0.1,0.1,0.1,0.1,0.2c0,0.2-0.2,0.3-0.5,0.3c-0.3,0-0.6-0.1-0.9-0.4
			l-0.6,0.5c0.1,0.2,0.3,0.4,0.6,0.5c0.3,0.1,0.5,0.2,0.8,0.2C102.1,98.4,102.4,98.3,102.7,98.1 M99,94.7h-0.9v3.6H99V94.7z
			 M98.9,94.1c0.1-0.1,0.2-0.2,0.2-0.4s-0.1-0.3-0.2-0.4c-0.1-0.1-0.2-0.2-0.4-0.2s-0.3,0.1-0.4,0.2c-0.1,0.1-0.2,0.2-0.2,0.4
			c0,0.1,0.1,0.3,0.2,0.4c0.1,0.1,0.2,0.2,0.4,0.2C98.7,94.2,98.8,94.2,98.9,94.1 M96.5,98.1c0.3-0.2,0.4-0.5,0.4-0.8
			c0-0.3-0.1-0.6-0.3-0.8s-0.5-0.3-0.9-0.5c-0.5-0.1-0.7-0.3-0.7-0.4c0-0.2,0.2-0.3,0.5-0.3c0.3,0,0.5,0.1,0.7,0.3l0.6-0.5
			c-0.3-0.4-0.8-0.6-1.3-0.6c-0.4,0-0.7,0.1-0.9,0.3c-0.3,0.2-0.4,0.4-0.4,0.8c0,0.3,0.1,0.5,0.3,0.7c0.2,0.2,0.5,0.3,0.9,0.5
			c0.2,0.1,0.4,0.2,0.5,0.2c0.1,0.1,0.1,0.1,0.1,0.2c0,0.2-0.2,0.3-0.5,0.3c-0.3,0-0.6-0.1-0.9-0.4L94,97.7c0.1,0.2,0.3,0.4,0.6,0.5
			c0.3,0.1,0.5,0.2,0.8,0.2C95.8,98.4,96.2,98.3,96.5,98.1 M90.7,97.2c-0.1-0.2-0.2-0.4-0.2-0.7c0-0.3,0.1-0.6,0.2-0.7
			c0.1-0.2,0.3-0.3,0.5-0.3c0.2,0,0.4,0.1,0.5,0.3c0.1,0.2,0.2,0.4,0.2,0.7S92,97,91.8,97.2c-0.1,0.2-0.3,0.3-0.5,0.3
			C91.1,97.5,90.9,97.4,90.7,97.2 M93,96.5c0-0.6-0.2-1.1-0.5-1.4c-0.3-0.3-0.7-0.5-1.2-0.5s-0.9,0.2-1.2,0.5
			c-0.3,0.3-0.5,0.8-0.5,1.4c0,0.6,0.2,1.1,0.4,1.4c0.3,0.3,0.7,0.5,1.2,0.5c0.5,0,0.9-0.2,1.2-0.5C92.8,97.5,93,97.1,93,96.5
			 M92.3,94c0.1-0.1,0.2-0.2,0.2-0.4c0-0.1-0.1-0.3-0.2-0.4s-0.2-0.2-0.4-0.2c-0.1,0-0.3,0.1-0.4,0.2c-0.1,0.1-0.2,0.2-0.2,0.4
			c0,0.2,0,0.3,0.1,0.4c0.1,0.1,0.2,0.1,0.4,0.1C92.1,94.2,92.2,94.1,92.3,94 M91,94c0.1-0.1,0.1-0.2,0.1-0.4c0-0.1,0-0.3-0.1-0.4
			c-0.1-0.1-0.2-0.2-0.4-0.2c-0.1,0-0.3,0.1-0.4,0.2s-0.2,0.2-0.2,0.4c0,0.2,0,0.3,0.1,0.4c0.1,0.1,0.2,0.1,0.4,0.1
			C90.8,94.2,90.9,94.1,91,94 M88.5,98.3v-0.8h-1.9l1.9-2.1v-0.7h-2.9v0.8h1.7l-1.9,2.1v0.7H88.5z M84.2,98.3V96
			c0-0.5-0.1-0.9-0.4-1.1c-0.2-0.2-0.5-0.3-0.9-0.3c-0.4,0-0.7,0.1-1,0.4v-0.3H81v3.6h0.9v-2c0-0.6,0.2-0.8,0.7-0.8
			c0.2,0,0.4,0.1,0.5,0.2c0.1,0.1,0.2,0.3,0.2,0.6v2H84.2z M77.5,97.5c-0.1-0.1-0.2-0.2-0.2-0.3c0-0.1,0.1-0.2,0.2-0.3
			c0.1-0.1,0.3-0.1,0.5-0.1c0.3,0,0.5,0,0.7,0.1v0.4c-0.2,0.2-0.5,0.3-0.8,0.3C77.8,97.6,77.6,97.5,77.5,97.5 M79.6,98.3V96
			c0-0.3,0-0.5-0.1-0.7c-0.1-0.2-0.2-0.3-0.4-0.4c-0.2-0.1-0.3-0.2-0.5-0.2c-0.2,0-0.3,0-0.5,0c-0.6,0-1.1,0.1-1.5,0.4l0.3,0.7
			c0.4-0.2,0.7-0.4,1.1-0.4c0.4,0,0.7,0.2,0.7,0.6v0.2C78.5,96,78.2,96,77.9,96c-0.4,0-0.7,0.1-1,0.3c-0.3,0.2-0.4,0.5-0.4,0.9
			c0,0.4,0.1,0.7,0.4,0.9c0.3,0.2,0.6,0.3,1,0.3c0.4,0,0.7-0.1,0.9-0.3v0.3H79.6z M74.3,98.3v-2c0-0.5,0.2-0.8,0.6-0.8
			c0.2,0,0.5,0.1,0.7,0.2l0.1-0.8c-0.2-0.2-0.5-0.3-0.7-0.3c-0.3,0-0.5,0.1-0.7,0.4v-0.3h-0.9v3.6H74.3z M72.4,95.5v-0.8h-0.8v-0.4
			c0-0.2,0.1-0.2,0.3-0.2c0.1,0,0.3,0,0.5,0.1v-0.8c-0.2-0.1-0.5-0.2-0.8-0.2c-0.6,0-0.9,0.3-0.9,0.9v0.6h-0.5v0.8h0.5v2.8h0.9v-2.8
			H72.4z M63.9,97.3c-0.1-0.1-0.2-0.2-0.2-0.4c0-0.3,0.2-0.6,0.6-0.8l0.9,1.1c-0.2,0.2-0.5,0.3-0.8,0.3C64.1,97.5,64,97.4,63.9,97.3
			 M64.8,94.1c0.1,0.1,0.1,0.2,0.1,0.3c0,0.3-0.1,0.5-0.4,0.6c-0.2-0.3-0.4-0.5-0.4-0.7c0-0.1,0-0.2,0.1-0.3
			c0.1-0.1,0.2-0.1,0.3-0.1C64.7,93.9,64.8,94,64.8,94.1 M65.7,97.8l0.4,0.5h1.2l-1-1.2c0.2-0.3,0.3-0.8,0.3-1.3h-0.9
			c0,0.2,0,0.3-0.1,0.5L65,95.6c0.5-0.3,0.8-0.8,0.8-1.3c0-0.3-0.1-0.6-0.3-0.8c-0.2-0.2-0.5-0.3-0.9-0.3c-0.4,0-0.7,0.1-0.9,0.3
			c-0.2,0.2-0.4,0.5-0.4,0.9c0,0.4,0.2,0.7,0.5,1.1c-0.7,0.4-1.1,0.9-1.1,1.5c0,0.4,0.1,0.8,0.4,1c0.3,0.3,0.6,0.4,1.1,0.4
			C64.8,98.4,65.3,98.2,65.7,97.8 M59.4,98.2l0.1-0.8c-0.2,0.1-0.4,0.2-0.6,0.2c-0.2,0-0.3-0.1-0.3-0.3v-1.8h0.8v-0.8h-0.8v-1.5
			l-0.9,0.4v1.1h-0.5v0.8h0.5v2c0,0.6,0.3,1,0.9,1C58.9,98.4,59.2,98.3,59.4,98.2 M56,98.1c0.3-0.2,0.4-0.5,0.4-0.8
			c0-0.3-0.1-0.6-0.3-0.8c-0.2-0.2-0.5-0.3-0.9-0.5c-0.5-0.1-0.7-0.3-0.7-0.4c0-0.2,0.2-0.3,0.5-0.3c0.3,0,0.5,0.1,0.7,0.3l0.6-0.5
			c-0.3-0.4-0.8-0.6-1.3-0.6c-0.4,0-0.7,0.1-0.9,0.3c-0.3,0.2-0.4,0.4-0.4,0.8c0,0.3,0.1,0.5,0.3,0.7c0.2,0.2,0.5,0.3,0.9,0.5
			c0.2,0.1,0.4,0.2,0.5,0.2c0.1,0.1,0.1,0.1,0.1,0.2c0,0.2-0.2,0.3-0.5,0.3c-0.3,0-0.6-0.1-0.9-0.4l-0.6,0.5
			c0.1,0.2,0.3,0.4,0.6,0.5c0.3,0.1,0.5,0.2,0.8,0.2C55.4,98.4,55.7,98.3,56,98.1 M52.3,98.3V96c0-0.5-0.1-0.9-0.4-1.1
			c-0.2-0.2-0.5-0.3-0.9-0.3c-0.4,0-0.7,0.1-1,0.4v-0.3h-0.9v3.6h0.9v-2c0-0.6,0.2-0.8,0.7-0.8c0.2,0,0.4,0.1,0.5,0.2
			c0.1,0.1,0.2,0.3,0.2,0.6v2H52.3z M47.7,98.3v-3.6h-0.9v2c0,0.6-0.2,0.8-0.7,0.8c-0.2,0-0.4-0.1-0.5-0.2c-0.1-0.1-0.2-0.3-0.2-0.6
			v-2h-0.9v2.3c0,0.5,0.1,0.9,0.4,1.1c0.2,0.2,0.5,0.3,0.9,0.3c0.4,0,0.7-0.1,1-0.4v0.3H47.7z M42.3,95.7l1.1-1.1h-1.1l-1,1v-2.5
			l-0.9,0.4v4.7h0.9v-1.6l0.3-0.3l1,1.9h1L42.3,95.7z M38.7,98.1c0.3-0.2,0.4-0.5,0.4-0.8c0-0.3-0.1-0.6-0.3-0.8
			c-0.2-0.2-0.5-0.3-0.9-0.5c-0.5-0.1-0.7-0.3-0.7-0.4c0-0.2,0.2-0.3,0.5-0.3c0.3,0,0.5,0.1,0.7,0.3l0.6-0.5
			c-0.3-0.4-0.8-0.6-1.3-0.6c-0.4,0-0.7,0.1-0.9,0.3c-0.3,0.2-0.4,0.4-0.4,0.8c0,0.3,0.1,0.5,0.3,0.7c0.2,0.2,0.5,0.3,0.9,0.5
			c0.2,0.1,0.4,0.2,0.5,0.2c0.1,0.1,0.1,0.1,0.1,0.2c0,0.2-0.2,0.3-0.5,0.3c-0.3,0-0.6-0.1-0.9-0.4l-0.6,0.5
			c0.1,0.2,0.3,0.4,0.6,0.5c0.3,0.1,0.5,0.2,0.8,0.2C38.1,98.4,38.4,98.3,38.7,98.1 M34.1,95.7l1.1-1.1h-1.1l-1,1v-2.5l-0.9,0.4v4.7
			h0.9v-1.6l0.3-0.3l1,1.9h1L34.1,95.7z M29.8,98.3v-2c0-0.5,0.2-0.8,0.6-0.8c0.2,0,0.5,0.1,0.7,0.2l0.1-0.8
			c-0.2-0.2-0.5-0.3-0.7-0.3c-0.3,0-0.5,0.1-0.7,0.4v-0.3h-0.9v3.6H29.8z M26,95.4c0.2,0,0.3,0.1,0.5,0.2c0.1,0.1,0.2,0.3,0.2,0.5
			h-1.5C25.3,95.6,25.6,95.4,26,95.4 M27.4,97.8l-0.6-0.6c-0.2,0.3-0.5,0.4-0.8,0.4c-0.2,0-0.4-0.1-0.5-0.2
			c-0.1-0.1-0.2-0.3-0.3-0.5h2.4c0-0.1,0-0.3,0-0.5c0-0.6-0.1-1-0.4-1.3s-0.7-0.4-1.2-0.4c-0.5,0-0.9,0.2-1.2,0.5
			c-0.3,0.3-0.5,0.8-0.5,1.4c0,0.6,0.2,1.1,0.5,1.4c0.3,0.3,0.7,0.5,1.2,0.5C26.6,98.4,27,98.2,27.4,97.8 M20.4,98.3l0.5-1.8
			c0.1-0.3,0.1-0.5,0.1-0.5c0,0,0,0.2,0.1,0.5l0.5,1.8h0.8l1-3.6h-0.9L22,96.4c0,0.1,0,0.1-0.1,0.3c0,0.1,0,0.2,0,0.2
			c-0.1-0.2-0.1-0.4-0.1-0.5l-0.5-1.8h-0.8l-0.5,1.8c0,0.1-0.1,0.2-0.1,0.5c0,0,0-0.1,0-0.2c0-0.1,0-0.2-0.1-0.3l-0.4-1.8h-0.9
			l1,3.6H20.4z M15.3,97.2c-0.1-0.2-0.2-0.4-0.2-0.7c0-0.3,0.1-0.6,0.2-0.8c0.1-0.2,0.3-0.3,0.5-0.3c0.3,0,0.5,0.1,0.6,0.3v1.4
			c-0.1,0.2-0.4,0.3-0.6,0.3C15.6,97.5,15.4,97.4,15.3,97.2 M16.5,98v0.3h0.9v-5.1l-0.9,0.4v1.3c-0.2-0.2-0.4-0.3-0.8-0.3
			c-0.4,0-0.8,0.2-1.1,0.5c-0.3,0.3-0.4,0.8-0.4,1.4c0,0.6,0.1,1.1,0.4,1.4c0.3,0.3,0.6,0.5,1.1,0.5C16.1,98.4,16.3,98.3,16.5,98
			 M13,98.3V96c0-0.5-0.1-0.9-0.4-1.1c-0.2-0.2-0.5-0.3-0.9-0.3c-0.4,0-0.7,0.1-1,0.4v-0.3H9.8v3.6h0.9v-2c0-0.6,0.2-0.8,0.7-0.8
			c0.2,0,0.4,0.1,0.5,0.2c0.1,0.1,0.2,0.3,0.2,0.6v2H13z M6.3,97.5c-0.1-0.1-0.2-0.2-0.2-0.3c0-0.1,0.1-0.2,0.2-0.3
			c0.1-0.1,0.3-0.1,0.5-0.1c0.3,0,0.5,0,0.7,0.1v0.4c-0.2,0.2-0.5,0.3-0.8,0.3C6.6,97.6,6.4,97.5,6.3,97.5 M8.5,98.3V96
			c0-0.3,0-0.5-0.1-0.7c-0.1-0.2-0.2-0.3-0.4-0.4c-0.2-0.1-0.3-0.2-0.5-0.2c-0.2,0-0.3,0-0.5,0c-0.6,0-1.1,0.1-1.5,0.4l0.3,0.7
			c0.4-0.2,0.7-0.4,1.1-0.4c0.4,0,0.7,0.2,0.7,0.6v0.2C7.3,96,7,96,6.7,96c-0.4,0-0.7,0.1-1,0.3c-0.3,0.2-0.4,0.5-0.4,0.9
			c0,0.4,0.1,0.7,0.4,0.9c0.3,0.2,0.6,0.3,1,0.3c0.4,0,0.7-0.1,0.9-0.3v0.3H8.5z M4,98.3v-5H3v2H1v-2H0v5h1v-2.1H3v2.1H4z"/>
		<path d="M152.2,80.7v-1.2h-4.8v1.2h1.8v5.1h1.2v-5.1H152.2z M146.3,80.7v-1.2h-4.8v1.2h1.8v5.1h1.2v-5.1H146.3z M137.5,83.4
			l0.6-1.6c0.1-0.2,0.2-0.4,0.2-0.6c0,0.1,0.1,0.3,0.2,0.6l0.6,1.6H137.5z M141.3,85.8l-2.4-6.2h-1.2l-2.4,6.2h1.3l0.5-1.3h2.4
			l0.5,1.3H141.3z M135.1,80.7v-1.2h-4.8v1.2h1.8v5.1h1.2v-5.1H135.1z M128.4,85.4c0.4-0.3,0.6-0.8,0.6-1.4c0-0.2,0-0.4-0.1-0.6
			c-0.1-0.2-0.1-0.3-0.3-0.5c-0.1-0.1-0.2-0.2-0.3-0.3c-0.1-0.1-0.3-0.2-0.5-0.3c-0.2-0.1-0.4-0.2-0.5-0.2c-0.1,0-0.3-0.1-0.5-0.2
			c-0.3-0.1-0.5-0.2-0.6-0.2c-0.1-0.1-0.2-0.1-0.4-0.2c-0.1-0.1-0.2-0.2-0.2-0.3c0-0.2,0.1-0.3,0.2-0.4c0.1-0.1,0.3-0.2,0.6-0.2
			c0.5,0,0.9,0.2,1.1,0.7l1.1-0.4c-0.1-0.4-0.4-0.8-0.7-1c-0.4-0.3-0.8-0.4-1.3-0.4c-0.6,0-1.2,0.2-1.5,0.5
			c-0.4,0.3-0.6,0.7-0.6,1.2c0,0.2,0,0.5,0.1,0.6s0.2,0.3,0.3,0.5c0.1,0.1,0.3,0.2,0.5,0.3c0.2,0.1,0.4,0.2,0.5,0.2
			c0.1,0,0.3,0.1,0.6,0.2c0.2,0.1,0.4,0.1,0.5,0.2c0.1,0,0.2,0.1,0.4,0.2c0.1,0.1,0.2,0.2,0.3,0.3c0.1,0.1,0.1,0.2,0.1,0.3
			c0,0.2-0.1,0.4-0.3,0.6c-0.2,0.1-0.4,0.2-0.7,0.2c-0.3,0-0.6-0.1-0.8-0.3c-0.2-0.2-0.4-0.4-0.6-0.7l-1.1,0.4
			c0.2,0.5,0.5,1,0.9,1.3c0.4,0.3,0.9,0.5,1.5,0.5C127.4,85.9,128,85.8,128.4,85.4 M123.5,85.8l-2.2-4l1.8-2.2h-1.4l-2.4,3v-3h-1.2
			v6.2h1.2v-1.6l1.2-1.4l1.6,3H123.5z M112.6,80.7h1.7c0.3,0,0.5,0.1,0.6,0.2c0.1,0.2,0.2,0.3,0.2,0.6c0,0.2-0.1,0.4-0.2,0.6
			c-0.1,0.2-0.3,0.2-0.6,0.2h-1.7V80.7z M112.6,85.8v-2.3h1.3l1.2,2.3h1.4l-1.2-2.5c0.4-0.1,0.7-0.4,0.9-0.7
			c0.2-0.3,0.3-0.7,0.3-1.1c0-0.6-0.2-1-0.5-1.4c-0.3-0.4-0.9-0.5-1.6-0.5h-2.9v6.2H112.6z M109.7,85.8v-1.1h-3.2v-1.5h1.8V82h-1.8
			v-1.3h3.1v-1.1h-4.3v6.2H109.7z M99.4,85.8l0.9-3.7c0-0.1,0.1-0.3,0.1-0.5c0,0.2,0,0.3,0.1,0.5l0.9,3.7h1.1l1.3-6.2h-1.2l-0.7,3.5
			c0,0.1-0.1,0.3-0.1,0.5c0-0.2-0.1-0.3-0.1-0.5l-0.9-3.5h-1L99,83.1c0,0.1-0.1,0.3-0.1,0.5c0-0.2-0.1-0.3-0.1-0.5l-0.7-3.5h-1.2
			l1.3,6.2H99.4z M95.4,82.6h-2.3v1.1h2.3V82.6z M89.7,85.8l2.2-6.2h-1.3l-1.4,4.1c-0.1,0.2-0.1,0.3-0.1,0.4c0-0.2-0.1-0.3-0.1-0.4
			l-1.4-4.1h-1.3l2.2,6.2H89.7z M85,79.6h-1.2v6.2H85V79.6z M82.2,80.7v-1.2h-4.8v1.2h1.8v5.1h1.2v-5.1H82.2z M73.4,83.4l0.6-1.6
			c0.1-0.2,0.2-0.4,0.2-0.6c0,0.1,0.1,0.3,0.2,0.6l0.6,1.6H73.4z M77.2,85.8l-2.4-6.2h-1.2l-2.4,6.2h1.3l0.5-1.3h2.4l0.5,1.3H77.2z
			 M70,85.8v-1.1h-3.2v-1.5h1.8V82h-1.8v-1.3h3.1v-1.1h-4.3v6.2H70z M60.1,80.7h1.7c0.3,0,0.5,0.1,0.6,0.2c0.1,0.2,0.2,0.3,0.2,0.6
			c0,0.2-0.1,0.4-0.2,0.6c-0.1,0.2-0.3,0.2-0.6,0.2h-1.7V80.7z M60.1,85.8v-2.3h1.3l1.2,2.3h1.4l-1.2-2.5c0.4-0.1,0.7-0.4,0.9-0.7
			c0.2-0.3,0.3-0.7,0.3-1.1c0-0.6-0.2-1-0.5-1.4c-0.3-0.4-0.9-0.5-1.6-0.5h-2.9v6.2H60.1z M57.4,85.8l-2.2-4l1.8-2.2h-1.4l-2.4,3v-3
			H52v6.2h1.2v-1.6l1.2-1.4l1.6,3H57.4z M47.7,85.8v-1.1h-3.2v-1.5h1.8V82h-1.8v-1.3h3.1v-1.1h-4.3v6.2H47.7z M39.7,85.8l2.2-6.2
			h-1.3l-1.4,4.1c-0.1,0.2-0.1,0.3-0.1,0.4c0-0.2-0.1-0.3-0.1-0.4l-1.4-4.1h-1.3l2.2,6.2H39.7z M35,79.6h-1.2v6.2H35V79.6z
			 M32.2,80.7v-1.2h-4.8v1.2h1.8v5.1h1.2v-5.1H32.2z M26.6,85.8l-2.2-4l1.8-2.2h-1.4l-2.4,3v-3h-1.2v6.2h1.2v-1.6l1.2-1.4l1.6,3
			H26.6z M16,83.4l0.6-1.6c0.1-0.2,0.2-0.4,0.2-0.6c0,0.1,0.1,0.3,0.2,0.6l0.6,1.6H16z M19.8,85.8l-2.4-6.2h-1.2l-2.4,6.2h1.3
			l0.5-1.3H18l0.5,1.3H19.8z"/>
	</g>
</g>
</svg>
