<?xml version="1.0" encoding="UTF-8" standalone="no"?>
<!-- Generator: Adobe Illustrator 21.1.0, SVG Export Plug-In . SVG Version: 6.00 Build 0)  -->
<svg xmlns:rdf="http://www.w3.org/1999/02/22-rdf-syntax-ns#" style="enable-background:new 0 0 166.6 99.7" xmlns="http://www.w3.org/2000/svg" xml:space="preserve" viewBox="0 0 166.6 99.7" version="1.1" y="0px" x="0px" xmlns:cc="http://creativecommons.org/ns#" xmlns:dc="http://purl.org/dc/elements/1.1/"><metadata><rdf:RDF><cc:Work rdf:about=""><dc:format>image/svg+xml</dc:format><dc:type rdf:resource="http://purl.org/dc/dcmitype/StillImage"/><dc:title/></cc:Work></rdf:RDF></metadata><style type="text/css">
	.st0{fill:#1D1D1B;}
	.st1{fill:#836FA5;}
	.st2{fill:#D1E4BE;}
</style><path class="st0" d="m45 34.7c0.1 0.3 0.3 0.6 0.5 1 0.2 0.3 0.5 0.6 0.8 0.9s0.7 0.5 1.2 0.6c0.2 0.1 0.5 0.1 0.8 0.1s0.5 0 0.8-0.1c0.9-0.2 1.7-0.5 2.4-1.1s1.3-1.3 1.8-2.1 1-1.8 1.5-2.9c0.4-1 0.9-2.1 1.3-3.3 0.6 0.1 1.3 0.1 2.1 0 0.8 0 1.8-0.2 2.9-0.4 0.4-0.1 0.7-0.1 1-0.2s0.6-0.2 0.9-0.2c0.6 1 1.1 2 1.5 3s0.7 2 0.8 3v0.1l0.5-0.1v-0.1c-0.2-1.2-0.4-2.4-0.5-3.5s-0.2-2.1-0.2-3.2c0.6-0.3 1.2-0.6 1.7-0.9s0.9-0.6 1.2-0.8 0.6-0.5 0.9-0.9c0.1-0.1 0.1-0.2 0.1-0.2 0-0.1-0.1-0.1-0.1-0.2h-0.2s-0.1 0-0.2 0.1l-0.2 0.2c-0.1 0.1-0.3 0.3-0.6 0.5s-0.6 0.5-1.1 0.7c-0.4 0.3-0.9 0.5-1.5 0.8 0-1.8 0.2-3.6 0.5-5.1 0.3-1.6 0.8-3.1 1.3-4.4s1-2.5 1.6-3.5 1.1-1.9 1.7-2.6c0.5-0.7 1-1.3 1.4-1.7l0.7-0.7c0.5-0.1 1.1-0.1 1.7 0s1.2 0.2 1.7 0.5h0.2c0.1 0 0.1 0 0.2-0.1v-0.2c0-0.1-0.1-0.2-0.2-0.2-0.7-0.3-1.5-0.5-2.2-0.6-0.7 0-1.4 0-2 0.1-1.6 0.3-3 0.9-4.3 1.7s-2.5 1.9-3.6 3.2-2.1 2.7-3.1 4.4-1.9 3.4-2.8 5.3c-0.1 0.1-0.1 0.3-0.2 0.4s-0.1 0.3-0.2 0.4h-0.9c-0.3 0-0.6 0.1-0.9 0.1-0.4 0.1-0.8 0.2-1.2 0.4s-0.7 0.4-1 0.6-0.5 0.5-0.6 0.9c-0.1 0.3-0.1 0.7-0.1 1.2 0.1 0.5 0.3 0.9 0.7 1.2s1 0.6 1.8 0.8c-0.4 1.1-0.9 2.2-1.3 3.2s-0.9 1.9-1.4 2.7-1.1 1.5-1.7 2-1.3 0.9-2.1 1c-0.6 0.1-1.2 0.1-1.7-0.1s-0.9-0.5-1.2-0.9-0.6-0.8-0.8-1.2c-0.2-0.4-0.3-0.8-0.4-1.1 0-0.2-0.1-0.2-0.3-0.2-0.1 0-0.1 0-0.2 0.1 0 0.1-0.1 0.1 0 0.2 0 0 0 0.2 0.1 0.4 0.5 0.4 0.6 0.7 0.7 1zm19.4-6.5c-0.2-0.5-0.5-0.9-0.8-1.4 0.4-0.1 0.7-0.3 1-0.4v1.5c0 0.4 0.1 0.8 0.1 1.2 0-0.2-0.2-0.5-0.3-0.9zm-6-5.8c0.1-0.1 0.1-0.2 0.2-0.4 0.9-1.9 1.8-3.6 2.8-5.2 0.9-1.6 1.9-3 3-4.2 1-1.2 2.2-2.3 3.4-3.1 1.1-0.8 2.4-1.4 3.8-1.7-0.2 0.2-0.4 0.4-0.6 0.7-0.3 0.4-0.6 0.8-1 1.3s-0.7 1.1-1.1 1.7-0.8 1.4-1.2 2.1c-0.4 0.8-0.7 1.6-1.1 2.5-0.5 0.9-0.8 1.9-1.1 2.9s-0.5 2.1-0.6 3.3c-0.2 1.1-0.2 2.3-0.2 3.6-0.2 0.1-0.4 0.2-0.7 0.2-0.2 0.1-0.5 0.2-0.7 0.2-0.6-0.9-1.3-1.7-2.1-2.3-0.8-0.7-1.8-1.1-2.9-1.3 0-0.1 0.1-0.2 0.1-0.3zm-0.4 0.8c1 0.2 2 0.5 2.7 1.2 0.8 0.6 1.4 1.3 2 2.1-0.5 0.1-0.9 0.2-1.3 0.3s-0.9 0.2-1.3 0.2c-0.9 0.1-1.6 0.2-2.3 0.2h-1.6c0.3-0.7 0.5-1.3 0.8-2 0.4-0.6 0.7-1.3 1-2zm-2.9 3.8c-0.2-0.1-0.5-0.2-0.7-0.3s-0.4-0.3-0.5-0.4l-0.3-0.6c-0.1-0.4 0-0.7 0.1-1s0.3-0.5 0.6-0.7c0.2-0.2 0.5-0.3 0.8-0.4s0.6-0.2 0.9-0.2c0.5-0.1 1-0.1 1.5-0.1-0.3 0.7-0.6 1.4-0.9 2-0.3 0.7-0.5 1.3-0.8 2-0.2-0.2-0.5-0.2-0.7-0.3z"/><path class="st1" d="m122.8 33.9c-1.4 0-2.5 1.1-2.5 2.5s1.1 2.5 2.5 2.5 2.5-1.1 2.5-2.5-1.1-2.5-2.5-2.5"/><path class="st2" d="m122.8 33.9c-1.4 0-2.5 1.1-2.5 2.5s1.1 2.5 2.5 2.5v-5z"/><path class="st2" d="m118.2 6.8c0-1.4 1.1-2.5 2.5-2.5s2.5 1.1 2.5 2.5h-5z"/><path class="st0" d="m155.7 13.3s-0.1-0.1-0.1 0c0 0-0.1 0-0.1 0.1-0.7 0.6-1.3 1.1-2 1.7-0.7 0.5-1.3 1-2 1.4-0.6 0.4-1.2 0.8-1.8 1-0.6 0.3-1 0.5-1.4 0.5-1.1 0.2-1.8-0.2-1.9-1.1-0.1-0.5-0.1-1 0.1-1.6 0.1-0.6 0.3-1.2 0.6-1.9s0.6-1.3 0.9-2 0.6-1.3 0.9-1.9 0.5-1.1 0.7-1.5c0.2-0.5 0.2-0.8 0.2-1s-0.1-0.4-0.3-0.5-0.3-0.2-0.5-0.2h-0.6c-0.2 0-0.3 0-0.4 0.1-0.1 0-0.3 0-0.5 0.1h-0.7-0.8c-0.3 0-0.5-0.1-0.7-0.2 0.2-0.6 0.2-1 0.1-1.4v-0.2c0-0.1-0.1-0.2-0.1-0.3-0.1-0.1-0.2-0.2-0.3-0.2s-0.3-0.1-0.5 0c0 0-0.1 0-0.2 0.1-0.1 0-0.2 0.1-0.3 0.2s-0.1 0.2-0.2 0.4v0.6c0 0.2 0.1 0.4 0.3 0.7 0.1 0.2 0.3 0.4 0.6 0.5v0.1c0 0.1 0 0.1-0.1 0.2-0.5 1.2-1 2.4-1.6 3.6s-1.3 2.3-2.2 3.4c-0.4 0.5-0.8 0.9-1.1 1.3l-1.6 1.6c-0.5 0.5-1.1 0.9-1.6 1.3s-1.1 0.8-1.7 1.1c-0.2 0.1-0.5 0.3-0.8 0.5s-0.7 0.4-1.2 0.6c-0.4 0.2-0.9 0.4-1.4 0.5-0.5 0.2-1 0.3-1.5 0.4-1.3 0.2-2.3 0.1-3-0.3s-1.1-1-1.3-1.9c-0.1-0.4-0.1-0.9-0.1-1.4s0.1-1 0.2-1.4c0.1-0.5 0.3-0.9 0.4-1.3 0.2-0.4 0.4-0.7 0.6-1 0.2 0.1 0.5 0.1 0.9 0.2s0.9 0.2 1.4 0.2c0.5 0.1 1.1 0.1 1.7 0.1s1.3-0.1 2-0.2c0.6-0.1 1.1-0.3 1.8-0.6 0.6-0.3 1.2-0.6 1.7-1.1 0.5-0.4 0.9-0.9 1.2-1.5s0.4-1.2 0.3-1.8c-0.1-0.4-0.2-0.7-0.5-1s-0.6-0.5-0.9-0.7c-0.4-0.2-0.8-0.3-1.2-0.3s-0.9 0-1.3 0.1c-1.3 0.2-2.6 0.9-3.8 2-1.3 1.1-2.4 2.4-3.4 4-0.3-0.1-0.6-0.2-0.7-0.2s-0.2-0.1-0.2-0.1h-0.1c-0.1 0-0.2 0.1-0.2 0.2v0.1 0.1s0.1 0.1 0.2 0.1 0.3 0.1 0.6 0.2c-0.2 0.3-0.4 0.7-0.6 1.1s-0.3 0.9-0.4 1.3c-0.1 0.2-0.1 0.4-0.1 0.6h-0.1c-0.6 0.7-1.2 1.4-1.8 2.1-0.7 0.7-1.4 1.3-2.1 1.9s-1.4 1.1-2.2 1.5c-0.7 0.4-1.4 0.7-2.1 0.8-0.2 0-0.4 0.1-0.6 0.1h-0.6c-0.2 0-0.3-0.1-0.5-0.3-0.1-0.1-0.2-0.3-0.3-0.6-0.1-0.4-0.1-0.9 0-1.5s0.3-1.1 0.5-1.7 0.4-1.1 0.7-1.7c0.2-0.6 0.5-1 0.7-1.5 0.3-0.7 0.6-1.3 0.9-1.9s0.6-1.1 0.8-1.6c0.3-0.5 0.5-1 0.9-1.5v-0.1c0-0.1-0.1-0.2-0.2-0.2s-0.1 0-0.1 0.1c-0.3 0.6-0.6 1.1-0.9 1.6s-0.5 1-0.8 1.6-0.6 1.3-0.9 1.9c-0.2 0.5-0.5 1-0.7 1.6-0.2 0.4-0.3 0.8-0.5 1.2h-0.1c-0.6 0.7-1.3 1.4-1.9 2s-1.2 1.2-1.9 1.7l-2.1 1.5c-0.7 0.5-1.6 0.9-2.5 1.4-0.5 0.3-1 0.4-1.5 0.5-0.6 0.1-1.1 0.1-1.6-0.2-0.5-0.2-0.7-0.6-0.9-1.3 0-0.1 0-0.3-0.1-0.4v-0.4-0.3c0.1-0.5 0.2-0.9 0.3-1.4s0.2-0.9 0.4-1.4c1.6-1.6 3.1-3.1 4.2-4.3 1.2-1.2 2.2-2.4 3-3.4 0.9-1.1 1.6-2.1 2.2-3 0.6-1 1.2-2 1.7-3.1 0.2-0.4 0.3-0.8 0.5-1.2s0.3-0.8 0.4-1.2l0.3-1.2c0.1-0.4 0-0.8 0-1.1-0.1-0.5-0.3-0.9-0.6-1.1 0-0.7-0.4-0.8-0.9-0.7-0.3 0.1-0.7 0.2-1.1 0.5s-0.8 0.7-1.3 1.2l-1.2 1.5c-0.4 0.5-0.7 1-0.9 1.3-0.2 0.4-0.4 0.6-0.3 0.6l-0.9 1.8c-0.3 0.5-0.6 1.2-0.9 1.9s-0.7 1.6-1.1 2.4c-0.3 0.8-0.7 1.7-1.1 2.7s-0.8 2-1.1 3c-0.4 1-0.7 2-1 3v0.1h-0.1c-0.6 0.8-1.2 1.4-1.8 2l-1.6 1.6c-0.5 0.5-1.1 0.9-1.6 1.3s-1.1 0.8-1.7 1.1c-0.2 0.1-0.5 0.3-0.8 0.5s-0.7 0.4-1.2 0.6-0.9 0.4-1.4 0.5c-0.5 0.2-1 0.3-1.5 0.4-1.3 0.2-2.3 0.1-3-0.3s-1.1-1-1.3-1.9c-0.1-0.4-0.1-0.9-0.1-1.4s0.1-1 0.2-1.4c0.1-0.5 0.3-0.9 0.4-1.3 0.2-0.4 0.4-0.7 0.6-1 0.2 0.1 0.5 0.1 0.9 0.2s0.9 0.2 1.4 0.2c0.5 0.1 1.1 0.1 1.7 0.1s1.3-0.1 2-0.2c0.6-0.1 1.1-0.3 1.8-0.6 0.6-0.3 1.2-0.6 1.7-1.1 0.5-0.4 0.9-0.9 1.2-1.5s0.4-1.2 0.3-1.8c-0.1-0.4-0.2-0.7-0.5-1s-0.6-0.5-0.9-0.7c-0.4-0.2-0.8-0.3-1.2-0.3s-0.9 0-1.3 0.1c-1.3 0.2-2.6 0.9-3.8 2-1.3 1.1-2.4 2.4-3.4 4-0.2 0-0.5-0.1-0.6-0.1s-0.2-0.1-0.2-0.1h-0.1c-0.1 0-0.2 0.1-0.2 0.2v0.1 0.1s0.1 0.1 0.2 0.1 0.3 0.1 0.6 0.2c-0.2 0.3-0.4 0.7-0.6 1.1s-0.3 0.9-0.4 1.3c0 0.2-0.1 0.4-0.1 0.5-0.2 0.2-0.4 0.5-0.8 0.9-0.3 0.4-0.7 0.8-1.2 1.3l-1.5 1.5s-1.1 1-1.8 1.4c-0.6 0.4-1.3 0.8-2 1.2-0.7 0.3-1.4 0.6-2 0.7-1.2 0.2-1.9-0.1-2-1.1 0-0.2-0.1-0.4-0.1-0.7 0-0.2 0-0.4 0.1-0.6 0-0.2 0.1-0.4 0.1-0.6 0 0 0.1-0.3 0.2-0.8 0.2-0.5 0.4-1.2 0.6-2.1 0.3-0.9 0.6-1.8 0.9-3 0.3-1.1 0.7-2.3 1.1-3.6 0-0.1 0.1-0.1 0.1-0.2s0.1-0.1 0.1-0.2c0.4-0.1 0.8-0.1 1.2-0.2s0.8-0.1 1.2-0.2c0.2 0 0.5-0.1 0.9-0.2s0.7-0.1 1.1-0.2c0.4-0.1 0.7-0.2 0.9-0.2 0.3-0.1 0.4-0.2 0.4-0.3s-0.1-0.2-0.2-0.2c-1 0.2-2.1 0.5-3.2 0.7-0.3 0.1-0.6 0.1-0.9 0.2s-0.6 0.1-1 0.2c0.3-0.5 0.7-1.1 1.2-2 0.5-0.8 1-1.8 1.5-2.8 0.5-1.1 1-2.2 1.5-3.4s0.8-2.4 1-3.6c0-0.1 0-0.3 0.1-0.6v-0.7c0-0.2-0.1-0.4-0.2-0.4h-0.3c-0.2 0-0.5 0.4-0.8 1s-0.7 1.5-1.2 2.7-1 2.6-1.5 4.3c-0.6 1.7-1.2 3.6-1.9 5.7-1.6 0.2-3.2 0.4-4.9 0.6h-0.3-0.1c-0.1 0-0.2 0.1-0.2 0.2s0.1 0.2 0.3 0.2c0.3 0 0.7-0.1 1.2-0.1 0.5-0.1 1-0.1 1.5-0.2s1-0.1 1.4-0.2 0.8-0.1 0.9-0.1c-0.9 1-1.7 2-2.6 3-0.4 0.4-0.8 0.9-1.2 1.4l-1.2 1.5-1.2 1.5c-0.4 0.5-0.8 0.9-1.1 1.4-0.1 0.1-0.1 0.2-0.1 0.2s0 0.1 0.1 0.1c0 0 0.1 0.1 0.2 0 0.1 0 0.1-0.1 0.2-0.1 0.1-0.2 0.4-0.5 0.7-1 0.4-0.5 0.8-1 1.3-1.6s1-1.2 1.6-1.9 1.1-1.3 1.5-1.8c0.5-0.5 0.9-1 1.2-1.4s0.5-0.5 0.5-0.6c-0.3 1.1-0.7 2.2-1 3.2-0.3 1.1-0.6 2-0.9 2.8s-0.5 1.5-0.6 2c-0.2 0.5-0.2 0.8-0.2 0.8s0 0.1-0.1 0.2c0 0.1-0.1 0.3-0.1 0.5s-0.1 0.4-0.1 0.7v0.7c0.1 0.5 0.4 1 0.8 1.2 0.4 0.3 1 0.3 1.8 0.2 0.7-0.1 1.4-0.4 2.2-0.8s1.6-0.9 2.4-1.6c0.8-0.6 1.6-1.4 2.5-2.2 0.7-0.7 1.3-1.4 1.9-2.2v0.1c0 0.5 0 1 0.1 1.4 0.1 0.6 0.3 1.1 0.6 1.5s0.8 0.7 1.4 0.9c0.4 0.1 0.8 0.2 1.3 0.2s1 0 1.4-0.1c0.5-0.1 0.9-0.2 1.4-0.4s0.9-0.3 1.3-0.5l1.2-0.6c0.4-0.2 0.7-0.4 1.1-0.6 0.6-0.4 1.1-0.8 1.7-1.1 0.5-0.4 1.1-0.8 1.6-1.3s1.1-1 1.7-1.6c0.4-0.4 0.9-0.9 1.3-1.5-0.2 0.6-0.3 1.3-0.4 1.8v0.4c0 0.2 0 0.5 0.1 0.9 0.1 0.3 0.1 0.5 0.3 0.8 0.1 0.3 0.3 0.5 0.6 0.6 0.2 0.2 0.5 0.3 0.8 0.4s0.7 0.1 1.2 0c0.2 0 0.5-0.1 0.8-0.2s0.6-0.2 0.9-0.3c0.9-0.5 1.8-0.9 2.5-1.4 0.8-0.5 1.5-1 2.1-1.5 0.7-0.5 1.3-1.1 1.9-1.7l1.3-1.3c-0.1 0.5-0.3 0.9-0.4 1.3-0.1 0.6-0.1 1.1 0 1.5s0.2 0.6 0.3 0.8c0.2 0.2 0.4 0.3 0.6 0.4s0.5 0.1 0.7 0.1c0.3 0 0.5-0.1 0.8-0.1 0.8-0.1 1.5-0.4 2.3-0.9 0.8-0.4 1.5-0.9 2.2-1.5s1.4-1.2 2-1.9c0.5-0.6 1-1.1 1.5-1.7v0.1c0 0.5 0 1 0.1 1.4 0.1 0.6 0.3 1.1 0.6 1.5s0.8 0.7 1.4 0.9c0.4 0.1 0.8 0.2 1.3 0.2s1 0 1.4-0.1c0.5-0.1 0.9-0.2 1.4-0.4 0.5-0.1 0.9-0.3 1.3-0.5l1.2-0.6c0.4-0.2 0.7-0.4 1.1-0.6 0.6-0.4 1.1-0.8 1.7-1.1 0.5-0.4 1.1-0.8 1.6-1.3s1.1-1 1.7-1.6 1.2-1.3 1.8-2.1v-0.2l1.5-2.4c0.6-1.2 1.2-2.4 1.6-3.7 0-0.1 0.1-0.2 0.1-0.3 0.3 0.1 0.6 0.2 0.9 0.2h0.9 0.7 0.3 0.3 0.4s0.3 0 0.4 0.1c0.1 0 0.2 0.1 0.2 0.3v0.4c0 0.1-0.1 0.3-0.1 0.4-0.2 0.5-0.6 1.2-1 2s-0.8 1.6-1.2 2.5-0.7 1.7-0.9 2.5-0.3 1.5-0.2 2.1c0.1 0.5 0.3 0.9 0.7 1.2s0.9 0.4 1.5 0.3c0.4-0.1 1-0.3 1.5-0.5 0.6-0.3 1.2-0.6 1.9-1s1.4-0.9 2.1-1.5 1.4-1.1 2.1-1.8c0.1-0.1 0.1-0.1 0.1-0.2 0.4 0.3 0.4 0.2 0.4 0.2zm-26.8-2.5c0.6-0.7 1.2-1.2 1.8-1.7 0.6-0.4 1.2-0.8 1.7-1s1.1-0.4 1.5-0.5 0.8-0.1 1.1 0c0.4 0 0.7 0.1 1 0.3 0.3 0.1 0.6 0.3 0.8 0.6 0.2 0.2 0.3 0.5 0.4 0.8 0.1 0.4 0 0.9-0.2 1.4s-0.6 0.9-1 1.3-1 0.7-1.6 1-1.2 0.5-1.8 0.6c-0.5 0.1-1 0.1-1.5 0.2h-1.4c-0.4 0-0.8-0.1-1.2-0.1-0.4-0.1-0.7-0.1-0.9-0.2l-0.6-0.1c0.7-1.2 1.3-2 1.9-2.6zm-23.8 5c0.4-1.1 0.8-2.2 1.2-3.2s0.8-2 1.2-2.8c0.4-0.9 0.7-1.6 1-2.3 0.3-0.6 0.5-1.1 0.7-1.5 0.1-0.1 0.3-0.6 0.3-0.6 0.3-0.5 0.5-0.9 0.7-1.2s0.5-0.7 0.8-1.1 0.6-0.8 0.9-1.1c0.3-0.4 0.7-0.7 1-0.9 0.3-0.3 0.7-0.4 1-0.5h0.3c0.2 0 0.4 0.1 0.6 0.2 0.3 0.2 0.4 0.5 0.5 0.8 0.1 0.5 0 1.1-0.2 1.8-0.2 0.8-0.5 1.6-1 2.6-0.3 0.7-0.7 1.4-1 2-0.4 0.6-0.8 1.3-1.2 1.9s-0.9 1.3-1.4 1.9c-0.5 0.7-1.1 1.4-1.8 2.1s-1.4 1.5-2.2 2.4c-0.8 0.8-1.7 1.7-2.6 2.7 0.5-1.1 0.8-2.2 1.2-3.2zm-14.5 2c0.6-0.7 1.2-1.2 1.8-1.7 0.6-0.4 1.2-0.8 1.7-1s1.1-0.4 1.5-0.5 0.8-0.1 1.1 0c0.4 0 0.7 0.1 1 0.3 0.3 0.1 0.6 0.3 0.8 0.6 0.2 0.2 0.3 0.5 0.4 0.8 0.1 0.4 0 0.9-0.2 1.4s-0.6 0.9-1 1.3-1 0.7-1.5 1-1.2 0.5-1.8 0.6c-0.5 0.1-1 0.1-1.5 0.2h-1.4c-0.4 0-0.8-0.1-1.2-0.1-0.4-0.1-0.7-0.1-0.9-0.2l-0.6-0.1c0.6-1.1 1.2-1.9 1.8-2.6zm-9.9-5.3c0.5-1.4 1-2.8 1.4-4s0.8-2.2 1.2-3c0.4-0.9 0.6-1.1 0.7-1.2v0.1 0.2 0.3c-0.1 1.1-0.4 2.3-0.8 3.5s-0.9 2.3-1.4 3.3c-0.5 1.1-1 2-1.5 2.9-0.4 0.6-0.6 1.1-0.9 1.5 0.4-1.1 0.8-2.3 1.3-3.6zm64-6.6l-0.3-0.3c-0.1-0.2-0.2-0.3-0.2-0.5v-0.1c0-0.2 0.1-0.4 0.2-0.4s0.2 0 0.3 0.1 0.1 0.2 0.1 0.3v0.4c0 0.1 0 0.3-0.1 0.5z"/><path class="st0" d="m118.2 7h5c0.1 0 0.2-0.1 0.2-0.2 0-1.5-1.2-2.7-2.7-2.7s-2.7 1.2-2.7 2.7c0 0.1 0.1 0.2 0.2 0.2zm2.5-2.5c1.2 0 2.2 0.9 2.3 2.1h-4.6c0.1-1.2 1.1-2.1 2.3-2.1z"/><path class="st1" d="m79.6 44.5s-3.2 4.5-9.8 5.2c-0.1-0.5-0.5-1.2-0.5-1.2s6.6-1.3 8.3-4.2l2 0.2z"/><polygon points="40.7 14.9 38.9 23.8 43 14.9" class="st1"/><polygon points="41.2 23.8 43 14.9 38.9 23.8" class="st2"/><path class="st0" d="m36.9 16.4c-0.5-0.2-0.9-0.3-1.4-0.2-1 0.2-1.8 0.5-2.6 1s-1.5 1.1-2.1 1.8c-0.3-0.1-0.6-0.1-0.9-0.2-0.3 0-0.7-0.1-1-0.1h-1c-0.3 0-0.7 0-0.9 0.1-0.5 0.1-0.9 0.2-1.3 0.4s-0.7 0.3-1 0.5-0.6 0.3-0.9 0.6c-0.1 0-0.1 0.1-0.1 0.3 0 0.1 0 0.1 0.1 0.2s0.1 0.1 0.2 0.1l0.1-0.1s0.1 0 0.3-0.2c0.2-0.1 0.4-0.2 0.6-0.4 0.3-0.1 0.5-0.3 0.9-0.4 0.3-0.1 0.7-0.3 1.2-0.3 0.5-0.1 1.1-0.1 1.7 0s1.1 0.1 1.7 0.2c-0.6 0.7-1.2 1.6-1.7 2.5s-1.1 1.9-1.6 3l-1.5 3.3c-0.5 1.1-1 2.3-1.6 3.4-1 2.1-2 3.9-2.9 5.4-1.2 1.4-2.1 2.7-3.1 3.7-0.8-0.5-1.6-1-2.4-1.3s-1.7-0.4-2.7-0.2c-0.3 0.1-0.6 0.1-0.8 0.3-0.3 0.1-0.5 0.3-0.7 0.5s-0.4 0.5-0.5 0.8-0.1 0.6 0 1 0.2 0.7 0.5 0.9 0.6 0.4 1 0.5 0.8 0.2 1.2 0.2 0.8 0 1.2-0.1c0.6-0.1 1.2-0.3 1.8-0.7 0.6-0.3 1.1-0.8 1.6-1.3 0.3 0.2 0.7 0.5 1.1 0.8s0.8 0.6 1.3 0.9 1 0.6 1.6 0.9 1.2 0.6 1.9 0.8c0.9 0.3 1.7 0.5 2.5 0.5h0.8c0.5 0 0.9 0 1.3-0.1 0.3-0.1 0.7-0.2 1-0.3 0.4-0.2 0.7-0.4 1-0.6 0.3-0.3 0.5-0.6 0.7-1s0.2-0.8 0.1-1.4-0.4-1.1-0.9-1.6c-0.2-0.2-0.3-0.3-0.5-0.4-0.1-0.1-0.2-0.1-0.3-0.1 0 0-0.1-0.1-0.2 0-0.1 0-0.1 0.1-0.2 0.1 0 0.1-0.1 0.1 0 0.2l0.2 0.2c0.1 0.1 0.3 0.2 0.5 0.4s0.3 0.3 0.5 0.6c0.2 0.2 0.3 0.5 0.3 0.8 0.1 0.4 0.1 0.8-0.1 1-0.1 0.3-0.3 0.6-0.5 0.8s-0.5 0.4-0.8 0.5-0.7 0.2-1 0.3c-0.6 0.1-1.2 0.1-1.9 0.1-0.7-0.1-1.5-0.2-2.3-0.5-0.7-0.2-1.3-0.5-1.9-0.8l-1.5-0.9c-0.5-0.3-0.9-0.6-1.2-0.9-0.4-0.3-0.7-0.5-1.1-0.8 1-1 1.9-2.3 2.9-3.9s2-3.4 3-5.5c0.6-1.2 1.1-2.4 1.6-3.5 0.5-1.2 1.1-2.3 1.6-3.3 0.5-1.1 1.1-2.1 1.6-3s1.1-1.7 1.8-2.5c0.4 0.1 0.8 0.2 1.2 0.2 0.4 0.1 0.8 0.1 1.1 0.2 0.4 0 0.7 0.1 1.1 0.1s0.8 0 1.2-0.1c0.5-0.1 0.9-0.2 1.2-0.4s0.6-0.4 0.7-0.6c0.2-0.2 0.3-0.5 0.3-0.7 0.1-0.2 0.1-0.5 0-0.7-0.4-0.4-0.7-0.7-1.1-1zm-20.7 26.2c-0.5 0.3-1.1 0.5-1.6 0.6-0.3 0.1-0.6 0.1-0.9 0.1s-0.7 0-1-0.1-0.6-0.2-0.8-0.4-0.4-0.4-0.5-0.7c-0.1-0.5 0-0.9 0.3-1.3 0.3-0.3 0.8-0.6 1.3-0.7 0.3-0.1 0.7-0.1 1-0.1 0.5 0 1 0.1 1.5 0.3 0.8 0.3 1.5 0.7 2.2 1.2-0.5 0.4-1 0.8-1.5 1.1zm20.9-24.2c-0.1 0.2-0.2 0.4-0.4 0.5-0.2 0.2-0.4 0.3-0.6 0.4-0.3 0.1-0.5 0.2-0.8 0.2-0.5 0.1-0.9 0.1-1.4 0.1-0.4 0-0.9-0.1-1.3-0.2-0.2 0-0.4-0.1-0.6-0.1s-0.4-0.1-0.6-0.1c0.6-0.6 1.2-1.1 1.8-1.5 0.7-0.4 1.4-0.7 2.3-0.9h0.5s0.4 0 0.5 0.1c0.2 0.1 0.3 0.2 0.4 0.3s0.2 0.3 0.2 0.5c0.1 0.2 0.1 0.5 0 0.7z"/><path class="st0" d="m43.1 14.8v0l-0.1-0.1h-2.3c-0.1 0-0.2 0.1-0.2 0.1l-1.8 8.9v0.1s0 0.1 0.1 0.1h0.1 2.3c0.1 0 0.2-0.1 0.2-0.1l1.8-8.9-0.1-0.1zm-2.1 8.8h-1.8l0.7-1.6 2.5-5.6-1.4 7.2zm-1.1-2.5l-0.5 1.1 1.4-7.2h1.8l-2.7 6.1z"/><path class="st0" d="m7.9 94.8c-0.2-0.1-0.3-0.2-0.5-0.2s-0.3-0.1-0.5-0.1c-0.6 0-1.1 0.1-1.5 0.4l0.3 0.7c0.4-0.2 0.7-0.4 1.1-0.4s0.7 0.2 0.7 0.6v0.2h-0.8c-0.4 0-0.7 0.1-1 0.3s-0.4 0.5-0.4 0.9 0.1 0.7 0.4 0.9 0.6 0.3 1 0.3 0.7-0.1 0.9-0.4v0.3h0.9v-2.3c0-0.3 0-0.5-0.1-0.7-0.2-0.3-0.3-0.4-0.5-0.5zm-0.4 2.5c-0.2 0.2-0.5 0.3-0.8 0.3-0.2 0-0.3 0-0.5-0.1-0.1-0.1-0.2-0.2-0.2-0.3s0.1-0.2 0.2-0.3 0.3-0.1 0.5-0.1c0.3 0 0.5 0 0.7 0.1v0.4z"/><polygon points="3 95.3 1 95.3 1 93.3 0 93.3 0 98.3 1 98.3 1 96.2 3 96.2 3 98.3 4 98.3 4 93.3 3 93.3" class="st0"/><path class="st0" d="m122.8 39.1c1.5 0 2.7-1.2 2.7-2.7s-1.2-2.7-2.7-2.7 0 0 0 0c-1.5 0-2.7 1.2-2.7 2.7s1.2 2.7 2.7 2.7zm0.2-5c1.2 0.1 2.1 1.1 2.1 2.3s-0.9 2.2-2.1 2.3v-4.6zm-2.3 3.4c0-0.1-0.1-0.1-0.1-0.2s-0.1-0.2-0.1-0.3v-0.1-0.5-0.5-0.1c0-0.1 0.1-0.2 0.1-0.3s0.1-0.1 0.1-0.2 0.1-0.2 0.1-0.2c0-0.1 0.1-0.1 0.1-0.2s0.1-0.1 0.1-0.2 0.1-0.1 0.2-0.1 0.1-0.1 0.2-0.1 0.1-0.1 0.2-0.1 0.1-0.1 0.2-0.1 0.1-0.1 0.2-0.1 0.1 0 0.2-0.1h0.2 0.1v4.6h-0.1-0.2c-0.1 0-0.1 0-0.2-0.1-0.1 0-0.2-0.1-0.2-0.1-0.1 0-0.1-0.1-0.2-0.1s-0.1-0.1-0.2-0.1-0.1-0.1-0.2-0.1l-0.2-0.2c0-0.1-0.1-0.1-0.1-0.2s-0.1-0.1-0.1-0.2c0 0 0-0.1-0.1-0.1z"/><path class="st0" d="m69.6 49.7c0 0.1 0.1 0.1 0.2 0.1 6.6-0.7 9.9-5.2 9.9-5.2v-0.2c0-0.1-0.1-0.1-0.1-0.1l-2-0.2c-0.1 0-0.1 0-0.2 0.1-1.7 2.7-8.1 4.1-8.2 4.1s-0.1 0.1-0.1 0.1v0.2s0.4 0.6 0.5 1.1zm8-5.2l1.6 0.1c-0.8 0.9-3.8 4.2-9.3 4.8-0.1-0.3-0.3-0.6-0.4-0.9 1.3-0.1 6.5-1.4 8.1-4z"/><path class="st0" d="m142.9 28.6c-0.1-0.5-0.3-0.9-0.5-1.2-0.3-0.3-0.7-0.5-1.2-0.4-0.2 0-0.4 0.1-0.6 0.3-0.3 0.1-0.5 0.4-0.7 0.8-0.1 0.2-0.4 0.7-0.9 1.6s-1.2 2.1-2 3.4c-0.8 1.5-1.7 3.1-2.7 4.8-1 1.8-2 3.7-3.1 5.6-0.6 1.1-1.3 2.3-1.9 3.6-0.2 0.4-2.3 2.6-3 3.3s-1.4 1.3-2.1 1.9-1.4 1.1-2.2 1.5c-0.7 0.4-1.4 0.7-2.1 0.8-0.2 0-0.4 0.1-0.6 0.1h-0.6c-0.2 0-0.3-0.1-0.5-0.3-0.1-0.1-0.2-0.3-0.3-0.6-0.1-0.4-0.1-0.9 0-1.4s0.3-1.1 0.5-1.7 0.4-1.1 0.7-1.7c0.2-0.5 0.5-1 0.7-1.5 0.3-0.7 0.6-1.3 0.9-1.9s0.6-1.1 0.8-1.6 0.5-1 0.9-1.6v-0.2c0-0.2-0.1-0.2-0.3-0.2-0.1 0-0.2 0.1-0.2 0.1-0.3 0.6-0.6 1.1-0.9 1.6s-0.5 1-0.8 1.6-0.6 1.3-0.9 1.9c-0.2 0.4-0.4 0.9-0.6 1.4l-0.1 0.2c-0.2 0.4-0.3 0.8-0.5 1.2l-0.1 0.1c-0.2 0.2-0.4 0.5-0.8 0.9-0.3 0.4-0.7 0.8-1.2 1.3l-1.5 1.5c-0.5 0.5-1.1 1-1.8 1.4-0.6 0.4-1.3 0.8-1.9 1.2-0.7 0.3-1.3 0.6-2 0.7-0.6 0.1-1 0.1-1.4-0.1-0.3-0.2-0.5-0.5-0.6-0.9 0-0.2-0.1-0.4 0-0.6 0-0.2 0-0.4 0.1-0.6 0-0.2 0.1-0.4 0.1-0.6 0 0 0.1-0.1 0.2-0.8 0.1-0.5 0.4-1.2 0.6-2.1 0.2-0.8 0.5-1.8 0.9-3 0.3-1.1 0.7-2.3 1.1-3.5 0-0.1 0.1-0.1 0.1-0.2s0.1-0.1 0.1-0.2c0.4-0.1 0.8-0.1 1.2-0.2s0.8-0.1 1.2-0.2l0.9-0.2c0.3-0.1 0.7-0.1 1.1-0.2s0.7-0.2 0.9-0.2c0.2-0.1 0.4-0.2 0.4-0.3 0-0.2-0.1-0.2-0.3-0.2-1 0.2-2.1 0.5-3.2 0.7-0.3 0.1-0.6 0.1-0.9 0.2-0.3 0-0.5 0.1-0.8 0.1 0.3-0.5 0.6-1.1 1.1-1.9s1-1.8 1.5-2.9c0.5-1 1-2.2 1.5-3.4s0.8-2.4 1-3.6c0-0.1 0-0.3 0.1-0.6v-0.8c0-0.3-0.1-0.4-0.3-0.4h-0.3c-0.2 0-0.5 0.4-0.9 1-0.3 0.6-0.7 1.5-1.2 2.7s-1 2.6-1.6 4.3c-0.6 1.6-1.2 3.5-1.9 5.7-1.5 0.2-3.2 0.4-4.8 0.6h-0.3-0.1c-0.2 0-0.2 0.2-0.2 0.3s0.1 0.2 0.3 0.2c0.3 0 0.7-0.1 1.2-0.1l1.5-0.2c0.5-0.1 1-0.1 1.4-0.2 0.3 0 0.6-0.1 0.8-0.1-0.8 0.9-1.7 1.9-2.5 2.9-0.4 0.4-0.8 0.9-1.2 1.4s-0.8 0.9-1.2 1.5c-0.4 0.5-0.8 0.9-1.1 1.4l-0.1 0.1c-0.3 0.4-0.6 0.8-1 1.2-0.5 0.7-1.1 1.5-1.8 2.2-0.6 0.7-1.3 1.4-2 2s-1.4 1.1-2.1 1.5-1.4 0.7-2.1 0.8c-0.2 0-0.4 0.1-0.6 0.1h-0.7c-0.2 0-0.4-0.1-0.6-0.2s-0.3-0.3-0.3-0.5c-0.1-0.4 0.1-1.1 0.6-1.9s1.3-1.8 2.4-3c0.6-0.7 1.2-1.2 1.6-1.7 0.5-0.5 0.9-0.8 1.2-1.1s0.5-0.5 0.7-0.6c0.2-0.2 0.2-0.2 0.2-0.3s-0.1-0.1-0.1-0.2h-0.2-0.1s-0.1 0.1-0.4 0.3l-0.8 0.8-1.2 1.2-1 1c0.9-1.5 1.3-2.7 1.1-3.7-0.1-0.4-0.3-0.8-0.5-1-0.3-0.3-0.5-0.4-0.8-0.6-0.3-0.1-0.5-0.2-0.8-0.3s-0.4-0.1-0.4 0c-0.6-0.1-1.2 0-1.8 0.1-1.3 0.3-2.7 0.9-4.1 1.8-1.4 1-2.7 2.2-3.9 3.7-0.8 0.9-1.9 2.7-2 2.8-0.6 0.8-1.2 1.4-1.8 2l-1.6 1.6c-0.5 0.5-1.1 0.9-1.6 1.3s-1.1 0.8-1.7 1.1c-0.2 0.1-0.5 0.3-0.8 0.5s-0.7 0.4-1.2 0.5c-0.4 0.2-0.9 0.4-1.4 0.5-0.5 0.2-1 0.3-1.5 0.4-1.3 0.2-2.2 0.1-2.9-0.3s-1.1-1-1.3-1.9c-0.1-0.4-0.1-0.9-0.1-1.4s0.1-1 0.2-1.4c0.1-0.5 0.3-0.9 0.4-1.3 0.2-0.4 0.3-0.7 0.5-0.9 0.2 0.1 0.5 0.1 0.9 0.2s0.9 0.2 1.4 0.2c0.5 0.1 1.1 0.1 1.7 0.1s1.3-0.1 2-0.2c0.5-0.1 1.2-0.3 1.8-0.6s1.2-0.6 1.7-1.1c0.5-0.4 0.9-0.9 1.2-1.5s0.4-1.2 0.3-1.8c-0.1-0.4-0.2-0.7-0.5-1s-0.6-0.5-0.9-0.7c-0.4-0.2-0.8-0.3-1.2-0.3s-0.9 0-1.3 0.1c-1.3 0.2-2.6 0.9-3.9 2-1.2 1.1-2.4 2.4-3.4 4-0.3-0.1-0.5-0.2-0.6-0.2s-0.1-0.1-0.2-0.1h-0.1c0.2-0.1 0.2-0.1 0.1 0v0.2c0 0.1 0 0.1 0.1 0.1 0 0 0.1 0.1 0.3 0.1 0.1 0 0.3 0.1 0.5 0.2-0.2 0.3-0.4 0.7-0.5 1.1-0.2 0.4-0.3 0.9-0.4 1.3-0.1 0.5-0.2 1-0.2 1.5s0 1 0.1 1.4c0 0-0.1 0-0.1 0.1-0.6 0.6-1.3 1.1-2 1.7-0.7 0.5-1.3 1-2 1.4-0.6 0.4-1.2 0.8-1.8 1-0.5 0.3-1 0.4-1.4 0.5-1.1 0.2-1.7-0.1-1.9-1-0.1-0.5-0.1-1 0.1-1.6 0.1-0.6 0.3-1.2 0.6-1.9 0.3-0.6 0.6-1.3 0.9-2s0.6-1.3 0.9-1.9 0.5-1.1 0.7-1.5c0.2-0.5 0.2-0.8 0.2-1.1 0-0.2-0.2-0.4-0.3-0.5-0.2-0.1-0.4-0.2-0.6-0.2h-0.6c-0.2 0-0.3 0-0.4 0.1-0.1 0-0.3 0-0.5 0.1h-1.5c-0.2 0-0.5-0.1-0.6-0.1 0.2-0.6 0.2-1 0.1-1.4 0 0 0-0.1-0.1-0.2 0-0.1-0.1-0.2-0.1-0.3-0.1-0.1-0.2-0.2-0.3-0.2-0.1-0.1-0.3-0.1-0.5 0 0 0-0.1 0-0.2 0.1-0.1 0-0.2 0.1-0.3 0.2s-0.2 0.2-0.2 0.4v0.6c0 0.2 0.1 0.5 0.3 0.7 0.1 0.2 0.3 0.4 0.6 0.5v0.1c0 0.1 0 0.1-0.1 0.2-0.5 1.2-1 2.4-1.6 3.6-0.5 1-2.9 4.5-3.3 5.1-0.3 0.6-0.7 1.1-1 1.6-0.3 0.4-0.6 0.8-1 1.2l-0.9 0.9c-0.5 0.5-1 0.8-1.5 1s-1.1 0.4-1.8 0.6c-0.7 0.1-1.4 0.1-2 0s-1.1-0.4-1.6-0.7-0.8-0.8-1.1-1.3-0.5-1.1-0.7-1.8c-0.2-1.1-0.2-2.3 0.1-3.6s0.8-2.6 1.4-3.9 1.4-2.6 2.3-3.9 1.8-2.5 2.8-3.6c0.2 0.2 0.6 0.5 0.9 0.7 0.4 0.2 0.8 0.4 1.3 0.6 0.5 0.1 1 0.2 1.6 0.3 0.6 0 1.2 0 1.9-0.1 0.8-0.1 1.5-0.4 2-0.7s1-0.7 1.4-1c0.3-0.4 0.6-0.7 0.8-1s0.3-0.5 0.3-0.5c0.1-0.3 0.2-0.6 0.3-1s0.1-0.7 0-1.1c-0.1-0.6-0.4-1.1-0.9-1.5-0.5-0.3-1.2-0.4-2.1-0.3-0.5 0.1-1.1 0.3-1.7 0.6s-1.3 0.6-1.9 1.1c-0.6 0.4-1.3 0.9-2 1.5-0.6 0.5-1.3 1.2-1.9 1.8-0.3-0.3-0.5-0.6-0.8-0.9-0.2-0.4-0.4-0.7-0.6-1.1 0 0 0-0.1-0.1-0.1 0 0-0.1-0.1-0.2-0.1-0.2 0-0.2 0.1-0.2 0.3s0.1 0.5 0.2 0.7 0.2 0.5 0.4 0.7c0.1 0.2 0.3 0.4 0.5 0.6 0.1 0.2 0.3 0.3 0.4 0.4-1 1.1-2 2.3-2.9 3.6s-1.7 2.7-2.3 4c-0.6 1.4-1.1 2.7-1.4 4s-0.3 2.6-0.1 3.7c0.1 0.5 0.2 1 0.4 1.4 0.2 0.5 0.5 0.9 0.8 1.3s0.7 0.7 1.1 1 0.9 0.5 1.4 0.5c0.3 0.1 0.7 0.1 1 0.1h0.2c0.4 0 0.7-0.1 1.1-0.1 0.6-0.1 1.3-0.3 1.9-0.6s1.2-0.7 1.7-1.1c0.6-0.5 1.3-1.2 2-2.2 0.6-0.8 3.6-5.4 4.2-6.6s1.2-2.5 1.6-3.8c0-0.1 0-0.1 0.1-0.2 0.3 0.1 0.5 0.1 0.9 0.2h0.9 0.7 0.3 0.3 0.4c0.1 0 0.3 0 0.4 0.1 0.1 0 0.2 0.1 0.2 0.2v0.3c0 0.1-0.1 0.3-0.1 0.4-0.2 0.5-0.6 1.2-1 2s-0.8 1.6-1.2 2.5-0.7 1.7-0.9 2.5-0.3 1.5-0.2 2.1c0.1 0.5 0.3 1 0.7 1.3s0.9 0.4 1.5 0.3c0.4-0.1 1-0.3 1.6-0.5 0.6-0.3 1.2-0.6 1.9-1.1 0.7-0.4 1.4-0.9 2.1-1.5 0.7-0.5 1.3-1.1 2-1.7 0.1 0.3 0.3 0.7 0.5 1 0.3 0.4 0.8 0.8 1.4 1 0.4 0.1 0.9 0.2 1.3 0.2 0.5 0 1 0 1.5-0.1s0.9-0.2 1.4-0.4 0.9-0.3 1.4-0.5 0.9-0.4 1.2-0.6c0.4-0.2 0.8-0.4 1.1-0.6 0.6-0.4 1.2-0.8 1.7-1.1 0.5-0.4 1.1-0.8 1.6-1.3s1.1-1 1.7-1.6c0.4-0.4 0.7-0.8 1.1-1.3-0.2 0.7-0.2 1.3-0.1 1.8s0.3 1 0.6 1.4 0.6 0.7 1 0.9 0.9 0.4 1.3 0.5c0.5 0.1 1 0.1 1.5 0 1-0.2 2-0.7 3-1.5 0.9-0.8 1.9-1.7 3-2.9-0.3 0.6-0.4 1.1-0.3 1.5 0.1 0.3 0.2 0.6 0.4 0.7 0.2 0.2 0.5 0.3 0.7 0.4 0.3 0.1 0.6 0.1 0.9 0.1s0.6 0 0.8-0.1c0.8-0.1 1.6-0.5 2.4-1s1.5-1.1 2.2-1.7 1.4-1.3 2-2.1c0.6-0.7 1.2-1.4 1.6-2 0.1-0.2 0.3-0.4 0.6-0.7 0.4-0.5 0.8-1 1.3-1.6s1-1.3 1.6-1.9c0.6-0.7 1.1-1.3 1.5-1.8 0.5-0.5 0.9-1 1.2-1.4l0.3-0.3c-0.3 0.9-0.6 1.8-0.8 2.7l-0.1 0.2c-0.3 1.1-0.6 2-0.9 2.8s-0.5 1.5-0.6 2c-0.2 0.5-0.2 0.8-0.2 0.8s0 0.1-0.1 0.2c0 0.1-0.1 0.3-0.1 0.5s-0.1 0.4-0.1 0.7v0.7c0.1 0.6 0.4 1 0.8 1.3s1.1 0.3 1.8 0.2 1.5-0.4 2.3-0.8 1.6-1 2.4-1.6 1.6-1.4 2.5-2.2c0.5-0.5 1-1 1.5-1.6-0.1 0.3-0.2 0.6-0.2 0.9-0.1 0.6-0.1 1.1 0 1.6 0.1 0.4 0.2 0.6 0.4 0.8s0.4 0.3 0.6 0.4 0.5 0.1 0.8 0.1 0.5-0.1 0.8-0.1c0.8-0.1 1.6-0.4 2.3-0.9 0.8-0.4 1.5-0.9 2.2-1.5s1.4-1.2 2.1-2c0.6-0.6 1.1-1.3 1.7-1.9-0.3 0.7-0.7 1.3-1 1.9-0.7 1.3-1.3 2.5-1.9 3.6-0.6 1.2-1.2 2.3-1.7 3.4-0.5 1-0.9 2-1.3 2.9s-0.6 1.6-0.8 2.2c0 0-0.1 0.2-0.2 0.7-0.1 0.4-0.2 0.8-0.3 1.3l-0.3 1.5c-0.1 0.5-0.1 0.9 0 1.2 0 0.1 0.1 0.3 0.1 0.4 0.1 0.1 0.1 0.2 0.2 0.3s0.2 0.2 0.4 0.2h0.6c0.5-0.1 0.9-0.3 1.4-0.7s1-0.9 1.5-1.6c0.6-0.8 1.1-1.8 1.6-2.9s0.8-2.2 1.1-3.4c0.3-1.1 0.4-2.3 0.5-3.5s0-2.3-0.2-3.3c0-0.2-0.1-0.4-0.1-0.6 0-0.1-0.1-0.3-0.1-0.4 0.4 0.2 1 0.4 1.7 0.5 0.8 0.1 1.6 0.1 2.4 0 1.1-0.2 2.1-0.6 3.1-1.1s2-1.1 2.8-1.7c0.5-0.3 1-0.8 1.6-1.3 0.6-0.6 1.3-1.3 1.9-2 0-0.1 0.1-0.1 0-0.2 0-0.1 0-0.1-0.1-0.2h-0.2s-0.1 0-0.2 0.1c-0.6 0.8-1.3 1.4-1.9 2-0.6 0.5-1.2 1-1.6 1.3-0.8 0.6-1.7 1.1-2.7 1.6s-2 0.9-3.1 1.1c-0.4 0.1-0.8 0.1-1.2 0.1s-0.8 0-1.2-0.1c-0.5-0.1-0.9-0.2-1.2-0.4s-0.5-0.3-0.6-0.3c0.2-0.4 0.5-0.9 0.7-1.3 0.2-0.5 0.5-0.9 0.7-1.4 2.1-1.5 4.1-3.1 5.7-4.8 1.6-1.6 3.1-3.2 4.2-4.8 1.2-1.5 2.1-3.1 2.8-4.5s1.1-2.8 1.3-3.9v-0.2-0.5-0.6c0.4-0.8 0.3-1.1 0.3-1.3zm-31 10.3c0.5-1.4 1-2.8 1.4-4s0.8-2.2 1.2-3c0.4-0.9 0.6-1.1 0.7-1.2v0.1 0.2 0.3c-0.1 1.1-0.4 2.3-0.8 3.5s-0.9 2.3-1.4 3.4-1 2-1.5 2.9c-0.4 0.6-0.7 1.1-0.9 1.5 0.4-1.2 0.8-2.5 1.3-3.7zm-42.5 15.1c0.6-0.7 1.2-1.3 1.8-1.7s1.1-0.8 1.7-1c0.5-0.2 1.1-0.4 1.5-0.5s0.8-0.1 1.1 0c0.4 0 0.7 0.1 1 0.3 0.3 0.1 0.6 0.3 0.8 0.6 0.2 0.2 0.3 0.5 0.4 0.8 0.1 0.4 0 0.9-0.2 1.4s-0.6 0.9-1 1.3-1 0.7-1.5 1c-0.6 0.3-1.2 0.5-1.8 0.6-0.5 0.1-1 0.1-1.5 0.2h-1.4c-0.4 0-0.8-0.1-1.2-0.1-0.4-0.1-0.7-0.1-0.9-0.2l-0.6-0.1c0.6-1.1 1.2-2 1.8-2.6zm-22.3-5.4c0.6-0.5 1.3-1 1.9-1.4s1.2-0.8 1.8-1c0.6-0.3 1.1-0.4 1.6-0.5 0.4-0.1 0.8-0.1 1.1 0 0.3 0 0.5 0.1 0.7 0.3 0.2 0.1 0.3 0.3 0.4 0.5s0.2 0.4 0.2 0.6c0.1 0.3 0.1 0.6 0 0.9s-0.1 0.6-0.2 0.8c0 0-0.1 0.1-0.2 0.4s-0.4 0.5-0.7 0.9c-0.3 0.3-0.7 0.7-1.3 1-0.5 0.3-1.2 0.5-1.9 0.7-0.8 0.2-1.6 0.2-2.3 0.1s-1.3-0.3-1.8-0.5c-0.3-0.1-0.5-0.3-0.7-0.4s-0.4-0.2-0.5-0.4c0.6-0.8 1.3-1.4 1.9-2zm7.8 6.2l-0.3-0.3c-0.1-0.2-0.2-0.3-0.2-0.5v-0.1c0-0.2 0.1-0.4 0.2-0.4s0.2 0 0.3 0.1 0.1 0.2 0.1 0.3v0.4s0 0.2-0.1 0.5zm11 7.6v-0.2c-0.1 0 0 0 0 0.2v0zm25.4-5c-0.5 0.6-1.1 1.2-1.7 1.8-0.6 0.5-1.2 1-1.8 1.4s-1.2 0.6-1.9 0.8c-0.4 0.1-0.9 0.1-1.3 0s-0.8-0.2-1.1-0.4-0.6-0.5-0.9-0.8c-0.2-0.3-0.4-0.7-0.5-1.2-0.3-1.4 0.5-3.2 2.2-5.3 1.2-1.5 2.5-2.7 3.8-3.6s2.6-1.5 3.9-1.8c0.6-0.1 1.1-0.1 1.7-0.1h0.3c0.2 0 0.4 0.1 0.6 0.2s0.4 0.3 0.7 0.5c0.2 0.2 0.3 0.5 0.4 0.8v0.9c0 0.3-0.2 0.8-0.4 1.2-0.2 0.5-0.5 1-0.9 1.6s-0.9 1.3-1.6 2.1c-0.5 0.7-1 1.3-1.5 1.9zm36.3-1.1c-0.1 1.1-0.2 2.2-0.4 3.3s-0.5 2.1-0.9 3.1-0.8 1.8-1.3 2.6-1 1.4-1.5 1.9-1 0.8-1.5 0.9h-0.5c-0.1-0.1-0.2-0.2-0.2-0.5-0.1-0.5-0.1-1.2 0.1-2 0.2-0.9 0.5-1.9 1-3.2s1.1-2.8 1.9-4.5 1.7-3.6 2.9-5.7c0.1 0.4 0.2 0.8 0.3 1.1 0.1 0.8 0.2 1.9 0.1 3zm14.8-26.4c0 0.4-0.1 0.5-0.1 0.6-0.2 1.1-0.6 2.4-1.2 3.7-0.6 1.4-1.5 2.8-2.6 4.2-1.1 1.5-2.4 3-3.9 4.5s-3.2 3-5.1 4.4c0.8-1.5 1.6-3 2.4-4.4 0.8-1.5 1.7-3 2.4-4.4 0.8-1.4 1.5-2.7 2.2-3.9s1.3-2.2 1.8-3.2c0.5-0.9 1-1.7 1.3-2.2l0.6-1.1c0.1-0.2 0.3-0.3 0.4-0.5 0.2-0.2 0.4-0.3 0.6-0.3h0.2c0.1 0 0.2 0 0.3 0.1s0.2 0.1 0.3 0.3c0.1 0.1 0.2 0.2 0.2 0.4 0.1 0.2 0.1 0.3 0.1 0.5 0.2 0.5 0.2 0.9 0.1 1.3z"/><path class="st0" d="m82.9 94.6c-0.4 0-0.7 0.1-1 0.4v-0.3h-0.9v3.6h0.9v-2c0-0.6 0.2-0.8 0.7-0.8 0.2 0 0.4 0.1 0.5 0.2s0.2 0.3 0.2 0.6v2h0.9v-2.3c0-0.5-0.1-0.9-0.4-1.1-0.2-0.2-0.5-0.3-0.9-0.3z"/><path class="st0" d="m58.7 97.3v-1.8h0.8v-0.8h-0.8v-1.5l-0.9 0.4v1.1h-0.5v0.8h0.5v2c0 0.6 0.3 1 0.9 1 0.3 0 0.6-0.1 0.8-0.2l0.1-0.8c-0.2 0.1-0.4 0.2-0.6 0.2-0.2-0.1-0.3-0.2-0.3-0.4z"/><path class="st0" d="m79.1 94.8c-0.2-0.1-0.3-0.2-0.5-0.2s-0.3-0.1-0.5-0.1c-0.6 0-1.1 0.1-1.5 0.4l0.3 0.7c0.4-0.2 0.7-0.4 1.1-0.4s0.7 0.2 0.7 0.6v0.2h-0.8c-0.4 0-0.7 0.1-1 0.3s-0.4 0.5-0.4 0.9 0.1 0.7 0.4 0.9 0.6 0.3 1 0.3 0.7-0.1 0.9-0.4v0.3h0.9v-2.3c0-0.3 0-0.5-0.1-0.7-0.2-0.3-0.3-0.4-0.5-0.5zm-0.4 2.5c-0.2 0.2-0.5 0.3-0.8 0.3-0.2 0-0.3 0-0.5-0.1-0.1-0.1-0.2-0.2-0.2-0.3s0.1-0.2 0.2-0.3 0.3-0.1 0.5-0.1c0.3 0 0.5 0 0.7 0.1v0.4z"/><path class="st0" d="m74.3 95v-0.3h-0.9v3.6h0.9v-2c0-0.5 0.2-0.8 0.6-0.8 0.2 0 0.5 0.1 0.7 0.2l0.1-0.8c-0.2-0.2-0.5-0.3-0.7-0.3-0.3 0-0.6 0.1-0.7 0.4z"/><path class="st0" d="m70.7 94.1v0.6h-0.5v0.8h0.5v2.8h0.9v-2.8h0.8v-0.8h-0.8v-0.4c0-0.2 0.1-0.2 0.3-0.2 0.1 0 0.3 0 0.5 0.1v-0.8c-0.2-0.1-0.5-0.2-0.8-0.2-0.6 0-0.9 0.3-0.9 0.9z"/><path class="st0" d="m66.6 95.8h-0.9c0 0.2 0 0.3-0.1 0.5l-0.6-0.7c0.5-0.3 0.8-0.8 0.8-1.3 0-0.3-0.1-0.6-0.3-0.8s-0.5-0.3-0.9-0.3-0.7 0.1-0.9 0.3-0.4 0.5-0.4 0.9 0.2 0.7 0.5 1.1c-0.7 0.4-1.1 0.9-1.1 1.5 0 0.4 0.1 0.8 0.4 1 0.3 0.3 0.6 0.4 1.1 0.4 0.6 0 1-0.2 1.4-0.6l0.4 0.5h1.2l-1-1.2c0.3-0.4 0.4-0.8 0.4-1.3zm-2.3-1.8c0.1-0.1 0.2-0.1 0.3-0.1s0.2 0 0.3 0.1 0.1 0.2 0.1 0.3c0 0.3-0.1 0.5-0.4 0.6-0.2-0.3-0.4-0.5-0.4-0.7 0 0 0-0.1 0.1-0.2zm0 3.5c-0.2 0-0.4-0.1-0.5-0.2s-0.2-0.2-0.2-0.4c0-0.3 0.2-0.6 0.6-0.8l0.9 1.1c-0.2 0.2-0.5 0.3-0.8 0.3z"/><path class="st0" d="m55.2 96.1c-0.5-0.1-0.7-0.3-0.7-0.4 0-0.2 0.2-0.3 0.5-0.3s0.5 0.1 0.7 0.3l0.6-0.5c-0.3-0.4-0.8-0.6-1.3-0.6-0.4 0-0.7 0.1-0.9 0.3-0.3 0.2-0.4 0.4-0.4 0.8 0 0.3 0.1 0.5 0.3 0.7s0.5 0.3 0.9 0.5c0.2 0.1 0.4 0.2 0.5 0.2 0.1 0.1 0.1 0.1 0.1 0.2 0 0.2-0.2 0.3-0.5 0.3s-0.6-0.1-0.9-0.4l-0.6 0.5c0.1 0.2 0.3 0.4 0.6 0.5s0.5 0.2 0.8 0.2c0.4 0 0.8-0.1 1-0.3 0.3-0.2 0.4-0.5 0.4-0.8s-0.1-0.6-0.3-0.8-0.5-0.3-0.8-0.4z"/><path class="st0" d="m11.7 94.6c-0.4 0-0.7 0.1-1 0.4v-0.3h-0.9v3.6h0.9v-2c0-0.6 0.2-0.8 0.7-0.8 0.2 0 0.4 0.1 0.5 0.2s0.2 0.3 0.2 0.6v2h0.9v-2.3c0-0.5-0.1-0.9-0.4-1.1-0.2-0.2-0.5-0.3-0.9-0.3z"/><polygon points="85.5 95.5 87.3 95.5 85.4 97.6 85.4 98.3 88.5 98.3 88.5 97.5 86.6 97.5 88.5 95.4 88.5 94.7 85.5 94.7" class="st0"/><path class="st0" d="m26 94.6c-0.5 0-0.9 0.2-1.2 0.5s-0.5 0.8-0.5 1.4 0.2 1.1 0.5 1.4 0.7 0.5 1.2 0.5c0.6 0 1-0.2 1.4-0.6l-0.6-0.6c-0.2 0.3-0.5 0.4-0.8 0.4-0.2 0-0.4-0.1-0.5-0.2s-0.2-0.3-0.3-0.5h2.4v-0.5c0-0.6-0.2-1-0.4-1.3-0.3-0.4-0.7-0.5-1.2-0.5zm-0.8 1.4c0.1-0.4 0.3-0.7 0.8-0.7 0.2 0 0.3 0.1 0.5 0.2 0.1 0.1 0.2 0.3 0.2 0.5h-1.5z"/><path class="st0" d="m22 96.4c0 0.1 0 0.1-0.1 0.3v0.2c-0.1-0.2-0.1-0.4-0.1-0.5l-0.5-1.8h-0.8l-0.5 1.8c0 0.1-0.1 0.2-0.1 0.5v-0.2c0-0.1 0-0.2-0.1-0.3l-0.4-1.8h-0.9l1 3.6h0.8l0.5-1.8c0.1-0.3 0.1-0.5 0.1-0.5s0 0.2 0.1 0.5l0.5 1.8h0.8l1-3.6h-0.9l-0.4 1.8z"/><path class="st0" d="m91.6 94c0.1 0.1 0.2 0.1 0.4 0.1 0.1 0 0.3 0 0.4-0.2 0.1-0.1 0.2-0.2 0.2-0.4 0-0.1 0-0.3-0.2-0.4-0.1-0.1-0.2-0.2-0.4-0.2-0.1 0-0.3 0-0.4 0.2-0.1 0.1-0.2 0.2-0.2 0.4 0 0.3 0.1 0.4 0.2 0.5z"/><path class="st0" d="m16.5 94.9c-0.2-0.2-0.4-0.3-0.8-0.3s-0.8 0.2-1.1 0.5-0.4 0.8-0.4 1.4 0.1 1.1 0.4 1.4 0.6 0.5 1.1 0.5c0.4 0 0.6-0.1 0.8-0.4v0.3h0.9v-5.1l-0.9 0.4v1.3zm0 2.3c-0.1 0.2-0.3 0.3-0.6 0.3-0.2 0-0.4-0.1-0.5-0.3s-0.2-0.4-0.2-0.7 0.1-0.6 0.2-0.8 0.3-0.3 0.5-0.3c0.3 0 0.5 0.1 0.6 0.3v1.5z"/><path class="st0" d="m46.8 96.7c0 0.6-0.2 0.8-0.7 0.8-0.2 0-0.4-0.1-0.5-0.2s-0.2-0.3-0.2-0.6v-2h-0.9v2.3c0 0.5 0.1 0.9 0.4 1.1 0.2 0.2 0.5 0.3 0.9 0.3s0.7-0.1 1-0.4v0.3h0.9v-3.6h-0.9v2z"/><path class="st0" d="m29.8 95v-0.3h-0.9v3.6h0.9v-2c0-0.5 0.2-0.8 0.6-0.8 0.2 0 0.5 0.1 0.7 0.2l0.1-0.8c-0.2-0.2-0.5-0.3-0.7-0.3-0.4 0-0.6 0.1-0.7 0.4z"/><polygon points="43.3 94.7 42.2 94.7 41.2 95.6 41.2 93.1 40.3 93.6 40.3 98.3 41.2 98.3 41.2 96.7 41.6 96.4 42.6 98.3 43.6 98.3 42.3 95.7" class="st0"/><path class="st0" d="m51.1 94.6c-0.4 0-0.7 0.1-1 0.4v-0.3h-0.9v3.6h0.9v-2c0-0.6 0.2-0.8 0.7-0.8 0.2 0 0.4 0.1 0.5 0.2s0.2 0.3 0.2 0.6v2h0.9v-2.3c0-0.5-0.1-0.9-0.4-1.1s-0.6-0.3-0.9-0.3z"/><path class="st0" d="m37.9 96.1c-0.5-0.1-0.7-0.3-0.7-0.4 0-0.2 0.2-0.3 0.5-0.3s0.5 0.1 0.7 0.3l0.6-0.5c-0.3-0.4-0.8-0.6-1.3-0.6-0.4 0-0.7 0.1-0.9 0.3-0.3 0.2-0.4 0.4-0.4 0.8 0 0.3 0.1 0.5 0.3 0.7s0.5 0.3 0.9 0.5c0.2 0.1 0.4 0.2 0.5 0.2 0.1 0.1 0.1 0.1 0.1 0.2 0 0.2-0.2 0.3-0.5 0.3s-0.6-0.1-0.9-0.4l-0.6 0.5c0.1 0.2 0.3 0.4 0.6 0.5s0.5 0.2 0.8 0.2c0.4 0 0.8-0.1 1-0.3 0.3-0.2 0.4-0.5 0.4-0.8s-0.1-0.6-0.3-0.8-0.4-0.3-0.8-0.4z"/><polygon points="35.2 94.7 34.1 94.7 33.1 95.6 33.1 93.1 32.2 93.6 32.2 98.3 33.1 98.3 33.1 96.7 33.4 96.4 34.4 98.3 35.4 98.3 34.1 95.7" class="st0"/><path class="st0" d="m165.8 94.6c-0.3 0-0.5 0.1-0.7 0.4v-0.3h-0.9v3.6h0.9v-2c0-0.5 0.2-0.8 0.6-0.8 0.2 0 0.5 0.1 0.7 0.2l0.1-0.8c-0.2-0.2-0.4-0.3-0.7-0.3z"/><path class="st0" d="m137.9 97.5c-0.2 0-0.4-0.1-0.5-0.3s-0.2-0.4-0.2-0.7 0.1-0.6 0.2-0.7c0.1-0.2 0.3-0.3 0.5-0.3 0.3 0 0.5 0.2 0.6 0.5l0.9-0.3c-0.2-0.7-0.7-1.1-1.5-1.1-0.5 0-0.9 0.2-1.2 0.5s-0.5 0.8-0.5 1.4 0.1 1.1 0.4 1.4 0.7 0.5 1.2 0.5c0.8 0 1.3-0.4 1.5-1.2l-0.9-0.3c0 0.4-0.2 0.6-0.5 0.6z"/><path class="st0" d="m134.5 94.8c-0.2-0.1-0.3-0.2-0.5-0.2s-0.3-0.1-0.5-0.1c-0.6 0-1.1 0.1-1.5 0.4l0.3 0.7c0.4-0.2 0.7-0.4 1.1-0.4s0.7 0.2 0.7 0.6v0.2c-0.2-0.1-0.5-0.2-0.8-0.2-0.4 0-0.7 0.1-1 0.3s-0.4 0.5-0.4 0.9 0.1 0.7 0.4 0.9 0.6 0.3 1 0.3 0.7-0.1 0.9-0.4v0.3h0.9v-2.1c0-0.3 0-0.5-0.1-0.7-0.2-0.3-0.3-0.4-0.5-0.5zm-0.4 2.5c-0.2 0.2-0.5 0.3-0.8 0.3-0.2 0-0.3 0-0.5-0.1-0.1-0.1-0.2-0.2-0.2-0.3s0.1-0.2 0.2-0.3 0.3-0.1 0.5-0.1c0.3 0 0.5 0 0.7 0.1v0.4z"/><path class="st0" d="m126 94.6c-0.3 0-0.6 0.1-0.8 0.3v-0.3h-0.9v5.1l0.9-0.4v-1.3c0.2 0.2 0.4 0.4 0.8 0.4s0.8-0.2 1.1-0.5 0.4-0.8 0.4-1.4-0.1-1.1-0.4-1.4-0.6-0.5-1.1-0.5zm0.4 2.6c-0.1 0.2-0.3 0.3-0.5 0.3-0.3 0-0.5-0.1-0.6-0.3v-1.4c0.1-0.2 0.4-0.3 0.6-0.3s0.4 0.1 0.5 0.3 0.2 0.4 0.2 0.7 0 0.5-0.2 0.7z"/><path class="st0" d="m129.7 95v-0.3h-0.9v3.6h0.9v-2c0-0.5 0.2-0.8 0.6-0.8 0.2 0 0.5 0.1 0.7 0.2l0.1-0.8c-0.2-0.2-0.5-0.3-0.7-0.3-0.3 0-0.5 0.1-0.7 0.4z"/><path class="st0" d="m122.8 96l-0.3-0.3s-0.2-0.1-0.4-0.2c-0.2-0.1-0.3-0.1-0.4-0.2-0.1 0-0.2-0.1-0.4-0.1-0.2-0.1-0.4-0.1-0.5-0.2-0.1 0-0.2-0.1-0.3-0.2s-0.1-0.2-0.1-0.3c0-0.2 0.1-0.3 0.2-0.4s0.3-0.1 0.5-0.1c0.4 0 0.7 0.2 0.9 0.5l0.9-0.3c-0.1-0.3-0.3-0.6-0.6-0.8s-0.7-0.3-1.1-0.3c-0.5 0-0.9 0.1-1.2 0.4s-0.5 0.6-0.5 1c0 0.2 0 0.4 0.1 0.5 0.1 0.2 0.1 0.3 0.2 0.4s0.2 0.2 0.4 0.3 0.3 0.2 0.4 0.2 0.3 0.1 0.5 0.2 0.3 0.1 0.4 0.1 0.2 0.1 0.3 0.1c0.1 0.1 0.2 0.1 0.2 0.2s0.1 0.2 0.1 0.3c0 0.2-0.1 0.3-0.2 0.4s-0.3 0.2-0.6 0.2c-0.2 0-0.5-0.1-0.6-0.2-0.2-0.1-0.3-0.3-0.4-0.6l-0.9 0.3c0.1 0.4 0.4 0.8 0.7 1s0.7 0.4 1.2 0.4 1-0.1 1.3-0.4 0.5-0.6 0.5-1.1c0-0.2 0-0.3-0.1-0.5 0-0.1-0.1-0.2-0.2-0.3z"/><path class="st0" d="m114.6 94.6c-0.5 0-0.9 0.2-1.2 0.5s-0.5 0.8-0.5 1.4 0.2 1.1 0.5 1.4 0.7 0.5 1.2 0.5c0.6 0 1-0.2 1.4-0.6l-0.6-0.6c-0.2 0.3-0.5 0.4-0.8 0.4-0.2 0-0.4-0.1-0.5-0.2-0.2-0.1-0.2-0.3-0.3-0.5h2.4v-0.5c0-0.6-0.2-1-0.4-1.3-0.3-0.4-0.7-0.5-1.2-0.5zm-0.7 1.4c0.1-0.4 0.3-0.7 0.8-0.7 0.2 0 0.3 0.1 0.5 0.2 0.1 0.1 0.2 0.3 0.2 0.5h-1.5z"/><path class="st0" d="m151.7 96.7c0 0.6-0.2 0.8-0.7 0.8-0.2 0-0.4-0.1-0.5-0.2s-0.2-0.3-0.2-0.6v-2h-0.9v2.3c0 0.5 0.1 0.9 0.4 1.1 0.2 0.2 0.5 0.3 0.9 0.3s0.7-0.1 1-0.4v0.3h0.9v-3.6h-0.9v2z"/><path class="st0" d="m157.6 97.3v-1.8h0.8v-0.8h-0.8v-1.5l-0.9 0.4v1.1h-0.5v0.8h0.5v2c0 0.6 0.3 1 0.9 1 0.3 0 0.6-0.1 0.8-0.2l0.1-0.8c-0.2 0.1-0.4 0.2-0.6 0.2-0.2-0.1-0.3-0.2-0.3-0.4z"/><path class="st0" d="m161.9 96.7c0 0.6-0.2 0.8-0.7 0.8-0.2 0-0.4-0.1-0.5-0.2s-0.2-0.3-0.2-0.6v-2h-0.9v2.3c0 0.5 0.1 0.9 0.4 1.1 0.2 0.2 0.5 0.3 0.9 0.3s0.7-0.1 1-0.4v0.3h0.9v-3.6h-0.9v2z"/><polygon points="154.1 98.3 155 98.3 155 93.1 154.1 93.6" class="st0"/><path class="st0" d="m142.6 94.6c-0.4 0-0.7 0.1-1 0.4v-1.8l-0.9 0.4v4.7h0.9v-2c0-0.5 0.2-0.8 0.7-0.8 0.4 0 0.6 0.3 0.6 0.8v2h0.9v-2.3c0-0.5-0.1-0.9-0.4-1.1-0.2-0.2-0.5-0.3-0.8-0.3z"/><polygon points="148.2 94.7 147.1 94.7 146.1 95.6 146.1 93.1 145.2 93.6 145.2 98.3 146.1 98.3 146.1 96.7 146.5 96.4 147.5 98.3 148.5 98.3 147.2 95.7" class="st0"/><path class="st0" d="m110.4 94.6c-0.4 0-0.7 0.1-1 0.4v-1.8l-0.9 0.4v4.7h0.9v-2c0-0.5 0.2-0.8 0.7-0.8 0.4 0 0.6 0.3 0.6 0.8v2h0.9v-2.3c0-0.5-0.1-0.9-0.4-1.1-0.1-0.2-0.4-0.3-0.8-0.3z"/><path class="st0" d="m101.9 96.1c-0.5-0.1-0.7-0.3-0.7-0.4 0-0.2 0.2-0.3 0.5-0.3s0.5 0.1 0.7 0.3l0.6-0.5c-0.3-0.4-0.8-0.6-1.3-0.6-0.4 0-0.7 0.1-0.9 0.3-0.3 0.2-0.4 0.4-0.4 0.8 0 0.3 0.1 0.5 0.3 0.7s0.5 0.3 0.9 0.5c0.2 0.1 0.4 0.2 0.5 0.2 0.1 0.1 0.1 0.1 0.1 0.2 0 0.2-0.2 0.3-0.5 0.3s-0.6-0.1-0.9-0.4l-0.6 0.5c0.1 0.2 0.3 0.4 0.6 0.5s0.5 0.2 0.8 0.2c0.4 0 0.8-0.1 1-0.3 0.3-0.2 0.4-0.5 0.4-0.8s-0.1-0.6-0.3-0.8c-0.1-0.2-0.4-0.3-0.8-0.4z"/><path class="st0" d="m90.2 93.3c-0.1 0.1-0.2 0.2-0.2 0.4s0 0.3 0.1 0.4 0.2 0.1 0.4 0.1c0.1 0 0.3 0 0.4-0.2 0.1-0.1 0.1-0.2 0.1-0.4 0-0.1 0-0.3-0.1-0.4s-0.2-0.2-0.4-0.2c0 0.1-0.2 0.2-0.3 0.3z"/><path class="st0" d="m98.6 93.1c-0.2 0-0.3 0.1-0.4 0.2s-0.2 0.2-0.2 0.4c0 0.1 0.1 0.3 0.2 0.4s0.2 0.2 0.4 0.2c0.2 0 0.3-0.1 0.4-0.2s0.2-0.2 0.2-0.4-0.1-0.3-0.2-0.4c-0.2-0.1-0.3-0.2-0.4-0.2z"/><path class="st0" d="m91.3 94.6c-0.5 0-0.9 0.2-1.2 0.5s-0.5 0.8-0.5 1.4 0.2 1.1 0.4 1.4c0.3 0.3 0.7 0.5 1.2 0.5s0.9-0.2 1.2-0.5 0.4-0.8 0.4-1.4-0.2-1.1-0.5-1.4c-0.1-0.4-0.5-0.5-1-0.5zm0.5 2.6c-0.1 0.2-0.3 0.3-0.5 0.3s-0.4-0.1-0.5-0.3-0.2-0.4-0.2-0.7 0.1-0.6 0.2-0.7c0.1-0.2 0.3-0.3 0.5-0.3s0.4 0.1 0.5 0.3 0.2 0.4 0.2 0.7 0 0.5-0.2 0.7z"/><path class="st0" d="m95.6 96.1c-0.5-0.1-0.7-0.3-0.7-0.4 0-0.2 0.2-0.3 0.5-0.3s0.5 0.1 0.7 0.3l0.6-0.5c-0.3-0.4-0.8-0.6-1.3-0.6-0.4 0-0.7 0.1-0.9 0.3-0.3 0.2-0.4 0.4-0.4 0.8 0 0.3 0.1 0.5 0.3 0.7s0.5 0.3 0.9 0.5c0.2 0.1 0.4 0.2 0.5 0.2 0.1 0.1 0.1 0.1 0.1 0.2 0 0.2-0.2 0.3-0.5 0.3s-0.6-0.1-0.9-0.4l-0.5 0.5c0.1 0.2 0.3 0.4 0.6 0.5s0.5 0.2 0.8 0.2c0.4 0 0.8-0.1 1-0.3 0.3-0.2 0.4-0.5 0.4-0.8s-0.1-0.6-0.3-0.8-0.5-0.3-0.9-0.4z"/><rect class="st0" height="3.6" width=".9" y="94.7" x="98.1"/><path class="st0" d="m105.8 97.5c-0.2 0-0.4-0.1-0.5-0.3s-0.2-0.4-0.2-0.7 0.1-0.6 0.2-0.7c0.1-0.2 0.3-0.3 0.5-0.3 0.3 0 0.5 0.2 0.6 0.5l0.9-0.3c-0.2-0.7-0.7-1.1-1.5-1.1-0.5 0-0.9 0.2-1.2 0.5s-0.5 0.8-0.5 1.4 0.1 1.1 0.4 1.4 0.7 0.5 1.2 0.5c0.8 0 1.3-0.4 1.5-1.2l-0.9-0.3c0 0.4-0.2 0.6-0.5 0.6z"/><path class="st0" d="m74.8 79.6h-1.2l-2.4 6.2h1.3l0.5-1.3h2.4l0.5 1.3h1.3l-2.4-6.2zm-1.4 3.8l0.6-1.6c0.1-0.2 0.2-0.4 0.2-0.6 0 0.1 0.1 0.3 0.2 0.6l0.6 1.6h-1.6z"/><polygon points="150.4 85.8 150.4 80.7 152.2 80.7 152.2 79.6 147.4 79.6 147.4 80.7 149.2 80.7 149.2 85.8" class="st0"/><polygon points="146.3 79.6 141.5 79.6 141.5 80.7 143.3 80.7 143.3 85.8 144.5 85.8 144.5 80.7 146.3 80.7" class="st0"/><rect class="st0" height="1.1" width="2.3" y="82.6" x="93.1"/><polygon points="47.5 80.7 47.5 79.6 43.2 79.6 43.2 85.8 47.7 85.8 47.7 84.7 44.4 84.7 44.4 83.2 46.2 83.2 46.2 82 44.4 82 44.4 80.7" class="st0"/><rect class="st0" height="6.2" width="1.2" y="79.6" x="33.8"/><polygon points="109.5 80.7 109.5 79.6 105.3 79.6 105.3 85.8 109.7 85.8 109.7 84.7 106.5 84.7 106.5 83.2 108.3 83.2 108.3 82 106.5 82 106.5 80.7" class="st0"/><polygon points="29.3 85.8 30.5 85.8 30.5 80.7 32.2 80.7 32.2 79.6 27.5 79.6 27.5 80.7 29.3 80.7" class="st0"/><polygon points="82.2 79.6 77.5 79.6 77.5 80.7 79.2 80.7 79.2 85.8 80.4 85.8 80.4 80.7 82.2 80.7" class="st0"/><rect class="st0" height="6.2" width="1.2" y="79.6" x="83.8"/><polygon points="56 85.8 57.4 85.8 55.2 81.8 57 79.6 55.6 79.6 53.2 82.6 53.2 79.6 52 79.6 52 85.8 53.2 85.8 53.2 84.3 54.4 82.8" class="st0"/><path class="st0" d="m91.9 79.6h-1.3l-1.4 4.1c-0.1 0.2-0.1 0.3-0.1 0.4 0-0.2-0.1-0.3-0.1-0.4l-1.4-4.1h-1.3l2.2 6.2h1.2l2.2-6.2z"/><polygon points="123.1 79.6 121.7 79.6 119.3 82.6 119.3 79.6 118.1 79.6 118.1 85.8 119.3 85.8 119.3 84.3 120.5 82.8 122.1 85.8 123.5 85.8 121.3 81.8" class="st0"/><path class="st0" d="m62.7 83.3c0.4-0.1 0.7-0.4 0.9-0.7s0.3-0.7 0.3-1.1c0-0.6-0.2-1-0.5-1.4s-0.9-0.5-1.6-0.5h-2.9v6.2h1.2v-2.3h1.3l1.2 2.3h1.4l-1.3-2.5zm-0.3-1.2c-0.1 0.2-0.3 0.2-0.6 0.2h-1.7v-1.6h1.7c0.3 0 0.5 0.1 0.6 0.2 0.1 0.2 0.2 0.3 0.2 0.6s0 0.5-0.2 0.6z"/><path class="st0" d="m116 82.6c0.2-0.3 0.3-0.7 0.3-1.1 0-0.6-0.2-1-0.5-1.4s-0.9-0.5-1.6-0.5h-2.9v6.2h1.2v-2.3h1.3l1.2 2.3h1.4l-1.2-2.5c0.3-0.1 0.6-0.3 0.8-0.7zm-1.1-0.5c-0.1 0.2-0.3 0.2-0.6 0.2h-1.7v-1.6h1.7c0.3 0 0.5 0.1 0.6 0.2 0.1 0.2 0.2 0.3 0.2 0.6s-0.1 0.5-0.2 0.6z"/><path class="st0" d="m101.9 83.1c0 0.1-0.1 0.3-0.1 0.5 0-0.2-0.1-0.3-0.1-0.5l-0.9-3.5h-1l-0.8 3.5c0 0.1-0.1 0.3-0.1 0.5 0-0.2-0.1-0.3-0.1-0.5l-0.7-3.5h-1.2l1.3 6.2h1.1l0.9-3.7c0-0.1 0.1-0.3 0.1-0.5 0 0.2 0 0.3 0.1 0.5l0.9 3.7h1.1l1.3-6.2h-1.2l-0.6 3.5z"/><polygon points="66.8 83.2 68.6 83.2 68.6 82 66.8 82 66.8 80.7 69.9 80.7 69.9 79.6 65.6 79.6 65.6 85.8 70 85.8 70 84.7 66.8 84.7" class="st0"/><path class="st0" d="m138.9 79.6h-1.2l-2.4 6.2h1.3l0.5-1.3h2.4l0.5 1.3h1.3l-2.4-6.2zm-1.4 3.8l0.6-1.6c0.1-0.2 0.2-0.4 0.2-0.6 0 0.1 0.1 0.3 0.2 0.6l0.6 1.6h-1.6z"/><path class="st0" d="m17.4 79.6h-1.2l-2.4 6.2h1.3l0.5-1.3h2.4l0.5 1.3h1.3l-2.4-6.2zm-1.4 3.8l0.6-1.6c0.1-0.2 0.2-0.4 0.2-0.6 0 0.1 0.1 0.3 0.2 0.6l0.6 1.6h-1.6z"/><path class="st0" d="m40.7 79.6l-1.4 4.1c-0.1 0.2-0.1 0.3-0.1 0.4 0-0.2-0.1-0.3-0.1-0.4l-1.4-4.1h-1.3l2.2 6.2h1.2l2.2-6.2h-1.3z"/><polygon points="26.6 85.8 24.4 81.8 26.2 79.6 24.8 79.6 22.5 82.6 22.5 79.6 21.3 79.6 21.3 85.8 22.5 85.8 22.5 84.3 23.6 82.8 25.2 85.8" class="st0"/><polygon points="130.3 80.7 132.1 80.7 132.1 85.8 133.3 85.8 133.3 80.7 135.1 80.7 135.1 79.6 130.3 79.6" class="st0"/><path class="st0" d="m129 83.4c-0.1-0.2-0.1-0.3-0.3-0.5l-0.3-0.3c-0.1-0.1-0.3-0.2-0.5-0.3s-0.4-0.2-0.5-0.2-0.3-0.1-0.5-0.2c-0.3-0.1-0.5-0.2-0.6-0.2s-0.2-0.1-0.4-0.2c-0.1-0.1-0.2-0.2-0.2-0.3 0-0.2 0.1-0.3 0.2-0.4s0.3-0.2 0.6-0.2c0.5 0 0.9 0.2 1.1 0.7l1.1-0.4c-0.1-0.4-0.4-0.8-0.7-1-0.4-0.3-0.8-0.4-1.3-0.4-0.6 0-1.2 0.2-1.5 0.5-0.4 0.3-0.6 0.7-0.6 1.2 0 0.2 0 0.5 0.1 0.6 0.1 0.2 0.2 0.3 0.3 0.5 0.1 0.1 0.3 0.2 0.5 0.3s0.4 0.2 0.5 0.2 0.3 0.1 0.6 0.2c0.2 0.1 0.4 0.1 0.5 0.2 0.1 0 0.2 0.1 0.4 0.2l0.3 0.3c0.1 0.1 0.1 0.2 0.1 0.3 0 0.2-0.1 0.4-0.3 0.6-0.2 0.1-0.4 0.2-0.7 0.2s-0.6-0.1-0.8-0.3-0.4-0.4-0.6-0.7l-1.1 0.4c0.2 0.5 0.5 1 0.9 1.3s0.9 0.5 1.5 0.5c0.7 0 1.2-0.2 1.6-0.5s0.6-0.8 0.6-1.4v-0.7z"/></svg>
