<?xml version="1.0" encoding="UTF-8" standalone="no"?>
<svg
   xmlns:dc="http://purl.org/dc/elements/1.1/"
   xmlns:cc="http://creativecommons.org/ns#"
   xmlns:rdf="http://www.w3.org/1999/02/22-rdf-syntax-ns#"
   xmlns:svg="http://www.w3.org/2000/svg"
   xmlns="http://www.w3.org/2000/svg"
   id="svg4559"
   version="1.1"
   viewBox="0 0 11.112501 11.1125"
   height="42"
   width="42">
  <defs
     id="defs4553" />
  <metadata
     id="metadata4556">
    <rdf:RDF>
      <cc:Work
         rdf:about="">
        <dc:format>image/svg+xml</dc:format>
        <dc:type
           rdf:resource="http://purl.org/dc/dcmitype/StillImage" />
        <dc:title></dc:title>
      </cc:Work>
    </rdf:RDF>
  </metadata>
  <g
     transform="translate(-84.922694,-64.743553)"
     id="layer1">
    <g
       id="g54"
       style="fill:#7d3253"
       transform="matrix(0.71332558,0,0,0.69895566,77.218778,54.250034)">
      <path
         id="path44"
         class="st1"
         d="m 16.3,20 c -0.2,-0.6 -0.9,-2.1 -1.4,-3 l 0.8,3.1 h 0.2 C 16,20 16.2,20 16.3,20" />
      <path
         id="path46"
         class="st1"
         d="m 17.4,22.2 c -0.2,-0.4 -0.3,-0.4 -3,0.4 -0.9,0.3 -2.1,0.6 -3.6,1.1 0.3,0.1 0.9,0.3 2.4,0.1 2.8,-0.3 3.4,-0.7 3.6,-0.2 0.2,0.5 0.7,3.7 0.6,4.9 0,0.8 0.2,1.3 0.4,1.5 0,-0.2 0,-0.5 0.1,-0.9 0.1,-1.6 0.5,-4.6 -0.5,-6.9" />
      <path
         id="path48"
         class="st1"
         d="m 22.3,20.6 c 0.2,0.1 0.4,0.2 0.7,0.3 0.7,-0.5 1.8,-1.3 2.3,-1.8 -1.2,0.3 -2.8,0.8 -3.3,1.3 0.1,0.1 0.2,0.2 0.3,0.2" />
      <path
         id="path50"
         class="st1"
         d="m 25.1,25.5 c -0.9,-0.9 -2.5,-2.3 -4.2,-2.1 0,0.1 0,0.1 -0.1,0.2 0,0.2 -0.1,0.5 -0.2,0.8 1.3,0 3.3,0.6 4.5,1.1" />
      <path
         id="path52"
         class="st1"
         d="M 23.5,22.1 C 23.2,21.8 22.8,21.6 22.4,21.4 22.3,21.3 22.1,21.3 22,21.2 21.6,21 21.3,20.9 21.3,20.6 v -0.4 c 0.4,-0.6 2.2,-1.2 3.3,-1.5 0.2,-0.1 0.5,-0.1 0.6,-0.2 0,-0.1 0,-0.2 -0.2,-0.3 -2.2,-0.9 -4.4,0.4 -5.2,0.9 -0.3,0.2 -0.6,0.4 -0.8,0.1 -0.3,-0.5 -1.5,-2.2 -3.4,-3.2 -0.2,-0.1 -0.5,-0.1 -0.7,0 0.1,0.1 0.2,0.3 0.4,0.6 0.6,1.1 1.8,3.3 1.6,3.7 -0.1,0.1 -0.2,0.2 -0.5,0.3 -0.1,0 -0.3,0.1 -0.4,0.1 -0.7,0.2 -1.7,0.4 -2.9,0.9 -1,0.4 -1.6,0.9 -1.9,1.3 0.3,-0.1 0.5,-0.2 0.8,-0.2 0.9,-0.2 1.6,-0.5 2.2,-0.7 1.5,-0.5 2.4,-0.7 2.9,-0.7 0.5,0 0.7,0.2 0.9,0.7 1,2.4 0.6,5.5 0.4,7.2 0,0.2 -0.1,0.5 -0.1,0.7 0.9,-0.5 1.3,-3.1 1.6,-4.8 0,-0.1 0,-0.2 0.1,-0.4 0.2,-1.4 0.3,-1.8 0.7,-1.8 h 0.2 c 0.7,-0.1 1.3,0.1 1.9,0.3 1.2,0.5 2.1,1.4 2.8,2 0.2,0.1 0.3,0.3 0.4,0.4 v -0.1 c 0.1,-0.7 -0.8,-1.8 -2.5,-3.4" />
    </g>
  </g>
</svg>
